<svg xmlns="http://www.w3.org/2000/svg" xmlns:xlink="http://www.w3.org/1999/xlink" version="1.1" width="3300" height="2200">
 <!--glyph: "", point size: 100.0, font version: "17.1d1e1", template writer version: "65.1"-->
<style>

.hierarchical-1:primary {fill:#262626;}
.SFSymbolsPreview262626 {fill:#262626;}
</style>
 <g id="Notes">
  <rect height="2200" id="artboard" style="fill:white;opacity:1" width="3300" x="0" y="0"/>
  <line style="fill:none;stroke:black;opacity:1;stroke-width:0.5;" x1="263" x2="3036" y1="292" y2="292"/>
  <text style="stroke:none;fill:black;font-family:sans-serif;font-size:13;font-weight:bold;" transform="matrix(1 0 0 1 263 322)">Weight/Scale Variations</text>
  <text style="stroke:none;fill:black;font-family:sans-serif;font-size:13;text-anchor:middle;" transform="matrix(1 0 0 1 559.711 322)">Ultralight</text>
  <text style="stroke:none;fill:black;font-family:sans-serif;font-size:13;text-anchor:middle;" transform="matrix(1 0 0 1 856.422 322)">Thin</text>
  <text style="stroke:none;fill:black;font-family:sans-serif;font-size:13;text-anchor:middle;" transform="matrix(1 0 0 1 1153.13 322)">Light</text>
  <text style="stroke:none;fill:black;font-family:sans-serif;font-size:13;text-anchor:middle;" transform="matrix(1 0 0 1 1449.84 322)">Regular</text>
  <text style="stroke:none;fill:black;font-family:sans-serif;font-size:13;text-anchor:middle;" transform="matrix(1 0 0 1 1746.56 322)">Medium</text>
  <text style="stroke:none;fill:black;font-family:sans-serif;font-size:13;text-anchor:middle;" transform="matrix(1 0 0 1 2043.27 322)">Semibold</text>
  <text style="stroke:none;fill:black;font-family:sans-serif;font-size:13;text-anchor:middle;" transform="matrix(1 0 0 1 2339.98 322)">Bold</text>
  <text style="stroke:none;fill:black;font-family:sans-serif;font-size:13;text-anchor:middle;" transform="matrix(1 0 0 1 2636.69 322)">Heavy</text>
  <text style="stroke:none;fill:black;font-family:sans-serif;font-size:13;text-anchor:middle;" transform="matrix(1 0 0 1 2933.4 322)">Black</text>
  <line style="fill:none;stroke:black;opacity:1;stroke-width:0.5;" x1="263" x2="3036" y1="1903" y2="1903"/>
  <g transform="matrix(1 0 0 1 263 1933)">
   <path d="M9.24805 0.830078Q10.8691 0.830078 12.2949 0.214844Q13.7207-0.400391 14.8096-1.49414Q15.8984-2.58789 16.5186-4.01367Q17.1387-5.43945 17.1387-7.05078Q17.1387-8.66211 16.5186-10.0879Q15.8984-11.5137 14.8047-12.6074Q13.7109-13.7012 12.2852-14.3164Q10.8594-14.9316 9.23828-14.9316Q7.62695-14.9316 6.20117-14.3164Q4.77539-13.7012 3.69141-12.6074Q2.60742-11.5137 1.9873-10.0879Q1.36719-8.66211 1.36719-7.05078Q1.36719-5.43945 1.9873-4.01367Q2.60742-2.58789 3.69629-1.49414Q4.78516-0.400391 6.21094 0.214844Q7.63672 0.830078 9.24805 0.830078ZM9.24805-0.654297Q7.91992-0.654297 6.7627-1.14746Q5.60547-1.64062 4.73145-2.51953Q3.85742-3.39844 3.36426-4.56055Q2.87109-5.72266 2.87109-7.05078Q2.87109-8.37891 3.35938-9.54102Q3.84766-10.7031 4.72168-11.582Q5.5957-12.4609 6.75293-12.9541Q7.91016-13.4473 9.23828-13.4473Q10.5762-13.4473 11.7334-12.9541Q12.8906-12.4609 13.7695-11.582Q14.6484-10.7031 15.1465-9.54102Q15.6445-8.37891 15.6445-7.05078Q15.6445-5.72266 15.1514-4.56055Q14.6582-3.39844 13.7842-2.51953Q12.9102-1.64062 11.748-1.14746Q10.5859-0.654297 9.24805-0.654297ZM5.6543-7.05078Q5.6543-6.72852 5.85938-6.52832Q6.06445-6.32812 6.40625-6.32812L8.51562-6.32812L8.51562-4.20898Q8.51562-3.88672 8.71094-3.67676Q8.90625-3.4668 9.23828-3.4668Q9.56055-3.4668 9.77051-3.67676Q9.98047-3.88672 9.98047-4.20898L9.98047-6.32812L12.0898-6.32812Q12.4219-6.32812 12.627-6.52832Q12.832-6.72852 12.832-7.05078Q12.832-7.38281 12.627-7.58789Q12.4219-7.79297 12.0898-7.79297L9.98047-7.79297L9.98047-9.90234Q9.98047-10.2344 9.77051-10.4443Q9.56055-10.6543 9.23828-10.6543Q8.90625-10.6543 8.71094-10.4443Q8.51562-10.2344 8.51562-9.90234L8.51562-7.79297L6.40625-7.79297Q6.06445-7.79297 5.85938-7.58789Q5.6543-7.38281 5.6543-7.05078Z"/>
  </g>
  <g transform="matrix(1 0 0 1 281.867 1933)">
   <path d="M11.709 2.91016Q13.75 2.91016 15.5518 2.12891Q17.3535 1.34766 18.7305-0.0292969Q20.1074-1.40625 20.8887-3.20801Q21.6699-5.00977 21.6699-7.05078Q21.6699-9.0918 20.8887-10.8936Q20.1074-12.6953 18.7305-14.0723Q17.3535-15.4492 15.5469-16.2305Q13.7402-17.0117 11.6992-17.0117Q9.6582-17.0117 7.85645-16.2305Q6.05469-15.4492 4.68262-14.0723Q3.31055-12.6953 2.5293-10.8936Q1.74805-9.0918 1.74805-7.05078Q1.74805-5.00977 2.5293-3.20801Q3.31055-1.40625 4.6875-0.0292969Q6.06445 1.34766 7.86621 2.12891Q9.66797 2.91016 11.709 2.91016ZM11.709 1.25Q9.98047 1.25 8.47656 0.605469Q6.97266-0.0390625 5.83496-1.17676Q4.69727-2.31445 4.05762-3.81836Q3.41797-5.32227 3.41797-7.05078Q3.41797-8.7793 4.05762-10.2832Q4.69727-11.7871 5.83008-12.9297Q6.96289-14.0723 8.4668-14.7119Q9.9707-15.3516 11.6992-15.3516Q13.4277-15.3516 14.9316-14.7119Q16.4355-14.0723 17.5781-12.9297Q18.7207-11.7871 19.3652-10.2832Q20.0098-8.7793 20.0098-7.05078Q20.0098-5.32227 19.3701-3.81836Q18.7305-2.31445 17.5928-1.17676Q16.4551-0.0390625 14.9463 0.605469Q13.4375 1.25 11.709 1.25ZM7.17773-7.05078Q7.17773-6.69922 7.41211-6.47461Q7.64648-6.25 8.01758-6.25L10.8887-6.25L10.8887-3.36914Q10.8887-2.99805 11.1133-2.76855Q11.3379-2.53906 11.6895-2.53906Q12.0605-2.53906 12.29-2.76855Q12.5195-2.99805 12.5195-3.36914L12.5195-6.25L15.4004-6.25Q15.7715-6.25 16.001-6.47461Q16.2305-6.69922 16.2305-7.05078Q16.2305-7.42188 16.001-7.65137Q15.7715-7.88086 15.4004-7.88086L12.5195-7.88086L12.5195-10.752Q12.5195-11.1328 12.29-11.3623Q12.0605-11.5918 11.6895-11.5918Q11.3379-11.5918 11.1133-11.3574Q10.8887-11.123 10.8887-10.752L10.8887-7.88086L8.01758-7.88086Q7.63672-7.88086 7.40723-7.65137Q7.17773-7.42188 7.17773-7.05078Z"/>
  </g>
  <g transform="matrix(1 0 0 1 305.646 1933)">
   <path d="M14.9707 5.66406Q17.0605 5.66406 18.96 5.01465Q20.8594 4.36523 22.4512 3.19336Q24.043 2.02148 25.2197 0.429688Q26.3965-1.16211 27.0459-3.06641Q27.6953-4.9707 27.6953-7.05078Q27.6953-9.14062 27.0459-11.04Q26.3965-12.9395 25.2197-14.5312Q24.043-16.123 22.4512-17.2998Q20.8594-18.4766 18.9551-19.126Q17.0508-19.7754 14.9609-19.7754Q12.8711-19.7754 10.9717-19.126Q9.07227-18.4766 7.48535-17.2998Q5.89844-16.123 4.72168-14.5312Q3.54492-12.9395 2.90039-11.04Q2.25586-9.14062 2.25586-7.05078Q2.25586-4.9707 2.90527-3.06641Q3.55469-1.16211 4.72656 0.429688Q5.89844 2.02148 7.49023 3.19336Q9.08203 4.36523 10.9814 5.01465Q12.8809 5.66406 14.9707 5.66406ZM14.9707 3.84766Q13.1641 3.84766 11.5283 3.2959Q9.89258 2.74414 8.53516 1.74805Q7.17773 0.751953 6.17676-0.610352Q5.17578-1.97266 4.62891-3.6084Q4.08203-5.24414 4.08203-7.05078Q4.08203-8.86719 4.62891-10.5029Q5.17578-12.1387 6.17188-13.501Q7.16797-14.8633 8.52539-15.8594Q9.88281-16.8555 11.5186-17.4023Q13.1543-17.9492 14.9609-17.9492Q16.7773-17.9492 18.4131-17.4023Q20.0488-16.8555 21.4111-15.8594Q22.7734-14.8633 23.7695-13.501Q24.7656-12.1387 25.3174-10.5029Q25.8691-8.86719 25.8691-7.05078Q25.8789-5.24414 25.332-3.6084Q24.7852-1.97266 23.7842-0.610352Q22.7832 0.751953 21.4209 1.74805Q20.0586 2.74414 18.4229 3.2959Q16.7871 3.84766 14.9707 3.84766ZM9.19922-7.05078Q9.19922-6.66992 9.45801-6.4209Q9.7168-6.17188 10.1172-6.17188L14.0625-6.17188L14.0625-2.2168Q14.0625-1.81641 14.3115-1.55762Q14.5605-1.29883 14.9512-1.29883Q15.3516-1.29883 15.6104-1.55273Q15.8691-1.80664 15.8691-2.2168L15.8691-6.17188L19.8242-6.17188Q20.2246-6.17188 20.4785-6.4209Q20.7324-6.66992 20.7324-7.05078Q20.7324-7.46094 20.4785-7.71484Q20.2246-7.96875 19.8242-7.96875L15.8691-7.96875L15.8691-11.9141Q15.8691-12.3242 15.6104-12.583Q15.3516-12.8418 14.9512-12.8418Q14.5605-12.8418 14.3115-12.583Q14.0625-12.3242 14.0625-11.9141L14.0625-7.96875L10.1172-7.96875Q9.70703-7.96875 9.45312-7.71484Q9.19922-7.46094 9.19922-7.05078Z"/>
  </g>
  <text style="stroke:none;fill:black;font-family:sans-serif;font-size:13;font-weight:bold;" transform="matrix(1 0 0 1 263 1953)">Design Variations</text>
  <text style="stroke:none;fill:black;font-family:sans-serif;font-size:13;" transform="matrix(1 0 0 1 263 1971)">Symbols are supported in up to nine weights and three scales.</text>
  <text style="stroke:none;fill:black;font-family:sans-serif;font-size:13;" transform="matrix(1 0 0 1 263 1989)">For optimal layout with text and other symbols, vertically align</text>
  <text style="stroke:none;fill:black;font-family:sans-serif;font-size:13;" transform="matrix(1 0 0 1 263 2007)">symbols with the adjacent text.</text>
  <line style="fill:none;stroke:#00AEEF;stroke-width:0.5;opacity:1.0;" x1="776" x2="776" y1="1919" y2="1933"/>
  <g transform="matrix(1 0 0 1 776 1933)">
   <path d="M3.31055 0.15625Q3.70117 0.15625 3.91602-0.00976562Q4.13086-0.175781 4.26758-0.585938L5.52734-4.0332L11.2891-4.0332L12.5488-0.585938Q12.6855-0.175781 12.9004-0.00976562Q13.1152 0.15625 13.4961 0.15625Q13.8867 0.15625 14.1162-0.0585938Q14.3457-0.273438 14.3457-0.644531Q14.3457-0.869141 14.2383-1.17188L9.6582-13.3691Q9.48242-13.8184 9.17969-14.043Q8.87695-14.2676 8.4082-14.2676Q7.5-14.2676 7.17773-13.3789L2.59766-1.16211Q2.49023-0.859375 2.49023-0.634766Q2.49023-0.263672 2.70996-0.0537109Q2.92969 0.15625 3.31055 0.15625ZM6.00586-5.51758L8.37891-12.0898L8.42773-12.0898L10.8008-5.51758Z"/>
  </g>
  <line style="fill:none;stroke:#00AEEF;stroke-width:0.5;opacity:1.0;" x1="793.197" x2="793.197" y1="1919" y2="1933"/>
  <text style="stroke:none;fill:black;font-family:sans-serif;font-size:13;font-weight:bold;" transform="matrix(1 0 0 1 776 1953)">Margins</text>
  <text style="stroke:none;fill:black;font-family:sans-serif;font-size:13;" transform="matrix(1 0 0 1 776 1971)">Leading and trailing margins on the left and right side of each symbol</text>
  <text style="stroke:none;fill:black;font-family:sans-serif;font-size:13;" transform="matrix(1 0 0 1 776 1989)">can be adjusted by modifying the x-location of the margin guidelines.</text>
  <text style="stroke:none;fill:black;font-family:sans-serif;font-size:13;" transform="matrix(1 0 0 1 776 2007)">Modifications are automatically applied proportionally to all</text>
  <text style="stroke:none;fill:black;font-family:sans-serif;font-size:13;" transform="matrix(1 0 0 1 776 2025)">scales and weights.</text>
  <g transform="matrix(1 0 0 1 1289 1933)">
   <path d="M2.8418 1.86523L4.54102 3.57422Q5.18555 4.22852 5.90332 4.17969Q6.62109 4.13086 7.31445 3.35938L18.0078-8.42773L17.041-9.4043L6.42578 2.27539Q6.16211 2.57812 5.89355 2.61719Q5.625 2.65625 5.27344 2.30469L4.10156 1.14258Q3.75 0.791016 3.79395 0.522461Q3.83789 0.253906 4.14062-0.0195312L15.6152-10.8203L14.6387-11.7871L3.04688-0.898438Q2.30469-0.214844 2.25098 0.498047Q2.19727 1.21094 2.8418 1.86523ZM9.25781-16.3281Q8.94531-16.0254 8.90625-15.6348Q8.86719-15.2441 9.04297-14.9512Q9.21875-14.6777 9.55566-14.541Q9.89258-14.4043 10.3809-14.5215Q11.4746-14.7754 12.5977-14.7314Q13.7207-14.6875 14.7949-13.9844L14.209-12.5293Q13.9551-11.9043 14.0674-11.4404Q14.1797-10.9766 14.5801-10.5664L16.875-8.25195Q17.2363-7.88086 17.5781-7.82227Q17.9199-7.76367 18.3398-7.8418L19.4043-8.03711L20.0684-7.36328L20.0293-6.80664Q20-6.43555 20.1221-6.12305Q20.2441-5.81055 20.6055-5.44922L21.3672-4.70703Q21.7285-4.3457 22.1533-4.33105Q22.5781-4.31641 22.9297-4.66797L25.8398-7.58789Q26.1914-7.93945 26.1816-8.35449Q26.1719-8.76953 25.8105-9.13086L25.0391-9.89258Q24.6875-10.2539 24.3799-10.3857Q24.0723-10.5176 23.7109-10.4883L23.1348-10.4395L22.4902-11.0742L22.7344-12.1973Q22.832-12.6172 22.6953-12.9834Q22.5586-13.3496 22.1191-13.7891L19.9219-15.9766Q18.6719-17.2168 17.2607-17.8369Q15.8496-18.457 14.4189-18.4814Q12.9883-18.5059 11.665-17.959Q10.3418-17.4121 9.25781-16.3281ZM10.752-15.957Q11.6602-16.6211 12.7002-16.9043Q13.7402-17.1875 14.8047-17.085Q15.8691-16.9824 16.8701-16.5137Q17.8711-16.0449 18.7012-15.2051L21.1328-12.793Q21.3086-12.6172 21.3525-12.4512Q21.3965-12.2852 21.3379-12.0312L21.0156-10.5469L22.5195-9.0625L23.5059-9.12109Q23.6914-9.13086 23.7891-9.09668Q23.8867-9.0625 24.0332-8.91602L24.6094-8.33984L22.168-5.89844L21.5918-6.47461Q21.4453-6.62109 21.4062-6.71875Q21.3672-6.81641 21.377-7.01172L21.4453-7.98828L19.9512-9.47266L18.4277-9.21875Q18.1836-9.16992 18.042-9.2041Q17.9004-9.23828 17.7148-9.41406L15.7129-11.416Q15.5176-11.5918 15.4932-11.7529Q15.4688-11.9141 15.5859-12.1875L16.4648-14.2773Q15.293-15.3711 13.8281-15.791Q12.3633-16.2109 10.8398-15.7617Q10.7227-15.7324 10.6885-15.8057Q10.6543-15.8789 10.752-15.957Z"/>
  </g>
  <text style="stroke:none;fill:black;font-family:sans-serif;font-size:13;font-weight:bold;" transform="matrix(1 0 0 1 1289 1953)">Exporting</text>
  <text style="stroke:none;fill:black;font-family:sans-serif;font-size:13;" transform="matrix(1 0 0 1 1289 1971)">Symbols should be outlined when exporting to ensure the</text>
  <text style="stroke:none;fill:black;font-family:sans-serif;font-size:13;" transform="matrix(1 0 0 1 1289 1989)">design is preserved when submitting to Xcode.</text>
  <text id="template-version" style="stroke:none;fill:black;font-family:sans-serif;font-size:13;text-anchor:end;" transform="matrix(1 0 0 1 3036 1933)">Template v.3.0</text>
  <text style="stroke:none;fill:black;font-family:sans-serif;font-size:13;text-anchor:end;" transform="matrix(1 0 0 1 3036 1951)">Requires Xcode 13 or greater</text>
  <text id="descriptive-name" style="stroke:none;fill:black;font-family:sans-serif;font-size:13;text-anchor:end;" transform="matrix(1 0 0 1 3036 1969)">Symbol moniker: network-hdd</text>
  <text style="stroke:none;fill:black;font-family:sans-serif;font-size:13;text-anchor:end;" transform="matrix(1 0 0 1 3036 1987)">Typeset at 100 points</text>
  <text style="stroke:none;fill:black;font-family:sans-serif;font-size:13;" transform="matrix(1 0 0 1 263 726)">Small</text>
  <text style="stroke:none;fill:black;font-family:sans-serif;font-size:13;" transform="matrix(1 0 0 1 263 1156)">Medium</text>
  <text style="stroke:none;fill:black;font-family:sans-serif;font-size:13;" transform="matrix(1 0 0 1 263 1586)">Large</text>
 </g>
 <g id="Guides">
  <g id="H-reference" style="fill:#27AAE1;stroke:none;" transform="matrix(1 0 0 1 339 696)">
   <path d="M0.976562 0L3.66211 0L29.3457-67.1387L30.0293-67.1387L30.0293-70.459L28.125-70.459ZM11.6699-24.4629L46.9727-24.4629L46.2402-26.709L12.4512-26.709ZM55.127 0L57.7637 0L30.6152-70.459L29.4434-70.459L29.4434-67.1387Z"/>
  </g>
  <line id="Baseline-S" style="fill:none;stroke:#27AAE1;opacity:1;stroke-width:0.5;" x1="263" x2="3036" y1="696" y2="696"/>
  <line id="Capline-S" style="fill:none;stroke:#27AAE1;opacity:1;stroke-width:0.5;" x1="263" x2="3036" y1="625.541" y2="625.541"/>
  <g id="H-reference" style="fill:#27AAE1;stroke:none;" transform="matrix(1 0 0 1 339 1126)">
   <path d="M0.976562 0L3.66211 0L29.3457-67.1387L30.0293-67.1387L30.0293-70.459L28.125-70.459ZM11.6699-24.4629L46.9727-24.4629L46.2402-26.709L12.4512-26.709ZM55.127 0L57.7637 0L30.6152-70.459L29.4434-70.459L29.4434-67.1387Z"/>
  </g>
  <line id="Baseline-M" style="fill:none;stroke:#27AAE1;opacity:1;stroke-width:0.5;" x1="263" x2="3036" y1="1126" y2="1126"/>
  <line id="Capline-M" style="fill:none;stroke:#27AAE1;opacity:1;stroke-width:0.5;" x1="263" x2="3036" y1="1055.54" y2="1055.54"/>
  <g id="H-reference" style="fill:#27AAE1;stroke:none;" transform="matrix(1 0 0 1 339 1556)">
   <path d="M0.976562 0L3.66211 0L29.3457-67.1387L30.0293-67.1387L30.0293-70.459L28.125-70.459ZM11.6699-24.4629L46.9727-24.4629L46.2402-26.709L12.4512-26.709ZM55.127 0L57.7637 0L30.6152-70.459L29.4434-70.459L29.4434-67.1387Z"/>
  </g>
  <line id="Baseline-L" style="fill:none;stroke:#27AAE1;opacity:1;stroke-width:0.5;" x1="263" x2="3036" y1="1556" y2="1556"/>
  <line id="Capline-L" style="fill:none;stroke:#27AAE1;opacity:1;stroke-width:0.5;" x1="263" x2="3036" y1="1485.54" y2="1485.54"/>
  <line id="left-margin-Ultralight-S" style="fill:none;stroke:#00AEEF;stroke-width:0.5;opacity:1.0;" x1="515.351" x2="515.351" y1="600.784" y2="720.121"/>
  <line id="right-margin-Ultralight-S" style="fill:none;stroke:#00AEEF;stroke-width:0.5;opacity:1.0;" x1="604.071" x2="604.071" y1="600.784" y2="720.121"/>
  <line id="left-margin-Regular-S" style="fill:none;stroke:#00AEEF;stroke-width:0.5;opacity:1.0;" x1="1401.75" x2="1401.75" y1="600.784" y2="720.121"/>
  <line id="right-margin-Regular-S" style="fill:none;stroke:#00AEEF;stroke-width:0.5;opacity:1.0;" x1="1497.94" x2="1497.94" y1="600.784" y2="720.121"/>
  <line id="left-margin-Black-S" style="fill:none;stroke:#00AEEF;stroke-width:0.5;opacity:1.0;" x1="2883.2" x2="2883.2" y1="600.784" y2="720.121"/>
  <line id="right-margin-Black-S" style="fill:none;stroke:#00AEEF;stroke-width:0.5;opacity:1.0;" x1="2983.6" x2="2983.6" y1="600.784" y2="720.121"/>
 </g>
 <g id="Symbols">
  <g id="Black-L" transform="matrix(1,0,0,1,2853.3999999999996,1440.77)">

  <path d="M43.95348837209302 43.1578947368421C46.65060465116279 43.1578947368421 48.83720930232558 40.408842105263155 48.83720930232558 37.01747368421053 48.83720930232558 33.62631578947368 46.65060465116279 30.877263157894735 43.95348837209302 30.877263157894735 41.25637209302325 30.877263157894735 39.06976744186046 33.62631578947368 39.06976744186046 37.01747368421053 39.06976744186046 40.408842105263155 41.25637209302325 43.1578947368421 43.95348837209302 43.1578947368421Z" class="hierarchical-1:primary "/><path d="M29.302325581395348 37.01747368421053C29.302325581395348 40.408842105263155 27.11572093023256 43.1578947368421 24.41860465116279 43.1578947368421 21.721488372093024 43.1578947368421 19.53488372093023 40.408842105263155 19.53488372093023 37.01747368421053 19.53488372093023 33.62631578947368 21.721488372093024 30.877263157894735 24.41860465116279 30.877263157894735 27.11572093023256 30.877263157894735 29.302325581395348 33.62631578947368 29.302325581395348 37.01747368421053Z" class="hierarchical-1:primary "/><path d="M0 30.877263157894735C0 17.312315789473683 8.74606511627907 6.315789473684211 19.53488372093023 6.315789473684211H136.74418604651163C147.53302325581396 6.315789473684211 156.27906976744185 17.312315789473683 156.27906976744185 30.877263157894735V43.1578947368421C156.27906976744185 56.72273684210526 147.53302325581396 67.71936842105262 136.74418604651163 67.71936842105262H83.02325581395348V104.56147368421051C91.11479069767442 104.56147368421051 97.67441860465117 112.80884210526315 97.67441860465117 122.98252631578947H151.3953488372093C154.09246511627907 122.98252631578947 156.27906976744185 125.7315789473684 156.27906976744185 129.12273684210527 156.27906976744185 132.5141052631579 154.09246511627907 135.26315789473682 151.3953488372093 135.26315789473682H97.67441860465117C97.67441860465117 145.43684210526314 91.11479069767442 153.68421052631578 83.02325581395348 153.68421052631578H73.25581395348837C65.16427906976743 153.68421052631578 58.604651162790695 145.43684210526314 58.604651162790695 135.26315789473682H4.883720930232558C2.1865116279069765 135.26315789473682 0 132.5141052631579 0 129.12273684210527 0 125.7315789473684 2.1865116279069765 122.98252631578947 4.883720930232558 122.98252631578947H58.604651162790695C58.604651162790695 112.80884210526315 65.16427906976743 104.56147368421051 73.25581395348837 104.56147368421051V67.71936842105262H19.53488372093023C8.74606511627907 67.71936842105262 0 56.72273684210526 0 43.1578947368421V30.877263157894735ZM9.767441860465116 30.877263157894735V43.1578947368421C9.767441860465116 49.94042105263157 14.140483720930233 55.438526315789474 19.53488372093023 55.438526315789474H136.74418604651163C142.1386046511628 55.438526315789474 146.51162790697674 49.94042105263157 146.51162790697674 43.1578947368421V30.877263157894735C146.51162790697674 24.094736842105263 142.1386046511628 18.596484210526317 136.74418604651163 18.596484210526317H19.53488372093023C14.14046511627907 18.596484210526317 9.767441860465116 24.094736842105263 9.767441860465116 30.877263157894735ZM68.37209302325581 122.98252631578947V135.26315789473682C68.37209302325581 138.65431578947369 70.55869767441861 141.40357894736843 73.25581395348837 141.40357894736843H83.02325581395348C85.72037209302326 141.40357894736843 87.90697674418604 138.65431578947369 87.90697674418604 135.26315789473682V122.98252631578947C87.90697674418604 119.59115789473682 85.72037209302326 116.84210526315789 83.02325581395348 116.84210526315789H73.25581395348837C70.55869767441861 116.84210526315789 68.37209302325581 119.59115789473682 68.37209302325581 122.98252631578947Z" class="hierarchical-1:primary "/></g>
  <g id="Regular-L" transform="matrix(1,0,0,1,1369.845,1440.77)">

  <path d="M43.95348837209302 43.1578947368421C46.65060465116279 43.1578947368421 48.83720930232558 40.408842105263155 48.83720930232558 37.01747368421053 48.83720930232558 33.62631578947368 46.65060465116279 30.877263157894735 43.95348837209302 30.877263157894735 41.25637209302325 30.877263157894735 39.06976744186046 33.62631578947368 39.06976744186046 37.01747368421053 39.06976744186046 40.408842105263155 41.25637209302325 43.1578947368421 43.95348837209302 43.1578947368421Z" class="hierarchical-1:primary "/><path d="M29.302325581395348 37.01747368421053C29.302325581395348 40.408842105263155 27.11572093023256 43.1578947368421 24.41860465116279 43.1578947368421 21.721488372093024 43.1578947368421 19.53488372093023 40.408842105263155 19.53488372093023 37.01747368421053 19.53488372093023 33.62631578947368 21.721488372093024 30.877263157894735 24.41860465116279 30.877263157894735 27.11572093023256 30.877263157894735 29.302325581395348 33.62631578947368 29.302325581395348 37.01747368421053Z" class="hierarchical-1:primary "/><path d="M0 30.877263157894735C0 17.312315789473683 8.74606511627907 6.315789473684211 19.53488372093023 6.315789473684211H136.74418604651163C147.53302325581396 6.315789473684211 156.27906976744185 17.312315789473683 156.27906976744185 30.877263157894735V43.1578947368421C156.27906976744185 56.72273684210526 147.53302325581396 67.71936842105262 136.74418604651163 67.71936842105262H83.02325581395348V104.56147368421051C91.11479069767442 104.56147368421051 97.67441860465117 112.80884210526315 97.67441860465117 122.98252631578947H151.3953488372093C154.09246511627907 122.98252631578947 156.27906976744185 125.7315789473684 156.27906976744185 129.12273684210527 156.27906976744185 132.5141052631579 154.09246511627907 135.26315789473682 151.3953488372093 135.26315789473682H97.67441860465117C97.67441860465117 145.43684210526314 91.11479069767442 153.68421052631578 83.02325581395348 153.68421052631578H73.25581395348837C65.16427906976743 153.68421052631578 58.604651162790695 145.43684210526314 58.604651162790695 135.26315789473682H4.883720930232558C2.1865116279069765 135.26315789473682 0 132.5141052631579 0 129.12273684210527 0 125.7315789473684 2.1865116279069765 122.98252631578947 4.883720930232558 122.98252631578947H58.604651162790695C58.604651162790695 112.80884210526315 65.16427906976743 104.56147368421051 73.25581395348837 104.56147368421051V67.71936842105262H19.53488372093023C8.74606511627907 67.71936842105262 0 56.72273684210526 0 43.1578947368421V30.877263157894735ZM9.767441860465116 30.877263157894735V43.1578947368421C9.767441860465116 49.94042105263157 14.140483720930233 55.438526315789474 19.53488372093023 55.438526315789474H136.74418604651163C142.1386046511628 55.438526315789474 146.51162790697674 49.94042105263157 146.51162790697674 43.1578947368421V30.877263157894735C146.51162790697674 24.094736842105263 142.1386046511628 18.596484210526317 136.74418604651163 18.596484210526317H19.53488372093023C14.14046511627907 18.596484210526317 9.767441860465116 24.094736842105263 9.767441860465116 30.877263157894735ZM68.37209302325581 122.98252631578947V135.26315789473682C68.37209302325581 138.65431578947369 70.55869767441861 141.40357894736843 73.25581395348837 141.40357894736843H83.02325581395348C85.72037209302326 141.40357894736843 87.90697674418604 138.65431578947369 87.90697674418604 135.26315789473682V122.98252631578947C87.90697674418604 119.59115789473682 85.72037209302326 116.84210526315789 83.02325581395348 116.84210526315789H73.25581395348837C70.55869767441861 116.84210526315789 68.37209302325581 119.59115789473682 68.37209302325581 122.98252631578947Z" class="hierarchical-1:primary "/></g>
  <g id="Ultralight-L" transform="matrix(1,0,0,1,479.711,1440.77)">

  <path d="M43.95348837209302 43.1578947368421C46.65060465116279 43.1578947368421 48.83720930232558 40.408842105263155 48.83720930232558 37.01747368421053 48.83720930232558 33.62631578947368 46.65060465116279 30.877263157894735 43.95348837209302 30.877263157894735 41.25637209302325 30.877263157894735 39.06976744186046 33.62631578947368 39.06976744186046 37.01747368421053 39.06976744186046 40.408842105263155 41.25637209302325 43.1578947368421 43.95348837209302 43.1578947368421Z" class="hierarchical-1:primary "/><path d="M29.302325581395348 37.01747368421053C29.302325581395348 40.408842105263155 27.11572093023256 43.1578947368421 24.41860465116279 43.1578947368421 21.721488372093024 43.1578947368421 19.53488372093023 40.408842105263155 19.53488372093023 37.01747368421053 19.53488372093023 33.62631578947368 21.721488372093024 30.877263157894735 24.41860465116279 30.877263157894735 27.11572093023256 30.877263157894735 29.302325581395348 33.62631578947368 29.302325581395348 37.01747368421053Z" class="hierarchical-1:primary "/><path d="M0 30.877263157894735C0 17.312315789473683 8.74606511627907 6.315789473684211 19.53488372093023 6.315789473684211H136.74418604651163C147.53302325581396 6.315789473684211 156.27906976744185 17.312315789473683 156.27906976744185 30.877263157894735V43.1578947368421C156.27906976744185 56.72273684210526 147.53302325581396 67.71936842105262 136.74418604651163 67.71936842105262H83.02325581395348V104.56147368421051C91.11479069767442 104.56147368421051 97.67441860465117 112.80884210526315 97.67441860465117 122.98252631578947H151.3953488372093C154.09246511627907 122.98252631578947 156.27906976744185 125.7315789473684 156.27906976744185 129.12273684210527 156.27906976744185 132.5141052631579 154.09246511627907 135.26315789473682 151.3953488372093 135.26315789473682H97.67441860465117C97.67441860465117 145.43684210526314 91.11479069767442 153.68421052631578 83.02325581395348 153.68421052631578H73.25581395348837C65.16427906976743 153.68421052631578 58.604651162790695 145.43684210526314 58.604651162790695 135.26315789473682H4.883720930232558C2.1865116279069765 135.26315789473682 0 132.5141052631579 0 129.12273684210527 0 125.7315789473684 2.1865116279069765 122.98252631578947 4.883720930232558 122.98252631578947H58.604651162790695C58.604651162790695 112.80884210526315 65.16427906976743 104.56147368421051 73.25581395348837 104.56147368421051V67.71936842105262H19.53488372093023C8.74606511627907 67.71936842105262 0 56.72273684210526 0 43.1578947368421V30.877263157894735ZM9.767441860465116 30.877263157894735V43.1578947368421C9.767441860465116 49.94042105263157 14.140483720930233 55.438526315789474 19.53488372093023 55.438526315789474H136.74418604651163C142.1386046511628 55.438526315789474 146.51162790697674 49.94042105263157 146.51162790697674 43.1578947368421V30.877263157894735C146.51162790697674 24.094736842105263 142.1386046511628 18.596484210526317 136.74418604651163 18.596484210526317H19.53488372093023C14.14046511627907 18.596484210526317 9.767441860465116 24.094736842105263 9.767441860465116 30.877263157894735ZM68.37209302325581 122.98252631578947V135.26315789473682C68.37209302325581 138.65431578947369 70.55869767441861 141.40357894736843 73.25581395348837 141.40357894736843H83.02325581395348C85.72037209302326 141.40357894736843 87.90697674418604 138.65431578947369 87.90697674418604 135.26315789473682V122.98252631578947C87.90697674418604 119.59115789473682 85.72037209302326 116.84210526315789 83.02325581395348 116.84210526315789H73.25581395348837C70.55869767441861 116.84210526315789 68.37209302325581 119.59115789473682 68.37209302325581 122.98252631578947Z" class="hierarchical-1:primary "/></g>
  <g id="Black-M" transform="matrix(1,0,0,1,2869.3999999999996,1026.77)">

  <path d="M35.16279069767442 34.526315789473685C37.320483720930234 34.526315789473685 39.06976744186046 32.327073684210525 39.06976744186046 29.613978947368423 39.06976744186046 26.901052631578946 37.320483720930234 24.70181052631579 35.16279069767442 24.70181052631579 33.00509767441861 24.70181052631579 31.25581395348837 26.901052631578946 31.25581395348837 29.613978947368423 31.25581395348837 32.327073684210525 33.00509767441861 34.526315789473685 35.16279069767442 34.526315789473685Z" class="hierarchical-1:primary "/><path d="M23.441860465116278 29.613978947368423C23.441860465116278 32.327073684210525 21.692576744186045 34.526315789473685 19.53488372093023 34.526315789473685 17.37719069767442 34.526315789473685 15.627906976744185 32.327073684210525 15.627906976744185 29.613978947368423 15.627906976744185 26.901052631578946 17.37719069767442 24.70181052631579 19.53488372093023 24.70181052631579 21.692576744186045 24.70181052631579 23.441860465116278 26.901052631578946 23.441860465116278 29.613978947368423Z" class="hierarchical-1:primary "/><path d="M0 24.70181052631579C0 13.849852631578946 6.996852093023256 5.052631578947368 15.627906976744185 5.052631578947368H109.3953488372093C118.02641860465117 5.052631578947368 125.02325581395348 13.849852631578946 125.02325581395348 24.70181052631579V34.526315789473685C125.02325581395348 45.37818947368421 118.02641860465117 54.1754947368421 109.3953488372093 54.1754947368421H66.4186046511628V83.64917894736841C72.89183255813954 83.64917894736841 78.13953488372093 90.24707368421052 78.13953488372093 98.38602105263158H121.11627906976744C123.27397209302326 98.38602105263158 125.02325581395348 100.58526315789473 125.02325581395348 103.2981894736842 125.02325581395348 106.01128421052631 123.27397209302326 108.21052631578947 121.11627906976744 108.21052631578947H78.13953488372093C78.13953488372093 116.34947368421051 72.89183255813954 122.94736842105263 66.4186046511628 122.94736842105263H58.604651162790695C52.13142325581395 122.94736842105263 46.883720930232556 116.34947368421051 46.883720930232556 108.21052631578947H3.9069767441860463C1.7492093023255813 108.21052631578947 0 106.01128421052631 0 103.2981894736842 0 100.58526315789473 1.7492093023255813 98.38602105263158 3.9069767441860463 98.38602105263158H46.883720930232556C46.883720930232556 90.24707368421052 52.13142325581395 83.64917894736841 58.604651162790695 83.64917894736841V54.1754947368421H15.627906976744185C6.996852093023256 54.1754947368421 0 45.37818947368421 0 34.526315789473685V24.70181052631579ZM7.813953488372093 24.70181052631579V34.526315789473685C7.813953488372093 39.95233684210526 11.312386976744186 44.35082105263158 15.627906976744185 44.35082105263158H109.3953488372093C113.71088372093024 44.35082105263158 117.20930232558139 39.95233684210526 117.20930232558139 34.526315789473685V24.70181052631579C117.20930232558139 19.27578947368421 113.71088372093024 14.877187368421051 109.3953488372093 14.877187368421051H15.627906976744185C11.312372093023257 14.877187368421051 7.813953488372093 19.27578947368421 7.813953488372093 24.70181052631579ZM54.69767441860465 98.38602105263158V108.21052631578947C54.69767441860465 110.92345263157894 56.446958139534885 113.12286315789474 58.604651162790695 113.12286315789474H66.4186046511628C68.5762976744186 113.12286315789474 70.32558139534883 110.92345263157894 70.32558139534883 108.21052631578947V98.38602105263158C70.32558139534883 95.67292631578947 68.5762976744186 93.47368421052632 66.4186046511628 93.47368421052632H58.604651162790695C56.446958139534885 93.47368421052632 54.69767441860465 95.67292631578947 54.69767441860465 98.38602105263158Z" class="hierarchical-1:primary "/></g>
  <g id="Regular-M" transform="matrix(1,0,0,1,1385.845,1026.77)">

  <path d="M35.16279069767442 34.526315789473685C37.320483720930234 34.526315789473685 39.06976744186046 32.327073684210525 39.06976744186046 29.613978947368423 39.06976744186046 26.901052631578946 37.320483720930234 24.70181052631579 35.16279069767442 24.70181052631579 33.00509767441861 24.70181052631579 31.25581395348837 26.901052631578946 31.25581395348837 29.613978947368423 31.25581395348837 32.327073684210525 33.00509767441861 34.526315789473685 35.16279069767442 34.526315789473685Z" class="hierarchical-1:primary "/><path d="M23.441860465116278 29.613978947368423C23.441860465116278 32.327073684210525 21.692576744186045 34.526315789473685 19.53488372093023 34.526315789473685 17.37719069767442 34.526315789473685 15.627906976744185 32.327073684210525 15.627906976744185 29.613978947368423 15.627906976744185 26.901052631578946 17.37719069767442 24.70181052631579 19.53488372093023 24.70181052631579 21.692576744186045 24.70181052631579 23.441860465116278 26.901052631578946 23.441860465116278 29.613978947368423Z" class="hierarchical-1:primary "/><path d="M0 24.70181052631579C0 13.849852631578946 6.996852093023256 5.052631578947368 15.627906976744185 5.052631578947368H109.3953488372093C118.02641860465117 5.052631578947368 125.02325581395348 13.849852631578946 125.02325581395348 24.70181052631579V34.526315789473685C125.02325581395348 45.37818947368421 118.02641860465117 54.1754947368421 109.3953488372093 54.1754947368421H66.4186046511628V83.64917894736841C72.89183255813954 83.64917894736841 78.13953488372093 90.24707368421052 78.13953488372093 98.38602105263158H121.11627906976744C123.27397209302326 98.38602105263158 125.02325581395348 100.58526315789473 125.02325581395348 103.2981894736842 125.02325581395348 106.01128421052631 123.27397209302326 108.21052631578947 121.11627906976744 108.21052631578947H78.13953488372093C78.13953488372093 116.34947368421051 72.89183255813954 122.94736842105263 66.4186046511628 122.94736842105263H58.604651162790695C52.13142325581395 122.94736842105263 46.883720930232556 116.34947368421051 46.883720930232556 108.21052631578947H3.9069767441860463C1.7492093023255813 108.21052631578947 0 106.01128421052631 0 103.2981894736842 0 100.58526315789473 1.7492093023255813 98.38602105263158 3.9069767441860463 98.38602105263158H46.883720930232556C46.883720930232556 90.24707368421052 52.13142325581395 83.64917894736841 58.604651162790695 83.64917894736841V54.1754947368421H15.627906976744185C6.996852093023256 54.1754947368421 0 45.37818947368421 0 34.526315789473685V24.70181052631579ZM7.813953488372093 24.70181052631579V34.526315789473685C7.813953488372093 39.95233684210526 11.312386976744186 44.35082105263158 15.627906976744185 44.35082105263158H109.3953488372093C113.71088372093024 44.35082105263158 117.20930232558139 39.95233684210526 117.20930232558139 34.526315789473685V24.70181052631579C117.20930232558139 19.27578947368421 113.71088372093024 14.877187368421051 109.3953488372093 14.877187368421051H15.627906976744185C11.312372093023257 14.877187368421051 7.813953488372093 19.27578947368421 7.813953488372093 24.70181052631579ZM54.69767441860465 98.38602105263158V108.21052631578947C54.69767441860465 110.92345263157894 56.446958139534885 113.12286315789474 58.604651162790695 113.12286315789474H66.4186046511628C68.5762976744186 113.12286315789474 70.32558139534883 110.92345263157894 70.32558139534883 108.21052631578947V98.38602105263158C70.32558139534883 95.67292631578947 68.5762976744186 93.47368421052632 66.4186046511628 93.47368421052632H58.604651162790695C56.446958139534885 93.47368421052632 54.69767441860465 95.67292631578947 54.69767441860465 98.38602105263158Z" class="hierarchical-1:primary "/></g>
  <g id="Ultralight-M" transform="matrix(1,0,0,1,495.711,1026.77)">

  <path d="M35.16279069767442 34.526315789473685C37.320483720930234 34.526315789473685 39.06976744186046 32.327073684210525 39.06976744186046 29.613978947368423 39.06976744186046 26.901052631578946 37.320483720930234 24.70181052631579 35.16279069767442 24.70181052631579 33.00509767441861 24.70181052631579 31.25581395348837 26.901052631578946 31.25581395348837 29.613978947368423 31.25581395348837 32.327073684210525 33.00509767441861 34.526315789473685 35.16279069767442 34.526315789473685Z" class="hierarchical-1:primary "/><path d="M23.441860465116278 29.613978947368423C23.441860465116278 32.327073684210525 21.692576744186045 34.526315789473685 19.53488372093023 34.526315789473685 17.37719069767442 34.526315789473685 15.627906976744185 32.327073684210525 15.627906976744185 29.613978947368423 15.627906976744185 26.901052631578946 17.37719069767442 24.70181052631579 19.53488372093023 24.70181052631579 21.692576744186045 24.70181052631579 23.441860465116278 26.901052631578946 23.441860465116278 29.613978947368423Z" class="hierarchical-1:primary "/><path d="M0 24.70181052631579C0 13.849852631578946 6.996852093023256 5.052631578947368 15.627906976744185 5.052631578947368H109.3953488372093C118.02641860465117 5.052631578947368 125.02325581395348 13.849852631578946 125.02325581395348 24.70181052631579V34.526315789473685C125.02325581395348 45.37818947368421 118.02641860465117 54.1754947368421 109.3953488372093 54.1754947368421H66.4186046511628V83.64917894736841C72.89183255813954 83.64917894736841 78.13953488372093 90.24707368421052 78.13953488372093 98.38602105263158H121.11627906976744C123.27397209302326 98.38602105263158 125.02325581395348 100.58526315789473 125.02325581395348 103.2981894736842 125.02325581395348 106.01128421052631 123.27397209302326 108.21052631578947 121.11627906976744 108.21052631578947H78.13953488372093C78.13953488372093 116.34947368421051 72.89183255813954 122.94736842105263 66.4186046511628 122.94736842105263H58.604651162790695C52.13142325581395 122.94736842105263 46.883720930232556 116.34947368421051 46.883720930232556 108.21052631578947H3.9069767441860463C1.7492093023255813 108.21052631578947 0 106.01128421052631 0 103.2981894736842 0 100.58526315789473 1.7492093023255813 98.38602105263158 3.9069767441860463 98.38602105263158H46.883720930232556C46.883720930232556 90.24707368421052 52.13142325581395 83.64917894736841 58.604651162790695 83.64917894736841V54.1754947368421H15.627906976744185C6.996852093023256 54.1754947368421 0 45.37818947368421 0 34.526315789473685V24.70181052631579ZM7.813953488372093 24.70181052631579V34.526315789473685C7.813953488372093 39.95233684210526 11.312386976744186 44.35082105263158 15.627906976744185 44.35082105263158H109.3953488372093C113.71088372093024 44.35082105263158 117.20930232558139 39.95233684210526 117.20930232558139 34.526315789473685V24.70181052631579C117.20930232558139 19.27578947368421 113.71088372093024 14.877187368421051 109.3953488372093 14.877187368421051H15.627906976744185C11.312372093023257 14.877187368421051 7.813953488372093 19.27578947368421 7.813953488372093 24.70181052631579ZM54.69767441860465 98.38602105263158V108.21052631578947C54.69767441860465 110.92345263157894 56.446958139534885 113.12286315789474 58.604651162790695 113.12286315789474H66.4186046511628C68.5762976744186 113.12286315789474 70.32558139534883 110.92345263157894 70.32558139534883 108.21052631578947V98.38602105263158C70.32558139534883 95.67292631578947 68.5762976744186 93.47368421052632 66.4186046511628 93.47368421052632H58.604651162790695C56.446958139534885 93.47368421052632 54.69767441860465 95.67292631578947 54.69767441860465 98.38602105263158Z" class="hierarchical-1:primary "/></g>
  <g id="Black-S" transform="matrix(1,0,0,1,2885.3999999999996,612.7705000000001)">

  <path d="M26.372093023255815 25.89473684210526C27.990362790697674 25.89473684210526 29.302325581395348 24.245305263157892 29.302325581395348 22.210484210526317 29.302325581395348 20.17578947368421 27.990362790697674 18.52635789473684 26.372093023255815 18.52635789473684 24.753823255813952 18.52635789473684 23.441860465116278 20.17578947368421 23.441860465116278 22.210484210526317 23.441860465116278 24.245305263157892 24.753823255813952 25.89473684210526 26.372093023255815 25.89473684210526Z" class="hierarchical-1:primary "/><path d="M17.58139534883721 22.210484210526317C17.58139534883721 24.245305263157892 16.269432558139535 25.89473684210526 14.651162790697674 25.89473684210526 13.032893023255815 25.89473684210526 11.720930232558139 24.245305263157892 11.720930232558139 22.210484210526317 11.720930232558139 20.17578947368421 13.032893023255815 18.52635789473684 14.651162790697674 18.52635789473684 16.269432558139535 18.52635789473684 17.58139534883721 20.17578947368421 17.58139534883721 22.210484210526317Z" class="hierarchical-1:primary "/><path d="M0 18.52635789473684C0 10.38738947368421 5.247639069767442 3.789473684210526 11.720930232558139 3.789473684210526H82.04651162790698C88.51981395348838 3.789473684210526 93.76744186046511 10.38738947368421 93.76744186046511 18.52635789473684V25.89473684210526C93.76744186046511 34.033642105263155 88.51981395348838 40.63162105263157 82.04651162790698 40.63162105263157H49.81395348837209V62.73688421052631C54.66887441860465 62.73688421052631 58.604651162790695 67.6853052631579 58.604651162790695 73.78951578947368H90.83720930232558C92.45547906976745 73.78951578947368 93.76744186046511 75.43894736842104 93.76744186046511 77.47364210526315 93.76744186046511 79.50846315789474 92.45547906976745 81.1578947368421 90.83720930232558 81.1578947368421H58.604651162790695C58.604651162790695 87.26210526315789 54.66887441860465 92.21052631578947 49.81395348837209 92.21052631578947H43.95348837209302C39.09856744186046 92.21052631578947 35.16279069767442 87.26210526315789 35.16279069767442 81.1578947368421H2.9302325581395348C1.311906976744186 81.1578947368421 0 79.50846315789474 0 77.47364210526315 0 75.43894736842104 1.311906976744186 73.78951578947368 2.9302325581395348 73.78951578947368H35.16279069767442C35.16279069767442 67.6853052631579 39.09856744186046 62.73688421052631 43.95348837209302 62.73688421052631V40.63162105263157H11.720930232558139C5.247639069767442 40.63162105263157 0 34.033642105263155 0 25.89473684210526V18.52635789473684ZM5.8604651162790695 18.52635789473684V25.89473684210526C5.8604651162790695 29.964252631578944 8.48429023255814 33.26311578947369 11.720930232558139 33.26311578947369H82.04651162790698C85.28316279069767 33.26311578947369 87.90697674418604 29.964252631578944 87.90697674418604 25.89473684210526V18.52635789473684C87.90697674418604 14.456842105263158 85.28316279069767 11.15789052631579 82.04651162790698 11.15789052631579H11.720930232558139C8.484279069767442 11.15789052631579 5.8604651162790695 14.456842105263158 5.8604651162790695 18.52635789473684ZM41.02325581395349 73.78951578947368V81.1578947368421C41.02325581395349 83.19258947368421 42.33521860465116 84.84214736842105 43.95348837209302 84.84214736842105H49.81395348837209C51.43222325581395 84.84214736842105 52.74418604651163 83.19258947368421 52.74418604651163 81.1578947368421V73.78951578947368C52.74418604651163 71.7546947368421 51.43222325581395 70.10526315789474 49.81395348837209 70.10526315789474H43.95348837209302C42.33521860465116 70.10526315789474 41.02325581395349 71.7546947368421 41.02325581395349 73.78951578947368Z" class="hierarchical-1:primary "/></g>
  <g id="Regular-S" transform="matrix(1,0,0,1,1401.845,612.7705000000001)">

  <path d="M26.372093023255815 25.89473684210526C27.990362790697674 25.89473684210526 29.302325581395348 24.245305263157892 29.302325581395348 22.210484210526317 29.302325581395348 20.17578947368421 27.990362790697674 18.52635789473684 26.372093023255815 18.52635789473684 24.753823255813952 18.52635789473684 23.441860465116278 20.17578947368421 23.441860465116278 22.210484210526317 23.441860465116278 24.245305263157892 24.753823255813952 25.89473684210526 26.372093023255815 25.89473684210526Z" class="hierarchical-1:primary "/><path d="M17.58139534883721 22.210484210526317C17.58139534883721 24.245305263157892 16.269432558139535 25.89473684210526 14.651162790697674 25.89473684210526 13.032893023255815 25.89473684210526 11.720930232558139 24.245305263157892 11.720930232558139 22.210484210526317 11.720930232558139 20.17578947368421 13.032893023255815 18.52635789473684 14.651162790697674 18.52635789473684 16.269432558139535 18.52635789473684 17.58139534883721 20.17578947368421 17.58139534883721 22.210484210526317Z" class="hierarchical-1:primary "/><path d="M0 18.52635789473684C0 10.38738947368421 5.247639069767442 3.789473684210526 11.720930232558139 3.789473684210526H82.04651162790698C88.51981395348838 3.789473684210526 93.76744186046511 10.38738947368421 93.76744186046511 18.52635789473684V25.89473684210526C93.76744186046511 34.033642105263155 88.51981395348838 40.63162105263157 82.04651162790698 40.63162105263157H49.81395348837209V62.73688421052631C54.66887441860465 62.73688421052631 58.604651162790695 67.6853052631579 58.604651162790695 73.78951578947368H90.83720930232558C92.45547906976745 73.78951578947368 93.76744186046511 75.43894736842104 93.76744186046511 77.47364210526315 93.76744186046511 79.50846315789474 92.45547906976745 81.1578947368421 90.83720930232558 81.1578947368421H58.604651162790695C58.604651162790695 87.26210526315789 54.66887441860465 92.21052631578947 49.81395348837209 92.21052631578947H43.95348837209302C39.09856744186046 92.21052631578947 35.16279069767442 87.26210526315789 35.16279069767442 81.1578947368421H2.9302325581395348C1.311906976744186 81.1578947368421 0 79.50846315789474 0 77.47364210526315 0 75.43894736842104 1.311906976744186 73.78951578947368 2.9302325581395348 73.78951578947368H35.16279069767442C35.16279069767442 67.6853052631579 39.09856744186046 62.73688421052631 43.95348837209302 62.73688421052631V40.63162105263157H11.720930232558139C5.247639069767442 40.63162105263157 0 34.033642105263155 0 25.89473684210526V18.52635789473684ZM5.8604651162790695 18.52635789473684V25.89473684210526C5.8604651162790695 29.964252631578944 8.48429023255814 33.26311578947369 11.720930232558139 33.26311578947369H82.04651162790698C85.28316279069767 33.26311578947369 87.90697674418604 29.964252631578944 87.90697674418604 25.89473684210526V18.52635789473684C87.90697674418604 14.456842105263158 85.28316279069767 11.15789052631579 82.04651162790698 11.15789052631579H11.720930232558139C8.484279069767442 11.15789052631579 5.8604651162790695 14.456842105263158 5.8604651162790695 18.52635789473684ZM41.02325581395349 73.78951578947368V81.1578947368421C41.02325581395349 83.19258947368421 42.33521860465116 84.84214736842105 43.95348837209302 84.84214736842105H49.81395348837209C51.43222325581395 84.84214736842105 52.74418604651163 83.19258947368421 52.74418604651163 81.1578947368421V73.78951578947368C52.74418604651163 71.7546947368421 51.43222325581395 70.10526315789474 49.81395348837209 70.10526315789474H43.95348837209302C42.33521860465116 70.10526315789474 41.02325581395349 71.7546947368421 41.02325581395349 73.78951578947368Z" class="hierarchical-1:primary "/></g>
  <g id="Ultralight-S" transform="matrix(1,0,0,1,511.711,612.7705000000001)">

  <path d="M26.372093023255815 25.89473684210526C27.990362790697674 25.89473684210526 29.302325581395348 24.245305263157892 29.302325581395348 22.210484210526317 29.302325581395348 20.17578947368421 27.990362790697674 18.52635789473684 26.372093023255815 18.52635789473684 24.753823255813952 18.52635789473684 23.441860465116278 20.17578947368421 23.441860465116278 22.210484210526317 23.441860465116278 24.245305263157892 24.753823255813952 25.89473684210526 26.372093023255815 25.89473684210526Z" class="hierarchical-1:primary "/><path d="M17.58139534883721 22.210484210526317C17.58139534883721 24.245305263157892 16.269432558139535 25.89473684210526 14.651162790697674 25.89473684210526 13.032893023255815 25.89473684210526 11.720930232558139 24.245305263157892 11.720930232558139 22.210484210526317 11.720930232558139 20.17578947368421 13.032893023255815 18.52635789473684 14.651162790697674 18.52635789473684 16.269432558139535 18.52635789473684 17.58139534883721 20.17578947368421 17.58139534883721 22.210484210526317Z" class="hierarchical-1:primary "/><path d="M0 18.52635789473684C0 10.38738947368421 5.247639069767442 3.789473684210526 11.720930232558139 3.789473684210526H82.04651162790698C88.51981395348838 3.789473684210526 93.76744186046511 10.38738947368421 93.76744186046511 18.52635789473684V25.89473684210526C93.76744186046511 34.033642105263155 88.51981395348838 40.63162105263157 82.04651162790698 40.63162105263157H49.81395348837209V62.73688421052631C54.66887441860465 62.73688421052631 58.604651162790695 67.6853052631579 58.604651162790695 73.78951578947368H90.83720930232558C92.45547906976745 73.78951578947368 93.76744186046511 75.43894736842104 93.76744186046511 77.47364210526315 93.76744186046511 79.50846315789474 92.45547906976745 81.1578947368421 90.83720930232558 81.1578947368421H58.604651162790695C58.604651162790695 87.26210526315789 54.66887441860465 92.21052631578947 49.81395348837209 92.21052631578947H43.95348837209302C39.09856744186046 92.21052631578947 35.16279069767442 87.26210526315789 35.16279069767442 81.1578947368421H2.9302325581395348C1.311906976744186 81.1578947368421 0 79.50846315789474 0 77.47364210526315 0 75.43894736842104 1.311906976744186 73.78951578947368 2.9302325581395348 73.78951578947368H35.16279069767442C35.16279069767442 67.6853052631579 39.09856744186046 62.73688421052631 43.95348837209302 62.73688421052631V40.63162105263157H11.720930232558139C5.247639069767442 40.63162105263157 0 34.033642105263155 0 25.89473684210526V18.52635789473684ZM5.8604651162790695 18.52635789473684V25.89473684210526C5.8604651162790695 29.964252631578944 8.48429023255814 33.26311578947369 11.720930232558139 33.26311578947369H82.04651162790698C85.28316279069767 33.26311578947369 87.90697674418604 29.964252631578944 87.90697674418604 25.89473684210526V18.52635789473684C87.90697674418604 14.456842105263158 85.28316279069767 11.15789052631579 82.04651162790698 11.15789052631579H11.720930232558139C8.484279069767442 11.15789052631579 5.8604651162790695 14.456842105263158 5.8604651162790695 18.52635789473684ZM41.02325581395349 73.78951578947368V81.1578947368421C41.02325581395349 83.19258947368421 42.33521860465116 84.84214736842105 43.95348837209302 84.84214736842105H49.81395348837209C51.43222325581395 84.84214736842105 52.74418604651163 83.19258947368421 52.74418604651163 81.1578947368421V73.78951578947368C52.74418604651163 71.7546947368421 51.43222325581395 70.10526315789474 49.81395348837209 70.10526315789474H43.95348837209302C42.33521860465116 70.10526315789474 41.02325581395349 71.7546947368421 41.02325581395349 73.78951578947368Z" class="hierarchical-1:primary "/></g>
 </g>
</svg>