<svg xmlns="http://www.w3.org/2000/svg" xmlns:xlink="http://www.w3.org/1999/xlink" version="1.1" width="3300" height="2200">
 <!--glyph: "", point size: 100.0, font version: "17.1d1e1", template writer version: "65.1"-->
<style>

.hierarchical-1:primary {fill:#262626;}
.SFSymbolsPreview262626 {fill:#262626;}
</style>
 <g id="Notes">
  <rect height="2200" id="artboard" style="fill:white;opacity:1" width="3300" x="0" y="0"/>
  <line style="fill:none;stroke:black;opacity:1;stroke-width:0.5;" x1="263" x2="3036" y1="292" y2="292"/>
  <text style="stroke:none;fill:black;font-family:sans-serif;font-size:13;font-weight:bold;" transform="matrix(1 0 0 1 263 322)">Weight/Scale Variations</text>
  <text style="stroke:none;fill:black;font-family:sans-serif;font-size:13;text-anchor:middle;" transform="matrix(1 0 0 1 559.711 322)">Ultralight</text>
  <text style="stroke:none;fill:black;font-family:sans-serif;font-size:13;text-anchor:middle;" transform="matrix(1 0 0 1 856.422 322)">Thin</text>
  <text style="stroke:none;fill:black;font-family:sans-serif;font-size:13;text-anchor:middle;" transform="matrix(1 0 0 1 1153.13 322)">Light</text>
  <text style="stroke:none;fill:black;font-family:sans-serif;font-size:13;text-anchor:middle;" transform="matrix(1 0 0 1 1449.84 322)">Regular</text>
  <text style="stroke:none;fill:black;font-family:sans-serif;font-size:13;text-anchor:middle;" transform="matrix(1 0 0 1 1746.56 322)">Medium</text>
  <text style="stroke:none;fill:black;font-family:sans-serif;font-size:13;text-anchor:middle;" transform="matrix(1 0 0 1 2043.27 322)">Semibold</text>
  <text style="stroke:none;fill:black;font-family:sans-serif;font-size:13;text-anchor:middle;" transform="matrix(1 0 0 1 2339.98 322)">Bold</text>
  <text style="stroke:none;fill:black;font-family:sans-serif;font-size:13;text-anchor:middle;" transform="matrix(1 0 0 1 2636.69 322)">Heavy</text>
  <text style="stroke:none;fill:black;font-family:sans-serif;font-size:13;text-anchor:middle;" transform="matrix(1 0 0 1 2933.4 322)">Black</text>
  <line style="fill:none;stroke:black;opacity:1;stroke-width:0.5;" x1="263" x2="3036" y1="1903" y2="1903"/>
  <g transform="matrix(1 0 0 1 263 1933)">
   <path d="M9.24805 0.830078Q10.8691 0.830078 12.2949 0.214844Q13.7207-0.400391 14.8096-1.49414Q15.8984-2.58789 16.5186-4.01367Q17.1387-5.43945 17.1387-7.05078Q17.1387-8.66211 16.5186-10.0879Q15.8984-11.5137 14.8047-12.6074Q13.7109-13.7012 12.2852-14.3164Q10.8594-14.9316 9.23828-14.9316Q7.62695-14.9316 6.20117-14.3164Q4.77539-13.7012 3.69141-12.6074Q2.60742-11.5137 1.9873-10.0879Q1.36719-8.66211 1.36719-7.05078Q1.36719-5.43945 1.9873-4.01367Q2.60742-2.58789 3.69629-1.49414Q4.78516-0.400391 6.21094 0.214844Q7.63672 0.830078 9.24805 0.830078ZM9.24805-0.654297Q7.91992-0.654297 6.7627-1.14746Q5.60547-1.64062 4.73145-2.51953Q3.85742-3.39844 3.36426-4.56055Q2.87109-5.72266 2.87109-7.05078Q2.87109-8.37891 3.35938-9.54102Q3.84766-10.7031 4.72168-11.582Q5.5957-12.4609 6.75293-12.9541Q7.91016-13.4473 9.23828-13.4473Q10.5762-13.4473 11.7334-12.9541Q12.8906-12.4609 13.7695-11.582Q14.6484-10.7031 15.1465-9.54102Q15.6445-8.37891 15.6445-7.05078Q15.6445-5.72266 15.1514-4.56055Q14.6582-3.39844 13.7842-2.51953Q12.9102-1.64062 11.748-1.14746Q10.5859-0.654297 9.24805-0.654297ZM5.6543-7.05078Q5.6543-6.72852 5.85938-6.52832Q6.06445-6.32812 6.40625-6.32812L8.51562-6.32812L8.51562-4.20898Q8.51562-3.88672 8.71094-3.67676Q8.90625-3.4668 9.23828-3.4668Q9.56055-3.4668 9.77051-3.67676Q9.98047-3.88672 9.98047-4.20898L9.98047-6.32812L12.0898-6.32812Q12.4219-6.32812 12.627-6.52832Q12.832-6.72852 12.832-7.05078Q12.832-7.38281 12.627-7.58789Q12.4219-7.79297 12.0898-7.79297L9.98047-7.79297L9.98047-9.90234Q9.98047-10.2344 9.77051-10.4443Q9.56055-10.6543 9.23828-10.6543Q8.90625-10.6543 8.71094-10.4443Q8.51562-10.2344 8.51562-9.90234L8.51562-7.79297L6.40625-7.79297Q6.06445-7.79297 5.85938-7.58789Q5.6543-7.38281 5.6543-7.05078Z"/>
  </g>
  <g transform="matrix(1 0 0 1 281.867 1933)">
   <path d="M11.709 2.91016Q13.75 2.91016 15.5518 2.12891Q17.3535 1.34766 18.7305-0.0292969Q20.1074-1.40625 20.8887-3.20801Q21.6699-5.00977 21.6699-7.05078Q21.6699-9.0918 20.8887-10.8936Q20.1074-12.6953 18.7305-14.0723Q17.3535-15.4492 15.5469-16.2305Q13.7402-17.0117 11.6992-17.0117Q9.6582-17.0117 7.85645-16.2305Q6.05469-15.4492 4.68262-14.0723Q3.31055-12.6953 2.5293-10.8936Q1.74805-9.0918 1.74805-7.05078Q1.74805-5.00977 2.5293-3.20801Q3.31055-1.40625 4.6875-0.0292969Q6.06445 1.34766 7.86621 2.12891Q9.66797 2.91016 11.709 2.91016ZM11.709 1.25Q9.98047 1.25 8.47656 0.605469Q6.97266-0.0390625 5.83496-1.17676Q4.69727-2.31445 4.05762-3.81836Q3.41797-5.32227 3.41797-7.05078Q3.41797-8.7793 4.05762-10.2832Q4.69727-11.7871 5.83008-12.9297Q6.96289-14.0723 8.4668-14.7119Q9.9707-15.3516 11.6992-15.3516Q13.4277-15.3516 14.9316-14.7119Q16.4355-14.0723 17.5781-12.9297Q18.7207-11.7871 19.3652-10.2832Q20.0098-8.7793 20.0098-7.05078Q20.0098-5.32227 19.3701-3.81836Q18.7305-2.31445 17.5928-1.17676Q16.4551-0.0390625 14.9463 0.605469Q13.4375 1.25 11.709 1.25ZM7.17773-7.05078Q7.17773-6.69922 7.41211-6.47461Q7.64648-6.25 8.01758-6.25L10.8887-6.25L10.8887-3.36914Q10.8887-2.99805 11.1133-2.76855Q11.3379-2.53906 11.6895-2.53906Q12.0605-2.53906 12.29-2.76855Q12.5195-2.99805 12.5195-3.36914L12.5195-6.25L15.4004-6.25Q15.7715-6.25 16.001-6.47461Q16.2305-6.69922 16.2305-7.05078Q16.2305-7.42188 16.001-7.65137Q15.7715-7.88086 15.4004-7.88086L12.5195-7.88086L12.5195-10.752Q12.5195-11.1328 12.29-11.3623Q12.0605-11.5918 11.6895-11.5918Q11.3379-11.5918 11.1133-11.3574Q10.8887-11.123 10.8887-10.752L10.8887-7.88086L8.01758-7.88086Q7.63672-7.88086 7.40723-7.65137Q7.17773-7.42188 7.17773-7.05078Z"/>
  </g>
  <g transform="matrix(1 0 0 1 305.646 1933)">
   <path d="M14.9707 5.66406Q17.0605 5.66406 18.96 5.01465Q20.8594 4.36523 22.4512 3.19336Q24.043 2.02148 25.2197 0.429688Q26.3965-1.16211 27.0459-3.06641Q27.6953-4.9707 27.6953-7.05078Q27.6953-9.14062 27.0459-11.04Q26.3965-12.9395 25.2197-14.5312Q24.043-16.123 22.4512-17.2998Q20.8594-18.4766 18.9551-19.126Q17.0508-19.7754 14.9609-19.7754Q12.8711-19.7754 10.9717-19.126Q9.07227-18.4766 7.48535-17.2998Q5.89844-16.123 4.72168-14.5312Q3.54492-12.9395 2.90039-11.04Q2.25586-9.14062 2.25586-7.05078Q2.25586-4.9707 2.90527-3.06641Q3.55469-1.16211 4.72656 0.429688Q5.89844 2.02148 7.49023 3.19336Q9.08203 4.36523 10.9814 5.01465Q12.8809 5.66406 14.9707 5.66406ZM14.9707 3.84766Q13.1641 3.84766 11.5283 3.2959Q9.89258 2.74414 8.53516 1.74805Q7.17773 0.751953 6.17676-0.610352Q5.17578-1.97266 4.62891-3.6084Q4.08203-5.24414 4.08203-7.05078Q4.08203-8.86719 4.62891-10.5029Q5.17578-12.1387 6.17188-13.501Q7.16797-14.8633 8.52539-15.8594Q9.88281-16.8555 11.5186-17.4023Q13.1543-17.9492 14.9609-17.9492Q16.7773-17.9492 18.4131-17.4023Q20.0488-16.8555 21.4111-15.8594Q22.7734-14.8633 23.7695-13.501Q24.7656-12.1387 25.3174-10.5029Q25.8691-8.86719 25.8691-7.05078Q25.8789-5.24414 25.332-3.6084Q24.7852-1.97266 23.7842-0.610352Q22.7832 0.751953 21.4209 1.74805Q20.0586 2.74414 18.4229 3.2959Q16.7871 3.84766 14.9707 3.84766ZM9.19922-7.05078Q9.19922-6.66992 9.45801-6.4209Q9.7168-6.17188 10.1172-6.17188L14.0625-6.17188L14.0625-2.2168Q14.0625-1.81641 14.3115-1.55762Q14.5605-1.29883 14.9512-1.29883Q15.3516-1.29883 15.6104-1.55273Q15.8691-1.80664 15.8691-2.2168L15.8691-6.17188L19.8242-6.17188Q20.2246-6.17188 20.4785-6.4209Q20.7324-6.66992 20.7324-7.05078Q20.7324-7.46094 20.4785-7.71484Q20.2246-7.96875 19.8242-7.96875L15.8691-7.96875L15.8691-11.9141Q15.8691-12.3242 15.6104-12.583Q15.3516-12.8418 14.9512-12.8418Q14.5605-12.8418 14.3115-12.583Q14.0625-12.3242 14.0625-11.9141L14.0625-7.96875L10.1172-7.96875Q9.70703-7.96875 9.45312-7.71484Q9.19922-7.46094 9.19922-7.05078Z"/>
  </g>
  <text style="stroke:none;fill:black;font-family:sans-serif;font-size:13;font-weight:bold;" transform="matrix(1 0 0 1 263 1953)">Design Variations</text>
  <text style="stroke:none;fill:black;font-family:sans-serif;font-size:13;" transform="matrix(1 0 0 1 263 1971)">Symbols are supported in up to nine weights and three scales.</text>
  <text style="stroke:none;fill:black;font-family:sans-serif;font-size:13;" transform="matrix(1 0 0 1 263 1989)">For optimal layout with text and other symbols, vertically align</text>
  <text style="stroke:none;fill:black;font-family:sans-serif;font-size:13;" transform="matrix(1 0 0 1 263 2007)">symbols with the adjacent text.</text>
  <line style="fill:none;stroke:#00AEEF;stroke-width:0.5;opacity:1.0;" x1="776" x2="776" y1="1919" y2="1933"/>
  <g transform="matrix(1 0 0 1 776 1933)">
   <path d="M3.31055 0.15625Q3.70117 0.15625 3.91602-0.00976562Q4.13086-0.175781 4.26758-0.585938L5.52734-4.0332L11.2891-4.0332L12.5488-0.585938Q12.6855-0.175781 12.9004-0.00976562Q13.1152 0.15625 13.4961 0.15625Q13.8867 0.15625 14.1162-0.0585938Q14.3457-0.273438 14.3457-0.644531Q14.3457-0.869141 14.2383-1.17188L9.6582-13.3691Q9.48242-13.8184 9.17969-14.043Q8.87695-14.2676 8.4082-14.2676Q7.5-14.2676 7.17773-13.3789L2.59766-1.16211Q2.49023-0.859375 2.49023-0.634766Q2.49023-0.263672 2.70996-0.0537109Q2.92969 0.15625 3.31055 0.15625ZM6.00586-5.51758L8.37891-12.0898L8.42773-12.0898L10.8008-5.51758Z"/>
  </g>
  <line style="fill:none;stroke:#00AEEF;stroke-width:0.5;opacity:1.0;" x1="793.197" x2="793.197" y1="1919" y2="1933"/>
  <text style="stroke:none;fill:black;font-family:sans-serif;font-size:13;font-weight:bold;" transform="matrix(1 0 0 1 776 1953)">Margins</text>
  <text style="stroke:none;fill:black;font-family:sans-serif;font-size:13;" transform="matrix(1 0 0 1 776 1971)">Leading and trailing margins on the left and right side of each symbol</text>
  <text style="stroke:none;fill:black;font-family:sans-serif;font-size:13;" transform="matrix(1 0 0 1 776 1989)">can be adjusted by modifying the x-location of the margin guidelines.</text>
  <text style="stroke:none;fill:black;font-family:sans-serif;font-size:13;" transform="matrix(1 0 0 1 776 2007)">Modifications are automatically applied proportionally to all</text>
  <text style="stroke:none;fill:black;font-family:sans-serif;font-size:13;" transform="matrix(1 0 0 1 776 2025)">scales and weights.</text>
  <g transform="matrix(1 0 0 1 1289 1933)">
   <path d="M2.8418 1.86523L4.54102 3.57422Q5.18555 4.22852 5.90332 4.17969Q6.62109 4.13086 7.31445 3.35938L18.0078-8.42773L17.041-9.4043L6.42578 2.27539Q6.16211 2.57812 5.89355 2.61719Q5.625 2.65625 5.27344 2.30469L4.10156 1.14258Q3.75 0.791016 3.79395 0.522461Q3.83789 0.253906 4.14062-0.0195312L15.6152-10.8203L14.6387-11.7871L3.04688-0.898438Q2.30469-0.214844 2.25098 0.498047Q2.19727 1.21094 2.8418 1.86523ZM9.25781-16.3281Q8.94531-16.0254 8.90625-15.6348Q8.86719-15.2441 9.04297-14.9512Q9.21875-14.6777 9.55566-14.541Q9.89258-14.4043 10.3809-14.5215Q11.4746-14.7754 12.5977-14.7314Q13.7207-14.6875 14.7949-13.9844L14.209-12.5293Q13.9551-11.9043 14.0674-11.4404Q14.1797-10.9766 14.5801-10.5664L16.875-8.25195Q17.2363-7.88086 17.5781-7.82227Q17.9199-7.76367 18.3398-7.8418L19.4043-8.03711L20.0684-7.36328L20.0293-6.80664Q20-6.43555 20.1221-6.12305Q20.2441-5.81055 20.6055-5.44922L21.3672-4.70703Q21.7285-4.3457 22.1533-4.33105Q22.5781-4.31641 22.9297-4.66797L25.8398-7.58789Q26.1914-7.93945 26.1816-8.35449Q26.1719-8.76953 25.8105-9.13086L25.0391-9.89258Q24.6875-10.2539 24.3799-10.3857Q24.0723-10.5176 23.7109-10.4883L23.1348-10.4395L22.4902-11.0742L22.7344-12.1973Q22.832-12.6172 22.6953-12.9834Q22.5586-13.3496 22.1191-13.7891L19.9219-15.9766Q18.6719-17.2168 17.2607-17.8369Q15.8496-18.457 14.4189-18.4814Q12.9883-18.5059 11.665-17.959Q10.3418-17.4121 9.25781-16.3281ZM10.752-15.957Q11.6602-16.6211 12.7002-16.9043Q13.7402-17.1875 14.8047-17.085Q15.8691-16.9824 16.8701-16.5137Q17.8711-16.0449 18.7012-15.2051L21.1328-12.793Q21.3086-12.6172 21.3525-12.4512Q21.3965-12.2852 21.3379-12.0312L21.0156-10.5469L22.5195-9.0625L23.5059-9.12109Q23.6914-9.13086 23.7891-9.09668Q23.8867-9.0625 24.0332-8.91602L24.6094-8.33984L22.168-5.89844L21.5918-6.47461Q21.4453-6.62109 21.4062-6.71875Q21.3672-6.81641 21.377-7.01172L21.4453-7.98828L19.9512-9.47266L18.4277-9.21875Q18.1836-9.16992 18.042-9.2041Q17.9004-9.23828 17.7148-9.41406L15.7129-11.416Q15.5176-11.5918 15.4932-11.7529Q15.4688-11.9141 15.5859-12.1875L16.4648-14.2773Q15.293-15.3711 13.8281-15.791Q12.3633-16.2109 10.8398-15.7617Q10.7227-15.7324 10.6885-15.8057Q10.6543-15.8789 10.752-15.957Z"/>
  </g>
  <text style="stroke:none;fill:black;font-family:sans-serif;font-size:13;font-weight:bold;" transform="matrix(1 0 0 1 1289 1953)">Exporting</text>
  <text style="stroke:none;fill:black;font-family:sans-serif;font-size:13;" transform="matrix(1 0 0 1 1289 1971)">Symbols should be outlined when exporting to ensure the</text>
  <text style="stroke:none;fill:black;font-family:sans-serif;font-size:13;" transform="matrix(1 0 0 1 1289 1989)">design is preserved when submitting to Xcode.</text>
  <text id="template-version" style="stroke:none;fill:black;font-family:sans-serif;font-size:13;text-anchor:end;" transform="matrix(1 0 0 1 3036 1933)">Template v.3.0</text>
  <text style="stroke:none;fill:black;font-family:sans-serif;font-size:13;text-anchor:end;" transform="matrix(1 0 0 1 3036 1951)">Requires Xcode 13 or greater</text>
  <text id="descriptive-name" style="stroke:none;fill:black;font-family:sans-serif;font-size:13;text-anchor:end;" transform="matrix(1 0 0 1 3036 1969)">Symbol moniker: controller</text>
  <text style="stroke:none;fill:black;font-family:sans-serif;font-size:13;text-anchor:end;" transform="matrix(1 0 0 1 3036 1987)">Typeset at 100 points</text>
  <text style="stroke:none;fill:black;font-family:sans-serif;font-size:13;" transform="matrix(1 0 0 1 263 726)">Small</text>
  <text style="stroke:none;fill:black;font-family:sans-serif;font-size:13;" transform="matrix(1 0 0 1 263 1156)">Medium</text>
  <text style="stroke:none;fill:black;font-family:sans-serif;font-size:13;" transform="matrix(1 0 0 1 263 1586)">Large</text>
 </g>
 <g id="Guides">
  <g id="H-reference" style="fill:#27AAE1;stroke:none;" transform="matrix(1 0 0 1 339 696)">
   <path d="M0.976562 0L3.66211 0L29.3457-67.1387L30.0293-67.1387L30.0293-70.459L28.125-70.459ZM11.6699-24.4629L46.9727-24.4629L46.2402-26.709L12.4512-26.709ZM55.127 0L57.7637 0L30.6152-70.459L29.4434-70.459L29.4434-67.1387Z"/>
  </g>
  <line id="Baseline-S" style="fill:none;stroke:#27AAE1;opacity:1;stroke-width:0.5;" x1="263" x2="3036" y1="696" y2="696"/>
  <line id="Capline-S" style="fill:none;stroke:#27AAE1;opacity:1;stroke-width:0.5;" x1="263" x2="3036" y1="625.541" y2="625.541"/>
  <g id="H-reference" style="fill:#27AAE1;stroke:none;" transform="matrix(1 0 0 1 339 1126)">
   <path d="M0.976562 0L3.66211 0L29.3457-67.1387L30.0293-67.1387L30.0293-70.459L28.125-70.459ZM11.6699-24.4629L46.9727-24.4629L46.2402-26.709L12.4512-26.709ZM55.127 0L57.7637 0L30.6152-70.459L29.4434-70.459L29.4434-67.1387Z"/>
  </g>
  <line id="Baseline-M" style="fill:none;stroke:#27AAE1;opacity:1;stroke-width:0.5;" x1="263" x2="3036" y1="1126" y2="1126"/>
  <line id="Capline-M" style="fill:none;stroke:#27AAE1;opacity:1;stroke-width:0.5;" x1="263" x2="3036" y1="1055.54" y2="1055.54"/>
  <g id="H-reference" style="fill:#27AAE1;stroke:none;" transform="matrix(1 0 0 1 339 1556)">
   <path d="M0.976562 0L3.66211 0L29.3457-67.1387L30.0293-67.1387L30.0293-70.459L28.125-70.459ZM11.6699-24.4629L46.9727-24.4629L46.2402-26.709L12.4512-26.709ZM55.127 0L57.7637 0L30.6152-70.459L29.4434-70.459L29.4434-67.1387Z"/>
  </g>
  <line id="Baseline-L" style="fill:none;stroke:#27AAE1;opacity:1;stroke-width:0.5;" x1="263" x2="3036" y1="1556" y2="1556"/>
  <line id="Capline-L" style="fill:none;stroke:#27AAE1;opacity:1;stroke-width:0.5;" x1="263" x2="3036" y1="1485.54" y2="1485.54"/>
  <line id="left-margin-Ultralight-S" style="fill:none;stroke:#00AEEF;stroke-width:0.5;opacity:1.0;" x1="515.351" x2="515.351" y1="600.784" y2="720.121"/>
  <line id="right-margin-Ultralight-S" style="fill:none;stroke:#00AEEF;stroke-width:0.5;opacity:1.0;" x1="604.071" x2="604.071" y1="600.784" y2="720.121"/>
  <line id="left-margin-Regular-S" style="fill:none;stroke:#00AEEF;stroke-width:0.5;opacity:1.0;" x1="1401.75" x2="1401.75" y1="600.784" y2="720.121"/>
  <line id="right-margin-Regular-S" style="fill:none;stroke:#00AEEF;stroke-width:0.5;opacity:1.0;" x1="1497.94" x2="1497.94" y1="600.784" y2="720.121"/>
  <line id="left-margin-Black-S" style="fill:none;stroke:#00AEEF;stroke-width:0.5;opacity:1.0;" x1="2883.2" x2="2883.2" y1="600.784" y2="720.121"/>
  <line id="right-margin-Black-S" style="fill:none;stroke:#00AEEF;stroke-width:0.5;opacity:1.0;" x1="2983.6" x2="2983.6" y1="600.784" y2="720.121"/>
 </g>
 <g id="Symbols">
  <g id="Black-L" transform="matrix(1,0,0,1,2853.3999999999996,1440.77)">

  <path d="M116.73904761904761 54.6829C116.73904761904761 58.5407 114.38933333333333 61.668099999999995 111.49104761904762 61.668099999999995 108.592 61.668099999999995 106.24228571428571 58.5407 106.24228571428571 54.6829 106.24228571428571 50.8251 108.592 47.697700000000005 111.49104761904762 47.697700000000005 114.38933333333333 47.697700000000005 116.73904761904761 50.8251 116.73904761904761 54.6829Z" class="hierarchical-1:primary "/><path d="M100.99352380952381 75.63850000000001C103.89257142857142 75.63850000000001 106.24228571428571 72.5111 106.24228571428571 68.6533 106.24228571428571 64.7955 103.89257142857142 61.668099999999995 100.99352380952381 61.668099999999995 98.09523809523809 61.668099999999995 95.7455238095238 64.7955 95.7455238095238 68.6533 95.7455238095238 72.5111 98.09523809523809 75.63850000000001 100.99352380952381 75.63850000000001Z" class="hierarchical-1:primary "/><path d="M127.23580952380952 68.6533C127.23580952380952 72.5111 124.88609523809524 75.63850000000001 121.98780952380952 75.63850000000001 119.0887619047619 75.63850000000001 116.73904761904761 72.5111 116.73904761904761 68.6533 116.73904761904761 64.7955 119.0887619047619 61.668099999999995 121.98780952380952 61.668099999999995 124.88609523809524 61.668099999999995 127.23580952380952 64.7955 127.23580952380952 68.6533Z" class="hierarchical-1:primary "/><path d="M111.49104761904762 89.6088C114.38933333333333 89.6088 116.73904761904761 86.4814 116.73904761904761 82.6236 116.73904761904761 78.7658 114.38933333333333 75.63850000000001 111.49104761904762 75.63850000000001 108.592 75.63850000000001 106.24228571428571 78.7658 106.24228571428571 82.6236 106.24228571428571 86.4814 108.592 89.6088 111.49104761904762 89.6088Z" class="hierarchical-1:primary "/><path d="M43.26110476190476 47.697700000000005H53.75794285714285V61.668099999999995H64.25485714285715V75.63850000000001H53.75794285714285V89.6088H43.26110476190476V75.63850000000001H32.764266666666664V61.668099999999995H43.26110476190476V47.697700000000005Z" class="hierarchical-1:primary "/><path d="M28.052190476190475 16.026400000000002C27.302019047619048 12.3 28.96358095238095 8.469809999999999 31.763428571428566 7.47134L52.04182857142857 0.23974800000000002C54.841676190476186-0.758727 57.719542857142855 1.45266 58.46979047619047 5.1790199999999995 58.50339047619047 5.345870000000001 58.53211428571428 5.51292 58.55619047619047 5.679920000000001 65.42857142857143 4.58131 72.73455238095238 4.04035 80 4.04035 87.54971428571427 4.04035 95.14285714285714 4.6244499999999995 102.24838095238094 5.81137 102.27504761904761 5.6006 102.31009523809523 5.38964 102.35276190476189 5.1790199999999995 103.10247619047618 1.45266 105.98095238095237-0.758727 108.78019047619047 0.23974800000000002L129.05904761904762 7.47134C131.8590476190476 8.469809999999999 133.51999999999998 12.3 132.77028571428573 16.026400000000002 132.65371428571427 16.6059 132.48533333333333 17.148600000000002 132.27428571428572 17.6484 133.74476190476187 18.915200000000002 135.06361904761903 20.296599999999998 136.19580952380952 21.802899999999998 140.47466666666665 27.4977 144.37561904761904 36.4768 147.67999999999998 46.5605 151.03466666666665 56.7998 153.97028571428572 68.7875 156.13104761904762 81.01570000000001 158.29104761904762 93.23679999999999 159.70819047619048 105.877 159.95961904761904 117.41799999999999 160.208 128.809 159.33790476190475 139.802 156.50971428571427 148.293 153.8864761904762 156.167 147.68228571428568 160.78 141.3462857142857 159.89100000000002 134.66895238095236 158.954 129.6342857142857 154.383 125.45904761904761 149.093 122.89066666666666 145.839 120.25142857142856 141.74099999999999 117.70971428571428 137.793 116.3855238095238 135.737 115.08647619047619 133.72 113.83847619047619 131.886 106.19657142857142 120.655 97.08342857142857 110.564 80 110.564 62.91664761904761 110.564 53.80380952380952 120.655 46.16144761904762 131.886 44.91337142857142 133.721 43.615161904761905 135.73600000000002 42.29066666666667 137.793 39.748571428571424 141.74099999999999 37.109333333333325 145.839 34.54087619047618 149.093 30.36540952380952 154.383 25.3312 158.954 18.653942857142855 159.89100000000002 12.317333333333332 160.78 6.11312 156.167 3.4900342857142856 148.293 0.6617333333333333 139.802-0.207872 128.809 0.040217142857142854 117.41799999999999 0.29157866666666665 105.877 1.7092266666666667 93.23660000000001 3.8688457142857136 81.01570000000001 6.0297447619047615 68.7875 8.965257142857142 56.7997 12.320533333333334 46.5604 15.624761904761902 36.4767 19.525714285714283 27.4977 23.804647619047618 21.802899999999998 25.093942857142856 20.087000000000003 26.62582857142857 18.5332 28.34887619047619 17.1264 28.22910476190476 16.777 28.129371428571428 16.4097 28.052190476190475 16.026400000000002ZM49.426742857142855 21.79C40.22133333333333 24.3693 34.007847619047624 27.9805 31.22704761904762 31.6815 28.33500952380952 35.5304 25.065066666666667 42.614900000000006 21.942171428571427 52.1452 18.870247619047618 61.51989999999999 16.122209523809524 72.6966 14.086933333333333 84.2141 12.050361904761903 95.7387 10.759161904761903 107.425 10.532647619047617 117.823 10.302933333333334 128.37099999999998 11.186514285714285 136.928 13.086095238095236 142.631 13.822704761904761 144.84199999999998 15.64647619047619 146.265 17.5536 145.998 20.991619047619047 145.51500000000001 23.96297142857143 143.20600000000002 27.303466666666665 138.974 29.53264761904762 136.15 31.512685714285716 133.063 33.76434285714285 129.552 35.15801904761904 127.37899999999999 36.65569523809524 125.04400000000001 38.38095238095238 122.509 47.05097142857143 109.767 58.77097142857142 96.594 80 96.594 101.22895238095238 96.594 112.94933333333333 109.767 121.61904761904762 122.509 123.344 125.04400000000001 124.84190476190476 127.37899999999999 126.23542857142857 129.552 128.48761904761903 133.063 130.4670476190476 136.15 132.69638095238093 138.974 136.03733333333332 143.20600000000002 139.0087619047619 145.51500000000001 142.4464761904762 145.998 144.3535238095238 146.265 146.1775238095238 144.84199999999998 146.91352380952378 142.631 148.81371428571427 136.928 149.6967619047619 128.37099999999998 149.46742857142857 117.823 149.24114285714285 107.425 147.94971428571426 95.73880000000001 145.91314285714284 84.2141 143.87809523809523 72.69669999999999 141.12990476190475 61.52 138.05790476190475 52.1452 134.93485714285714 42.614900000000006 131.6647619047619 35.5304 128.7733333333333 31.6815 125.99238095238094 27.9805 119.77904761904762 24.3693 110.57371428571429 21.79 101.65866666666666 19.2921 90.87923809523808 18.0107 80 18.0107 69.1208380952381 18.0107 58.34179047619047 19.2921 49.426742857142855 21.79Z" class="hierarchical-1:primary "/></g>
  <g id="Regular-L" transform="matrix(1,0,0,1,1369.845,1440.77)">

  <path d="M116.73904761904761 54.6829C116.73904761904761 58.5407 114.38933333333333 61.668099999999995 111.49104761904762 61.668099999999995 108.592 61.668099999999995 106.24228571428571 58.5407 106.24228571428571 54.6829 106.24228571428571 50.8251 108.592 47.697700000000005 111.49104761904762 47.697700000000005 114.38933333333333 47.697700000000005 116.73904761904761 50.8251 116.73904761904761 54.6829Z" class="hierarchical-1:primary "/><path d="M100.99352380952381 75.63850000000001C103.89257142857142 75.63850000000001 106.24228571428571 72.5111 106.24228571428571 68.6533 106.24228571428571 64.7955 103.89257142857142 61.668099999999995 100.99352380952381 61.668099999999995 98.09523809523809 61.668099999999995 95.7455238095238 64.7955 95.7455238095238 68.6533 95.7455238095238 72.5111 98.09523809523809 75.63850000000001 100.99352380952381 75.63850000000001Z" class="hierarchical-1:primary "/><path d="M127.23580952380952 68.6533C127.23580952380952 72.5111 124.88609523809524 75.63850000000001 121.98780952380952 75.63850000000001 119.0887619047619 75.63850000000001 116.73904761904761 72.5111 116.73904761904761 68.6533 116.73904761904761 64.7955 119.0887619047619 61.668099999999995 121.98780952380952 61.668099999999995 124.88609523809524 61.668099999999995 127.23580952380952 64.7955 127.23580952380952 68.6533Z" class="hierarchical-1:primary "/><path d="M111.49104761904762 89.6088C114.38933333333333 89.6088 116.73904761904761 86.4814 116.73904761904761 82.6236 116.73904761904761 78.7658 114.38933333333333 75.63850000000001 111.49104761904762 75.63850000000001 108.592 75.63850000000001 106.24228571428571 78.7658 106.24228571428571 82.6236 106.24228571428571 86.4814 108.592 89.6088 111.49104761904762 89.6088Z" class="hierarchical-1:primary "/><path d="M43.26110476190476 47.697700000000005H53.75794285714285V61.668099999999995H64.25485714285715V75.63850000000001H53.75794285714285V89.6088H43.26110476190476V75.63850000000001H32.764266666666664V61.668099999999995H43.26110476190476V47.697700000000005Z" class="hierarchical-1:primary "/><path d="M28.052190476190475 16.026400000000002C27.302019047619048 12.3 28.96358095238095 8.469809999999999 31.763428571428566 7.47134L52.04182857142857 0.23974800000000002C54.841676190476186-0.758727 57.719542857142855 1.45266 58.46979047619047 5.1790199999999995 58.50339047619047 5.345870000000001 58.53211428571428 5.51292 58.55619047619047 5.679920000000001 65.42857142857143 4.58131 72.73455238095238 4.04035 80 4.04035 87.54971428571427 4.04035 95.14285714285714 4.6244499999999995 102.24838095238094 5.81137 102.27504761904761 5.6006 102.31009523809523 5.38964 102.35276190476189 5.1790199999999995 103.10247619047618 1.45266 105.98095238095237-0.758727 108.78019047619047 0.23974800000000002L129.05904761904762 7.47134C131.8590476190476 8.469809999999999 133.51999999999998 12.3 132.77028571428573 16.026400000000002 132.65371428571427 16.6059 132.48533333333333 17.148600000000002 132.27428571428572 17.6484 133.74476190476187 18.915200000000002 135.06361904761903 20.296599999999998 136.19580952380952 21.802899999999998 140.47466666666665 27.4977 144.37561904761904 36.4768 147.67999999999998 46.5605 151.03466666666665 56.7998 153.97028571428572 68.7875 156.13104761904762 81.01570000000001 158.29104761904762 93.23679999999999 159.70819047619048 105.877 159.95961904761904 117.41799999999999 160.208 128.809 159.33790476190475 139.802 156.50971428571427 148.293 153.8864761904762 156.167 147.68228571428568 160.78 141.3462857142857 159.89100000000002 134.66895238095236 158.954 129.6342857142857 154.383 125.45904761904761 149.093 122.89066666666666 145.839 120.25142857142856 141.74099999999999 117.70971428571428 137.793 116.3855238095238 135.737 115.08647619047619 133.72 113.83847619047619 131.886 106.19657142857142 120.655 97.08342857142857 110.564 80 110.564 62.91664761904761 110.564 53.80380952380952 120.655 46.16144761904762 131.886 44.91337142857142 133.721 43.615161904761905 135.73600000000002 42.29066666666667 137.793 39.748571428571424 141.74099999999999 37.109333333333325 145.839 34.54087619047618 149.093 30.36540952380952 154.383 25.3312 158.954 18.653942857142855 159.89100000000002 12.317333333333332 160.78 6.11312 156.167 3.4900342857142856 148.293 0.6617333333333333 139.802-0.207872 128.809 0.040217142857142854 117.41799999999999 0.29157866666666665 105.877 1.7092266666666667 93.23660000000001 3.8688457142857136 81.01570000000001 6.0297447619047615 68.7875 8.965257142857142 56.7997 12.320533333333334 46.5604 15.624761904761902 36.4767 19.525714285714283 27.4977 23.804647619047618 21.802899999999998 25.093942857142856 20.087000000000003 26.62582857142857 18.5332 28.34887619047619 17.1264 28.22910476190476 16.777 28.129371428571428 16.4097 28.052190476190475 16.026400000000002ZM49.426742857142855 21.79C40.22133333333333 24.3693 34.007847619047624 27.9805 31.22704761904762 31.6815 28.33500952380952 35.5304 25.065066666666667 42.614900000000006 21.942171428571427 52.1452 18.870247619047618 61.51989999999999 16.122209523809524 72.6966 14.086933333333333 84.2141 12.050361904761903 95.7387 10.759161904761903 107.425 10.532647619047617 117.823 10.302933333333334 128.37099999999998 11.186514285714285 136.928 13.086095238095236 142.631 13.822704761904761 144.84199999999998 15.64647619047619 146.265 17.5536 145.998 20.991619047619047 145.51500000000001 23.96297142857143 143.20600000000002 27.303466666666665 138.974 29.53264761904762 136.15 31.512685714285716 133.063 33.76434285714285 129.552 35.15801904761904 127.37899999999999 36.65569523809524 125.04400000000001 38.38095238095238 122.509 47.05097142857143 109.767 58.77097142857142 96.594 80 96.594 101.22895238095238 96.594 112.94933333333333 109.767 121.61904761904762 122.509 123.344 125.04400000000001 124.84190476190476 127.37899999999999 126.23542857142857 129.552 128.48761904761903 133.063 130.4670476190476 136.15 132.69638095238093 138.974 136.03733333333332 143.20600000000002 139.0087619047619 145.51500000000001 142.4464761904762 145.998 144.3535238095238 146.265 146.1775238095238 144.84199999999998 146.91352380952378 142.631 148.81371428571427 136.928 149.6967619047619 128.37099999999998 149.46742857142857 117.823 149.24114285714285 107.425 147.94971428571426 95.73880000000001 145.91314285714284 84.2141 143.87809523809523 72.69669999999999 141.12990476190475 61.52 138.05790476190475 52.1452 134.93485714285714 42.614900000000006 131.6647619047619 35.5304 128.7733333333333 31.6815 125.99238095238094 27.9805 119.77904761904762 24.3693 110.57371428571429 21.79 101.65866666666666 19.2921 90.87923809523808 18.0107 80 18.0107 69.1208380952381 18.0107 58.34179047619047 19.2921 49.426742857142855 21.79Z" class="hierarchical-1:primary "/></g>
  <g id="Ultralight-L" transform="matrix(1,0,0,1,479.711,1440.77)">

  <path d="M116.73904761904761 54.6829C116.73904761904761 58.5407 114.38933333333333 61.668099999999995 111.49104761904762 61.668099999999995 108.592 61.668099999999995 106.24228571428571 58.5407 106.24228571428571 54.6829 106.24228571428571 50.8251 108.592 47.697700000000005 111.49104761904762 47.697700000000005 114.38933333333333 47.697700000000005 116.73904761904761 50.8251 116.73904761904761 54.6829Z" class="hierarchical-1:primary "/><path d="M100.99352380952381 75.63850000000001C103.89257142857142 75.63850000000001 106.24228571428571 72.5111 106.24228571428571 68.6533 106.24228571428571 64.7955 103.89257142857142 61.668099999999995 100.99352380952381 61.668099999999995 98.09523809523809 61.668099999999995 95.7455238095238 64.7955 95.7455238095238 68.6533 95.7455238095238 72.5111 98.09523809523809 75.63850000000001 100.99352380952381 75.63850000000001Z" class="hierarchical-1:primary "/><path d="M127.23580952380952 68.6533C127.23580952380952 72.5111 124.88609523809524 75.63850000000001 121.98780952380952 75.63850000000001 119.0887619047619 75.63850000000001 116.73904761904761 72.5111 116.73904761904761 68.6533 116.73904761904761 64.7955 119.0887619047619 61.668099999999995 121.98780952380952 61.668099999999995 124.88609523809524 61.668099999999995 127.23580952380952 64.7955 127.23580952380952 68.6533Z" class="hierarchical-1:primary "/><path d="M111.49104761904762 89.6088C114.38933333333333 89.6088 116.73904761904761 86.4814 116.73904761904761 82.6236 116.73904761904761 78.7658 114.38933333333333 75.63850000000001 111.49104761904762 75.63850000000001 108.592 75.63850000000001 106.24228571428571 78.7658 106.24228571428571 82.6236 106.24228571428571 86.4814 108.592 89.6088 111.49104761904762 89.6088Z" class="hierarchical-1:primary "/><path d="M43.26110476190476 47.697700000000005H53.75794285714285V61.668099999999995H64.25485714285715V75.63850000000001H53.75794285714285V89.6088H43.26110476190476V75.63850000000001H32.764266666666664V61.668099999999995H43.26110476190476V47.697700000000005Z" class="hierarchical-1:primary "/><path d="M28.052190476190475 16.026400000000002C27.302019047619048 12.3 28.96358095238095 8.469809999999999 31.763428571428566 7.47134L52.04182857142857 0.23974800000000002C54.841676190476186-0.758727 57.719542857142855 1.45266 58.46979047619047 5.1790199999999995 58.50339047619047 5.345870000000001 58.53211428571428 5.51292 58.55619047619047 5.679920000000001 65.42857142857143 4.58131 72.73455238095238 4.04035 80 4.04035 87.54971428571427 4.04035 95.14285714285714 4.6244499999999995 102.24838095238094 5.81137 102.27504761904761 5.6006 102.31009523809523 5.38964 102.35276190476189 5.1790199999999995 103.10247619047618 1.45266 105.98095238095237-0.758727 108.78019047619047 0.23974800000000002L129.05904761904762 7.47134C131.8590476190476 8.469809999999999 133.51999999999998 12.3 132.77028571428573 16.026400000000002 132.65371428571427 16.6059 132.48533333333333 17.148600000000002 132.27428571428572 17.6484 133.74476190476187 18.915200000000002 135.06361904761903 20.296599999999998 136.19580952380952 21.802899999999998 140.47466666666665 27.4977 144.37561904761904 36.4768 147.67999999999998 46.5605 151.03466666666665 56.7998 153.97028571428572 68.7875 156.13104761904762 81.01570000000001 158.29104761904762 93.23679999999999 159.70819047619048 105.877 159.95961904761904 117.41799999999999 160.208 128.809 159.33790476190475 139.802 156.50971428571427 148.293 153.8864761904762 156.167 147.68228571428568 160.78 141.3462857142857 159.89100000000002 134.66895238095236 158.954 129.6342857142857 154.383 125.45904761904761 149.093 122.89066666666666 145.839 120.25142857142856 141.74099999999999 117.70971428571428 137.793 116.3855238095238 135.737 115.08647619047619 133.72 113.83847619047619 131.886 106.19657142857142 120.655 97.08342857142857 110.564 80 110.564 62.91664761904761 110.564 53.80380952380952 120.655 46.16144761904762 131.886 44.91337142857142 133.721 43.615161904761905 135.73600000000002 42.29066666666667 137.793 39.748571428571424 141.74099999999999 37.109333333333325 145.839 34.54087619047618 149.093 30.36540952380952 154.383 25.3312 158.954 18.653942857142855 159.89100000000002 12.317333333333332 160.78 6.11312 156.167 3.4900342857142856 148.293 0.6617333333333333 139.802-0.207872 128.809 0.040217142857142854 117.41799999999999 0.29157866666666665 105.877 1.7092266666666667 93.23660000000001 3.8688457142857136 81.01570000000001 6.0297447619047615 68.7875 8.965257142857142 56.7997 12.320533333333334 46.5604 15.624761904761902 36.4767 19.525714285714283 27.4977 23.804647619047618 21.802899999999998 25.093942857142856 20.087000000000003 26.62582857142857 18.5332 28.34887619047619 17.1264 28.22910476190476 16.777 28.129371428571428 16.4097 28.052190476190475 16.026400000000002ZM49.426742857142855 21.79C40.22133333333333 24.3693 34.007847619047624 27.9805 31.22704761904762 31.6815 28.33500952380952 35.5304 25.065066666666667 42.614900000000006 21.942171428571427 52.1452 18.870247619047618 61.51989999999999 16.122209523809524 72.6966 14.086933333333333 84.2141 12.050361904761903 95.7387 10.759161904761903 107.425 10.532647619047617 117.823 10.302933333333334 128.37099999999998 11.186514285714285 136.928 13.086095238095236 142.631 13.822704761904761 144.84199999999998 15.64647619047619 146.265 17.5536 145.998 20.991619047619047 145.51500000000001 23.96297142857143 143.20600000000002 27.303466666666665 138.974 29.53264761904762 136.15 31.512685714285716 133.063 33.76434285714285 129.552 35.15801904761904 127.37899999999999 36.65569523809524 125.04400000000001 38.38095238095238 122.509 47.05097142857143 109.767 58.77097142857142 96.594 80 96.594 101.22895238095238 96.594 112.94933333333333 109.767 121.61904761904762 122.509 123.344 125.04400000000001 124.84190476190476 127.37899999999999 126.23542857142857 129.552 128.48761904761903 133.063 130.4670476190476 136.15 132.69638095238093 138.974 136.03733333333332 143.20600000000002 139.0087619047619 145.51500000000001 142.4464761904762 145.998 144.3535238095238 146.265 146.1775238095238 144.84199999999998 146.91352380952378 142.631 148.81371428571427 136.928 149.6967619047619 128.37099999999998 149.46742857142857 117.823 149.24114285714285 107.425 147.94971428571426 95.73880000000001 145.91314285714284 84.2141 143.87809523809523 72.69669999999999 141.12990476190475 61.52 138.05790476190475 52.1452 134.93485714285714 42.614900000000006 131.6647619047619 35.5304 128.7733333333333 31.6815 125.99238095238094 27.9805 119.77904761904762 24.3693 110.57371428571429 21.79 101.65866666666666 19.2921 90.87923809523808 18.0107 80 18.0107 69.1208380952381 18.0107 58.34179047619047 19.2921 49.426742857142855 21.79Z" class="hierarchical-1:primary "/></g>
  <g id="Black-M" transform="matrix(1,0,0,1,2869.3999999999996,1026.77)">

  <path d="M93.39123809523808 43.74632C93.39123809523808 46.83256 91.51146666666666 49.33448 89.19283809523809 49.33448 86.8736 49.33448 84.99382857142857 46.83256 84.99382857142857 43.74632 84.99382857142857 40.66008 86.8736 38.15816 89.19283809523809 38.15816 91.51146666666666 38.15816 93.39123809523808 40.66008 93.39123809523808 43.74632Z" class="hierarchical-1:primary "/><path d="M80.79481904761904 60.5108C83.11405714285713 60.5108 84.99382857142857 58.00888 84.99382857142857 54.92264 84.99382857142857 51.8364 83.11405714285713 49.33448 80.79481904761904 49.33448 78.47619047619047 49.33448 76.59641904761904 51.8364 76.59641904761904 54.92264 76.59641904761904 58.00888 78.47619047619047 60.5108 80.79481904761904 60.5108Z" class="hierarchical-1:primary "/><path d="M101.78864761904761 54.92264C101.78864761904761 58.00888 99.90887619047619 60.5108 97.59024761904762 60.5108 95.27100952380951 60.5108 93.39123809523808 58.00888 93.39123809523808 54.92264 93.39123809523808 51.8364 95.27100952380951 49.33448 97.59024761904762 49.33448 99.90887619047619 49.33448 101.78864761904761 51.8364 101.78864761904761 54.92264Z" class="hierarchical-1:primary "/><path d="M89.19283809523809 71.68704C91.51146666666666 71.68704 93.39123809523808 69.18512 93.39123809523808 66.09888 93.39123809523808 63.01264 91.51146666666666 60.5108 89.19283809523809 60.5108 86.8736 60.5108 84.99382857142857 63.01264 84.99382857142857 66.09888 84.99382857142857 69.18512 86.8736 71.68704 89.19283809523809 71.68704Z" class="hierarchical-1:primary "/><path d="M34.60888380952381 38.15816H43.00635428571428V49.33448H51.403885714285714V60.5108H43.00635428571428V71.68704H34.60888380952381V60.5108H26.21141333333333V49.33448H34.60888380952381V38.15816Z" class="hierarchical-1:primary "/><path d="M22.44175238095238 12.82112C21.841615238095237 9.84 23.17086476190476 6.775848 25.410742857142854 5.977072L41.63346285714285 0.1917984C43.87334095238095-0.6069816 46.17563428571428 1.162128 46.77583238095237 4.143216 46.80271238095238 4.276696 46.825691428571425 4.410336 46.84495238095238 4.543936 52.34285714285714 3.665048 58.187641904761904 3.23228 64 3.23228 70.03977142857143 3.23228 76.11428571428571 3.69956 81.79870476190476 4.649096 81.82003809523809 4.48048 81.84807619047619 4.311712 81.88220952380952 4.143216 82.48198095238095 1.162128 84.78476190476191-0.6069816 87.02415238095237 0.1917984L103.24723809523809 5.977072C105.48723809523808 6.775848 106.81599999999999 9.84 106.21622857142857 12.82112 106.12297142857142 13.28472 105.98826666666666 13.71888 105.81942857142857 14.11872 106.99580952380951 15.13216 108.05089523809524 16.23728 108.9566476190476 17.44232 112.37973333333333 21.99816 115.50049523809524 29.18144 118.14399999999999 37.2484 120.82773333333333 45.43984 123.17622857142857 55.03 124.90483809523809 64.81256 126.63283809523809 74.58944 127.76655238095238 84.7016 127.96769523809525 93.9344 128.16639999999998 103.0472 127.4703238095238 111.8416 125.2077714285714 118.6344 123.10918095238095 124.9336 118.14582857142855 128.624 113.07702857142857 127.9128 107.7351619047619 127.1632 103.70742857142858 123.5064 100.3672380952381 119.2744 98.31253333333333 116.6712 96.20114285714286 113.3928 94.16777142857143 110.2344 93.10841904761905 108.5896 92.06918095238095 106.976 91.07078095238094 105.5088 84.95725714285713 96.524 77.66674285714285 88.4512 64 88.4512 50.333318095238084 88.4512 43.04304761904762 96.524 36.929158095238094 105.5088 35.93069714285714 106.9768 34.89212952380952 108.5888 33.83253333333333 110.2344 31.798857142857138 113.3928 29.687466666666662 116.6712 27.632700952380947 119.2744 24.292327619047615 123.5064 20.26496 127.1632 14.923154285714284 127.9128 9.853866666666665 128.624 4.890496 124.9336 2.7920274285714286 118.6344 0.5293866666666667 111.8416-0.1662976 103.0472 0.032173714285714285 93.9344 0.2332629333333333 84.7016 1.3673813333333333 74.58928 3.095076571428571 64.81256 4.823795809523809 55.03 7.172205714285714 45.43976 9.856426666666666 37.24832 12.499809523809523 29.18136 15.620571428571427 21.99816 19.04371809523809 17.44232 20.075154285714284 16.0696 21.300662857142857 14.82656 22.679100952380953 13.70112 22.58328380952381 13.4216 22.503497142857142 13.12776 22.44175238095238 12.82112ZM39.54139428571428 17.432C32.17706666666666 19.49544 27.206278095238098 22.3844 24.981638095238097 25.3452 22.668007619047618 28.42432 20.052053333333333 34.09192 17.553737142857145 41.71616 15.096198095238094 49.21592 12.897767619047618 58.15728 11.269546666666667 67.37128 9.640289523809523 76.59096 8.607329523809524 85.94 8.426118095238094 94.2584 8.242346666666666 102.6968 8.949211428571427 109.5424 10.46887619047619 114.1048 11.058163809523808 115.8736 12.51718095238095 117.012 14.04288 116.7984 16.793295238095236 116.412 19.17037714285714 114.5648 21.842773333333334 111.1792 23.626118095238095 108.92 25.210148571428572 106.4504 27.011474285714282 103.6416 28.126415238095237 101.9032 29.32455619047619 100.0352 30.704761904761902 98.0072 37.64077714285714 87.8136 47.01677714285714 77.2752 64 77.2752 80.9831619047619 77.2752 90.35946666666666 87.8136 97.29523809523809 98.0072 98.67519999999999 100.0352 99.8735238095238 101.9032 100.98834285714285 103.6416 102.79009523809523 106.4504 104.37363809523808 108.92 106.15710476190475 111.1792 108.82986666666666 114.5648 111.20700952380953 116.412 113.95718095238095 116.7984 115.48281904761905 117.012 116.94201904761904 115.8736 117.53081904761903 114.1048 119.05097142857143 109.5424 119.75740952380951 102.6968 119.57394285714285 94.2584 119.39291428571428 85.94 118.3597714285714 76.59104 116.73051428571428 67.37128 115.10247619047618 58.15736 112.9039238095238 49.216 110.4463238095238 41.71616 107.9478857142857 34.09192 105.33180952380951 28.42432 103.01866666666665 25.3452 100.79390476190476 22.3844 95.8232380952381 19.49544 88.45897142857143 17.432 81.32693333333333 15.43368 72.70339047619046 14.40856 64 14.40856 55.29667047619048 14.40856 46.67343238095238 15.43368 39.54139428571428 17.432Z" class="hierarchical-1:primary "/></g>
  <g id="Regular-M" transform="matrix(1,0,0,1,1385.845,1026.77)">

  <path d="M93.39123809523808 43.74632C93.39123809523808 46.83256 91.51146666666666 49.33448 89.19283809523809 49.33448 86.8736 49.33448 84.99382857142857 46.83256 84.99382857142857 43.74632 84.99382857142857 40.66008 86.8736 38.15816 89.19283809523809 38.15816 91.51146666666666 38.15816 93.39123809523808 40.66008 93.39123809523808 43.74632Z" class="hierarchical-1:primary "/><path d="M80.79481904761904 60.5108C83.11405714285713 60.5108 84.99382857142857 58.00888 84.99382857142857 54.92264 84.99382857142857 51.8364 83.11405714285713 49.33448 80.79481904761904 49.33448 78.47619047619047 49.33448 76.59641904761904 51.8364 76.59641904761904 54.92264 76.59641904761904 58.00888 78.47619047619047 60.5108 80.79481904761904 60.5108Z" class="hierarchical-1:primary "/><path d="M101.78864761904761 54.92264C101.78864761904761 58.00888 99.90887619047619 60.5108 97.59024761904762 60.5108 95.27100952380951 60.5108 93.39123809523808 58.00888 93.39123809523808 54.92264 93.39123809523808 51.8364 95.27100952380951 49.33448 97.59024761904762 49.33448 99.90887619047619 49.33448 101.78864761904761 51.8364 101.78864761904761 54.92264Z" class="hierarchical-1:primary "/><path d="M89.19283809523809 71.68704C91.51146666666666 71.68704 93.39123809523808 69.18512 93.39123809523808 66.09888 93.39123809523808 63.01264 91.51146666666666 60.5108 89.19283809523809 60.5108 86.8736 60.5108 84.99382857142857 63.01264 84.99382857142857 66.09888 84.99382857142857 69.18512 86.8736 71.68704 89.19283809523809 71.68704Z" class="hierarchical-1:primary "/><path d="M34.60888380952381 38.15816H43.00635428571428V49.33448H51.403885714285714V60.5108H43.00635428571428V71.68704H34.60888380952381V60.5108H26.21141333333333V49.33448H34.60888380952381V38.15816Z" class="hierarchical-1:primary "/><path d="M22.44175238095238 12.82112C21.841615238095237 9.84 23.17086476190476 6.775848 25.410742857142854 5.977072L41.63346285714285 0.1917984C43.87334095238095-0.6069816 46.17563428571428 1.162128 46.77583238095237 4.143216 46.80271238095238 4.276696 46.825691428571425 4.410336 46.84495238095238 4.543936 52.34285714285714 3.665048 58.187641904761904 3.23228 64 3.23228 70.03977142857143 3.23228 76.11428571428571 3.69956 81.79870476190476 4.649096 81.82003809523809 4.48048 81.84807619047619 4.311712 81.88220952380952 4.143216 82.48198095238095 1.162128 84.78476190476191-0.6069816 87.02415238095237 0.1917984L103.24723809523809 5.977072C105.48723809523808 6.775848 106.81599999999999 9.84 106.21622857142857 12.82112 106.12297142857142 13.28472 105.98826666666666 13.71888 105.81942857142857 14.11872 106.99580952380951 15.13216 108.05089523809524 16.23728 108.9566476190476 17.44232 112.37973333333333 21.99816 115.50049523809524 29.18144 118.14399999999999 37.2484 120.82773333333333 45.43984 123.17622857142857 55.03 124.90483809523809 64.81256 126.63283809523809 74.58944 127.76655238095238 84.7016 127.96769523809525 93.9344 128.16639999999998 103.0472 127.4703238095238 111.8416 125.2077714285714 118.6344 123.10918095238095 124.9336 118.14582857142855 128.624 113.07702857142857 127.9128 107.7351619047619 127.1632 103.70742857142858 123.5064 100.3672380952381 119.2744 98.31253333333333 116.6712 96.20114285714286 113.3928 94.16777142857143 110.2344 93.10841904761905 108.5896 92.06918095238095 106.976 91.07078095238094 105.5088 84.95725714285713 96.524 77.66674285714285 88.4512 64 88.4512 50.333318095238084 88.4512 43.04304761904762 96.524 36.929158095238094 105.5088 35.93069714285714 106.9768 34.89212952380952 108.5888 33.83253333333333 110.2344 31.798857142857138 113.3928 29.687466666666662 116.6712 27.632700952380947 119.2744 24.292327619047615 123.5064 20.26496 127.1632 14.923154285714284 127.9128 9.853866666666665 128.624 4.890496 124.9336 2.7920274285714286 118.6344 0.5293866666666667 111.8416-0.1662976 103.0472 0.032173714285714285 93.9344 0.2332629333333333 84.7016 1.3673813333333333 74.58928 3.095076571428571 64.81256 4.823795809523809 55.03 7.172205714285714 45.43976 9.856426666666666 37.24832 12.499809523809523 29.18136 15.620571428571427 21.99816 19.04371809523809 17.44232 20.075154285714284 16.0696 21.300662857142857 14.82656 22.679100952380953 13.70112 22.58328380952381 13.4216 22.503497142857142 13.12776 22.44175238095238 12.82112ZM39.54139428571428 17.432C32.17706666666666 19.49544 27.206278095238098 22.3844 24.981638095238097 25.3452 22.668007619047618 28.42432 20.052053333333333 34.09192 17.553737142857145 41.71616 15.096198095238094 49.21592 12.897767619047618 58.15728 11.269546666666667 67.37128 9.640289523809523 76.59096 8.607329523809524 85.94 8.426118095238094 94.2584 8.242346666666666 102.6968 8.949211428571427 109.5424 10.46887619047619 114.1048 11.058163809523808 115.8736 12.51718095238095 117.012 14.04288 116.7984 16.793295238095236 116.412 19.17037714285714 114.5648 21.842773333333334 111.1792 23.626118095238095 108.92 25.210148571428572 106.4504 27.011474285714282 103.6416 28.126415238095237 101.9032 29.32455619047619 100.0352 30.704761904761902 98.0072 37.64077714285714 87.8136 47.01677714285714 77.2752 64 77.2752 80.9831619047619 77.2752 90.35946666666666 87.8136 97.29523809523809 98.0072 98.67519999999999 100.0352 99.8735238095238 101.9032 100.98834285714285 103.6416 102.79009523809523 106.4504 104.37363809523808 108.92 106.15710476190475 111.1792 108.82986666666666 114.5648 111.20700952380953 116.412 113.95718095238095 116.7984 115.48281904761905 117.012 116.94201904761904 115.8736 117.53081904761903 114.1048 119.05097142857143 109.5424 119.75740952380951 102.6968 119.57394285714285 94.2584 119.39291428571428 85.94 118.3597714285714 76.59104 116.73051428571428 67.37128 115.10247619047618 58.15736 112.9039238095238 49.216 110.4463238095238 41.71616 107.9478857142857 34.09192 105.33180952380951 28.42432 103.01866666666665 25.3452 100.79390476190476 22.3844 95.8232380952381 19.49544 88.45897142857143 17.432 81.32693333333333 15.43368 72.70339047619046 14.40856 64 14.40856 55.29667047619048 14.40856 46.67343238095238 15.43368 39.54139428571428 17.432Z" class="hierarchical-1:primary "/></g>
  <g id="Ultralight-M" transform="matrix(1,0,0,1,495.711,1026.77)">

  <path d="M93.39123809523808 43.74632C93.39123809523808 46.83256 91.51146666666666 49.33448 89.19283809523809 49.33448 86.8736 49.33448 84.99382857142857 46.83256 84.99382857142857 43.74632 84.99382857142857 40.66008 86.8736 38.15816 89.19283809523809 38.15816 91.51146666666666 38.15816 93.39123809523808 40.66008 93.39123809523808 43.74632Z" class="hierarchical-1:primary "/><path d="M80.79481904761904 60.5108C83.11405714285713 60.5108 84.99382857142857 58.00888 84.99382857142857 54.92264 84.99382857142857 51.8364 83.11405714285713 49.33448 80.79481904761904 49.33448 78.47619047619047 49.33448 76.59641904761904 51.8364 76.59641904761904 54.92264 76.59641904761904 58.00888 78.47619047619047 60.5108 80.79481904761904 60.5108Z" class="hierarchical-1:primary "/><path d="M101.78864761904761 54.92264C101.78864761904761 58.00888 99.90887619047619 60.5108 97.59024761904762 60.5108 95.27100952380951 60.5108 93.39123809523808 58.00888 93.39123809523808 54.92264 93.39123809523808 51.8364 95.27100952380951 49.33448 97.59024761904762 49.33448 99.90887619047619 49.33448 101.78864761904761 51.8364 101.78864761904761 54.92264Z" class="hierarchical-1:primary "/><path d="M89.19283809523809 71.68704C91.51146666666666 71.68704 93.39123809523808 69.18512 93.39123809523808 66.09888 93.39123809523808 63.01264 91.51146666666666 60.5108 89.19283809523809 60.5108 86.8736 60.5108 84.99382857142857 63.01264 84.99382857142857 66.09888 84.99382857142857 69.18512 86.8736 71.68704 89.19283809523809 71.68704Z" class="hierarchical-1:primary "/><path d="M34.60888380952381 38.15816H43.00635428571428V49.33448H51.403885714285714V60.5108H43.00635428571428V71.68704H34.60888380952381V60.5108H26.21141333333333V49.33448H34.60888380952381V38.15816Z" class="hierarchical-1:primary "/><path d="M22.44175238095238 12.82112C21.841615238095237 9.84 23.17086476190476 6.775848 25.410742857142854 5.977072L41.63346285714285 0.1917984C43.87334095238095-0.6069816 46.17563428571428 1.162128 46.77583238095237 4.143216 46.80271238095238 4.276696 46.825691428571425 4.410336 46.84495238095238 4.543936 52.34285714285714 3.665048 58.187641904761904 3.23228 64 3.23228 70.03977142857143 3.23228 76.11428571428571 3.69956 81.79870476190476 4.649096 81.82003809523809 4.48048 81.84807619047619 4.311712 81.88220952380952 4.143216 82.48198095238095 1.162128 84.78476190476191-0.6069816 87.02415238095237 0.1917984L103.24723809523809 5.977072C105.48723809523808 6.775848 106.81599999999999 9.84 106.21622857142857 12.82112 106.12297142857142 13.28472 105.98826666666666 13.71888 105.81942857142857 14.11872 106.99580952380951 15.13216 108.05089523809524 16.23728 108.9566476190476 17.44232 112.37973333333333 21.99816 115.50049523809524 29.18144 118.14399999999999 37.2484 120.82773333333333 45.43984 123.17622857142857 55.03 124.90483809523809 64.81256 126.63283809523809 74.58944 127.76655238095238 84.7016 127.96769523809525 93.9344 128.16639999999998 103.0472 127.4703238095238 111.8416 125.2077714285714 118.6344 123.10918095238095 124.9336 118.14582857142855 128.624 113.07702857142857 127.9128 107.7351619047619 127.1632 103.70742857142858 123.5064 100.3672380952381 119.2744 98.31253333333333 116.6712 96.20114285714286 113.3928 94.16777142857143 110.2344 93.10841904761905 108.5896 92.06918095238095 106.976 91.07078095238094 105.5088 84.95725714285713 96.524 77.66674285714285 88.4512 64 88.4512 50.333318095238084 88.4512 43.04304761904762 96.524 36.929158095238094 105.5088 35.93069714285714 106.9768 34.89212952380952 108.5888 33.83253333333333 110.2344 31.798857142857138 113.3928 29.687466666666662 116.6712 27.632700952380947 119.2744 24.292327619047615 123.5064 20.26496 127.1632 14.923154285714284 127.9128 9.853866666666665 128.624 4.890496 124.9336 2.7920274285714286 118.6344 0.5293866666666667 111.8416-0.1662976 103.0472 0.032173714285714285 93.9344 0.2332629333333333 84.7016 1.3673813333333333 74.58928 3.095076571428571 64.81256 4.823795809523809 55.03 7.172205714285714 45.43976 9.856426666666666 37.24832 12.499809523809523 29.18136 15.620571428571427 21.99816 19.04371809523809 17.44232 20.075154285714284 16.0696 21.300662857142857 14.82656 22.679100952380953 13.70112 22.58328380952381 13.4216 22.503497142857142 13.12776 22.44175238095238 12.82112ZM39.54139428571428 17.432C32.17706666666666 19.49544 27.206278095238098 22.3844 24.981638095238097 25.3452 22.668007619047618 28.42432 20.052053333333333 34.09192 17.553737142857145 41.71616 15.096198095238094 49.21592 12.897767619047618 58.15728 11.269546666666667 67.37128 9.640289523809523 76.59096 8.607329523809524 85.94 8.426118095238094 94.2584 8.242346666666666 102.6968 8.949211428571427 109.5424 10.46887619047619 114.1048 11.058163809523808 115.8736 12.51718095238095 117.012 14.04288 116.7984 16.793295238095236 116.412 19.17037714285714 114.5648 21.842773333333334 111.1792 23.626118095238095 108.92 25.210148571428572 106.4504 27.011474285714282 103.6416 28.126415238095237 101.9032 29.32455619047619 100.0352 30.704761904761902 98.0072 37.64077714285714 87.8136 47.01677714285714 77.2752 64 77.2752 80.9831619047619 77.2752 90.35946666666666 87.8136 97.29523809523809 98.0072 98.67519999999999 100.0352 99.8735238095238 101.9032 100.98834285714285 103.6416 102.79009523809523 106.4504 104.37363809523808 108.92 106.15710476190475 111.1792 108.82986666666666 114.5648 111.20700952380953 116.412 113.95718095238095 116.7984 115.48281904761905 117.012 116.94201904761904 115.8736 117.53081904761903 114.1048 119.05097142857143 109.5424 119.75740952380951 102.6968 119.57394285714285 94.2584 119.39291428571428 85.94 118.3597714285714 76.59104 116.73051428571428 67.37128 115.10247619047618 58.15736 112.9039238095238 49.216 110.4463238095238 41.71616 107.9478857142857 34.09192 105.33180952380951 28.42432 103.01866666666665 25.3452 100.79390476190476 22.3844 95.8232380952381 19.49544 88.45897142857143 17.432 81.32693333333333 15.43368 72.70339047619046 14.40856 64 14.40856 55.29667047619048 14.40856 46.67343238095238 15.43368 39.54139428571428 17.432Z" class="hierarchical-1:primary "/></g>
  <g id="Black-S" transform="matrix(1,0,0,1,2885.3999999999996,612.7705000000001)">

  <path d="M70.04342857142856 32.80974C70.04342857142856 35.12442 68.6336 37.00086 66.89462857142857 37.00086 65.1552 37.00086 63.745371428571424 35.12442 63.745371428571424 32.80974 63.745371428571424 30.495060000000002 65.1552 28.61862 66.89462857142857 28.61862 68.6336 28.61862 70.04342857142856 30.495060000000002 70.04342857142856 32.80974Z" class="hierarchical-1:primary "/><path d="M60.59611428571428 45.3831C62.335542857142855 45.3831 63.745371428571424 43.50666 63.745371428571424 41.19198 63.745371428571424 38.8773 62.335542857142855 37.00086 60.59611428571428 37.00086 58.857142857142854 37.00086 57.44731428571428 38.8773 57.44731428571428 41.19198 57.44731428571428 43.50666 58.857142857142854 45.3831 60.59611428571428 45.3831Z" class="hierarchical-1:primary "/><path d="M76.34148571428571 41.19198C76.34148571428571 43.50666 74.93165714285715 45.3831 73.1926857142857 45.3831 71.45325714285714 45.3831 70.04342857142856 43.50666 70.04342857142856 41.19198 70.04342857142856 38.8773 71.45325714285714 37.00086 73.1926857142857 37.00086 74.93165714285715 37.00086 76.34148571428571 38.8773 76.34148571428571 41.19198Z" class="hierarchical-1:primary "/><path d="M66.89462857142857 53.76528C68.6336 53.76528 70.04342857142856 51.88884 70.04342857142856 49.57415999999999 70.04342857142856 47.259479999999996 68.6336 45.3831 66.89462857142857 45.3831 65.1552 45.3831 63.745371428571424 47.259479999999996 63.745371428571424 49.57415999999999 63.745371428571424 51.88884 65.1552 53.76528 66.89462857142857 53.76528Z" class="hierarchical-1:primary "/><path d="M25.956662857142856 28.61862H32.25476571428571V37.00086H38.55291428571429V45.3831H32.25476571428571V53.76528H25.956662857142856V45.3831H19.658559999999998V37.00086H25.956662857142856V28.61862Z" class="hierarchical-1:primary "/><path d="M16.831314285714285 9.61584C16.38121142857143 7.38 17.37814857142857 5.081886 19.05805714285714 4.482804L31.22509714285714 0.1438488C32.905005714285714-0.4552362 34.631725714285714 0.871596 35.081874285714285 3.107412 35.10203428571428 3.207522 35.11926857142857 3.307752 35.133714285714284 3.4079520000000003 39.25714285714286 2.748786 43.64073142857143 2.42421 48 2.42421 52.52982857142857 2.42421 57.08571428571429 2.77467 61.34902857142857 3.486822 61.36502857142857 3.36036 61.38605714285714 3.233784 61.41165714285714 3.107412 61.861485714285706 0.871596 63.58857142857143-0.4552362 65.26811428571428 0.1438488L77.43542857142857 4.482804C79.11542857142857 5.081886 80.112 7.38 79.66217142857143 9.61584 79.59222857142856 9.96354 79.49119999999999 10.28916 79.36457142857142 10.58904 80.24685714285714 11.349120000000001 81.03817142857143 12.177959999999999 81.7174857142857 13.08174 84.2848 16.49862 86.62537142857143 21.88608 88.60799999999999 27.936299999999996 90.62079999999999 34.079879999999996 92.38217142857143 41.2725 93.67862857142856 48.60942 94.97462857142857 55.94208 95.82491428571429 63.5262 95.97577142857143 70.4508 96.1248 77.28540000000001 95.60274285714286 83.8812 93.90582857142856 88.97579999999999 92.33188571428572 93.7002 88.60937142857142 96.46799999999999 84.80777142857143 95.9346 80.80137142857143 95.3724 77.78057142857143 92.6298 75.27542857142856 89.4558 73.7344 87.5034 72.15085714285713 85.0446 70.62582857142857 82.6758 69.83131428571429 81.4422 69.05188571428572 80.232 68.30308571428571 79.13159999999999 63.71794285714285 72.393 58.250057142857145 66.33840000000001 48 66.33840000000001 37.74998857142857 66.33840000000001 32.28228571428571 72.393 27.69686857142857 79.13159999999999 26.948022857142853 80.23259999999999 26.169097142857144 81.44160000000001 25.374399999999998 82.6758 23.849142857142855 85.0446 22.265599999999996 87.5034 20.72452571428571 89.4558 18.219245714285712 92.6298 15.19872 95.3724 11.192365714285714 95.9346 7.3904 96.46799999999999 3.667872 93.7002 2.094020571428571 88.97579999999999 0.39703999999999995 83.8812-0.12472319999999999 77.28540000000001 0.024130285714285715 70.4508 0.17494719999999997 63.5262 1.025536 55.94196 2.321307428571428 48.60942 3.617846857142857 41.2725 5.379154285714286 34.07982 7.39232 27.936239999999998 9.374857142857142 21.886020000000002 11.71542857142857 16.49862 14.28278857142857 13.08174 15.056365714285713 12.052200000000001 15.975497142857142 11.11992 17.009325714285712 10.275839999999999 16.937462857142858 10.0662 16.877622857142857 9.84582 16.831314285714285 9.61584ZM29.656045714285714 13.073999999999998C24.132799999999996 14.621579999999998 20.40470857142857 16.7883 18.736228571428573 19.008899999999997 17.001005714285714 21.318240000000003 15.03904 25.56894 13.165302857142857 31.28712 11.32214857142857 36.91194 9.673325714285713 43.61796 8.45216 50.528459999999995 7.230217142857143 57.44322 6.455497142857142 64.455 6.319588571428571 70.6938 6.18176 77.0226 6.7119085714285704 82.1568 7.8516571428571424 85.5786 8.293622857142857 86.9052 9.387885714285714 87.759 10.53216 87.5988 12.594971428571428 87.309 14.377782857142856 85.92360000000001 16.38208 83.3844 17.71958857142857 81.69 18.90761142857143 79.8378 20.25860571428571 77.7312 21.09481142857143 76.4274 21.993417142857144 75.0264 23.028571428571425 73.5054 28.230582857142856 65.86019999999999 35.26258285714285 57.9564 48 57.9564 60.73737142857143 57.9564 67.7696 65.86019999999999 72.97142857142858 73.5054 74.0064 75.0264 74.90514285714285 76.4274 75.74125714285714 77.7312 77.09257142857143 79.8378 78.28022857142857 81.69 79.61782857142856 83.3844 81.6224 85.92360000000001 83.40525714285714 87.309 85.46788571428571 87.5988 86.61211428571428 87.759 87.70651428571428 86.9052 88.14811428571427 85.5786 89.28822857142858 82.1568 89.81805714285714 77.0226 89.68045714285714 70.6938 89.54468571428572 64.455 88.76982857142856 57.44328 87.54788571428571 50.528459999999995 86.32685714285714 43.61802 84.67794285714285 36.912 82.83474285714286 31.28712 80.96091428571428 25.56894 78.99885714285713 21.318240000000003 77.264 19.008899999999997 75.59542857142857 16.7883 71.86742857142856 14.621579999999998 66.34422857142857 13.073999999999998 60.9952 11.57526 54.52754285714285 10.80642 48 10.80642 41.47250285714286 10.80642 35.00507428571428 11.57526 29.656045714285714 13.073999999999998Z" class="hierarchical-1:primary "/></g>
  <g id="Regular-S" transform="matrix(1,0,0,1,1401.845,612.7705000000001)">

  <path d="M70.04342857142856 32.80974C70.04342857142856 35.12442 68.6336 37.00086 66.89462857142857 37.00086 65.1552 37.00086 63.745371428571424 35.12442 63.745371428571424 32.80974 63.745371428571424 30.495060000000002 65.1552 28.61862 66.89462857142857 28.61862 68.6336 28.61862 70.04342857142856 30.495060000000002 70.04342857142856 32.80974Z" class="hierarchical-1:primary "/><path d="M60.59611428571428 45.3831C62.335542857142855 45.3831 63.745371428571424 43.50666 63.745371428571424 41.19198 63.745371428571424 38.8773 62.335542857142855 37.00086 60.59611428571428 37.00086 58.857142857142854 37.00086 57.44731428571428 38.8773 57.44731428571428 41.19198 57.44731428571428 43.50666 58.857142857142854 45.3831 60.59611428571428 45.3831Z" class="hierarchical-1:primary "/><path d="M76.34148571428571 41.19198C76.34148571428571 43.50666 74.93165714285715 45.3831 73.1926857142857 45.3831 71.45325714285714 45.3831 70.04342857142856 43.50666 70.04342857142856 41.19198 70.04342857142856 38.8773 71.45325714285714 37.00086 73.1926857142857 37.00086 74.93165714285715 37.00086 76.34148571428571 38.8773 76.34148571428571 41.19198Z" class="hierarchical-1:primary "/><path d="M66.89462857142857 53.76528C68.6336 53.76528 70.04342857142856 51.88884 70.04342857142856 49.57415999999999 70.04342857142856 47.259479999999996 68.6336 45.3831 66.89462857142857 45.3831 65.1552 45.3831 63.745371428571424 47.259479999999996 63.745371428571424 49.57415999999999 63.745371428571424 51.88884 65.1552 53.76528 66.89462857142857 53.76528Z" class="hierarchical-1:primary "/><path d="M25.956662857142856 28.61862H32.25476571428571V37.00086H38.55291428571429V45.3831H32.25476571428571V53.76528H25.956662857142856V45.3831H19.658559999999998V37.00086H25.956662857142856V28.61862Z" class="hierarchical-1:primary "/><path d="M16.831314285714285 9.61584C16.38121142857143 7.38 17.37814857142857 5.081886 19.05805714285714 4.482804L31.22509714285714 0.1438488C32.905005714285714-0.4552362 34.631725714285714 0.871596 35.081874285714285 3.107412 35.10203428571428 3.207522 35.11926857142857 3.307752 35.133714285714284 3.4079520000000003 39.25714285714286 2.748786 43.64073142857143 2.42421 48 2.42421 52.52982857142857 2.42421 57.08571428571429 2.77467 61.34902857142857 3.486822 61.36502857142857 3.36036 61.38605714285714 3.233784 61.41165714285714 3.107412 61.861485714285706 0.871596 63.58857142857143-0.4552362 65.26811428571428 0.1438488L77.43542857142857 4.482804C79.11542857142857 5.081886 80.112 7.38 79.66217142857143 9.61584 79.59222857142856 9.96354 79.49119999999999 10.28916 79.36457142857142 10.58904 80.24685714285714 11.349120000000001 81.03817142857143 12.177959999999999 81.7174857142857 13.08174 84.2848 16.49862 86.62537142857143 21.88608 88.60799999999999 27.936299999999996 90.62079999999999 34.079879999999996 92.38217142857143 41.2725 93.67862857142856 48.60942 94.97462857142857 55.94208 95.82491428571429 63.5262 95.97577142857143 70.4508 96.1248 77.28540000000001 95.60274285714286 83.8812 93.90582857142856 88.97579999999999 92.33188571428572 93.7002 88.60937142857142 96.46799999999999 84.80777142857143 95.9346 80.80137142857143 95.3724 77.78057142857143 92.6298 75.27542857142856 89.4558 73.7344 87.5034 72.15085714285713 85.0446 70.62582857142857 82.6758 69.83131428571429 81.4422 69.05188571428572 80.232 68.30308571428571 79.13159999999999 63.71794285714285 72.393 58.250057142857145 66.33840000000001 48 66.33840000000001 37.74998857142857 66.33840000000001 32.28228571428571 72.393 27.69686857142857 79.13159999999999 26.948022857142853 80.23259999999999 26.169097142857144 81.44160000000001 25.374399999999998 82.6758 23.849142857142855 85.0446 22.265599999999996 87.5034 20.72452571428571 89.4558 18.219245714285712 92.6298 15.19872 95.3724 11.192365714285714 95.9346 7.3904 96.46799999999999 3.667872 93.7002 2.094020571428571 88.97579999999999 0.39703999999999995 83.8812-0.12472319999999999 77.28540000000001 0.024130285714285715 70.4508 0.17494719999999997 63.5262 1.025536 55.94196 2.321307428571428 48.60942 3.617846857142857 41.2725 5.379154285714286 34.07982 7.39232 27.936239999999998 9.374857142857142 21.886020000000002 11.71542857142857 16.49862 14.28278857142857 13.08174 15.056365714285713 12.052200000000001 15.975497142857142 11.11992 17.009325714285712 10.275839999999999 16.937462857142858 10.0662 16.877622857142857 9.84582 16.831314285714285 9.61584ZM29.656045714285714 13.073999999999998C24.132799999999996 14.621579999999998 20.40470857142857 16.7883 18.736228571428573 19.008899999999997 17.001005714285714 21.318240000000003 15.03904 25.56894 13.165302857142857 31.28712 11.32214857142857 36.91194 9.673325714285713 43.61796 8.45216 50.528459999999995 7.230217142857143 57.44322 6.455497142857142 64.455 6.319588571428571 70.6938 6.18176 77.0226 6.7119085714285704 82.1568 7.8516571428571424 85.5786 8.293622857142857 86.9052 9.387885714285714 87.759 10.53216 87.5988 12.594971428571428 87.309 14.377782857142856 85.92360000000001 16.38208 83.3844 17.71958857142857 81.69 18.90761142857143 79.8378 20.25860571428571 77.7312 21.09481142857143 76.4274 21.993417142857144 75.0264 23.028571428571425 73.5054 28.230582857142856 65.86019999999999 35.26258285714285 57.9564 48 57.9564 60.73737142857143 57.9564 67.7696 65.86019999999999 72.97142857142858 73.5054 74.0064 75.0264 74.90514285714285 76.4274 75.74125714285714 77.7312 77.09257142857143 79.8378 78.28022857142857 81.69 79.61782857142856 83.3844 81.6224 85.92360000000001 83.40525714285714 87.309 85.46788571428571 87.5988 86.61211428571428 87.759 87.70651428571428 86.9052 88.14811428571427 85.5786 89.28822857142858 82.1568 89.81805714285714 77.0226 89.68045714285714 70.6938 89.54468571428572 64.455 88.76982857142856 57.44328 87.54788571428571 50.528459999999995 86.32685714285714 43.61802 84.67794285714285 36.912 82.83474285714286 31.28712 80.96091428571428 25.56894 78.99885714285713 21.318240000000003 77.264 19.008899999999997 75.59542857142857 16.7883 71.86742857142856 14.621579999999998 66.34422857142857 13.073999999999998 60.9952 11.57526 54.52754285714285 10.80642 48 10.80642 41.47250285714286 10.80642 35.00507428571428 11.57526 29.656045714285714 13.073999999999998Z" class="hierarchical-1:primary "/></g>
  <g id="Ultralight-S" transform="matrix(1,0,0,1,511.711,612.7705000000001)">

  <path d="M70.04342857142856 32.80974C70.04342857142856 35.12442 68.6336 37.00086 66.89462857142857 37.00086 65.1552 37.00086 63.745371428571424 35.12442 63.745371428571424 32.80974 63.745371428571424 30.495060000000002 65.1552 28.61862 66.89462857142857 28.61862 68.6336 28.61862 70.04342857142856 30.495060000000002 70.04342857142856 32.80974Z" class="hierarchical-1:primary "/><path d="M60.59611428571428 45.3831C62.335542857142855 45.3831 63.745371428571424 43.50666 63.745371428571424 41.19198 63.745371428571424 38.8773 62.335542857142855 37.00086 60.59611428571428 37.00086 58.857142857142854 37.00086 57.44731428571428 38.8773 57.44731428571428 41.19198 57.44731428571428 43.50666 58.857142857142854 45.3831 60.59611428571428 45.3831Z" class="hierarchical-1:primary "/><path d="M76.34148571428571 41.19198C76.34148571428571 43.50666 74.93165714285715 45.3831 73.1926857142857 45.3831 71.45325714285714 45.3831 70.04342857142856 43.50666 70.04342857142856 41.19198 70.04342857142856 38.8773 71.45325714285714 37.00086 73.1926857142857 37.00086 74.93165714285715 37.00086 76.34148571428571 38.8773 76.34148571428571 41.19198Z" class="hierarchical-1:primary "/><path d="M66.89462857142857 53.76528C68.6336 53.76528 70.04342857142856 51.88884 70.04342857142856 49.57415999999999 70.04342857142856 47.259479999999996 68.6336 45.3831 66.89462857142857 45.3831 65.1552 45.3831 63.745371428571424 47.259479999999996 63.745371428571424 49.57415999999999 63.745371428571424 51.88884 65.1552 53.76528 66.89462857142857 53.76528Z" class="hierarchical-1:primary "/><path d="M25.956662857142856 28.61862H32.25476571428571V37.00086H38.55291428571429V45.3831H32.25476571428571V53.76528H25.956662857142856V45.3831H19.658559999999998V37.00086H25.956662857142856V28.61862Z" class="hierarchical-1:primary "/><path d="M16.831314285714285 9.61584C16.38121142857143 7.38 17.37814857142857 5.081886 19.05805714285714 4.482804L31.22509714285714 0.1438488C32.905005714285714-0.4552362 34.631725714285714 0.871596 35.081874285714285 3.107412 35.10203428571428 3.207522 35.11926857142857 3.307752 35.133714285714284 3.4079520000000003 39.25714285714286 2.748786 43.64073142857143 2.42421 48 2.42421 52.52982857142857 2.42421 57.08571428571429 2.77467 61.34902857142857 3.486822 61.36502857142857 3.36036 61.38605714285714 3.233784 61.41165714285714 3.107412 61.861485714285706 0.871596 63.58857142857143-0.4552362 65.26811428571428 0.1438488L77.43542857142857 4.482804C79.11542857142857 5.081886 80.112 7.38 79.66217142857143 9.61584 79.59222857142856 9.96354 79.49119999999999 10.28916 79.36457142857142 10.58904 80.24685714285714 11.349120000000001 81.03817142857143 12.177959999999999 81.7174857142857 13.08174 84.2848 16.49862 86.62537142857143 21.88608 88.60799999999999 27.936299999999996 90.62079999999999 34.079879999999996 92.38217142857143 41.2725 93.67862857142856 48.60942 94.97462857142857 55.94208 95.82491428571429 63.5262 95.97577142857143 70.4508 96.1248 77.28540000000001 95.60274285714286 83.8812 93.90582857142856 88.97579999999999 92.33188571428572 93.7002 88.60937142857142 96.46799999999999 84.80777142857143 95.9346 80.80137142857143 95.3724 77.78057142857143 92.6298 75.27542857142856 89.4558 73.7344 87.5034 72.15085714285713 85.0446 70.62582857142857 82.6758 69.83131428571429 81.4422 69.05188571428572 80.232 68.30308571428571 79.13159999999999 63.71794285714285 72.393 58.250057142857145 66.33840000000001 48 66.33840000000001 37.74998857142857 66.33840000000001 32.28228571428571 72.393 27.69686857142857 79.13159999999999 26.948022857142853 80.23259999999999 26.169097142857144 81.44160000000001 25.374399999999998 82.6758 23.849142857142855 85.0446 22.265599999999996 87.5034 20.72452571428571 89.4558 18.219245714285712 92.6298 15.19872 95.3724 11.192365714285714 95.9346 7.3904 96.46799999999999 3.667872 93.7002 2.094020571428571 88.97579999999999 0.39703999999999995 83.8812-0.12472319999999999 77.28540000000001 0.024130285714285715 70.4508 0.17494719999999997 63.5262 1.025536 55.94196 2.321307428571428 48.60942 3.617846857142857 41.2725 5.379154285714286 34.07982 7.39232 27.936239999999998 9.374857142857142 21.886020000000002 11.71542857142857 16.49862 14.28278857142857 13.08174 15.056365714285713 12.052200000000001 15.975497142857142 11.11992 17.009325714285712 10.275839999999999 16.937462857142858 10.0662 16.877622857142857 9.84582 16.831314285714285 9.61584ZM29.656045714285714 13.073999999999998C24.132799999999996 14.621579999999998 20.40470857142857 16.7883 18.736228571428573 19.008899999999997 17.001005714285714 21.318240000000003 15.03904 25.56894 13.165302857142857 31.28712 11.32214857142857 36.91194 9.673325714285713 43.61796 8.45216 50.528459999999995 7.230217142857143 57.44322 6.455497142857142 64.455 6.319588571428571 70.6938 6.18176 77.0226 6.7119085714285704 82.1568 7.8516571428571424 85.5786 8.293622857142857 86.9052 9.387885714285714 87.759 10.53216 87.5988 12.594971428571428 87.309 14.377782857142856 85.92360000000001 16.38208 83.3844 17.71958857142857 81.69 18.90761142857143 79.8378 20.25860571428571 77.7312 21.09481142857143 76.4274 21.993417142857144 75.0264 23.028571428571425 73.5054 28.230582857142856 65.86019999999999 35.26258285714285 57.9564 48 57.9564 60.73737142857143 57.9564 67.7696 65.86019999999999 72.97142857142858 73.5054 74.0064 75.0264 74.90514285714285 76.4274 75.74125714285714 77.7312 77.09257142857143 79.8378 78.28022857142857 81.69 79.61782857142856 83.3844 81.6224 85.92360000000001 83.40525714285714 87.309 85.46788571428571 87.5988 86.61211428571428 87.759 87.70651428571428 86.9052 88.14811428571427 85.5786 89.28822857142858 82.1568 89.81805714285714 77.0226 89.68045714285714 70.6938 89.54468571428572 64.455 88.76982857142856 57.44328 87.54788571428571 50.528459999999995 86.32685714285714 43.61802 84.67794285714285 36.912 82.83474285714286 31.28712 80.96091428571428 25.56894 78.99885714285713 21.318240000000003 77.264 19.008899999999997 75.59542857142857 16.7883 71.86742857142856 14.621579999999998 66.34422857142857 13.073999999999998 60.9952 11.57526 54.52754285714285 10.80642 48 10.80642 41.47250285714286 10.80642 35.00507428571428 11.57526 29.656045714285714 13.073999999999998Z" class="hierarchical-1:primary "/></g>
 </g>
</svg>