<svg xmlns="http://www.w3.org/2000/svg" xmlns:xlink="http://www.w3.org/1999/xlink" version="1.1" width="3300" height="2200">
 <!--glyph: "", point size: 100.0, font version: "17.1d1e1", template writer version: "65.1"-->
<style>

.hierarchical-1:primary {fill:#262626;}
.SFSymbolsPreview262626 {fill:#262626;}
</style>
 <g id="Notes">
  <rect height="2200" id="artboard" style="fill:white;opacity:1" width="3300" x="0" y="0"/>
  <line style="fill:none;stroke:black;opacity:1;stroke-width:0.5;" x1="263" x2="3036" y1="292" y2="292"/>
  <text style="stroke:none;fill:black;font-family:sans-serif;font-size:13;font-weight:bold;" transform="matrix(1 0 0 1 263 322)">Weight/Scale Variations</text>
  <text style="stroke:none;fill:black;font-family:sans-serif;font-size:13;text-anchor:middle;" transform="matrix(1 0 0 1 559.711 322)">Ultralight</text>
  <text style="stroke:none;fill:black;font-family:sans-serif;font-size:13;text-anchor:middle;" transform="matrix(1 0 0 1 856.422 322)">Thin</text>
  <text style="stroke:none;fill:black;font-family:sans-serif;font-size:13;text-anchor:middle;" transform="matrix(1 0 0 1 1153.13 322)">Light</text>
  <text style="stroke:none;fill:black;font-family:sans-serif;font-size:13;text-anchor:middle;" transform="matrix(1 0 0 1 1449.84 322)">Regular</text>
  <text style="stroke:none;fill:black;font-family:sans-serif;font-size:13;text-anchor:middle;" transform="matrix(1 0 0 1 1746.56 322)">Medium</text>
  <text style="stroke:none;fill:black;font-family:sans-serif;font-size:13;text-anchor:middle;" transform="matrix(1 0 0 1 2043.27 322)">Semibold</text>
  <text style="stroke:none;fill:black;font-family:sans-serif;font-size:13;text-anchor:middle;" transform="matrix(1 0 0 1 2339.98 322)">Bold</text>
  <text style="stroke:none;fill:black;font-family:sans-serif;font-size:13;text-anchor:middle;" transform="matrix(1 0 0 1 2636.69 322)">Heavy</text>
  <text style="stroke:none;fill:black;font-family:sans-serif;font-size:13;text-anchor:middle;" transform="matrix(1 0 0 1 2933.4 322)">Black</text>
  <line style="fill:none;stroke:black;opacity:1;stroke-width:0.5;" x1="263" x2="3036" y1="1903" y2="1903"/>
  <g transform="matrix(1 0 0 1 263 1933)">
   <path d="M9.24805 0.830078Q10.8691 0.830078 12.2949 0.214844Q13.7207-0.400391 14.8096-1.49414Q15.8984-2.58789 16.5186-4.01367Q17.1387-5.43945 17.1387-7.05078Q17.1387-8.66211 16.5186-10.0879Q15.8984-11.5137 14.8047-12.6074Q13.7109-13.7012 12.2852-14.3164Q10.8594-14.9316 9.23828-14.9316Q7.62695-14.9316 6.20117-14.3164Q4.77539-13.7012 3.69141-12.6074Q2.60742-11.5137 1.9873-10.0879Q1.36719-8.66211 1.36719-7.05078Q1.36719-5.43945 1.9873-4.01367Q2.60742-2.58789 3.69629-1.49414Q4.78516-0.400391 6.21094 0.214844Q7.63672 0.830078 9.24805 0.830078ZM9.24805-0.654297Q7.91992-0.654297 6.7627-1.14746Q5.60547-1.64062 4.73145-2.51953Q3.85742-3.39844 3.36426-4.56055Q2.87109-5.72266 2.87109-7.05078Q2.87109-8.37891 3.35938-9.54102Q3.84766-10.7031 4.72168-11.582Q5.5957-12.4609 6.75293-12.9541Q7.91016-13.4473 9.23828-13.4473Q10.5762-13.4473 11.7334-12.9541Q12.8906-12.4609 13.7695-11.582Q14.6484-10.7031 15.1465-9.54102Q15.6445-8.37891 15.6445-7.05078Q15.6445-5.72266 15.1514-4.56055Q14.6582-3.39844 13.7842-2.51953Q12.9102-1.64062 11.748-1.14746Q10.5859-0.654297 9.24805-0.654297ZM5.6543-7.05078Q5.6543-6.72852 5.85938-6.52832Q6.06445-6.32812 6.40625-6.32812L8.51562-6.32812L8.51562-4.20898Q8.51562-3.88672 8.71094-3.67676Q8.90625-3.4668 9.23828-3.4668Q9.56055-3.4668 9.77051-3.67676Q9.98047-3.88672 9.98047-4.20898L9.98047-6.32812L12.0898-6.32812Q12.4219-6.32812 12.627-6.52832Q12.832-6.72852 12.832-7.05078Q12.832-7.38281 12.627-7.58789Q12.4219-7.79297 12.0898-7.79297L9.98047-7.79297L9.98047-9.90234Q9.98047-10.2344 9.77051-10.4443Q9.56055-10.6543 9.23828-10.6543Q8.90625-10.6543 8.71094-10.4443Q8.51562-10.2344 8.51562-9.90234L8.51562-7.79297L6.40625-7.79297Q6.06445-7.79297 5.85938-7.58789Q5.6543-7.38281 5.6543-7.05078Z"/>
  </g>
  <g transform="matrix(1 0 0 1 281.867 1933)">
   <path d="M11.709 2.91016Q13.75 2.91016 15.5518 2.12891Q17.3535 1.34766 18.7305-0.0292969Q20.1074-1.40625 20.8887-3.20801Q21.6699-5.00977 21.6699-7.05078Q21.6699-9.0918 20.8887-10.8936Q20.1074-12.6953 18.7305-14.0723Q17.3535-15.4492 15.5469-16.2305Q13.7402-17.0117 11.6992-17.0117Q9.6582-17.0117 7.85645-16.2305Q6.05469-15.4492 4.68262-14.0723Q3.31055-12.6953 2.5293-10.8936Q1.74805-9.0918 1.74805-7.05078Q1.74805-5.00977 2.5293-3.20801Q3.31055-1.40625 4.6875-0.0292969Q6.06445 1.34766 7.86621 2.12891Q9.66797 2.91016 11.709 2.91016ZM11.709 1.25Q9.98047 1.25 8.47656 0.605469Q6.97266-0.0390625 5.83496-1.17676Q4.69727-2.31445 4.05762-3.81836Q3.41797-5.32227 3.41797-7.05078Q3.41797-8.7793 4.05762-10.2832Q4.69727-11.7871 5.83008-12.9297Q6.96289-14.0723 8.4668-14.7119Q9.9707-15.3516 11.6992-15.3516Q13.4277-15.3516 14.9316-14.7119Q16.4355-14.0723 17.5781-12.9297Q18.7207-11.7871 19.3652-10.2832Q20.0098-8.7793 20.0098-7.05078Q20.0098-5.32227 19.3701-3.81836Q18.7305-2.31445 17.5928-1.17676Q16.4551-0.0390625 14.9463 0.605469Q13.4375 1.25 11.709 1.25ZM7.17773-7.05078Q7.17773-6.69922 7.41211-6.47461Q7.64648-6.25 8.01758-6.25L10.8887-6.25L10.8887-3.36914Q10.8887-2.99805 11.1133-2.76855Q11.3379-2.53906 11.6895-2.53906Q12.0605-2.53906 12.29-2.76855Q12.5195-2.99805 12.5195-3.36914L12.5195-6.25L15.4004-6.25Q15.7715-6.25 16.001-6.47461Q16.2305-6.69922 16.2305-7.05078Q16.2305-7.42188 16.001-7.65137Q15.7715-7.88086 15.4004-7.88086L12.5195-7.88086L12.5195-10.752Q12.5195-11.1328 12.29-11.3623Q12.0605-11.5918 11.6895-11.5918Q11.3379-11.5918 11.1133-11.3574Q10.8887-11.123 10.8887-10.752L10.8887-7.88086L8.01758-7.88086Q7.63672-7.88086 7.40723-7.65137Q7.17773-7.42188 7.17773-7.05078Z"/>
  </g>
  <g transform="matrix(1 0 0 1 305.646 1933)">
   <path d="M14.9707 5.66406Q17.0605 5.66406 18.96 5.01465Q20.8594 4.36523 22.4512 3.19336Q24.043 2.02148 25.2197 0.429688Q26.3965-1.16211 27.0459-3.06641Q27.6953-4.9707 27.6953-7.05078Q27.6953-9.14062 27.0459-11.04Q26.3965-12.9395 25.2197-14.5312Q24.043-16.123 22.4512-17.2998Q20.8594-18.4766 18.9551-19.126Q17.0508-19.7754 14.9609-19.7754Q12.8711-19.7754 10.9717-19.126Q9.07227-18.4766 7.48535-17.2998Q5.89844-16.123 4.72168-14.5312Q3.54492-12.9395 2.90039-11.04Q2.25586-9.14062 2.25586-7.05078Q2.25586-4.9707 2.90527-3.06641Q3.55469-1.16211 4.72656 0.429688Q5.89844 2.02148 7.49023 3.19336Q9.08203 4.36523 10.9814 5.01465Q12.8809 5.66406 14.9707 5.66406ZM14.9707 3.84766Q13.1641 3.84766 11.5283 3.2959Q9.89258 2.74414 8.53516 1.74805Q7.17773 0.751953 6.17676-0.610352Q5.17578-1.97266 4.62891-3.6084Q4.08203-5.24414 4.08203-7.05078Q4.08203-8.86719 4.62891-10.5029Q5.17578-12.1387 6.17188-13.501Q7.16797-14.8633 8.52539-15.8594Q9.88281-16.8555 11.5186-17.4023Q13.1543-17.9492 14.9609-17.9492Q16.7773-17.9492 18.4131-17.4023Q20.0488-16.8555 21.4111-15.8594Q22.7734-14.8633 23.7695-13.501Q24.7656-12.1387 25.3174-10.5029Q25.8691-8.86719 25.8691-7.05078Q25.8789-5.24414 25.332-3.6084Q24.7852-1.97266 23.7842-0.610352Q22.7832 0.751953 21.4209 1.74805Q20.0586 2.74414 18.4229 3.2959Q16.7871 3.84766 14.9707 3.84766ZM9.19922-7.05078Q9.19922-6.66992 9.45801-6.4209Q9.7168-6.17188 10.1172-6.17188L14.0625-6.17188L14.0625-2.2168Q14.0625-1.81641 14.3115-1.55762Q14.5605-1.29883 14.9512-1.29883Q15.3516-1.29883 15.6104-1.55273Q15.8691-1.80664 15.8691-2.2168L15.8691-6.17188L19.8242-6.17188Q20.2246-6.17188 20.4785-6.4209Q20.7324-6.66992 20.7324-7.05078Q20.7324-7.46094 20.4785-7.71484Q20.2246-7.96875 19.8242-7.96875L15.8691-7.96875L15.8691-11.9141Q15.8691-12.3242 15.6104-12.583Q15.3516-12.8418 14.9512-12.8418Q14.5605-12.8418 14.3115-12.583Q14.0625-12.3242 14.0625-11.9141L14.0625-7.96875L10.1172-7.96875Q9.70703-7.96875 9.45312-7.71484Q9.19922-7.46094 9.19922-7.05078Z"/>
  </g>
  <text style="stroke:none;fill:black;font-family:sans-serif;font-size:13;font-weight:bold;" transform="matrix(1 0 0 1 263 1953)">Design Variations</text>
  <text style="stroke:none;fill:black;font-family:sans-serif;font-size:13;" transform="matrix(1 0 0 1 263 1971)">Symbols are supported in up to nine weights and three scales.</text>
  <text style="stroke:none;fill:black;font-family:sans-serif;font-size:13;" transform="matrix(1 0 0 1 263 1989)">For optimal layout with text and other symbols, vertically align</text>
  <text style="stroke:none;fill:black;font-family:sans-serif;font-size:13;" transform="matrix(1 0 0 1 263 2007)">symbols with the adjacent text.</text>
  <line style="fill:none;stroke:#00AEEF;stroke-width:0.5;opacity:1.0;" x1="776" x2="776" y1="1919" y2="1933"/>
  <g transform="matrix(1 0 0 1 776 1933)">
   <path d="M3.31055 0.15625Q3.70117 0.15625 3.91602-0.00976562Q4.13086-0.175781 4.26758-0.585938L5.52734-4.0332L11.2891-4.0332L12.5488-0.585938Q12.6855-0.175781 12.9004-0.00976562Q13.1152 0.15625 13.4961 0.15625Q13.8867 0.15625 14.1162-0.0585938Q14.3457-0.273438 14.3457-0.644531Q14.3457-0.869141 14.2383-1.17188L9.6582-13.3691Q9.48242-13.8184 9.17969-14.043Q8.87695-14.2676 8.4082-14.2676Q7.5-14.2676 7.17773-13.3789L2.59766-1.16211Q2.49023-0.859375 2.49023-0.634766Q2.49023-0.263672 2.70996-0.0537109Q2.92969 0.15625 3.31055 0.15625ZM6.00586-5.51758L8.37891-12.0898L8.42773-12.0898L10.8008-5.51758Z"/>
  </g>
  <line style="fill:none;stroke:#00AEEF;stroke-width:0.5;opacity:1.0;" x1="793.197" x2="793.197" y1="1919" y2="1933"/>
  <text style="stroke:none;fill:black;font-family:sans-serif;font-size:13;font-weight:bold;" transform="matrix(1 0 0 1 776 1953)">Margins</text>
  <text style="stroke:none;fill:black;font-family:sans-serif;font-size:13;" transform="matrix(1 0 0 1 776 1971)">Leading and trailing margins on the left and right side of each symbol</text>
  <text style="stroke:none;fill:black;font-family:sans-serif;font-size:13;" transform="matrix(1 0 0 1 776 1989)">can be adjusted by modifying the x-location of the margin guidelines.</text>
  <text style="stroke:none;fill:black;font-family:sans-serif;font-size:13;" transform="matrix(1 0 0 1 776 2007)">Modifications are automatically applied proportionally to all</text>
  <text style="stroke:none;fill:black;font-family:sans-serif;font-size:13;" transform="matrix(1 0 0 1 776 2025)">scales and weights.</text>
  <g transform="matrix(1 0 0 1 1289 1933)">
   <path d="M2.8418 1.86523L4.54102 3.57422Q5.18555 4.22852 5.90332 4.17969Q6.62109 4.13086 7.31445 3.35938L18.0078-8.42773L17.041-9.4043L6.42578 2.27539Q6.16211 2.57812 5.89355 2.61719Q5.625 2.65625 5.27344 2.30469L4.10156 1.14258Q3.75 0.791016 3.79395 0.522461Q3.83789 0.253906 4.14062-0.0195312L15.6152-10.8203L14.6387-11.7871L3.04688-0.898438Q2.30469-0.214844 2.25098 0.498047Q2.19727 1.21094 2.8418 1.86523ZM9.25781-16.3281Q8.94531-16.0254 8.90625-15.6348Q8.86719-15.2441 9.04297-14.9512Q9.21875-14.6777 9.55566-14.541Q9.89258-14.4043 10.3809-14.5215Q11.4746-14.7754 12.5977-14.7314Q13.7207-14.6875 14.7949-13.9844L14.209-12.5293Q13.9551-11.9043 14.0674-11.4404Q14.1797-10.9766 14.5801-10.5664L16.875-8.25195Q17.2363-7.88086 17.5781-7.82227Q17.9199-7.76367 18.3398-7.8418L19.4043-8.03711L20.0684-7.36328L20.0293-6.80664Q20-6.43555 20.1221-6.12305Q20.2441-5.81055 20.6055-5.44922L21.3672-4.70703Q21.7285-4.3457 22.1533-4.33105Q22.5781-4.31641 22.9297-4.66797L25.8398-7.58789Q26.1914-7.93945 26.1816-8.35449Q26.1719-8.76953 25.8105-9.13086L25.0391-9.89258Q24.6875-10.2539 24.3799-10.3857Q24.0723-10.5176 23.7109-10.4883L23.1348-10.4395L22.4902-11.0742L22.7344-12.1973Q22.832-12.6172 22.6953-12.9834Q22.5586-13.3496 22.1191-13.7891L19.9219-15.9766Q18.6719-17.2168 17.2607-17.8369Q15.8496-18.457 14.4189-18.4814Q12.9883-18.5059 11.665-17.959Q10.3418-17.4121 9.25781-16.3281ZM10.752-15.957Q11.6602-16.6211 12.7002-16.9043Q13.7402-17.1875 14.8047-17.085Q15.8691-16.9824 16.8701-16.5137Q17.8711-16.0449 18.7012-15.2051L21.1328-12.793Q21.3086-12.6172 21.3525-12.4512Q21.3965-12.2852 21.3379-12.0312L21.0156-10.5469L22.5195-9.0625L23.5059-9.12109Q23.6914-9.13086 23.7891-9.09668Q23.8867-9.0625 24.0332-8.91602L24.6094-8.33984L22.168-5.89844L21.5918-6.47461Q21.4453-6.62109 21.4062-6.71875Q21.3672-6.81641 21.377-7.01172L21.4453-7.98828L19.9512-9.47266L18.4277-9.21875Q18.1836-9.16992 18.042-9.2041Q17.9004-9.23828 17.7148-9.41406L15.7129-11.416Q15.5176-11.5918 15.4932-11.7529Q15.4688-11.9141 15.5859-12.1875L16.4648-14.2773Q15.293-15.3711 13.8281-15.791Q12.3633-16.2109 10.8398-15.7617Q10.7227-15.7324 10.6885-15.8057Q10.6543-15.8789 10.752-15.957Z"/>
  </g>
  <text style="stroke:none;fill:black;font-family:sans-serif;font-size:13;font-weight:bold;" transform="matrix(1 0 0 1 1289 1953)">Exporting</text>
  <text style="stroke:none;fill:black;font-family:sans-serif;font-size:13;" transform="matrix(1 0 0 1 1289 1971)">Symbols should be outlined when exporting to ensure the</text>
  <text style="stroke:none;fill:black;font-family:sans-serif;font-size:13;" transform="matrix(1 0 0 1 1289 1989)">design is preserved when submitting to Xcode.</text>
  <text id="template-version" style="stroke:none;fill:black;font-family:sans-serif;font-size:13;text-anchor:end;" transform="matrix(1 0 0 1 3036 1933)">Template v.3.0</text>
  <text style="stroke:none;fill:black;font-family:sans-serif;font-size:13;text-anchor:end;" transform="matrix(1 0 0 1 3036 1951)">Requires Xcode 13 or greater</text>
  <text id="descriptive-name" style="stroke:none;fill:black;font-family:sans-serif;font-size:13;text-anchor:end;" transform="matrix(1 0 0 1 3036 1969)">Symbol moniker: controller</text>
  <text style="stroke:none;fill:black;font-family:sans-serif;font-size:13;text-anchor:end;" transform="matrix(1 0 0 1 3036 1987)">Typeset at 100 points</text>
  <text style="stroke:none;fill:black;font-family:sans-serif;font-size:13;" transform="matrix(1 0 0 1 263 726)">Small</text>
  <text style="stroke:none;fill:black;font-family:sans-serif;font-size:13;" transform="matrix(1 0 0 1 263 1156)">Medium</text>
  <text style="stroke:none;fill:black;font-family:sans-serif;font-size:13;" transform="matrix(1 0 0 1 263 1586)">Large</text>
 </g>
 <g id="Guides">
  <g id="H-reference" style="fill:#27AAE1;stroke:none;" transform="matrix(1 0 0 1 339 696)">
   <path d="M0.976562 0L3.66211 0L29.3457-67.1387L30.0293-67.1387L30.0293-70.459L28.125-70.459ZM11.6699-24.4629L46.9727-24.4629L46.2402-26.709L12.4512-26.709ZM55.127 0L57.7637 0L30.6152-70.459L29.4434-70.459L29.4434-67.1387Z"/>
  </g>
  <line id="Baseline-S" style="fill:none;stroke:#27AAE1;opacity:1;stroke-width:0.5;" x1="263" x2="3036" y1="696" y2="696"/>
  <line id="Capline-S" style="fill:none;stroke:#27AAE1;opacity:1;stroke-width:0.5;" x1="263" x2="3036" y1="625.541" y2="625.541"/>
  <g id="H-reference" style="fill:#27AAE1;stroke:none;" transform="matrix(1 0 0 1 339 1126)">
   <path d="M0.976562 0L3.66211 0L29.3457-67.1387L30.0293-67.1387L30.0293-70.459L28.125-70.459ZM11.6699-24.4629L46.9727-24.4629L46.2402-26.709L12.4512-26.709ZM55.127 0L57.7637 0L30.6152-70.459L29.4434-70.459L29.4434-67.1387Z"/>
  </g>
  <line id="Baseline-M" style="fill:none;stroke:#27AAE1;opacity:1;stroke-width:0.5;" x1="263" x2="3036" y1="1126" y2="1126"/>
  <line id="Capline-M" style="fill:none;stroke:#27AAE1;opacity:1;stroke-width:0.5;" x1="263" x2="3036" y1="1055.54" y2="1055.54"/>
  <g id="H-reference" style="fill:#27AAE1;stroke:none;" transform="matrix(1 0 0 1 339 1556)">
   <path d="M0.976562 0L3.66211 0L29.3457-67.1387L30.0293-67.1387L30.0293-70.459L28.125-70.459ZM11.6699-24.4629L46.9727-24.4629L46.2402-26.709L12.4512-26.709ZM55.127 0L57.7637 0L30.6152-70.459L29.4434-70.459L29.4434-67.1387Z"/>
  </g>
  <line id="Baseline-L" style="fill:none;stroke:#27AAE1;opacity:1;stroke-width:0.5;" x1="263" x2="3036" y1="1556" y2="1556"/>
  <line id="Capline-L" style="fill:none;stroke:#27AAE1;opacity:1;stroke-width:0.5;" x1="263" x2="3036" y1="1485.54" y2="1485.54"/>
  <line id="left-margin-Ultralight-S" style="fill:none;stroke:#00AEEF;stroke-width:0.5;opacity:1.0;" x1="515.351" x2="515.351" y1="600.784" y2="720.121"/>
  <line id="right-margin-Ultralight-S" style="fill:none;stroke:#00AEEF;stroke-width:0.5;opacity:1.0;" x1="604.071" x2="604.071" y1="600.784" y2="720.121"/>
  <line id="left-margin-Regular-S" style="fill:none;stroke:#00AEEF;stroke-width:0.5;opacity:1.0;" x1="1401.75" x2="1401.75" y1="600.784" y2="720.121"/>
  <line id="right-margin-Regular-S" style="fill:none;stroke:#00AEEF;stroke-width:0.5;opacity:1.0;" x1="1497.94" x2="1497.94" y1="600.784" y2="720.121"/>
  <line id="left-margin-Black-S" style="fill:none;stroke:#00AEEF;stroke-width:0.5;opacity:1.0;" x1="2883.2" x2="2883.2" y1="600.784" y2="720.121"/>
  <line id="right-margin-Black-S" style="fill:none;stroke:#00AEEF;stroke-width:0.5;opacity:1.0;" x1="2983.6" x2="2983.6" y1="600.784" y2="720.121"/>
 </g>
 <g id="Symbols">
  <g id="Black-L" transform="matrix(1,0,0,1,2853.3999999999996,1440.77)">

  <path d="M116.73916483516483 60.577230769230766C116.73916483516483 63.6931282051282 114.38927472527472 66.21907692307691 111.49063736263736 66.21907692307691 108.59217582417583 66.21907692307691 106.24228571428571 63.6931282051282 106.24228571428571 60.577230769230766 106.24228571428571 57.46133333333333 108.59217582417583 54.935384615384606 111.49063736263736 54.935384615384606 114.38927472527472 54.935384615384606 116.73916483516483 57.46133333333333 116.73916483516483 60.577230769230766Z" class="hierarchical-1:primary "/><path d="M100.99393406593407 77.50276923076923C103.89257142857143 77.50276923076923 106.24228571428571 74.97682051282051 106.24228571428571 71.86092307692307 106.24228571428571 68.74502564102563 103.89257142857143 66.21907692307691 100.99393406593407 66.21907692307691 98.0952967032967 66.21907692307691 95.74540659340659 68.74502564102563 95.74540659340659 71.86092307692307 95.74540659340659 74.97682051282051 98.0952967032967 77.50276923076923 100.99393406593407 77.50276923076923Z" class="hierarchical-1:primary "/><path d="M127.23604395604394 71.86092307692307C127.23604395604394 74.97682051282051 124.88615384615383 77.50276923076923 121.98751648351647 77.50276923076923 119.08887912087913 77.50276923076923 116.73916483516483 74.97682051282051 116.73916483516483 71.86092307692307 116.73916483516483 68.74502564102563 119.08887912087913 66.21907692307691 121.98751648351647 66.21907692307691 124.88615384615383 66.21907692307691 127.23604395604394 68.74502564102563 127.23604395604394 71.86092307692307Z" class="hierarchical-1:primary "/><path d="M111.49063736263736 88.78666666666665C114.38927472527472 88.78666666666665 116.73916483516483 86.26071794871795 116.73916483516483 83.1448205128205 116.73916483516483 80.02871794871795 114.38927472527472 77.50276923076923 111.49063736263736 77.50276923076923 108.59217582417583 77.50276923076923 106.24228571428571 80.02871794871795 106.24228571428571 83.1448205128205 106.24228571428571 86.26071794871795 108.59217582417583 88.78666666666665 111.49063736263736 88.78666666666665Z" class="hierarchical-1:primary "/><path d="M43.26118681318681 54.935384615384606H53.75806593406593V66.21907692307691H64.25476923076923V77.50276923076923H53.75806593406593V88.78666666666665H43.26118681318681V77.50276923076923H32.76430769230769V66.21907692307691H43.26118681318681V54.935384615384606Z" class="hierarchical-1:primary "/><path d="M28.05221978021978 29.354666666666663C27.301978021978023 26.344820512820508 28.963516483516482 23.25128205128205 31.76334065934066 22.444717948717948L52.04184615384615 16.603897435897434C54.84167032967033 15.797435897435896 57.719560439560446 17.58356923076923 58.469802197802196 20.593230769230765 58.50338461538462 20.727999999999998 58.532219780219776 20.86297435897436 58.55613186813187 20.997948717948717 65.42857142857143 20.11054358974359 72.7345934065934 19.67362051282051 80 19.67362051282051 87.54971428571429 19.67362051282051 95.14303296703297 20.14539487179487 102.24826373626374 21.104 102.27551648351647 20.93374358974359 102.30997802197803 20.763487179487175 102.35252747252747 20.593230769230765 103.10259340659341 17.58356923076923 105.98065934065934 15.797435897435896 108.78048351648351 16.603897435897434L129.05881318681318 22.444717948717948C131.85863736263738 23.25128205128205 133.52017582417582 26.344820512820508 132.7701098901099 29.354666666666663 132.65336263736265 29.82276923076923 132.48527472527473 30.261128205128202 132.27393406593407 30.66482051282051 133.74487912087912 31.688 135.06373626373625 32.8036923076923 136.19551648351649 34.02030769230769 140.47437362637362 38.619897435897435 144.3753846153846 45.872205128205124 147.67964835164835 54.01682051282051 151.0349010989011 62.28697435897435 153.97046153846154 71.96943589743589 156.13134065934065 81.84594871794872 158.29081318681318 91.71692307692308 159.7084835164835 101.92656410256409 159.95973626373626 111.24799999999999 160.2078241758242 120.44820512820512 159.33819780219778 129.32758974358973 156.5098901098901 136.18523076923074 153.88676923076923 142.54543589743588 147.68263736263737 146.27097435897437 141.34593406593407 145.5530256410256 134.66883516483517 144.79651282051282 129.63463736263736 141.10420512820514 125.45916483516483 136.83158974358972 122.89072527472527 134.20328205128203 120.2516043956044 130.89333333333332 117.70936263736263 127.7048205128205 116.38540659340659 126.04430769230767 115.08624175824174 124.41476923076922 113.8385934065934 122.93394871794871 106.19621978021978 113.86235897435897 97.08325274725274 105.71220512820513 80 105.71220512820513 62.91674725274726 105.71220512820513 53.803780219780215 113.86235897435897 46.161406593406596 122.93394871794871 44.91340659340659 124.41538461538461 43.61512087912088 126.04348717948716 42.29063736263736 127.7048205128205 39.748571428571424 130.8931282051282 37.10945054945055 134.20328205128203 34.540835164835165 136.83158974358972 30.365362637362637 141.10420512820514 25.331164835164834 144.79651282051282 18.65389010989011 145.5530256410256 12.317327472527474 146.27097435897437 6.113125274725275 142.54543589743588 3.4900395604395604 136.18523076923074 0.6617336263736263 129.3273846153846-0.20787164835164834 120.448 0.04021714285714286 111.24799999999999 0.291578021978022 101.92635897435898 1.7092237362637364 91.71671794871794 3.8688527472527476 81.84594871794872 6.02974945054945 71.96943589743589 8.965274725274725 62.28697435897435 12.320527472527472 54.01682051282051 15.624791208791208 45.872205128205124 19.525802197802197 38.619897435897435 23.80465934065934 34.02030769230769 25.09397802197802 32.63446153846154 26.62575824175824 31.379487179487175 28.348835164835165 30.24307692307692 28.229098901098897 29.96082051282051 28.129406593406593 29.664205128205126 28.05221978021978 29.354666666666663ZM49.426813186813185 34.00984615384615C40.22136263736264 36.0931282051282 34.00773626373626 39.00984615384615 31.227076923076925 41.99917948717948 28.334945054945056 45.107897435897435 25.06514285714286 50.82994871794871 21.942153846153847 58.527589743589736 18.870153846153848 66.09948717948717 16.1221978021978 75.12676923076923 14.086909890109888 84.42933333333333 12.05033846153846 93.73764102564101 10.75913846153846 103.17661538461537 10.532676923076922 111.57476923076922 10.302927472527474 120.09435897435897 11.186531868131867 127.0059487179487 13.08611868131868 131.61189743589742 13.822681318681319 133.3979487179487 15.646487912087911 134.54748717948715 17.553617582417584 134.33148717948717 20.99164835164835 133.94194871794872 23.963076923076922 132.07712820512822 27.303384615384616 128.6588717948718 29.532659340659343 126.37764102564101 31.512615384615383 123.88410256410256 33.7643956043956 121.04861538461537 35.15797802197802 119.29353846153845 36.65564835164835 117.4073846153846 38.38101098901099 115.35958974358974 47.05107692307693 105.06810256410256 58.77098901098901 94.42851282051282 80 94.42851282051282 101.22901098901099 94.42851282051282 112.94892307692308 105.06810256410256 121.61898901098901 115.35958974358974 123.34435164835165 117.4073846153846 124.84202197802198 119.29353846153845 126.23578021978021 121.04861538461537 128.48738461538463 123.88410256410256 130.46734065934066 126.37764102564101 132.69661538461537 128.6588717948718 136.0370989010989 132.07712820512822 139.00835164835166 133.94194871794872 142.44641758241758 134.33148717948717 144.3534065934066 134.54748717948715 146.17723076923076 133.3979487179487 146.91375824175822 131.61210256410254 148.81336263736264 127.00615384615384 149.69705494505493 120.09456410256409 149.46742857142857 111.57497435897434 149.240967032967 103.17661538461537 147.9497142857143 93.73764102564101 145.91314285714287 84.42933333333333 143.87797802197804 75.12676923076923 141.12984615384616 66.09948717948717 138.05802197802197 58.527589743589736 134.93503296703295 50.82994871794871 131.6652307692308 45.107897435897435 128.7730989010989 41.99917948717948 125.99226373626374 39.00984615384615 119.77881318681318 36.0931282051282 110.57336263736264 34.00984615384615 101.65837362637362 31.992410256410253 90.8792967032967 30.95733333333333 80 30.95733333333333 69.12087912087912 30.95733333333333 58.341802197802195 31.992410256410253 49.426813186813185 34.00984615384615Z" class="hierarchical-1:primary "/></g>
  <g id="Regular-L" transform="matrix(1,0,0,1,1369.845,1440.77)">

  <path d="M116.73916483516483 60.577230769230766C116.73916483516483 63.6931282051282 114.38927472527472 66.21907692307691 111.49063736263736 66.21907692307691 108.59217582417583 66.21907692307691 106.24228571428571 63.6931282051282 106.24228571428571 60.577230769230766 106.24228571428571 57.46133333333333 108.59217582417583 54.935384615384606 111.49063736263736 54.935384615384606 114.38927472527472 54.935384615384606 116.73916483516483 57.46133333333333 116.73916483516483 60.577230769230766Z" class="hierarchical-1:primary "/><path d="M100.99393406593407 77.50276923076923C103.89257142857143 77.50276923076923 106.24228571428571 74.97682051282051 106.24228571428571 71.86092307692307 106.24228571428571 68.74502564102563 103.89257142857143 66.21907692307691 100.99393406593407 66.21907692307691 98.0952967032967 66.21907692307691 95.74540659340659 68.74502564102563 95.74540659340659 71.86092307692307 95.74540659340659 74.97682051282051 98.0952967032967 77.50276923076923 100.99393406593407 77.50276923076923Z" class="hierarchical-1:primary "/><path d="M127.23604395604394 71.86092307692307C127.23604395604394 74.97682051282051 124.88615384615383 77.50276923076923 121.98751648351647 77.50276923076923 119.08887912087913 77.50276923076923 116.73916483516483 74.97682051282051 116.73916483516483 71.86092307692307 116.73916483516483 68.74502564102563 119.08887912087913 66.21907692307691 121.98751648351647 66.21907692307691 124.88615384615383 66.21907692307691 127.23604395604394 68.74502564102563 127.23604395604394 71.86092307692307Z" class="hierarchical-1:primary "/><path d="M111.49063736263736 88.78666666666665C114.38927472527472 88.78666666666665 116.73916483516483 86.26071794871795 116.73916483516483 83.1448205128205 116.73916483516483 80.02871794871795 114.38927472527472 77.50276923076923 111.49063736263736 77.50276923076923 108.59217582417583 77.50276923076923 106.24228571428571 80.02871794871795 106.24228571428571 83.1448205128205 106.24228571428571 86.26071794871795 108.59217582417583 88.78666666666665 111.49063736263736 88.78666666666665Z" class="hierarchical-1:primary "/><path d="M43.26118681318681 54.935384615384606H53.75806593406593V66.21907692307691H64.25476923076923V77.50276923076923H53.75806593406593V88.78666666666665H43.26118681318681V77.50276923076923H32.76430769230769V66.21907692307691H43.26118681318681V54.935384615384606Z" class="hierarchical-1:primary "/><path d="M28.05221978021978 29.354666666666663C27.301978021978023 26.344820512820508 28.963516483516482 23.25128205128205 31.76334065934066 22.444717948717948L52.04184615384615 16.603897435897434C54.84167032967033 15.797435897435896 57.719560439560446 17.58356923076923 58.469802197802196 20.593230769230765 58.50338461538462 20.727999999999998 58.532219780219776 20.86297435897436 58.55613186813187 20.997948717948717 65.42857142857143 20.11054358974359 72.7345934065934 19.67362051282051 80 19.67362051282051 87.54971428571429 19.67362051282051 95.14303296703297 20.14539487179487 102.24826373626374 21.104 102.27551648351647 20.93374358974359 102.30997802197803 20.763487179487175 102.35252747252747 20.593230769230765 103.10259340659341 17.58356923076923 105.98065934065934 15.797435897435896 108.78048351648351 16.603897435897434L129.05881318681318 22.444717948717948C131.85863736263738 23.25128205128205 133.52017582417582 26.344820512820508 132.7701098901099 29.354666666666663 132.65336263736265 29.82276923076923 132.48527472527473 30.261128205128202 132.27393406593407 30.66482051282051 133.74487912087912 31.688 135.06373626373625 32.8036923076923 136.19551648351649 34.02030769230769 140.47437362637362 38.619897435897435 144.3753846153846 45.872205128205124 147.67964835164835 54.01682051282051 151.0349010989011 62.28697435897435 153.97046153846154 71.96943589743589 156.13134065934065 81.84594871794872 158.29081318681318 91.71692307692308 159.7084835164835 101.92656410256409 159.95973626373626 111.24799999999999 160.2078241758242 120.44820512820512 159.33819780219778 129.32758974358973 156.5098901098901 136.18523076923074 153.88676923076923 142.54543589743588 147.68263736263737 146.27097435897437 141.34593406593407 145.5530256410256 134.66883516483517 144.79651282051282 129.63463736263736 141.10420512820514 125.45916483516483 136.83158974358972 122.89072527472527 134.20328205128203 120.2516043956044 130.89333333333332 117.70936263736263 127.7048205128205 116.38540659340659 126.04430769230767 115.08624175824174 124.41476923076922 113.8385934065934 122.93394871794871 106.19621978021978 113.86235897435897 97.08325274725274 105.71220512820513 80 105.71220512820513 62.91674725274726 105.71220512820513 53.803780219780215 113.86235897435897 46.161406593406596 122.93394871794871 44.91340659340659 124.41538461538461 43.61512087912088 126.04348717948716 42.29063736263736 127.7048205128205 39.748571428571424 130.8931282051282 37.10945054945055 134.20328205128203 34.540835164835165 136.83158974358972 30.365362637362637 141.10420512820514 25.331164835164834 144.79651282051282 18.65389010989011 145.5530256410256 12.317327472527474 146.27097435897437 6.113125274725275 142.54543589743588 3.4900395604395604 136.18523076923074 0.6617336263736263 129.3273846153846-0.20787164835164834 120.448 0.04021714285714286 111.24799999999999 0.291578021978022 101.92635897435898 1.7092237362637364 91.71671794871794 3.8688527472527476 81.84594871794872 6.02974945054945 71.96943589743589 8.965274725274725 62.28697435897435 12.320527472527472 54.01682051282051 15.624791208791208 45.872205128205124 19.525802197802197 38.619897435897435 23.80465934065934 34.02030769230769 25.09397802197802 32.63446153846154 26.62575824175824 31.379487179487175 28.348835164835165 30.24307692307692 28.229098901098897 29.96082051282051 28.129406593406593 29.664205128205126 28.05221978021978 29.354666666666663ZM49.426813186813185 34.00984615384615C40.22136263736264 36.0931282051282 34.00773626373626 39.00984615384615 31.227076923076925 41.99917948717948 28.334945054945056 45.107897435897435 25.06514285714286 50.82994871794871 21.942153846153847 58.527589743589736 18.870153846153848 66.09948717948717 16.1221978021978 75.12676923076923 14.086909890109888 84.42933333333333 12.05033846153846 93.73764102564101 10.75913846153846 103.17661538461537 10.532676923076922 111.57476923076922 10.302927472527474 120.09435897435897 11.186531868131867 127.0059487179487 13.08611868131868 131.61189743589742 13.822681318681319 133.3979487179487 15.646487912087911 134.54748717948715 17.553617582417584 134.33148717948717 20.99164835164835 133.94194871794872 23.963076923076922 132.07712820512822 27.303384615384616 128.6588717948718 29.532659340659343 126.37764102564101 31.512615384615383 123.88410256410256 33.7643956043956 121.04861538461537 35.15797802197802 119.29353846153845 36.65564835164835 117.4073846153846 38.38101098901099 115.35958974358974 47.05107692307693 105.06810256410256 58.77098901098901 94.42851282051282 80 94.42851282051282 101.22901098901099 94.42851282051282 112.94892307692308 105.06810256410256 121.61898901098901 115.35958974358974 123.34435164835165 117.4073846153846 124.84202197802198 119.29353846153845 126.23578021978021 121.04861538461537 128.48738461538463 123.88410256410256 130.46734065934066 126.37764102564101 132.69661538461537 128.6588717948718 136.0370989010989 132.07712820512822 139.00835164835166 133.94194871794872 142.44641758241758 134.33148717948717 144.3534065934066 134.54748717948715 146.17723076923076 133.3979487179487 146.91375824175822 131.61210256410254 148.81336263736264 127.00615384615384 149.69705494505493 120.09456410256409 149.46742857142857 111.57497435897434 149.240967032967 103.17661538461537 147.9497142857143 93.73764102564101 145.91314285714287 84.42933333333333 143.87797802197804 75.12676923076923 141.12984615384616 66.09948717948717 138.05802197802197 58.527589743589736 134.93503296703295 50.82994871794871 131.6652307692308 45.107897435897435 128.7730989010989 41.99917948717948 125.99226373626374 39.00984615384615 119.77881318681318 36.0931282051282 110.57336263736264 34.00984615384615 101.65837362637362 31.992410256410253 90.8792967032967 30.95733333333333 80 30.95733333333333 69.12087912087912 30.95733333333333 58.341802197802195 31.992410256410253 49.426813186813185 34.00984615384615Z" class="hierarchical-1:primary "/></g>
  <g id="Ultralight-L" transform="matrix(1,0,0,1,479.711,1440.77)">

  <path d="M116.73916483516483 60.577230769230766C116.73916483516483 63.6931282051282 114.38927472527472 66.21907692307691 111.49063736263736 66.21907692307691 108.59217582417583 66.21907692307691 106.24228571428571 63.6931282051282 106.24228571428571 60.577230769230766 106.24228571428571 57.46133333333333 108.59217582417583 54.935384615384606 111.49063736263736 54.935384615384606 114.38927472527472 54.935384615384606 116.73916483516483 57.46133333333333 116.73916483516483 60.577230769230766Z" class="hierarchical-1:primary "/><path d="M100.99393406593407 77.50276923076923C103.89257142857143 77.50276923076923 106.24228571428571 74.97682051282051 106.24228571428571 71.86092307692307 106.24228571428571 68.74502564102563 103.89257142857143 66.21907692307691 100.99393406593407 66.21907692307691 98.0952967032967 66.21907692307691 95.74540659340659 68.74502564102563 95.74540659340659 71.86092307692307 95.74540659340659 74.97682051282051 98.0952967032967 77.50276923076923 100.99393406593407 77.50276923076923Z" class="hierarchical-1:primary "/><path d="M127.23604395604394 71.86092307692307C127.23604395604394 74.97682051282051 124.88615384615383 77.50276923076923 121.98751648351647 77.50276923076923 119.08887912087913 77.50276923076923 116.73916483516483 74.97682051282051 116.73916483516483 71.86092307692307 116.73916483516483 68.74502564102563 119.08887912087913 66.21907692307691 121.98751648351647 66.21907692307691 124.88615384615383 66.21907692307691 127.23604395604394 68.74502564102563 127.23604395604394 71.86092307692307Z" class="hierarchical-1:primary "/><path d="M111.49063736263736 88.78666666666665C114.38927472527472 88.78666666666665 116.73916483516483 86.26071794871795 116.73916483516483 83.1448205128205 116.73916483516483 80.02871794871795 114.38927472527472 77.50276923076923 111.49063736263736 77.50276923076923 108.59217582417583 77.50276923076923 106.24228571428571 80.02871794871795 106.24228571428571 83.1448205128205 106.24228571428571 86.26071794871795 108.59217582417583 88.78666666666665 111.49063736263736 88.78666666666665Z" class="hierarchical-1:primary "/><path d="M43.26118681318681 54.935384615384606H53.75806593406593V66.21907692307691H64.25476923076923V77.50276923076923H53.75806593406593V88.78666666666665H43.26118681318681V77.50276923076923H32.76430769230769V66.21907692307691H43.26118681318681V54.935384615384606Z" class="hierarchical-1:primary "/><path d="M28.05221978021978 29.354666666666663C27.301978021978023 26.344820512820508 28.963516483516482 23.25128205128205 31.76334065934066 22.444717948717948L52.04184615384615 16.603897435897434C54.84167032967033 15.797435897435896 57.719560439560446 17.58356923076923 58.469802197802196 20.593230769230765 58.50338461538462 20.727999999999998 58.532219780219776 20.86297435897436 58.55613186813187 20.997948717948717 65.42857142857143 20.11054358974359 72.7345934065934 19.67362051282051 80 19.67362051282051 87.54971428571429 19.67362051282051 95.14303296703297 20.14539487179487 102.24826373626374 21.104 102.27551648351647 20.93374358974359 102.30997802197803 20.763487179487175 102.35252747252747 20.593230769230765 103.10259340659341 17.58356923076923 105.98065934065934 15.797435897435896 108.78048351648351 16.603897435897434L129.05881318681318 22.444717948717948C131.85863736263738 23.25128205128205 133.52017582417582 26.344820512820508 132.7701098901099 29.354666666666663 132.65336263736265 29.82276923076923 132.48527472527473 30.261128205128202 132.27393406593407 30.66482051282051 133.74487912087912 31.688 135.06373626373625 32.8036923076923 136.19551648351649 34.02030769230769 140.47437362637362 38.619897435897435 144.3753846153846 45.872205128205124 147.67964835164835 54.01682051282051 151.0349010989011 62.28697435897435 153.97046153846154 71.96943589743589 156.13134065934065 81.84594871794872 158.29081318681318 91.71692307692308 159.7084835164835 101.92656410256409 159.95973626373626 111.24799999999999 160.2078241758242 120.44820512820512 159.33819780219778 129.32758974358973 156.5098901098901 136.18523076923074 153.88676923076923 142.54543589743588 147.68263736263737 146.27097435897437 141.34593406593407 145.5530256410256 134.66883516483517 144.79651282051282 129.63463736263736 141.10420512820514 125.45916483516483 136.83158974358972 122.89072527472527 134.20328205128203 120.2516043956044 130.89333333333332 117.70936263736263 127.7048205128205 116.38540659340659 126.04430769230767 115.08624175824174 124.41476923076922 113.8385934065934 122.93394871794871 106.19621978021978 113.86235897435897 97.08325274725274 105.71220512820513 80 105.71220512820513 62.91674725274726 105.71220512820513 53.803780219780215 113.86235897435897 46.161406593406596 122.93394871794871 44.91340659340659 124.41538461538461 43.61512087912088 126.04348717948716 42.29063736263736 127.7048205128205 39.748571428571424 130.8931282051282 37.10945054945055 134.20328205128203 34.540835164835165 136.83158974358972 30.365362637362637 141.10420512820514 25.331164835164834 144.79651282051282 18.65389010989011 145.5530256410256 12.317327472527474 146.27097435897437 6.113125274725275 142.54543589743588 3.4900395604395604 136.18523076923074 0.6617336263736263 129.3273846153846-0.20787164835164834 120.448 0.04021714285714286 111.24799999999999 0.291578021978022 101.92635897435898 1.7092237362637364 91.71671794871794 3.8688527472527476 81.84594871794872 6.02974945054945 71.96943589743589 8.965274725274725 62.28697435897435 12.320527472527472 54.01682051282051 15.624791208791208 45.872205128205124 19.525802197802197 38.619897435897435 23.80465934065934 34.02030769230769 25.09397802197802 32.63446153846154 26.62575824175824 31.379487179487175 28.348835164835165 30.24307692307692 28.229098901098897 29.96082051282051 28.129406593406593 29.664205128205126 28.05221978021978 29.354666666666663ZM49.426813186813185 34.00984615384615C40.22136263736264 36.0931282051282 34.00773626373626 39.00984615384615 31.227076923076925 41.99917948717948 28.334945054945056 45.107897435897435 25.06514285714286 50.82994871794871 21.942153846153847 58.527589743589736 18.870153846153848 66.09948717948717 16.1221978021978 75.12676923076923 14.086909890109888 84.42933333333333 12.05033846153846 93.73764102564101 10.75913846153846 103.17661538461537 10.532676923076922 111.57476923076922 10.302927472527474 120.09435897435897 11.186531868131867 127.0059487179487 13.08611868131868 131.61189743589742 13.822681318681319 133.3979487179487 15.646487912087911 134.54748717948715 17.553617582417584 134.33148717948717 20.99164835164835 133.94194871794872 23.963076923076922 132.07712820512822 27.303384615384616 128.6588717948718 29.532659340659343 126.37764102564101 31.512615384615383 123.88410256410256 33.7643956043956 121.04861538461537 35.15797802197802 119.29353846153845 36.65564835164835 117.4073846153846 38.38101098901099 115.35958974358974 47.05107692307693 105.06810256410256 58.77098901098901 94.42851282051282 80 94.42851282051282 101.22901098901099 94.42851282051282 112.94892307692308 105.06810256410256 121.61898901098901 115.35958974358974 123.34435164835165 117.4073846153846 124.84202197802198 119.29353846153845 126.23578021978021 121.04861538461537 128.48738461538463 123.88410256410256 130.46734065934066 126.37764102564101 132.69661538461537 128.6588717948718 136.0370989010989 132.07712820512822 139.00835164835166 133.94194871794872 142.44641758241758 134.33148717948717 144.3534065934066 134.54748717948715 146.17723076923076 133.3979487179487 146.91375824175822 131.61210256410254 148.81336263736264 127.00615384615384 149.69705494505493 120.09456410256409 149.46742857142857 111.57497435897434 149.240967032967 103.17661538461537 147.9497142857143 93.73764102564101 145.91314285714287 84.42933333333333 143.87797802197804 75.12676923076923 141.12984615384616 66.09948717948717 138.05802197802197 58.527589743589736 134.93503296703295 50.82994871794871 131.6652307692308 45.107897435897435 128.7730989010989 41.99917948717948 125.99226373626374 39.00984615384615 119.77881318681318 36.0931282051282 110.57336263736264 34.00984615384615 101.65837362637362 31.992410256410253 90.8792967032967 30.95733333333333 80 30.95733333333333 69.12087912087912 30.95733333333333 58.341802197802195 31.992410256410253 49.426813186813185 34.00984615384615Z" class="hierarchical-1:primary "/></g>
  <g id="Black-M" transform="matrix(1,0,0,1,2869.3999999999996,1026.77)">

  <path d="M93.39133186813187 48.461784615384616C93.39133186813187 50.95450256410256 91.51141978021978 52.97526153846153 89.1925098901099 52.97526153846153 86.87374065934067 52.97526153846153 84.99382857142858 50.95450256410256 84.99382857142858 48.461784615384616 84.99382857142858 45.96906666666666 86.87374065934067 43.94830769230769 89.1925098901099 43.94830769230769 91.51141978021978 43.94830769230769 93.39133186813187 45.96906666666666 93.39133186813187 48.461784615384616Z" class="hierarchical-1:primary "/><path d="M80.79514725274726 62.00221538461538C83.11405714285715 62.00221538461538 84.99382857142858 59.98145641025641 84.99382857142858 57.48873846153847 84.99382857142858 54.99602051282051 83.11405714285715 52.97526153846153 80.79514725274726 52.97526153846153 78.47623736263736 52.97526153846153 76.59632527472527 54.99602051282051 76.59632527472527 57.48873846153847 76.59632527472527 59.98145641025641 78.47623736263736 62.00221538461538 80.79514725274726 62.00221538461538Z" class="hierarchical-1:primary "/><path d="M101.78883516483516 57.48873846153847C101.78883516483516 59.98145641025641 99.90892307692307 62.00221538461538 97.59001318681318 62.00221538461538 95.27110329670332 62.00221538461538 93.39133186813187 59.98145641025641 93.39133186813187 57.48873846153847 93.39133186813187 54.99602051282051 95.27110329670332 52.97526153846153 97.59001318681318 52.97526153846153 99.90892307692307 52.97526153846153 101.78883516483516 54.99602051282051 101.78883516483516 57.48873846153847Z" class="hierarchical-1:primary "/><path d="M89.1925098901099 71.02933333333333C91.51141978021978 71.02933333333333 93.39133186813187 69.00857435897436 93.39133186813187 66.5158564102564 93.39133186813187 64.02297435897437 91.51141978021978 62.00221538461538 89.1925098901099 62.00221538461538 86.87374065934067 62.00221538461538 84.99382857142858 64.02297435897437 84.99382857142858 66.5158564102564 84.99382857142858 69.00857435897436 86.87374065934067 71.02933333333333 89.1925098901099 71.02933333333333Z" class="hierarchical-1:primary "/><path d="M34.60894945054945 43.94830769230769H43.00645274725275V52.97526153846153H51.403815384615385V62.00221538461538H43.00645274725275V71.02933333333333H34.60894945054945V62.00221538461538H26.211446153846154V52.97526153846153H34.60894945054945V43.94830769230769Z" class="hierarchical-1:primary "/><path d="M22.441775824175828 23.483733333333333C21.84158241758242 21.07585641025641 23.170813186813188 18.601025641025643 25.41067252747253 17.95577435897436L41.63347692307693 13.28311794871795C43.87333626373626 12.637948717948717 46.17564835164836 14.066855384615383 46.77584175824176 16.474584615384614 46.8027076923077 16.5824 46.82577582417583 16.690379487179488 46.844905494505504 16.798358974358973 52.34285714285714 16.088434871794874 58.18767472527473 15.738896410256409 64 15.738896410256409 70.03977142857144 15.738896410256409 76.11442637362639 16.116315897435896 81.798610989011 16.8832 81.82041318681318 16.746994871794872 81.84798241758243 16.61078974358974 81.88202197802198 16.474584615384614 82.48207472527473 14.066855384615383 84.78452747252747 12.637948717948717 87.02438681318681 13.28311794871795L103.24705054945055 17.95577435897436C105.4869098901099 18.601025641025643 106.81614065934066 21.07585641025641 106.21608791208793 23.483733333333333 106.12269010989013 23.858215384615384 105.9882197802198 24.208902564102562 105.81914725274726 24.53185641025641 106.99590329670332 25.3504 108.05098901098901 26.242953846153846 108.95641318681321 27.216246153846154 112.37949890109891 30.89591794871795 115.5003076923077 36.6977641025641 118.14371868131869 43.21345641025641 120.82792087912088 49.82957948717949 123.17636923076924 57.57554871794871 124.90507252747254 65.47675897435897 126.63265054945056 73.37353846153846 127.76678681318681 81.54125128205128 127.96778901098901 88.9984 128.16625934065937 96.3585641025641 127.47055824175824 103.46207179487179 125.20791208791209 108.9481846153846 123.10941538461539 114.03634871794871 118.1461098901099 117.01677948717949 113.07674725274727 116.4424205128205 107.73506813186815 115.83721025641026 103.7077098901099 112.88336410256412 100.36733186813187 109.46527179487178 98.31258021978022 107.36262564102563 96.20128351648353 104.71466666666666 94.16749010989011 102.16385641025641 93.10832527472527 100.83544615384615 92.0689934065934 99.53181538461538 91.07087472527473 98.34715897435898 84.95697582417583 91.08988717948718 77.6666021978022 84.56976410256411 64 84.56976410256411 50.33339780219781 84.56976410256411 43.04302417582418 91.08988717948718 36.92912527472528 98.34715897435898 35.930725274725276 99.5323076923077 34.89209670329671 100.83478974358974 33.8325098901099 102.16385641025641 31.798857142857145 104.71450256410256 29.687560439560443 107.36262564102563 27.632668131868133 109.46527179487178 24.29229010989011 112.88336410256412 20.26493186813187 115.83721025641026 14.92311208791209 116.4424205128205 9.85386197802198 117.01677948717949 4.89050021978022 114.03634871794871 2.7920316483516485 108.9481846153846 0.5293869010989012 103.46190769230769-0.1662973186813187 96.3584 0.03217371428571429 88.9984 0.2332624175824176 81.54108717948718 1.367378989010989 73.37337435897436 3.0950821978021983 65.47675897435897 4.823799560439561 57.57554871794871 7.172219780219781 49.82957948717949 9.856421978021979 43.21345641025641 12.499832967032967 36.6977641025641 15.620641758241758 30.89591794871795 19.043727472527475 27.216246153846154 20.07518241758242 26.10756923076923 21.300606593406595 25.10358974358974 22.679068131868135 24.194461538461535 22.583279120879123 23.96865641025641 22.503525274725277 23.7313641025641 22.441775824175828 23.483733333333333ZM39.54145054945055 27.20787692307692C32.177090109890116 28.874502564102567 27.20618901098901 31.20787692307692 24.98166153846154 33.59934358974359 22.667956043956046 36.08631794871795 20.05211428571429 40.66395897435897 17.553723076923077 46.82207179487179 15.096123076923078 52.87958974358975 12.897758241758241 60.10141538461538 11.269527912087913 67.54346666666667 9.640270769230769 74.99011282051282 8.60731076923077 82.5412923076923 8.426141538461538 89.25981538461538 8.24234197802198 96.07548717948717 8.949225494505495 101.60475897435897 10.468894945054945 105.28951794871794 11.058145054945056 106.71835897435896 12.51719032967033 107.63798974358973 14.042894065934068 107.46518974358973 16.793318681318684 107.15355897435897 19.170461538461538 105.66170256410257 21.842707692307695 102.92709743589744 23.626127472527475 101.10211282051282 25.210092307692307 99.10728205128206 27.011516483516484 96.8388923076923 28.126382417582416 95.43483076923077 29.324518681318683 93.92590769230769 30.704808791208794 92.2876717948718 37.64086153846154 84.05448205128205 47.01679120879122 75.54281025641026 64 75.54281025641026 80.9832087912088 75.54281025641026 90.35913846153846 84.05448205128205 97.29519120879121 92.2876717948718 98.67548131868134 93.92590769230769 99.8736175824176 95.43483076923077 100.98862417582419 96.8388923076923 102.78990769230771 99.10728205128206 104.37387252747253 101.10211282051282 106.15729230769232 102.92709743589744 108.82967912087912 105.66170256410257 111.20668131868133 107.15355897435897 113.95713406593408 107.46518974358973 115.48272527472528 107.63798974358973 116.94178461538462 106.71835897435896 117.5310065934066 105.28968205128204 119.05069010989013 101.60492307692307 119.75764395604395 96.07565128205128 119.57394285714288 89.25997948717949 119.39277362637363 82.5412923076923 118.35977142857143 74.99011282051282 116.73051428571429 67.54346666666667 115.10238241758243 60.10141538461538 112.90387692307694 52.87958974358975 110.4464175824176 46.82207179487179 107.94802637362638 40.66395897435897 105.33218461538463 36.08631794871795 103.01847912087912 33.59934358974359 100.793810989011 31.20787692307692 95.82305054945056 28.874502564102567 88.45869010989011 27.20787692307692 81.32669890109891 25.593928205128204 72.70343736263737 24.765866666666664 64 24.765866666666664 55.2967032967033 24.765866666666664 46.67344175824176 25.593928205128204 39.54145054945055 27.20787692307692Z" class="hierarchical-1:primary "/></g>
  <g id="Regular-M" transform="matrix(1,0,0,1,1385.845,1026.77)">

  <path d="M93.39133186813187 48.461784615384616C93.39133186813187 50.95450256410256 91.51141978021978 52.97526153846153 89.1925098901099 52.97526153846153 86.87374065934067 52.97526153846153 84.99382857142858 50.95450256410256 84.99382857142858 48.461784615384616 84.99382857142858 45.96906666666666 86.87374065934067 43.94830769230769 89.1925098901099 43.94830769230769 91.51141978021978 43.94830769230769 93.39133186813187 45.96906666666666 93.39133186813187 48.461784615384616Z" class="hierarchical-1:primary "/><path d="M80.79514725274726 62.00221538461538C83.11405714285715 62.00221538461538 84.99382857142858 59.98145641025641 84.99382857142858 57.48873846153847 84.99382857142858 54.99602051282051 83.11405714285715 52.97526153846153 80.79514725274726 52.97526153846153 78.47623736263736 52.97526153846153 76.59632527472527 54.99602051282051 76.59632527472527 57.48873846153847 76.59632527472527 59.98145641025641 78.47623736263736 62.00221538461538 80.79514725274726 62.00221538461538Z" class="hierarchical-1:primary "/><path d="M101.78883516483516 57.48873846153847C101.78883516483516 59.98145641025641 99.90892307692307 62.00221538461538 97.59001318681318 62.00221538461538 95.27110329670332 62.00221538461538 93.39133186813187 59.98145641025641 93.39133186813187 57.48873846153847 93.39133186813187 54.99602051282051 95.27110329670332 52.97526153846153 97.59001318681318 52.97526153846153 99.90892307692307 52.97526153846153 101.78883516483516 54.99602051282051 101.78883516483516 57.48873846153847Z" class="hierarchical-1:primary "/><path d="M89.1925098901099 71.02933333333333C91.51141978021978 71.02933333333333 93.39133186813187 69.00857435897436 93.39133186813187 66.5158564102564 93.39133186813187 64.02297435897437 91.51141978021978 62.00221538461538 89.1925098901099 62.00221538461538 86.87374065934067 62.00221538461538 84.99382857142858 64.02297435897437 84.99382857142858 66.5158564102564 84.99382857142858 69.00857435897436 86.87374065934067 71.02933333333333 89.1925098901099 71.02933333333333Z" class="hierarchical-1:primary "/><path d="M34.60894945054945 43.94830769230769H43.00645274725275V52.97526153846153H51.403815384615385V62.00221538461538H43.00645274725275V71.02933333333333H34.60894945054945V62.00221538461538H26.211446153846154V52.97526153846153H34.60894945054945V43.94830769230769Z" class="hierarchical-1:primary "/><path d="M22.441775824175828 23.483733333333333C21.84158241758242 21.07585641025641 23.170813186813188 18.601025641025643 25.41067252747253 17.95577435897436L41.63347692307693 13.28311794871795C43.87333626373626 12.637948717948717 46.17564835164836 14.066855384615383 46.77584175824176 16.474584615384614 46.8027076923077 16.5824 46.82577582417583 16.690379487179488 46.844905494505504 16.798358974358973 52.34285714285714 16.088434871794874 58.18767472527473 15.738896410256409 64 15.738896410256409 70.03977142857144 15.738896410256409 76.11442637362639 16.116315897435896 81.798610989011 16.8832 81.82041318681318 16.746994871794872 81.84798241758243 16.61078974358974 81.88202197802198 16.474584615384614 82.48207472527473 14.066855384615383 84.78452747252747 12.637948717948717 87.02438681318681 13.28311794871795L103.24705054945055 17.95577435897436C105.4869098901099 18.601025641025643 106.81614065934066 21.07585641025641 106.21608791208793 23.483733333333333 106.12269010989013 23.858215384615384 105.9882197802198 24.208902564102562 105.81914725274726 24.53185641025641 106.99590329670332 25.3504 108.05098901098901 26.242953846153846 108.95641318681321 27.216246153846154 112.37949890109891 30.89591794871795 115.5003076923077 36.6977641025641 118.14371868131869 43.21345641025641 120.82792087912088 49.82957948717949 123.17636923076924 57.57554871794871 124.90507252747254 65.47675897435897 126.63265054945056 73.37353846153846 127.76678681318681 81.54125128205128 127.96778901098901 88.9984 128.16625934065937 96.3585641025641 127.47055824175824 103.46207179487179 125.20791208791209 108.9481846153846 123.10941538461539 114.03634871794871 118.1461098901099 117.01677948717949 113.07674725274727 116.4424205128205 107.73506813186815 115.83721025641026 103.7077098901099 112.88336410256412 100.36733186813187 109.46527179487178 98.31258021978022 107.36262564102563 96.20128351648353 104.71466666666666 94.16749010989011 102.16385641025641 93.10832527472527 100.83544615384615 92.0689934065934 99.53181538461538 91.07087472527473 98.34715897435898 84.95697582417583 91.08988717948718 77.6666021978022 84.56976410256411 64 84.56976410256411 50.33339780219781 84.56976410256411 43.04302417582418 91.08988717948718 36.92912527472528 98.34715897435898 35.930725274725276 99.5323076923077 34.89209670329671 100.83478974358974 33.8325098901099 102.16385641025641 31.798857142857145 104.71450256410256 29.687560439560443 107.36262564102563 27.632668131868133 109.46527179487178 24.29229010989011 112.88336410256412 20.26493186813187 115.83721025641026 14.92311208791209 116.4424205128205 9.85386197802198 117.01677948717949 4.89050021978022 114.03634871794871 2.7920316483516485 108.9481846153846 0.5293869010989012 103.46190769230769-0.1662973186813187 96.3584 0.03217371428571429 88.9984 0.2332624175824176 81.54108717948718 1.367378989010989 73.37337435897436 3.0950821978021983 65.47675897435897 4.823799560439561 57.57554871794871 7.172219780219781 49.82957948717949 9.856421978021979 43.21345641025641 12.499832967032967 36.6977641025641 15.620641758241758 30.89591794871795 19.043727472527475 27.216246153846154 20.07518241758242 26.10756923076923 21.300606593406595 25.10358974358974 22.679068131868135 24.194461538461535 22.583279120879123 23.96865641025641 22.503525274725277 23.7313641025641 22.441775824175828 23.483733333333333ZM39.54145054945055 27.20787692307692C32.177090109890116 28.874502564102567 27.20618901098901 31.20787692307692 24.98166153846154 33.59934358974359 22.667956043956046 36.08631794871795 20.05211428571429 40.66395897435897 17.553723076923077 46.82207179487179 15.096123076923078 52.87958974358975 12.897758241758241 60.10141538461538 11.269527912087913 67.54346666666667 9.640270769230769 74.99011282051282 8.60731076923077 82.5412923076923 8.426141538461538 89.25981538461538 8.24234197802198 96.07548717948717 8.949225494505495 101.60475897435897 10.468894945054945 105.28951794871794 11.058145054945056 106.71835897435896 12.51719032967033 107.63798974358973 14.042894065934068 107.46518974358973 16.793318681318684 107.15355897435897 19.170461538461538 105.66170256410257 21.842707692307695 102.92709743589744 23.626127472527475 101.10211282051282 25.210092307692307 99.10728205128206 27.011516483516484 96.8388923076923 28.126382417582416 95.43483076923077 29.324518681318683 93.92590769230769 30.704808791208794 92.2876717948718 37.64086153846154 84.05448205128205 47.01679120879122 75.54281025641026 64 75.54281025641026 80.9832087912088 75.54281025641026 90.35913846153846 84.05448205128205 97.29519120879121 92.2876717948718 98.67548131868134 93.92590769230769 99.8736175824176 95.43483076923077 100.98862417582419 96.8388923076923 102.78990769230771 99.10728205128206 104.37387252747253 101.10211282051282 106.15729230769232 102.92709743589744 108.82967912087912 105.66170256410257 111.20668131868133 107.15355897435897 113.95713406593408 107.46518974358973 115.48272527472528 107.63798974358973 116.94178461538462 106.71835897435896 117.5310065934066 105.28968205128204 119.05069010989013 101.60492307692307 119.75764395604395 96.07565128205128 119.57394285714288 89.25997948717949 119.39277362637363 82.5412923076923 118.35977142857143 74.99011282051282 116.73051428571429 67.54346666666667 115.10238241758243 60.10141538461538 112.90387692307694 52.87958974358975 110.4464175824176 46.82207179487179 107.94802637362638 40.66395897435897 105.33218461538463 36.08631794871795 103.01847912087912 33.59934358974359 100.793810989011 31.20787692307692 95.82305054945056 28.874502564102567 88.45869010989011 27.20787692307692 81.32669890109891 25.593928205128204 72.70343736263737 24.765866666666664 64 24.765866666666664 55.2967032967033 24.765866666666664 46.67344175824176 25.593928205128204 39.54145054945055 27.20787692307692Z" class="hierarchical-1:primary "/></g>
  <g id="Ultralight-M" transform="matrix(1,0,0,1,495.711,1026.77)">

  <path d="M93.39133186813187 48.461784615384616C93.39133186813187 50.95450256410256 91.51141978021978 52.97526153846153 89.1925098901099 52.97526153846153 86.87374065934067 52.97526153846153 84.99382857142858 50.95450256410256 84.99382857142858 48.461784615384616 84.99382857142858 45.96906666666666 86.87374065934067 43.94830769230769 89.1925098901099 43.94830769230769 91.51141978021978 43.94830769230769 93.39133186813187 45.96906666666666 93.39133186813187 48.461784615384616Z" class="hierarchical-1:primary "/><path d="M80.79514725274726 62.00221538461538C83.11405714285715 62.00221538461538 84.99382857142858 59.98145641025641 84.99382857142858 57.48873846153847 84.99382857142858 54.99602051282051 83.11405714285715 52.97526153846153 80.79514725274726 52.97526153846153 78.47623736263736 52.97526153846153 76.59632527472527 54.99602051282051 76.59632527472527 57.48873846153847 76.59632527472527 59.98145641025641 78.47623736263736 62.00221538461538 80.79514725274726 62.00221538461538Z" class="hierarchical-1:primary "/><path d="M101.78883516483516 57.48873846153847C101.78883516483516 59.98145641025641 99.90892307692307 62.00221538461538 97.59001318681318 62.00221538461538 95.27110329670332 62.00221538461538 93.39133186813187 59.98145641025641 93.39133186813187 57.48873846153847 93.39133186813187 54.99602051282051 95.27110329670332 52.97526153846153 97.59001318681318 52.97526153846153 99.90892307692307 52.97526153846153 101.78883516483516 54.99602051282051 101.78883516483516 57.48873846153847Z" class="hierarchical-1:primary "/><path d="M89.1925098901099 71.02933333333333C91.51141978021978 71.02933333333333 93.39133186813187 69.00857435897436 93.39133186813187 66.5158564102564 93.39133186813187 64.02297435897437 91.51141978021978 62.00221538461538 89.1925098901099 62.00221538461538 86.87374065934067 62.00221538461538 84.99382857142858 64.02297435897437 84.99382857142858 66.5158564102564 84.99382857142858 69.00857435897436 86.87374065934067 71.02933333333333 89.1925098901099 71.02933333333333Z" class="hierarchical-1:primary "/><path d="M34.60894945054945 43.94830769230769H43.00645274725275V52.97526153846153H51.403815384615385V62.00221538461538H43.00645274725275V71.02933333333333H34.60894945054945V62.00221538461538H26.211446153846154V52.97526153846153H34.60894945054945V43.94830769230769Z" class="hierarchical-1:primary "/><path d="M22.441775824175828 23.483733333333333C21.84158241758242 21.07585641025641 23.170813186813188 18.601025641025643 25.41067252747253 17.95577435897436L41.63347692307693 13.28311794871795C43.87333626373626 12.637948717948717 46.17564835164836 14.066855384615383 46.77584175824176 16.474584615384614 46.8027076923077 16.5824 46.82577582417583 16.690379487179488 46.844905494505504 16.798358974358973 52.34285714285714 16.088434871794874 58.18767472527473 15.738896410256409 64 15.738896410256409 70.03977142857144 15.738896410256409 76.11442637362639 16.116315897435896 81.798610989011 16.8832 81.82041318681318 16.746994871794872 81.84798241758243 16.61078974358974 81.88202197802198 16.474584615384614 82.48207472527473 14.066855384615383 84.78452747252747 12.637948717948717 87.02438681318681 13.28311794871795L103.24705054945055 17.95577435897436C105.4869098901099 18.601025641025643 106.81614065934066 21.07585641025641 106.21608791208793 23.483733333333333 106.12269010989013 23.858215384615384 105.9882197802198 24.208902564102562 105.81914725274726 24.53185641025641 106.99590329670332 25.3504 108.05098901098901 26.242953846153846 108.95641318681321 27.216246153846154 112.37949890109891 30.89591794871795 115.5003076923077 36.6977641025641 118.14371868131869 43.21345641025641 120.82792087912088 49.82957948717949 123.17636923076924 57.57554871794871 124.90507252747254 65.47675897435897 126.63265054945056 73.37353846153846 127.76678681318681 81.54125128205128 127.96778901098901 88.9984 128.16625934065937 96.3585641025641 127.47055824175824 103.46207179487179 125.20791208791209 108.9481846153846 123.10941538461539 114.03634871794871 118.1461098901099 117.01677948717949 113.07674725274727 116.4424205128205 107.73506813186815 115.83721025641026 103.7077098901099 112.88336410256412 100.36733186813187 109.46527179487178 98.31258021978022 107.36262564102563 96.20128351648353 104.71466666666666 94.16749010989011 102.16385641025641 93.10832527472527 100.83544615384615 92.0689934065934 99.53181538461538 91.07087472527473 98.34715897435898 84.95697582417583 91.08988717948718 77.6666021978022 84.56976410256411 64 84.56976410256411 50.33339780219781 84.56976410256411 43.04302417582418 91.08988717948718 36.92912527472528 98.34715897435898 35.930725274725276 99.5323076923077 34.89209670329671 100.83478974358974 33.8325098901099 102.16385641025641 31.798857142857145 104.71450256410256 29.687560439560443 107.36262564102563 27.632668131868133 109.46527179487178 24.29229010989011 112.88336410256412 20.26493186813187 115.83721025641026 14.92311208791209 116.4424205128205 9.85386197802198 117.01677948717949 4.89050021978022 114.03634871794871 2.7920316483516485 108.9481846153846 0.5293869010989012 103.46190769230769-0.1662973186813187 96.3584 0.03217371428571429 88.9984 0.2332624175824176 81.54108717948718 1.367378989010989 73.37337435897436 3.0950821978021983 65.47675897435897 4.823799560439561 57.57554871794871 7.172219780219781 49.82957948717949 9.856421978021979 43.21345641025641 12.499832967032967 36.6977641025641 15.620641758241758 30.89591794871795 19.043727472527475 27.216246153846154 20.07518241758242 26.10756923076923 21.300606593406595 25.10358974358974 22.679068131868135 24.194461538461535 22.583279120879123 23.96865641025641 22.503525274725277 23.7313641025641 22.441775824175828 23.483733333333333ZM39.54145054945055 27.20787692307692C32.177090109890116 28.874502564102567 27.20618901098901 31.20787692307692 24.98166153846154 33.59934358974359 22.667956043956046 36.08631794871795 20.05211428571429 40.66395897435897 17.553723076923077 46.82207179487179 15.096123076923078 52.87958974358975 12.897758241758241 60.10141538461538 11.269527912087913 67.54346666666667 9.640270769230769 74.99011282051282 8.60731076923077 82.5412923076923 8.426141538461538 89.25981538461538 8.24234197802198 96.07548717948717 8.949225494505495 101.60475897435897 10.468894945054945 105.28951794871794 11.058145054945056 106.71835897435896 12.51719032967033 107.63798974358973 14.042894065934068 107.46518974358973 16.793318681318684 107.15355897435897 19.170461538461538 105.66170256410257 21.842707692307695 102.92709743589744 23.626127472527475 101.10211282051282 25.210092307692307 99.10728205128206 27.011516483516484 96.8388923076923 28.126382417582416 95.43483076923077 29.324518681318683 93.92590769230769 30.704808791208794 92.2876717948718 37.64086153846154 84.05448205128205 47.01679120879122 75.54281025641026 64 75.54281025641026 80.9832087912088 75.54281025641026 90.35913846153846 84.05448205128205 97.29519120879121 92.2876717948718 98.67548131868134 93.92590769230769 99.8736175824176 95.43483076923077 100.98862417582419 96.8388923076923 102.78990769230771 99.10728205128206 104.37387252747253 101.10211282051282 106.15729230769232 102.92709743589744 108.82967912087912 105.66170256410257 111.20668131868133 107.15355897435897 113.95713406593408 107.46518974358973 115.48272527472528 107.63798974358973 116.94178461538462 106.71835897435896 117.5310065934066 105.28968205128204 119.05069010989013 101.60492307692307 119.75764395604395 96.07565128205128 119.57394285714288 89.25997948717949 119.39277362637363 82.5412923076923 118.35977142857143 74.99011282051282 116.73051428571429 67.54346666666667 115.10238241758243 60.10141538461538 112.90387692307694 52.87958974358975 110.4464175824176 46.82207179487179 107.94802637362638 40.66395897435897 105.33218461538463 36.08631794871795 103.01847912087912 33.59934358974359 100.793810989011 31.20787692307692 95.82305054945056 28.874502564102567 88.45869010989011 27.20787692307692 81.32669890109891 25.593928205128204 72.70343736263737 24.765866666666664 64 24.765866666666664 55.2967032967033 24.765866666666664 46.67344175824176 25.593928205128204 39.54145054945055 27.20787692307692Z" class="hierarchical-1:primary "/></g>
  <g id="Black-S" transform="matrix(1,0,0,1,2885.3999999999996,612.7705000000001)">

  <path d="M70.0434989010989 36.346338461538465C70.0434989010989 38.21587692307693 68.63356483516483 39.73144615384615 66.89438241758242 39.73144615384615 65.1553054945055 39.73144615384615 63.74537142857143 38.21587692307693 63.74537142857143 36.346338461538465 63.74537142857143 34.476800000000004 65.1553054945055 32.96123076923077 66.89438241758242 32.96123076923077 68.63356483516483 32.96123076923077 70.0434989010989 34.476800000000004 70.0434989010989 36.346338461538465Z" class="hierarchical-1:primary "/><path d="M60.59636043956044 46.50166153846154C62.33554285714286 46.50166153846154 63.74537142857143 44.98609230769231 63.74537142857143 43.11655384615385 63.74537142857143 41.24701538461538 62.33554285714286 39.73144615384615 60.59636043956044 39.73144615384615 58.85717802197802 39.73144615384615 57.447243956043955 41.24701538461538 57.447243956043955 43.11655384615385 57.447243956043955 44.98609230769231 58.85717802197802 46.50166153846154 60.59636043956044 46.50166153846154Z" class="hierarchical-1:primary "/><path d="M76.34162637362637 43.11655384615385C76.34162637362637 44.98609230769231 74.9316923076923 46.50166153846154 73.19250989010989 46.50166153846154 71.45332747252748 46.50166153846154 70.0434989010989 44.98609230769231 70.0434989010989 43.11655384615385 70.0434989010989 41.24701538461538 71.45332747252748 39.73144615384615 73.19250989010989 39.73144615384615 74.9316923076923 39.73144615384615 76.34162637362637 41.24701538461538 76.34162637362637 43.11655384615385Z" class="hierarchical-1:primary "/><path d="M66.89438241758242 53.272C68.63356483516483 53.272 70.0434989010989 51.756430769230775 70.0434989010989 49.88689230769231 70.0434989010989 48.01723076923078 68.63356483516483 46.50166153846154 66.89438241758242 46.50166153846154 65.1553054945055 46.50166153846154 63.74537142857143 48.01723076923078 63.74537142857143 49.88689230769231 63.74537142857143 51.756430769230775 65.1553054945055 53.272 66.89438241758242 53.272Z" class="hierarchical-1:primary "/><path d="M25.956712087912088 32.96123076923077H32.254839560439564V39.73144615384615H38.552861538461535V46.50166153846154H32.254839560439564V53.272H25.956712087912088V46.50166153846154H19.658584615384616V39.73144615384615H25.956712087912088V32.96123076923077Z" class="hierarchical-1:primary "/><path d="M16.83133186813187 17.6128C16.381186813186815 15.806892307692308 17.37810989010989 13.950769230769232 19.058004395604396 13.466830769230771L31.225107692307695 9.962338461538462C32.9050021978022 9.47846153846154 34.631736263736265 10.550141538461538 35.08188131868132 12.35593846153846 35.10203076923077 12.436800000000002 35.119331868131866 12.517784615384617 35.13367912087912 12.59876923076923 39.25714285714286 12.066326153846155 43.640756043956046 11.804172307692308 48 11.804172307692308 52.529828571428574 11.804172307692308 57.08581978021978 12.087236923076924 61.34895824175825 12.6624 61.36530989010989 12.560246153846155 61.38598681318682 12.458092307692308 61.411516483516486 12.35593846153846 61.86155604395605 10.550141538461538 63.58839560439561 9.47846153846154 65.2682901098901 9.962338461538462L77.4352879120879 13.466830769230771C79.11518241758243 13.950769230769232 80.1121054945055 15.806892307692308 79.66206593406594 17.6128 79.59201758241758 17.89366153846154 79.49116483516484 18.156676923076922 79.36436043956044 18.398892307692307 80.24692747252747 19.012800000000002 81.03824175824175 19.682215384615386 81.7173098901099 20.412184615384618 84.28462417582418 23.171938461538463 86.62523076923077 27.523323076923077 88.60778901098901 32.41009230769231 90.62094065934066 37.37218461538462 92.38227692307693 43.18166153846154 93.6788043956044 49.107569230769236 94.97448791208792 55.03015384615385 95.82509010989011 61.15593846153846 95.97584175824176 66.7488 96.1246945054945 72.26892307692307 95.60291868131868 77.59655384615385 93.90593406593406 81.71113846153847 92.33206153846155 85.52726153846154 88.60958241758242 87.76258461538463 84.80756043956045 87.33181538461538 80.8013010989011 86.8779076923077 77.78078241758242 84.6625230769231 75.2754989010989 82.09895384615385 73.73443516483516 80.52196923076923 72.15096263736264 78.536 70.62561758241758 76.62289230769231 69.83124395604395 75.62658461538462 69.05174505494504 74.64886153846155 68.30315604395605 73.76036923076924 63.717731868131864 68.31741538461539 58.24995164835165 63.42732307692308 48 63.42732307692308 37.75004835164835 63.42732307692308 32.28226813186813 68.31741538461539 27.696843956043956 73.76036923076924 26.948043956043957 74.64923076923078 26.16907252747253 75.6260923076923 25.37438241758242 76.62289230769231 23.84914285714286 78.53587692307693 22.265670329670332 80.52196923076923 20.724501098901097 82.09895384615385 18.21921758241758 84.6625230769231 15.1986989010989 86.8779076923077 11.192334065934068 87.33181538461538 7.390396483516484 87.76258461538463 3.667875164835165 85.52726153846154 2.094023736263736 81.71113846153847 0.39704017582417583 77.59643076923078-0.12472298901098901 72.26880000000001 0.024130285714285715 66.7488 0.1749468131868132 61.155815384615394 1.0255342417582418 55.03003076923077 2.3213116483516485 49.107569230769236 3.6178496703296705 43.18166153846154 5.379164835164835 37.37218461538462 7.392316483516484 32.41009230769231 9.374874725274726 27.523323076923077 11.715481318681318 23.171938461538463 14.282795604395604 20.412184615384618 15.056386813186814 19.580676923076926 15.975454945054945 18.82769230769231 17.009301098901098 18.145846153846154 16.93745934065934 17.976492307692308 16.877643956043958 17.79852307692308 16.83133186813187 17.6128ZM29.656087912087912 20.405907692307693C24.132817582417584 21.655876923076924 20.40464175824176 23.405907692307693 18.736246153846157 25.19950769230769 17.000967032967033 27.064738461538465 15.039085714285715 30.49796923076923 13.165292307692308 35.11655384615385 11.322092307692309 39.65969230769231 9.673318681318682 45.07606153846154 8.452145934065934 50.6576 7.230203076923077 56.242584615384615 6.455483076923077 61.90596923076924 6.319606153846154 66.94486153846154 6.181756483516484 72.05661538461538 6.711919120879121 76.20356923076923 7.851671208791209 78.96713846153845 8.293608791208792 80.03876923076923 9.387892747252748 80.7284923076923 10.53217054945055 80.59889230769231 12.59498901098901 80.36516923076924 14.377846153846153 79.24627692307693 16.38203076923077 77.19532307692309 17.719595604395607 75.82658461538462 18.90756923076923 74.33046153846155 20.258637362637362 72.62916923076924 21.09478681318681 71.57612307692308 21.99338901098901 70.44443076923078 23.028606593406593 69.21575384615385 28.230646153846155 63.04086153846154 35.26259340659341 56.6571076923077 48 56.6571076923077 60.73740659340659 56.6571076923077 67.76935384615385 63.04086153846154 72.9713934065934 69.21575384615385 74.006610989011 70.44443076923078 74.90521318681319 71.57612307692308 75.74146813186813 72.62916923076924 77.09243076923077 74.33046153846155 78.28040439560439 75.82658461538462 79.61796923076923 77.19532307692309 81.62225934065934 79.24627692307693 83.405010989011 80.36516923076924 85.46785054945056 80.59889230769231 86.61204395604396 80.7284923076923 87.70633846153846 80.03876923076923 88.14825494505494 78.96726153846154 89.2880175824176 76.20369230769231 89.81823296703296 72.05673846153847 89.68045714285715 66.94498461538463 89.54458021978022 61.90596923076924 88.76982857142858 56.242584615384615 87.54788571428573 50.6576 86.32678681318681 45.07606153846154 84.6779076923077 39.65969230769231 82.8348131868132 35.11655384615385 80.96101978021977 30.49796923076923 78.99913846153846 27.064738461538465 77.26385934065934 25.19950769230769 75.59535824175825 23.405907692307693 71.86728791208792 21.655876923076924 66.34401758241758 20.405907692307693 60.99502417582418 19.195446153846156 54.52757802197803 18.5744 48 18.5744 41.472527472527474 18.5744 35.00508131868132 19.195446153846156 29.656087912087912 20.405907692307693Z" class="hierarchical-1:primary "/></g>
  <g id="Regular-S" transform="matrix(1,0,0,1,1401.845,612.7705000000001)">

  <path d="M70.0434989010989 36.346338461538465C70.0434989010989 38.21587692307693 68.63356483516483 39.73144615384615 66.89438241758242 39.73144615384615 65.1553054945055 39.73144615384615 63.74537142857143 38.21587692307693 63.74537142857143 36.346338461538465 63.74537142857143 34.476800000000004 65.1553054945055 32.96123076923077 66.89438241758242 32.96123076923077 68.63356483516483 32.96123076923077 70.0434989010989 34.476800000000004 70.0434989010989 36.346338461538465Z" class="hierarchical-1:primary "/><path d="M60.59636043956044 46.50166153846154C62.33554285714286 46.50166153846154 63.74537142857143 44.98609230769231 63.74537142857143 43.11655384615385 63.74537142857143 41.24701538461538 62.33554285714286 39.73144615384615 60.59636043956044 39.73144615384615 58.85717802197802 39.73144615384615 57.447243956043955 41.24701538461538 57.447243956043955 43.11655384615385 57.447243956043955 44.98609230769231 58.85717802197802 46.50166153846154 60.59636043956044 46.50166153846154Z" class="hierarchical-1:primary "/><path d="M76.34162637362637 43.11655384615385C76.34162637362637 44.98609230769231 74.9316923076923 46.50166153846154 73.19250989010989 46.50166153846154 71.45332747252748 46.50166153846154 70.0434989010989 44.98609230769231 70.0434989010989 43.11655384615385 70.0434989010989 41.24701538461538 71.45332747252748 39.73144615384615 73.19250989010989 39.73144615384615 74.9316923076923 39.73144615384615 76.34162637362637 41.24701538461538 76.34162637362637 43.11655384615385Z" class="hierarchical-1:primary "/><path d="M66.89438241758242 53.272C68.63356483516483 53.272 70.0434989010989 51.756430769230775 70.0434989010989 49.88689230769231 70.0434989010989 48.01723076923078 68.63356483516483 46.50166153846154 66.89438241758242 46.50166153846154 65.1553054945055 46.50166153846154 63.74537142857143 48.01723076923078 63.74537142857143 49.88689230769231 63.74537142857143 51.756430769230775 65.1553054945055 53.272 66.89438241758242 53.272Z" class="hierarchical-1:primary "/><path d="M25.956712087912088 32.96123076923077H32.254839560439564V39.73144615384615H38.552861538461535V46.50166153846154H32.254839560439564V53.272H25.956712087912088V46.50166153846154H19.658584615384616V39.73144615384615H25.956712087912088V32.96123076923077Z" class="hierarchical-1:primary "/><path d="M16.83133186813187 17.6128C16.381186813186815 15.806892307692308 17.37810989010989 13.950769230769232 19.058004395604396 13.466830769230771L31.225107692307695 9.962338461538462C32.9050021978022 9.47846153846154 34.631736263736265 10.550141538461538 35.08188131868132 12.35593846153846 35.10203076923077 12.436800000000002 35.119331868131866 12.517784615384617 35.13367912087912 12.59876923076923 39.25714285714286 12.066326153846155 43.640756043956046 11.804172307692308 48 11.804172307692308 52.529828571428574 11.804172307692308 57.08581978021978 12.087236923076924 61.34895824175825 12.6624 61.36530989010989 12.560246153846155 61.38598681318682 12.458092307692308 61.411516483516486 12.35593846153846 61.86155604395605 10.550141538461538 63.58839560439561 9.47846153846154 65.2682901098901 9.962338461538462L77.4352879120879 13.466830769230771C79.11518241758243 13.950769230769232 80.1121054945055 15.806892307692308 79.66206593406594 17.6128 79.59201758241758 17.89366153846154 79.49116483516484 18.156676923076922 79.36436043956044 18.398892307692307 80.24692747252747 19.012800000000002 81.03824175824175 19.682215384615386 81.7173098901099 20.412184615384618 84.28462417582418 23.171938461538463 86.62523076923077 27.523323076923077 88.60778901098901 32.41009230769231 90.62094065934066 37.37218461538462 92.38227692307693 43.18166153846154 93.6788043956044 49.107569230769236 94.97448791208792 55.03015384615385 95.82509010989011 61.15593846153846 95.97584175824176 66.7488 96.1246945054945 72.26892307692307 95.60291868131868 77.59655384615385 93.90593406593406 81.71113846153847 92.33206153846155 85.52726153846154 88.60958241758242 87.76258461538463 84.80756043956045 87.33181538461538 80.8013010989011 86.8779076923077 77.78078241758242 84.6625230769231 75.2754989010989 82.09895384615385 73.73443516483516 80.52196923076923 72.15096263736264 78.536 70.62561758241758 76.62289230769231 69.83124395604395 75.62658461538462 69.05174505494504 74.64886153846155 68.30315604395605 73.76036923076924 63.717731868131864 68.31741538461539 58.24995164835165 63.42732307692308 48 63.42732307692308 37.75004835164835 63.42732307692308 32.28226813186813 68.31741538461539 27.696843956043956 73.76036923076924 26.948043956043957 74.64923076923078 26.16907252747253 75.6260923076923 25.37438241758242 76.62289230769231 23.84914285714286 78.53587692307693 22.265670329670332 80.52196923076923 20.724501098901097 82.09895384615385 18.21921758241758 84.6625230769231 15.1986989010989 86.8779076923077 11.192334065934068 87.33181538461538 7.390396483516484 87.76258461538463 3.667875164835165 85.52726153846154 2.094023736263736 81.71113846153847 0.39704017582417583 77.59643076923078-0.12472298901098901 72.26880000000001 0.024130285714285715 66.7488 0.1749468131868132 61.155815384615394 1.0255342417582418 55.03003076923077 2.3213116483516485 49.107569230769236 3.6178496703296705 43.18166153846154 5.379164835164835 37.37218461538462 7.392316483516484 32.41009230769231 9.374874725274726 27.523323076923077 11.715481318681318 23.171938461538463 14.282795604395604 20.412184615384618 15.056386813186814 19.580676923076926 15.975454945054945 18.82769230769231 17.009301098901098 18.145846153846154 16.93745934065934 17.976492307692308 16.877643956043958 17.79852307692308 16.83133186813187 17.6128ZM29.656087912087912 20.405907692307693C24.132817582417584 21.655876923076924 20.40464175824176 23.405907692307693 18.736246153846157 25.19950769230769 17.000967032967033 27.064738461538465 15.039085714285715 30.49796923076923 13.165292307692308 35.11655384615385 11.322092307692309 39.65969230769231 9.673318681318682 45.07606153846154 8.452145934065934 50.6576 7.230203076923077 56.242584615384615 6.455483076923077 61.90596923076924 6.319606153846154 66.94486153846154 6.181756483516484 72.05661538461538 6.711919120879121 76.20356923076923 7.851671208791209 78.96713846153845 8.293608791208792 80.03876923076923 9.387892747252748 80.7284923076923 10.53217054945055 80.59889230769231 12.59498901098901 80.36516923076924 14.377846153846153 79.24627692307693 16.38203076923077 77.19532307692309 17.719595604395607 75.82658461538462 18.90756923076923 74.33046153846155 20.258637362637362 72.62916923076924 21.09478681318681 71.57612307692308 21.99338901098901 70.44443076923078 23.028606593406593 69.21575384615385 28.230646153846155 63.04086153846154 35.26259340659341 56.6571076923077 48 56.6571076923077 60.73740659340659 56.6571076923077 67.76935384615385 63.04086153846154 72.9713934065934 69.21575384615385 74.006610989011 70.44443076923078 74.90521318681319 71.57612307692308 75.74146813186813 72.62916923076924 77.09243076923077 74.33046153846155 78.28040439560439 75.82658461538462 79.61796923076923 77.19532307692309 81.62225934065934 79.24627692307693 83.405010989011 80.36516923076924 85.46785054945056 80.59889230769231 86.61204395604396 80.7284923076923 87.70633846153846 80.03876923076923 88.14825494505494 78.96726153846154 89.2880175824176 76.20369230769231 89.81823296703296 72.05673846153847 89.68045714285715 66.94498461538463 89.54458021978022 61.90596923076924 88.76982857142858 56.242584615384615 87.54788571428573 50.6576 86.32678681318681 45.07606153846154 84.6779076923077 39.65969230769231 82.8348131868132 35.11655384615385 80.96101978021977 30.49796923076923 78.99913846153846 27.064738461538465 77.26385934065934 25.19950769230769 75.59535824175825 23.405907692307693 71.86728791208792 21.655876923076924 66.34401758241758 20.405907692307693 60.99502417582418 19.195446153846156 54.52757802197803 18.5744 48 18.5744 41.472527472527474 18.5744 35.00508131868132 19.195446153846156 29.656087912087912 20.405907692307693Z" class="hierarchical-1:primary "/></g>
  <g id="Ultralight-S" transform="matrix(1,0,0,1,511.711,612.7705000000001)">

  <path d="M70.0434989010989 36.346338461538465C70.0434989010989 38.21587692307693 68.63356483516483 39.73144615384615 66.89438241758242 39.73144615384615 65.1553054945055 39.73144615384615 63.74537142857143 38.21587692307693 63.74537142857143 36.346338461538465 63.74537142857143 34.476800000000004 65.1553054945055 32.96123076923077 66.89438241758242 32.96123076923077 68.63356483516483 32.96123076923077 70.0434989010989 34.476800000000004 70.0434989010989 36.346338461538465Z" class="hierarchical-1:primary "/><path d="M60.59636043956044 46.50166153846154C62.33554285714286 46.50166153846154 63.74537142857143 44.98609230769231 63.74537142857143 43.11655384615385 63.74537142857143 41.24701538461538 62.33554285714286 39.73144615384615 60.59636043956044 39.73144615384615 58.85717802197802 39.73144615384615 57.447243956043955 41.24701538461538 57.447243956043955 43.11655384615385 57.447243956043955 44.98609230769231 58.85717802197802 46.50166153846154 60.59636043956044 46.50166153846154Z" class="hierarchical-1:primary "/><path d="M76.34162637362637 43.11655384615385C76.34162637362637 44.98609230769231 74.9316923076923 46.50166153846154 73.19250989010989 46.50166153846154 71.45332747252748 46.50166153846154 70.0434989010989 44.98609230769231 70.0434989010989 43.11655384615385 70.0434989010989 41.24701538461538 71.45332747252748 39.73144615384615 73.19250989010989 39.73144615384615 74.9316923076923 39.73144615384615 76.34162637362637 41.24701538461538 76.34162637362637 43.11655384615385Z" class="hierarchical-1:primary "/><path d="M66.89438241758242 53.272C68.63356483516483 53.272 70.0434989010989 51.756430769230775 70.0434989010989 49.88689230769231 70.0434989010989 48.01723076923078 68.63356483516483 46.50166153846154 66.89438241758242 46.50166153846154 65.1553054945055 46.50166153846154 63.74537142857143 48.01723076923078 63.74537142857143 49.88689230769231 63.74537142857143 51.756430769230775 65.1553054945055 53.272 66.89438241758242 53.272Z" class="hierarchical-1:primary "/><path d="M25.956712087912088 32.96123076923077H32.254839560439564V39.73144615384615H38.552861538461535V46.50166153846154H32.254839560439564V53.272H25.956712087912088V46.50166153846154H19.658584615384616V39.73144615384615H25.956712087912088V32.96123076923077Z" class="hierarchical-1:primary "/><path d="M16.83133186813187 17.6128C16.381186813186815 15.806892307692308 17.37810989010989 13.950769230769232 19.058004395604396 13.466830769230771L31.225107692307695 9.962338461538462C32.9050021978022 9.47846153846154 34.631736263736265 10.550141538461538 35.08188131868132 12.35593846153846 35.10203076923077 12.436800000000002 35.119331868131866 12.517784615384617 35.13367912087912 12.59876923076923 39.25714285714286 12.066326153846155 43.640756043956046 11.804172307692308 48 11.804172307692308 52.529828571428574 11.804172307692308 57.08581978021978 12.087236923076924 61.34895824175825 12.6624 61.36530989010989 12.560246153846155 61.38598681318682 12.458092307692308 61.411516483516486 12.35593846153846 61.86155604395605 10.550141538461538 63.58839560439561 9.47846153846154 65.2682901098901 9.962338461538462L77.4352879120879 13.466830769230771C79.11518241758243 13.950769230769232 80.1121054945055 15.806892307692308 79.66206593406594 17.6128 79.59201758241758 17.89366153846154 79.49116483516484 18.156676923076922 79.36436043956044 18.398892307692307 80.24692747252747 19.012800000000002 81.03824175824175 19.682215384615386 81.7173098901099 20.412184615384618 84.28462417582418 23.171938461538463 86.62523076923077 27.523323076923077 88.60778901098901 32.41009230769231 90.62094065934066 37.37218461538462 92.38227692307693 43.18166153846154 93.6788043956044 49.107569230769236 94.97448791208792 55.03015384615385 95.82509010989011 61.15593846153846 95.97584175824176 66.7488 96.1246945054945 72.26892307692307 95.60291868131868 77.59655384615385 93.90593406593406 81.71113846153847 92.33206153846155 85.52726153846154 88.60958241758242 87.76258461538463 84.80756043956045 87.33181538461538 80.8013010989011 86.8779076923077 77.78078241758242 84.6625230769231 75.2754989010989 82.09895384615385 73.73443516483516 80.52196923076923 72.15096263736264 78.536 70.62561758241758 76.62289230769231 69.83124395604395 75.62658461538462 69.05174505494504 74.64886153846155 68.30315604395605 73.76036923076924 63.717731868131864 68.31741538461539 58.24995164835165 63.42732307692308 48 63.42732307692308 37.75004835164835 63.42732307692308 32.28226813186813 68.31741538461539 27.696843956043956 73.76036923076924 26.948043956043957 74.64923076923078 26.16907252747253 75.6260923076923 25.37438241758242 76.62289230769231 23.84914285714286 78.53587692307693 22.265670329670332 80.52196923076923 20.724501098901097 82.09895384615385 18.21921758241758 84.6625230769231 15.1986989010989 86.8779076923077 11.192334065934068 87.33181538461538 7.390396483516484 87.76258461538463 3.667875164835165 85.52726153846154 2.094023736263736 81.71113846153847 0.39704017582417583 77.59643076923078-0.12472298901098901 72.26880000000001 0.024130285714285715 66.7488 0.1749468131868132 61.155815384615394 1.0255342417582418 55.03003076923077 2.3213116483516485 49.107569230769236 3.6178496703296705 43.18166153846154 5.379164835164835 37.37218461538462 7.392316483516484 32.41009230769231 9.374874725274726 27.523323076923077 11.715481318681318 23.171938461538463 14.282795604395604 20.412184615384618 15.056386813186814 19.580676923076926 15.975454945054945 18.82769230769231 17.009301098901098 18.145846153846154 16.93745934065934 17.976492307692308 16.877643956043958 17.79852307692308 16.83133186813187 17.6128ZM29.656087912087912 20.405907692307693C24.132817582417584 21.655876923076924 20.40464175824176 23.405907692307693 18.736246153846157 25.19950769230769 17.000967032967033 27.064738461538465 15.039085714285715 30.49796923076923 13.165292307692308 35.11655384615385 11.322092307692309 39.65969230769231 9.673318681318682 45.07606153846154 8.452145934065934 50.6576 7.230203076923077 56.242584615384615 6.455483076923077 61.90596923076924 6.319606153846154 66.94486153846154 6.181756483516484 72.05661538461538 6.711919120879121 76.20356923076923 7.851671208791209 78.96713846153845 8.293608791208792 80.03876923076923 9.387892747252748 80.7284923076923 10.53217054945055 80.59889230769231 12.59498901098901 80.36516923076924 14.377846153846153 79.24627692307693 16.38203076923077 77.19532307692309 17.719595604395607 75.82658461538462 18.90756923076923 74.33046153846155 20.258637362637362 72.62916923076924 21.09478681318681 71.57612307692308 21.99338901098901 70.44443076923078 23.028606593406593 69.21575384615385 28.230646153846155 63.04086153846154 35.26259340659341 56.6571076923077 48 56.6571076923077 60.73740659340659 56.6571076923077 67.76935384615385 63.04086153846154 72.9713934065934 69.21575384615385 74.006610989011 70.44443076923078 74.90521318681319 71.57612307692308 75.74146813186813 72.62916923076924 77.09243076923077 74.33046153846155 78.28040439560439 75.82658461538462 79.61796923076923 77.19532307692309 81.62225934065934 79.24627692307693 83.405010989011 80.36516923076924 85.46785054945056 80.59889230769231 86.61204395604396 80.7284923076923 87.70633846153846 80.03876923076923 88.14825494505494 78.96726153846154 89.2880175824176 76.20369230769231 89.81823296703296 72.05673846153847 89.68045714285715 66.94498461538463 89.54458021978022 61.90596923076924 88.76982857142858 56.242584615384615 87.54788571428573 50.6576 86.32678681318681 45.07606153846154 84.6779076923077 39.65969230769231 82.8348131868132 35.11655384615385 80.96101978021977 30.49796923076923 78.99913846153846 27.064738461538465 77.26385934065934 25.19950769230769 75.59535824175825 23.405907692307693 71.86728791208792 21.655876923076924 66.34401758241758 20.405907692307693 60.99502417582418 19.195446153846156 54.52757802197803 18.5744 48 18.5744 41.472527472527474 18.5744 35.00508131868132 19.195446153846156 29.656087912087912 20.405907692307693Z" class="hierarchical-1:primary "/></g>
 </g>
</svg>