<svg xmlns="http://www.w3.org/2000/svg" xmlns:xlink="http://www.w3.org/1999/xlink" version="1.1" width="3300" height="2200">
 <!--glyph: "", point size: 100.0, font version: "17.1d1e1", template writer version: "65.1"-->
<style>

.hierarchical-1:primary {fill:#262626;}
.SFSymbolsPreview262626 {fill:#262626;}
</style>
 <g id="Notes">
  <rect height="2200" id="artboard" style="fill:white;opacity:1" width="3300" x="0" y="0"/>
  <line style="fill:none;stroke:black;opacity:1;stroke-width:0.5;" x1="263" x2="3036" y1="292" y2="292"/>
  <text style="stroke:none;fill:black;font-family:sans-serif;font-size:13;font-weight:bold;" transform="matrix(1 0 0 1 263 322)">Weight/Scale Variations</text>
  <text style="stroke:none;fill:black;font-family:sans-serif;font-size:13;text-anchor:middle;" transform="matrix(1 0 0 1 559.711 322)">Ultralight</text>
  <text style="stroke:none;fill:black;font-family:sans-serif;font-size:13;text-anchor:middle;" transform="matrix(1 0 0 1 856.422 322)">Thin</text>
  <text style="stroke:none;fill:black;font-family:sans-serif;font-size:13;text-anchor:middle;" transform="matrix(1 0 0 1 1153.13 322)">Light</text>
  <text style="stroke:none;fill:black;font-family:sans-serif;font-size:13;text-anchor:middle;" transform="matrix(1 0 0 1 1449.84 322)">Regular</text>
  <text style="stroke:none;fill:black;font-family:sans-serif;font-size:13;text-anchor:middle;" transform="matrix(1 0 0 1 1746.56 322)">Medium</text>
  <text style="stroke:none;fill:black;font-family:sans-serif;font-size:13;text-anchor:middle;" transform="matrix(1 0 0 1 2043.27 322)">Semibold</text>
  <text style="stroke:none;fill:black;font-family:sans-serif;font-size:13;text-anchor:middle;" transform="matrix(1 0 0 1 2339.98 322)">Bold</text>
  <text style="stroke:none;fill:black;font-family:sans-serif;font-size:13;text-anchor:middle;" transform="matrix(1 0 0 1 2636.69 322)">Heavy</text>
  <text style="stroke:none;fill:black;font-family:sans-serif;font-size:13;text-anchor:middle;" transform="matrix(1 0 0 1 2933.4 322)">Black</text>
  <line style="fill:none;stroke:black;opacity:1;stroke-width:0.5;" x1="263" x2="3036" y1="1903" y2="1903"/>
  <g transform="matrix(1 0 0 1 263 1933)">
   <path d="M9.24805 0.830078Q10.8691 0.830078 12.2949 0.214844Q13.7207-0.400391 14.8096-1.49414Q15.8984-2.58789 16.5186-4.01367Q17.1387-5.43945 17.1387-7.05078Q17.1387-8.66211 16.5186-10.0879Q15.8984-11.5137 14.8047-12.6074Q13.7109-13.7012 12.2852-14.3164Q10.8594-14.9316 9.23828-14.9316Q7.62695-14.9316 6.20117-14.3164Q4.77539-13.7012 3.69141-12.6074Q2.60742-11.5137 1.9873-10.0879Q1.36719-8.66211 1.36719-7.05078Q1.36719-5.43945 1.9873-4.01367Q2.60742-2.58789 3.69629-1.49414Q4.78516-0.400391 6.21094 0.214844Q7.63672 0.830078 9.24805 0.830078ZM9.24805-0.654297Q7.91992-0.654297 6.7627-1.14746Q5.60547-1.64062 4.73145-2.51953Q3.85742-3.39844 3.36426-4.56055Q2.87109-5.72266 2.87109-7.05078Q2.87109-8.37891 3.35938-9.54102Q3.84766-10.7031 4.72168-11.582Q5.5957-12.4609 6.75293-12.9541Q7.91016-13.4473 9.23828-13.4473Q10.5762-13.4473 11.7334-12.9541Q12.8906-12.4609 13.7695-11.582Q14.6484-10.7031 15.1465-9.54102Q15.6445-8.37891 15.6445-7.05078Q15.6445-5.72266 15.1514-4.56055Q14.6582-3.39844 13.7842-2.51953Q12.9102-1.64062 11.748-1.14746Q10.5859-0.654297 9.24805-0.654297ZM5.6543-7.05078Q5.6543-6.72852 5.85938-6.52832Q6.06445-6.32812 6.40625-6.32812L8.51562-6.32812L8.51562-4.20898Q8.51562-3.88672 8.71094-3.67676Q8.90625-3.4668 9.23828-3.4668Q9.56055-3.4668 9.77051-3.67676Q9.98047-3.88672 9.98047-4.20898L9.98047-6.32812L12.0898-6.32812Q12.4219-6.32812 12.627-6.52832Q12.832-6.72852 12.832-7.05078Q12.832-7.38281 12.627-7.58789Q12.4219-7.79297 12.0898-7.79297L9.98047-7.79297L9.98047-9.90234Q9.98047-10.2344 9.77051-10.4443Q9.56055-10.6543 9.23828-10.6543Q8.90625-10.6543 8.71094-10.4443Q8.51562-10.2344 8.51562-9.90234L8.51562-7.79297L6.40625-7.79297Q6.06445-7.79297 5.85938-7.58789Q5.6543-7.38281 5.6543-7.05078Z"/>
  </g>
  <g transform="matrix(1 0 0 1 281.867 1933)">
   <path d="M11.709 2.91016Q13.75 2.91016 15.5518 2.12891Q17.3535 1.34766 18.7305-0.0292969Q20.1074-1.40625 20.8887-3.20801Q21.6699-5.00977 21.6699-7.05078Q21.6699-9.0918 20.8887-10.8936Q20.1074-12.6953 18.7305-14.0723Q17.3535-15.4492 15.5469-16.2305Q13.7402-17.0117 11.6992-17.0117Q9.6582-17.0117 7.85645-16.2305Q6.05469-15.4492 4.68262-14.0723Q3.31055-12.6953 2.5293-10.8936Q1.74805-9.0918 1.74805-7.05078Q1.74805-5.00977 2.5293-3.20801Q3.31055-1.40625 4.6875-0.0292969Q6.06445 1.34766 7.86621 2.12891Q9.66797 2.91016 11.709 2.91016ZM11.709 1.25Q9.98047 1.25 8.47656 0.605469Q6.97266-0.0390625 5.83496-1.17676Q4.69727-2.31445 4.05762-3.81836Q3.41797-5.32227 3.41797-7.05078Q3.41797-8.7793 4.05762-10.2832Q4.69727-11.7871 5.83008-12.9297Q6.96289-14.0723 8.4668-14.7119Q9.9707-15.3516 11.6992-15.3516Q13.4277-15.3516 14.9316-14.7119Q16.4355-14.0723 17.5781-12.9297Q18.7207-11.7871 19.3652-10.2832Q20.0098-8.7793 20.0098-7.05078Q20.0098-5.32227 19.3701-3.81836Q18.7305-2.31445 17.5928-1.17676Q16.4551-0.0390625 14.9463 0.605469Q13.4375 1.25 11.709 1.25ZM7.17773-7.05078Q7.17773-6.69922 7.41211-6.47461Q7.64648-6.25 8.01758-6.25L10.8887-6.25L10.8887-3.36914Q10.8887-2.99805 11.1133-2.76855Q11.3379-2.53906 11.6895-2.53906Q12.0605-2.53906 12.29-2.76855Q12.5195-2.99805 12.5195-3.36914L12.5195-6.25L15.4004-6.25Q15.7715-6.25 16.001-6.47461Q16.2305-6.69922 16.2305-7.05078Q16.2305-7.42188 16.001-7.65137Q15.7715-7.88086 15.4004-7.88086L12.5195-7.88086L12.5195-10.752Q12.5195-11.1328 12.29-11.3623Q12.0605-11.5918 11.6895-11.5918Q11.3379-11.5918 11.1133-11.3574Q10.8887-11.123 10.8887-10.752L10.8887-7.88086L8.01758-7.88086Q7.63672-7.88086 7.40723-7.65137Q7.17773-7.42188 7.17773-7.05078Z"/>
  </g>
  <g transform="matrix(1 0 0 1 305.646 1933)">
   <path d="M14.9707 5.66406Q17.0605 5.66406 18.96 5.01465Q20.8594 4.36523 22.4512 3.19336Q24.043 2.02148 25.2197 0.429688Q26.3965-1.16211 27.0459-3.06641Q27.6953-4.9707 27.6953-7.05078Q27.6953-9.14062 27.0459-11.04Q26.3965-12.9395 25.2197-14.5312Q24.043-16.123 22.4512-17.2998Q20.8594-18.4766 18.9551-19.126Q17.0508-19.7754 14.9609-19.7754Q12.8711-19.7754 10.9717-19.126Q9.07227-18.4766 7.48535-17.2998Q5.89844-16.123 4.72168-14.5312Q3.54492-12.9395 2.90039-11.04Q2.25586-9.14062 2.25586-7.05078Q2.25586-4.9707 2.90527-3.06641Q3.55469-1.16211 4.72656 0.429688Q5.89844 2.02148 7.49023 3.19336Q9.08203 4.36523 10.9814 5.01465Q12.8809 5.66406 14.9707 5.66406ZM14.9707 3.84766Q13.1641 3.84766 11.5283 3.2959Q9.89258 2.74414 8.53516 1.74805Q7.17773 0.751953 6.17676-0.610352Q5.17578-1.97266 4.62891-3.6084Q4.08203-5.24414 4.08203-7.05078Q4.08203-8.86719 4.62891-10.5029Q5.17578-12.1387 6.17188-13.501Q7.16797-14.8633 8.52539-15.8594Q9.88281-16.8555 11.5186-17.4023Q13.1543-17.9492 14.9609-17.9492Q16.7773-17.9492 18.4131-17.4023Q20.0488-16.8555 21.4111-15.8594Q22.7734-14.8633 23.7695-13.501Q24.7656-12.1387 25.3174-10.5029Q25.8691-8.86719 25.8691-7.05078Q25.8789-5.24414 25.332-3.6084Q24.7852-1.97266 23.7842-0.610352Q22.7832 0.751953 21.4209 1.74805Q20.0586 2.74414 18.4229 3.2959Q16.7871 3.84766 14.9707 3.84766ZM9.19922-7.05078Q9.19922-6.66992 9.45801-6.4209Q9.7168-6.17188 10.1172-6.17188L14.0625-6.17188L14.0625-2.2168Q14.0625-1.81641 14.3115-1.55762Q14.5605-1.29883 14.9512-1.29883Q15.3516-1.29883 15.6104-1.55273Q15.8691-1.80664 15.8691-2.2168L15.8691-6.17188L19.8242-6.17188Q20.2246-6.17188 20.4785-6.4209Q20.7324-6.66992 20.7324-7.05078Q20.7324-7.46094 20.4785-7.71484Q20.2246-7.96875 19.8242-7.96875L15.8691-7.96875L15.8691-11.9141Q15.8691-12.3242 15.6104-12.583Q15.3516-12.8418 14.9512-12.8418Q14.5605-12.8418 14.3115-12.583Q14.0625-12.3242 14.0625-11.9141L14.0625-7.96875L10.1172-7.96875Q9.70703-7.96875 9.45312-7.71484Q9.19922-7.46094 9.19922-7.05078Z"/>
  </g>
  <text style="stroke:none;fill:black;font-family:sans-serif;font-size:13;font-weight:bold;" transform="matrix(1 0 0 1 263 1953)">Design Variations</text>
  <text style="stroke:none;fill:black;font-family:sans-serif;font-size:13;" transform="matrix(1 0 0 1 263 1971)">Symbols are supported in up to nine weights and three scales.</text>
  <text style="stroke:none;fill:black;font-family:sans-serif;font-size:13;" transform="matrix(1 0 0 1 263 1989)">For optimal layout with text and other symbols, vertically align</text>
  <text style="stroke:none;fill:black;font-family:sans-serif;font-size:13;" transform="matrix(1 0 0 1 263 2007)">symbols with the adjacent text.</text>
  <line style="fill:none;stroke:#00AEEF;stroke-width:0.5;opacity:1.0;" x1="776" x2="776" y1="1919" y2="1933"/>
  <g transform="matrix(1 0 0 1 776 1933)">
   <path d="M3.31055 0.15625Q3.70117 0.15625 3.91602-0.00976562Q4.13086-0.175781 4.26758-0.585938L5.52734-4.0332L11.2891-4.0332L12.5488-0.585938Q12.6855-0.175781 12.9004-0.00976562Q13.1152 0.15625 13.4961 0.15625Q13.8867 0.15625 14.1162-0.0585938Q14.3457-0.273438 14.3457-0.644531Q14.3457-0.869141 14.2383-1.17188L9.6582-13.3691Q9.48242-13.8184 9.17969-14.043Q8.87695-14.2676 8.4082-14.2676Q7.5-14.2676 7.17773-13.3789L2.59766-1.16211Q2.49023-0.859375 2.49023-0.634766Q2.49023-0.263672 2.70996-0.0537109Q2.92969 0.15625 3.31055 0.15625ZM6.00586-5.51758L8.37891-12.0898L8.42773-12.0898L10.8008-5.51758Z"/>
  </g>
  <line style="fill:none;stroke:#00AEEF;stroke-width:0.5;opacity:1.0;" x1="793.197" x2="793.197" y1="1919" y2="1933"/>
  <text style="stroke:none;fill:black;font-family:sans-serif;font-size:13;font-weight:bold;" transform="matrix(1 0 0 1 776 1953)">Margins</text>
  <text style="stroke:none;fill:black;font-family:sans-serif;font-size:13;" transform="matrix(1 0 0 1 776 1971)">Leading and trailing margins on the left and right side of each symbol</text>
  <text style="stroke:none;fill:black;font-family:sans-serif;font-size:13;" transform="matrix(1 0 0 1 776 1989)">can be adjusted by modifying the x-location of the margin guidelines.</text>
  <text style="stroke:none;fill:black;font-family:sans-serif;font-size:13;" transform="matrix(1 0 0 1 776 2007)">Modifications are automatically applied proportionally to all</text>
  <text style="stroke:none;fill:black;font-family:sans-serif;font-size:13;" transform="matrix(1 0 0 1 776 2025)">scales and weights.</text>
  <g transform="matrix(1 0 0 1 1289 1933)">
   <path d="M2.8418 1.86523L4.54102 3.57422Q5.18555 4.22852 5.90332 4.17969Q6.62109 4.13086 7.31445 3.35938L18.0078-8.42773L17.041-9.4043L6.42578 2.27539Q6.16211 2.57812 5.89355 2.61719Q5.625 2.65625 5.27344 2.30469L4.10156 1.14258Q3.75 0.791016 3.79395 0.522461Q3.83789 0.253906 4.14062-0.0195312L15.6152-10.8203L14.6387-11.7871L3.04688-0.898438Q2.30469-0.214844 2.25098 0.498047Q2.19727 1.21094 2.8418 1.86523ZM9.25781-16.3281Q8.94531-16.0254 8.90625-15.6348Q8.86719-15.2441 9.04297-14.9512Q9.21875-14.6777 9.55566-14.541Q9.89258-14.4043 10.3809-14.5215Q11.4746-14.7754 12.5977-14.7314Q13.7207-14.6875 14.7949-13.9844L14.209-12.5293Q13.9551-11.9043 14.0674-11.4404Q14.1797-10.9766 14.5801-10.5664L16.875-8.25195Q17.2363-7.88086 17.5781-7.82227Q17.9199-7.76367 18.3398-7.8418L19.4043-8.03711L20.0684-7.36328L20.0293-6.80664Q20-6.43555 20.1221-6.12305Q20.2441-5.81055 20.6055-5.44922L21.3672-4.70703Q21.7285-4.3457 22.1533-4.33105Q22.5781-4.31641 22.9297-4.66797L25.8398-7.58789Q26.1914-7.93945 26.1816-8.35449Q26.1719-8.76953 25.8105-9.13086L25.0391-9.89258Q24.6875-10.2539 24.3799-10.3857Q24.0723-10.5176 23.7109-10.4883L23.1348-10.4395L22.4902-11.0742L22.7344-12.1973Q22.832-12.6172 22.6953-12.9834Q22.5586-13.3496 22.1191-13.7891L19.9219-15.9766Q18.6719-17.2168 17.2607-17.8369Q15.8496-18.457 14.4189-18.4814Q12.9883-18.5059 11.665-17.959Q10.3418-17.4121 9.25781-16.3281ZM10.752-15.957Q11.6602-16.6211 12.7002-16.9043Q13.7402-17.1875 14.8047-17.085Q15.8691-16.9824 16.8701-16.5137Q17.8711-16.0449 18.7012-15.2051L21.1328-12.793Q21.3086-12.6172 21.3525-12.4512Q21.3965-12.2852 21.3379-12.0312L21.0156-10.5469L22.5195-9.0625L23.5059-9.12109Q23.6914-9.13086 23.7891-9.09668Q23.8867-9.0625 24.0332-8.91602L24.6094-8.33984L22.168-5.89844L21.5918-6.47461Q21.4453-6.62109 21.4062-6.71875Q21.3672-6.81641 21.377-7.01172L21.4453-7.98828L19.9512-9.47266L18.4277-9.21875Q18.1836-9.16992 18.042-9.2041Q17.9004-9.23828 17.7148-9.41406L15.7129-11.416Q15.5176-11.5918 15.4932-11.7529Q15.4688-11.9141 15.5859-12.1875L16.4648-14.2773Q15.293-15.3711 13.8281-15.791Q12.3633-16.2109 10.8398-15.7617Q10.7227-15.7324 10.6885-15.8057Q10.6543-15.8789 10.752-15.957Z"/>
  </g>
  <text style="stroke:none;fill:black;font-family:sans-serif;font-size:13;font-weight:bold;" transform="matrix(1 0 0 1 1289 1953)">Exporting</text>
  <text style="stroke:none;fill:black;font-family:sans-serif;font-size:13;" transform="matrix(1 0 0 1 1289 1971)">Symbols should be outlined when exporting to ensure the</text>
  <text style="stroke:none;fill:black;font-family:sans-serif;font-size:13;" transform="matrix(1 0 0 1 1289 1989)">design is preserved when submitting to Xcode.</text>
  <text id="template-version" style="stroke:none;fill:black;font-family:sans-serif;font-size:13;text-anchor:end;" transform="matrix(1 0 0 1 3036 1933)">Template v.3.0</text>
  <text style="stroke:none;fill:black;font-family:sans-serif;font-size:13;text-anchor:end;" transform="matrix(1 0 0 1 3036 1951)">Requires Xcode 13 or greater</text>
  <text id="descriptive-name" style="stroke:none;fill:black;font-family:sans-serif;font-size:13;text-anchor:end;" transform="matrix(1 0 0 1 3036 1969)">Symbol moniker: sega-name</text>
  <text style="stroke:none;fill:black;font-family:sans-serif;font-size:13;text-anchor:end;" transform="matrix(1 0 0 1 3036 1987)">Typeset at 100 points</text>
  <text style="stroke:none;fill:black;font-family:sans-serif;font-size:13;" transform="matrix(1 0 0 1 263 726)">Small</text>
  <text style="stroke:none;fill:black;font-family:sans-serif;font-size:13;" transform="matrix(1 0 0 1 263 1156)">Medium</text>
  <text style="stroke:none;fill:black;font-family:sans-serif;font-size:13;" transform="matrix(1 0 0 1 263 1586)">Large</text>
 </g>
 <g id="Guides">
  <g id="H-reference" style="fill:#27AAE1;stroke:none;" transform="matrix(1 0 0 1 339 696)">
   <path d="M0.976562 0L3.66211 0L29.3457-67.1387L30.0293-67.1387L30.0293-70.459L28.125-70.459ZM11.6699-24.4629L46.9727-24.4629L46.2402-26.709L12.4512-26.709ZM55.127 0L57.7637 0L30.6152-70.459L29.4434-70.459L29.4434-67.1387Z"/>
  </g>
  <line id="Baseline-S" style="fill:none;stroke:#27AAE1;opacity:1;stroke-width:0.5;" x1="263" x2="3036" y1="696" y2="696"/>
  <line id="Capline-S" style="fill:none;stroke:#27AAE1;opacity:1;stroke-width:0.5;" x1="263" x2="3036" y1="625.541" y2="625.541"/>
  <g id="H-reference" style="fill:#27AAE1;stroke:none;" transform="matrix(1 0 0 1 339 1126)">
   <path d="M0.976562 0L3.66211 0L29.3457-67.1387L30.0293-67.1387L30.0293-70.459L28.125-70.459ZM11.6699-24.4629L46.9727-24.4629L46.2402-26.709L12.4512-26.709ZM55.127 0L57.7637 0L30.6152-70.459L29.4434-70.459L29.4434-67.1387Z"/>
  </g>
  <line id="Baseline-M" style="fill:none;stroke:#27AAE1;opacity:1;stroke-width:0.5;" x1="263" x2="3036" y1="1126" y2="1126"/>
  <line id="Capline-M" style="fill:none;stroke:#27AAE1;opacity:1;stroke-width:0.5;" x1="263" x2="3036" y1="1055.54" y2="1055.54"/>
  <g id="H-reference" style="fill:#27AAE1;stroke:none;" transform="matrix(1 0 0 1 339 1556)">
   <path d="M0.976562 0L3.66211 0L29.3457-67.1387L30.0293-67.1387L30.0293-70.459L28.125-70.459ZM11.6699-24.4629L46.9727-24.4629L46.2402-26.709L12.4512-26.709ZM55.127 0L57.7637 0L30.6152-70.459L29.4434-70.459L29.4434-67.1387Z"/>
  </g>
  <line id="Baseline-L" style="fill:none;stroke:#27AAE1;opacity:1;stroke-width:0.5;" x1="263" x2="3036" y1="1556" y2="1556"/>
  <line id="Capline-L" style="fill:none;stroke:#27AAE1;opacity:1;stroke-width:0.5;" x1="263" x2="3036" y1="1485.54" y2="1485.54"/>
  <line id="left-margin-Ultralight-S" style="fill:none;stroke:#00AEEF;stroke-width:0.5;opacity:1.0;" x1="515.351" x2="515.351" y1="600.784" y2="720.121"/>
  <line id="right-margin-Ultralight-S" style="fill:none;stroke:#00AEEF;stroke-width:0.5;opacity:1.0;" x1="604.071" x2="604.071" y1="600.784" y2="720.121"/>
  <line id="left-margin-Regular-S" style="fill:none;stroke:#00AEEF;stroke-width:0.5;opacity:1.0;" x1="1401.75" x2="1401.75" y1="600.784" y2="720.121"/>
  <line id="right-margin-Regular-S" style="fill:none;stroke:#00AEEF;stroke-width:0.5;opacity:1.0;" x1="1497.94" x2="1497.94" y1="600.784" y2="720.121"/>
  <line id="left-margin-Black-S" style="fill:none;stroke:#00AEEF;stroke-width:0.5;opacity:1.0;" x1="2883.2" x2="2883.2" y1="600.784" y2="720.121"/>
  <line id="right-margin-Black-S" style="fill:none;stroke:#00AEEF;stroke-width:0.5;opacity:1.0;" x1="2983.6" x2="2983.6" y1="600.784" y2="720.121"/>
 </g>
 <g id="Symbols">
  <g id="Black-L" transform="matrix(1,0,0,1,2853.3999999999996,1440.77)">

  <path d="M58.940952380952375 86.808H72.13638095238095V81.05536842105263H53.104571428571425V89.37957894736842C53.104571428571425 90.62147368421053 53.60495238095238 91.81263157894736 54.49580952380952 92.69073684210527 55.38685714285714 93.56905263157896 56.59504761904761 94.06231578947369 57.85504761904762 94.06231578947369H75.68971428571427V88.30968421052631H58.940952380952375V86.808Z" class="hierarchical-1:primary "/><path d="M46.23619047619047 71.06378947368421V89.97494736842106C46.23619047619047 95.94252631578946 51.14380952380952 100.78105263157894 57.19828571428571 100.78105263157894H75.67219047619047V95.02842105263157H57.827238095238094C56.3007619047619 95.02842105263157 54.836952380952376 94.43073684210525 53.7575238095238 93.36673684210527 52.67828571428571 92.30273684210526 52.072 90.8597894736842 52.072 89.35494736842105V71.6837894736842C52.072 70.17915789473683 52.67828571428571 68.73599999999999 53.7575238095238 67.672 54.836952380952376 66.60821052631579 56.3007619047619 66.01031578947368 57.827238095238094 66.01031578947368H75.67142857142856V60.257052631578944H57.19828571428571C51.14380952380952 60.25768421052631 46.23619047619047 65.09557894736842 46.23619047619047 71.06378947368421Z" class="hierarchical-1:primary "/><path d="M53.103809523809524 71.65936842105263V79.98421052631578H72.13561904761904V74.23136842105264H58.940952380952375V72.73052631578946H75.68895238095237V66.97705263157894H57.85428571428571C57.23047619047619 66.97684210526316 56.61257142857142 67.09789473684211 56.03619047619048 67.33305263157894 55.45980952380952 67.56842105263158 54.936190476190475 67.91326315789473 54.49504761904762 68.348 54.05390476190476 68.78273684210525 53.703809523809525 69.29915789473684 53.46514285714285 69.86715789473683 53.226476190476184 70.43536842105263 53.10361904761905 71.04442105263158 53.103809523809524 71.65936842105263ZM108.45828571428571 72.76505263157895V67.0117894736842H89.86304761904762C88.60304761904762 67.0117894736842 87.39466666666665 67.50505263157895 86.50380952380951 68.38336842105264 85.61295238095238 69.26147368421053 85.11238095238095 70.45263157894738 85.11238095238095 71.69452631578947V89.34484210526315C85.11238095238095 89.9597894736842 85.23542857142857 90.56884210526316 85.47409523809523 91.13684210526316 85.7127619047619 91.70505263157894 86.06285714285714 92.22126315789474 86.50380952380951 92.65599999999999 86.94495238095237 93.09073684210526 87.4687619047619 93.43557894736841 88.04514285714285 93.67094736842104 88.62133333333334 93.9061052631579 89.2392380952381 94.02715789473683 89.86304761904762 94.02715789473683H101.60685714285714V81.01936842105263H92.47142857142856V86.77284210526315H95.77104761904762V88.27368421052631H90.94895238095238V72.76505263157895H108.45828571428571Z" class="hierarchical-1:primary "/><path d="M136.66723809523808 65.33347368421052C135.52057142857143 61.80694736842105 132.16685714285714 59.25347368421052 128.20761904761903 59.25347368421052 124.33390476190476 59.25347368421052 121.03866666666666 61.69810526315789 119.8247619047619 65.1077894736842L108.54095238095238 99.52821052631579V74.26315789473684H92.55409523809523V80.01663157894737H102.70514285714286V95.02484210526316H89.93599999999999C88.40990476190476 95.02484210526316 86.94628571428571 94.42715789473684 85.86704761904761 93.36336842105263 84.78780952380951 92.29957894736842 84.18152380952381 90.85663157894736 84.18152380952381 89.35221052631579V71.68168421052631C84.18152380952381 70.17705263157895 84.78780952380951 68.73410526315789 85.86704761904761 67.6701052631579 86.94609523809524 66.60631578947368 88.40990476190476 66.00842105263158 89.93599999999999 66.00821052631578H108.54095238095238V60.25473684210526H89.30571428571429C83.25276190476191 60.25473684210526 78.34438095238094 65.09263157894736 78.34438095238094 71.06105263157895V89.972C78.34438095238094 95.93957894736842 83.25276190476191 100.77747368421052 89.30571428571429 100.77747368421052H114.50380952380952L125.89295238095238 66.03557894736842C125.73599999999999 65.66968421052631 125.67219047619048 65.27157894736843 125.70742857142855 64.87578947368421 125.74247619047617 64.47999999999999 125.8752380952381 64.09873684210525 126.09409523809522 63.76526315789473 126.31314285714286 63.431578947368415 126.61161904761906 63.15599999999999 126.96342857142857 62.96252631578947 127.31542857142855 62.768842105263154 127.71009523809522 62.66294736842105 128.11295238095238 62.65431578947368 128.5158095238095 62.64568421052631 128.91485714285713 62.73431578947368 129.27485714285712 62.91263157894737 129.6350476190476 63.09094736842105 129.94533333333334 63.35347368421052 130.17885714285714 63.677263157894735 130.41238095238094 64.00105263157894 130.56209523809525 64.37621052631579 130.61466666666666 64.77010526315789 130.6672380952381 65.164 130.62114285714284 65.56463157894737 130.48038095238095 65.93684210526315L140.06990476190475 95.02484210526316H126.1767619047619V100.77747368421052H148.37961904761903L136.66723809523808 65.33347368421052Z" class="hierarchical-1:primary "/><path d="M130.43295238095237 88.28673684210526H126.24628571428572V94.03999999999999H138.74399999999997L129.59847619047616 66.34842105263158C129.488 66.09263157894736 129.30380952380952 65.87452631578947 129.0685714285714 65.72126315789474 128.83333333333334 65.568 128.55752380952381 65.48610526315788 128.27561904761905 65.48610526315788 127.99352380952381 65.48610526315788 127.71790476190476 65.568 127.48266666666666 65.72126315789474 127.24742857142857 65.87452631578947 127.06304761904761 66.09263157894736 126.9527619047619 66.34842105263158L115.58761904761904 100.79410526315789H121.9952380952381L128.34 81.90821052631578 130.43295238095237 88.28673684210526ZM140.8678095238095 64.30336842105262H141.26780952380952V61.73557894736842H142.26895238095236V61.385894736842104H139.86666666666667V61.73557894736842H140.8678095238095V64.30336842105262ZM143.02952380952382 62.58042105263158C143.02952380952382 62.49452631578947 143.02209523809523 62.12547368421052 143.02209523809523 61.857263157894735H143.02952380952382L143.8622857142857 64.30336842105262H144.25809523809522L145.0910476190476 61.85305263157894H145.09980952380954C145.09980952380954 62.12547368421052 145.0910476190476 62.49536842105263 145.0910476190476 62.58042105263158V64.30336842105262H145.4792380952381V61.385894736842104H144.9095238095238L144.0700952380952 63.852H144.06133333333332L143.216 61.385894736842104H142.64323809523808V64.30336842105262H143.03009523809524L143.02952380952382 62.58042105263158ZM29.89180952380952 74.29263157894736L24.372761904761905 74.28252631578947V72.78168421052631H42.76990476190476V67.03115789473684H25.13390476190476C21.492190476190476 67.03115789473684 18.539923809523806 69.94210526315788 18.539923809523806 73.53221052631578 18.539923809523806 77.12210526315789 21.492190476190476 80.03326315789472 25.13390476190476 80.03326315789472L29.89180952380952 80.06694736842104C34.07847619047619 80.06694736842104 37.472380952380945 83.4762105263158 37.472380952380945 87.60315789473684 37.472380952380945 91.73031578947368 34.07771428571428 95.076 29.89180952380952 95.0138947368421H11.684780952380951V100.79768421052631L29.89180952380952 100.78757894736842C37.3487619047619 100.78757894736842 43.39371428571428 94.95263157894736 43.39371428571428 87.60252631578946 43.39371428571428 80.25221052631578 37.3487619047619 74.29263157894736 29.89180952380952 74.29263157894736Z" class="hierarchical-1:primary "/><path d="M25.068190476190473 86.74547368421051H30.460761904761902V88.25705263157894H11.682590476190475V94.0098947368421L29.76304761904762 94.00610526315789C33.40495238095238 94.00610526315789 36.357142857142854 91.15873684210527 36.357142857142854 87.568 36.357142857142854 83.97852631578947 33.40495238095238 81.00484210526315 29.76304761904762 81.00484210526315L25.06895238095238 80.97031578947369C20.88152380952381 80.97031578947369 17.487599999999997 77.624 17.487599999999997 73.49684210526316 17.487599999999997 69.36968421052632 20.88152380952381 66.02336842105262 25.06895238095238 66.02336842105262L42.768380952380944 65.99242105263157V60.18631578947368H25.068190476190473C17.611180952380952 60.18631578947368 11.565580952380952 66.1458947368421 11.565580952380952 73.49684210526316 11.565580952380952 80.84778947368422 17.61190476190476 86.808 25.068190476190473 86.74547368421051Z" class="hierarchical-1:primary "/></g>
  <g id="Regular-L" transform="matrix(1,0,0,1,1369.845,1440.77)">

  <path d="M58.940952380952375 86.808H72.13638095238095V81.05536842105263H53.104571428571425V89.37957894736842C53.104571428571425 90.62147368421053 53.60495238095238 91.81263157894736 54.49580952380952 92.69073684210527 55.38685714285714 93.56905263157896 56.59504761904761 94.06231578947369 57.85504761904762 94.06231578947369H75.68971428571427V88.30968421052631H58.940952380952375V86.808Z" class="hierarchical-1:primary "/><path d="M46.23619047619047 71.06378947368421V89.97494736842106C46.23619047619047 95.94252631578946 51.14380952380952 100.78105263157894 57.19828571428571 100.78105263157894H75.67219047619047V95.02842105263157H57.827238095238094C56.3007619047619 95.02842105263157 54.836952380952376 94.43073684210525 53.7575238095238 93.36673684210527 52.67828571428571 92.30273684210526 52.072 90.8597894736842 52.072 89.35494736842105V71.6837894736842C52.072 70.17915789473683 52.67828571428571 68.73599999999999 53.7575238095238 67.672 54.836952380952376 66.60821052631579 56.3007619047619 66.01031578947368 57.827238095238094 66.01031578947368H75.67142857142856V60.257052631578944H57.19828571428571C51.14380952380952 60.25768421052631 46.23619047619047 65.09557894736842 46.23619047619047 71.06378947368421Z" class="hierarchical-1:primary "/><path d="M53.103809523809524 71.65936842105263V79.98421052631578H72.13561904761904V74.23136842105264H58.940952380952375V72.73052631578946H75.68895238095237V66.97705263157894H57.85428571428571C57.23047619047619 66.97684210526316 56.61257142857142 67.09789473684211 56.03619047619048 67.33305263157894 55.45980952380952 67.56842105263158 54.936190476190475 67.91326315789473 54.49504761904762 68.348 54.05390476190476 68.78273684210525 53.703809523809525 69.29915789473684 53.46514285714285 69.86715789473683 53.226476190476184 70.43536842105263 53.10361904761905 71.04442105263158 53.103809523809524 71.65936842105263ZM108.45828571428571 72.76505263157895V67.0117894736842H89.86304761904762C88.60304761904762 67.0117894736842 87.39466666666665 67.50505263157895 86.50380952380951 68.38336842105264 85.61295238095238 69.26147368421053 85.11238095238095 70.45263157894738 85.11238095238095 71.69452631578947V89.34484210526315C85.11238095238095 89.9597894736842 85.23542857142857 90.56884210526316 85.47409523809523 91.13684210526316 85.7127619047619 91.70505263157894 86.06285714285714 92.22126315789474 86.50380952380951 92.65599999999999 86.94495238095237 93.09073684210526 87.4687619047619 93.43557894736841 88.04514285714285 93.67094736842104 88.62133333333334 93.9061052631579 89.2392380952381 94.02715789473683 89.86304761904762 94.02715789473683H101.60685714285714V81.01936842105263H92.47142857142856V86.77284210526315H95.77104761904762V88.27368421052631H90.94895238095238V72.76505263157895H108.45828571428571Z" class="hierarchical-1:primary "/><path d="M136.66723809523808 65.33347368421052C135.52057142857143 61.80694736842105 132.16685714285714 59.25347368421052 128.20761904761903 59.25347368421052 124.33390476190476 59.25347368421052 121.03866666666666 61.69810526315789 119.8247619047619 65.1077894736842L108.54095238095238 99.52821052631579V74.26315789473684H92.55409523809523V80.01663157894737H102.70514285714286V95.02484210526316H89.93599999999999C88.40990476190476 95.02484210526316 86.94628571428571 94.42715789473684 85.86704761904761 93.36336842105263 84.78780952380951 92.29957894736842 84.18152380952381 90.85663157894736 84.18152380952381 89.35221052631579V71.68168421052631C84.18152380952381 70.17705263157895 84.78780952380951 68.73410526315789 85.86704761904761 67.6701052631579 86.94609523809524 66.60631578947368 88.40990476190476 66.00842105263158 89.93599999999999 66.00821052631578H108.54095238095238V60.25473684210526H89.30571428571429C83.25276190476191 60.25473684210526 78.34438095238094 65.09263157894736 78.34438095238094 71.06105263157895V89.972C78.34438095238094 95.93957894736842 83.25276190476191 100.77747368421052 89.30571428571429 100.77747368421052H114.50380952380952L125.89295238095238 66.03557894736842C125.73599999999999 65.66968421052631 125.67219047619048 65.27157894736843 125.70742857142855 64.87578947368421 125.74247619047617 64.47999999999999 125.8752380952381 64.09873684210525 126.09409523809522 63.76526315789473 126.31314285714286 63.431578947368415 126.61161904761906 63.15599999999999 126.96342857142857 62.96252631578947 127.31542857142855 62.768842105263154 127.71009523809522 62.66294736842105 128.11295238095238 62.65431578947368 128.5158095238095 62.64568421052631 128.91485714285713 62.73431578947368 129.27485714285712 62.91263157894737 129.6350476190476 63.09094736842105 129.94533333333334 63.35347368421052 130.17885714285714 63.677263157894735 130.41238095238094 64.00105263157894 130.56209523809525 64.37621052631579 130.61466666666666 64.77010526315789 130.6672380952381 65.164 130.62114285714284 65.56463157894737 130.48038095238095 65.93684210526315L140.06990476190475 95.02484210526316H126.1767619047619V100.77747368421052H148.37961904761903L136.66723809523808 65.33347368421052Z" class="hierarchical-1:primary "/><path d="M130.43295238095237 88.28673684210526H126.24628571428572V94.03999999999999H138.74399999999997L129.59847619047616 66.34842105263158C129.488 66.09263157894736 129.30380952380952 65.87452631578947 129.0685714285714 65.72126315789474 128.83333333333334 65.568 128.55752380952381 65.48610526315788 128.27561904761905 65.48610526315788 127.99352380952381 65.48610526315788 127.71790476190476 65.568 127.48266666666666 65.72126315789474 127.24742857142857 65.87452631578947 127.06304761904761 66.09263157894736 126.9527619047619 66.34842105263158L115.58761904761904 100.79410526315789H121.9952380952381L128.34 81.90821052631578 130.43295238095237 88.28673684210526ZM140.8678095238095 64.30336842105262H141.26780952380952V61.73557894736842H142.26895238095236V61.385894736842104H139.86666666666667V61.73557894736842H140.8678095238095V64.30336842105262ZM143.02952380952382 62.58042105263158C143.02952380952382 62.49452631578947 143.02209523809523 62.12547368421052 143.02209523809523 61.857263157894735H143.02952380952382L143.8622857142857 64.30336842105262H144.25809523809522L145.0910476190476 61.85305263157894H145.09980952380954C145.09980952380954 62.12547368421052 145.0910476190476 62.49536842105263 145.0910476190476 62.58042105263158V64.30336842105262H145.4792380952381V61.385894736842104H144.9095238095238L144.0700952380952 63.852H144.06133333333332L143.216 61.385894736842104H142.64323809523808V64.30336842105262H143.03009523809524L143.02952380952382 62.58042105263158ZM29.89180952380952 74.29263157894736L24.372761904761905 74.28252631578947V72.78168421052631H42.76990476190476V67.03115789473684H25.13390476190476C21.492190476190476 67.03115789473684 18.539923809523806 69.94210526315788 18.539923809523806 73.53221052631578 18.539923809523806 77.12210526315789 21.492190476190476 80.03326315789472 25.13390476190476 80.03326315789472L29.89180952380952 80.06694736842104C34.07847619047619 80.06694736842104 37.472380952380945 83.4762105263158 37.472380952380945 87.60315789473684 37.472380952380945 91.73031578947368 34.07771428571428 95.076 29.89180952380952 95.0138947368421H11.684780952380951V100.79768421052631L29.89180952380952 100.78757894736842C37.3487619047619 100.78757894736842 43.39371428571428 94.95263157894736 43.39371428571428 87.60252631578946 43.39371428571428 80.25221052631578 37.3487619047619 74.29263157894736 29.89180952380952 74.29263157894736Z" class="hierarchical-1:primary "/><path d="M25.068190476190473 86.74547368421051H30.460761904761902V88.25705263157894H11.682590476190475V94.0098947368421L29.76304761904762 94.00610526315789C33.40495238095238 94.00610526315789 36.357142857142854 91.15873684210527 36.357142857142854 87.568 36.357142857142854 83.97852631578947 33.40495238095238 81.00484210526315 29.76304761904762 81.00484210526315L25.06895238095238 80.97031578947369C20.88152380952381 80.97031578947369 17.487599999999997 77.624 17.487599999999997 73.49684210526316 17.487599999999997 69.36968421052632 20.88152380952381 66.02336842105262 25.06895238095238 66.02336842105262L42.768380952380944 65.99242105263157V60.18631578947368H25.068190476190473C17.611180952380952 60.18631578947368 11.565580952380952 66.1458947368421 11.565580952380952 73.49684210526316 11.565580952380952 80.84778947368422 17.61190476190476 86.808 25.068190476190473 86.74547368421051Z" class="hierarchical-1:primary "/></g>
  <g id="Ultralight-L" transform="matrix(1,0,0,1,479.711,1440.77)">

  <path d="M58.940952380952375 86.808H72.13638095238095V81.05536842105263H53.104571428571425V89.37957894736842C53.104571428571425 90.62147368421053 53.60495238095238 91.81263157894736 54.49580952380952 92.69073684210527 55.38685714285714 93.56905263157896 56.59504761904761 94.06231578947369 57.85504761904762 94.06231578947369H75.68971428571427V88.30968421052631H58.940952380952375V86.808Z" class="hierarchical-1:primary "/><path d="M46.23619047619047 71.06378947368421V89.97494736842106C46.23619047619047 95.94252631578946 51.14380952380952 100.78105263157894 57.19828571428571 100.78105263157894H75.67219047619047V95.02842105263157H57.827238095238094C56.3007619047619 95.02842105263157 54.836952380952376 94.43073684210525 53.7575238095238 93.36673684210527 52.67828571428571 92.30273684210526 52.072 90.8597894736842 52.072 89.35494736842105V71.6837894736842C52.072 70.17915789473683 52.67828571428571 68.73599999999999 53.7575238095238 67.672 54.836952380952376 66.60821052631579 56.3007619047619 66.01031578947368 57.827238095238094 66.01031578947368H75.67142857142856V60.257052631578944H57.19828571428571C51.14380952380952 60.25768421052631 46.23619047619047 65.09557894736842 46.23619047619047 71.06378947368421Z" class="hierarchical-1:primary "/><path d="M53.103809523809524 71.65936842105263V79.98421052631578H72.13561904761904V74.23136842105264H58.940952380952375V72.73052631578946H75.68895238095237V66.97705263157894H57.85428571428571C57.23047619047619 66.97684210526316 56.61257142857142 67.09789473684211 56.03619047619048 67.33305263157894 55.45980952380952 67.56842105263158 54.936190476190475 67.91326315789473 54.49504761904762 68.348 54.05390476190476 68.78273684210525 53.703809523809525 69.29915789473684 53.46514285714285 69.86715789473683 53.226476190476184 70.43536842105263 53.10361904761905 71.04442105263158 53.103809523809524 71.65936842105263ZM108.45828571428571 72.76505263157895V67.0117894736842H89.86304761904762C88.60304761904762 67.0117894736842 87.39466666666665 67.50505263157895 86.50380952380951 68.38336842105264 85.61295238095238 69.26147368421053 85.11238095238095 70.45263157894738 85.11238095238095 71.69452631578947V89.34484210526315C85.11238095238095 89.9597894736842 85.23542857142857 90.56884210526316 85.47409523809523 91.13684210526316 85.7127619047619 91.70505263157894 86.06285714285714 92.22126315789474 86.50380952380951 92.65599999999999 86.94495238095237 93.09073684210526 87.4687619047619 93.43557894736841 88.04514285714285 93.67094736842104 88.62133333333334 93.9061052631579 89.2392380952381 94.02715789473683 89.86304761904762 94.02715789473683H101.60685714285714V81.01936842105263H92.47142857142856V86.77284210526315H95.77104761904762V88.27368421052631H90.94895238095238V72.76505263157895H108.45828571428571Z" class="hierarchical-1:primary "/><path d="M136.66723809523808 65.33347368421052C135.52057142857143 61.80694736842105 132.16685714285714 59.25347368421052 128.20761904761903 59.25347368421052 124.33390476190476 59.25347368421052 121.03866666666666 61.69810526315789 119.8247619047619 65.1077894736842L108.54095238095238 99.52821052631579V74.26315789473684H92.55409523809523V80.01663157894737H102.70514285714286V95.02484210526316H89.93599999999999C88.40990476190476 95.02484210526316 86.94628571428571 94.42715789473684 85.86704761904761 93.36336842105263 84.78780952380951 92.29957894736842 84.18152380952381 90.85663157894736 84.18152380952381 89.35221052631579V71.68168421052631C84.18152380952381 70.17705263157895 84.78780952380951 68.73410526315789 85.86704761904761 67.6701052631579 86.94609523809524 66.60631578947368 88.40990476190476 66.00842105263158 89.93599999999999 66.00821052631578H108.54095238095238V60.25473684210526H89.30571428571429C83.25276190476191 60.25473684210526 78.34438095238094 65.09263157894736 78.34438095238094 71.06105263157895V89.972C78.34438095238094 95.93957894736842 83.25276190476191 100.77747368421052 89.30571428571429 100.77747368421052H114.50380952380952L125.89295238095238 66.03557894736842C125.73599999999999 65.66968421052631 125.67219047619048 65.27157894736843 125.70742857142855 64.87578947368421 125.74247619047617 64.47999999999999 125.8752380952381 64.09873684210525 126.09409523809522 63.76526315789473 126.31314285714286 63.431578947368415 126.61161904761906 63.15599999999999 126.96342857142857 62.96252631578947 127.31542857142855 62.768842105263154 127.71009523809522 62.66294736842105 128.11295238095238 62.65431578947368 128.5158095238095 62.64568421052631 128.91485714285713 62.73431578947368 129.27485714285712 62.91263157894737 129.6350476190476 63.09094736842105 129.94533333333334 63.35347368421052 130.17885714285714 63.677263157894735 130.41238095238094 64.00105263157894 130.56209523809525 64.37621052631579 130.61466666666666 64.77010526315789 130.6672380952381 65.164 130.62114285714284 65.56463157894737 130.48038095238095 65.93684210526315L140.06990476190475 95.02484210526316H126.1767619047619V100.77747368421052H148.37961904761903L136.66723809523808 65.33347368421052Z" class="hierarchical-1:primary "/><path d="M130.43295238095237 88.28673684210526H126.24628571428572V94.03999999999999H138.74399999999997L129.59847619047616 66.34842105263158C129.488 66.09263157894736 129.30380952380952 65.87452631578947 129.0685714285714 65.72126315789474 128.83333333333334 65.568 128.55752380952381 65.48610526315788 128.27561904761905 65.48610526315788 127.99352380952381 65.48610526315788 127.71790476190476 65.568 127.48266666666666 65.72126315789474 127.24742857142857 65.87452631578947 127.06304761904761 66.09263157894736 126.9527619047619 66.34842105263158L115.58761904761904 100.79410526315789H121.9952380952381L128.34 81.90821052631578 130.43295238095237 88.28673684210526ZM140.8678095238095 64.30336842105262H141.26780952380952V61.73557894736842H142.26895238095236V61.385894736842104H139.86666666666667V61.73557894736842H140.8678095238095V64.30336842105262ZM143.02952380952382 62.58042105263158C143.02952380952382 62.49452631578947 143.02209523809523 62.12547368421052 143.02209523809523 61.857263157894735H143.02952380952382L143.8622857142857 64.30336842105262H144.25809523809522L145.0910476190476 61.85305263157894H145.09980952380954C145.09980952380954 62.12547368421052 145.0910476190476 62.49536842105263 145.0910476190476 62.58042105263158V64.30336842105262H145.4792380952381V61.385894736842104H144.9095238095238L144.0700952380952 63.852H144.06133333333332L143.216 61.385894736842104H142.64323809523808V64.30336842105262H143.03009523809524L143.02952380952382 62.58042105263158ZM29.89180952380952 74.29263157894736L24.372761904761905 74.28252631578947V72.78168421052631H42.76990476190476V67.03115789473684H25.13390476190476C21.492190476190476 67.03115789473684 18.539923809523806 69.94210526315788 18.539923809523806 73.53221052631578 18.539923809523806 77.12210526315789 21.492190476190476 80.03326315789472 25.13390476190476 80.03326315789472L29.89180952380952 80.06694736842104C34.07847619047619 80.06694736842104 37.472380952380945 83.4762105263158 37.472380952380945 87.60315789473684 37.472380952380945 91.73031578947368 34.07771428571428 95.076 29.89180952380952 95.0138947368421H11.684780952380951V100.79768421052631L29.89180952380952 100.78757894736842C37.3487619047619 100.78757894736842 43.39371428571428 94.95263157894736 43.39371428571428 87.60252631578946 43.39371428571428 80.25221052631578 37.3487619047619 74.29263157894736 29.89180952380952 74.29263157894736Z" class="hierarchical-1:primary "/><path d="M25.068190476190473 86.74547368421051H30.460761904761902V88.25705263157894H11.682590476190475V94.0098947368421L29.76304761904762 94.00610526315789C33.40495238095238 94.00610526315789 36.357142857142854 91.15873684210527 36.357142857142854 87.568 36.357142857142854 83.97852631578947 33.40495238095238 81.00484210526315 29.76304761904762 81.00484210526315L25.06895238095238 80.97031578947369C20.88152380952381 80.97031578947369 17.487599999999997 77.624 17.487599999999997 73.49684210526316 17.487599999999997 69.36968421052632 20.88152380952381 66.02336842105262 25.06895238095238 66.02336842105262L42.768380952380944 65.99242105263157V60.18631578947368H25.068190476190473C17.611180952380952 60.18631578947368 11.565580952380952 66.1458947368421 11.565580952380952 73.49684210526316 11.565580952380952 80.84778947368422 17.61190476190476 86.808 25.068190476190473 86.74547368421051Z" class="hierarchical-1:primary "/></g>
  <g id="Black-M" transform="matrix(1,0,0,1,2869.3999999999996,1026.77)">

  <path d="M47.1527619047619 69.4464H57.70910476190476V64.8442947368421H42.48365714285714V71.50366315789474C42.48365714285714 72.49717894736843 42.883961904761904 73.45010526315788 43.596647619047616 74.15258947368422 44.309485714285714 74.85524210526316 45.27603809523809 75.24985263157895 46.28403809523809 75.24985263157895H60.55177142857142V70.64774736842105H47.1527619047619V69.4464Z" class="hierarchical-1:primary "/><path d="M36.988952380952384 56.851031578947364V71.97995789473684C36.988952380952384 76.75402105263157 40.91504761904762 80.62484210526316 45.75862857142857 80.62484210526316H60.53775238095238V76.02273684210526H46.26179047619048C45.04060952380952 76.02273684210526 43.8695619047619 75.5445894736842 43.00601904761904 74.6933894736842 42.14262857142857 73.84218947368421 41.6576 72.68783157894737 41.6576 71.48395789473685V57.34703157894736C41.6576 56.143326315789466 42.14262857142857 54.9888 43.00601904761904 54.13759999999999 43.8695619047619 53.28656842105263 45.04060952380952 52.808252631578945 46.26179047619048 52.808252631578945H60.537142857142854V48.20564210526315H45.75862857142857C40.91504761904762 48.20614736842105 36.988952380952384 52.076463157894736 36.988952380952384 56.851031578947364Z" class="hierarchical-1:primary "/><path d="M42.48304761904762 57.327494736842105V63.98736842105263H57.70849523809524V59.385094736842106H47.1527619047619V58.18442105263157H60.5511619047619V53.58164210526316H46.283428571428566C45.78438095238095 53.58147368421052 45.29005714285714 53.678315789473686 44.82895238095238 53.866442105263154 44.367847619047616 54.05473684210526 43.94895238095238 54.33061052631579 43.59603809523809 54.678399999999996 43.24312380952381 55.026189473684205 42.96304761904762 55.439326315789465 42.77211428571428 55.89372631578947 42.58118095238095 56.34829473684211 42.48289523809524 56.835536842105256 42.48304761904762 57.327494736842105ZM86.76662857142857 58.21204210526316V53.609431578947365H71.8904380952381C70.88243809523809 53.609431578947365 69.91573333333332 54.00404210526316 69.20304761904761 54.70669473684211 68.49036190476191 55.40917894736842 68.08990476190475 56.3621052631579 68.08990476190475 57.355621052631584V71.47587368421053C68.08990476190475 71.96783157894737 68.18834285714286 72.45507368421053 68.37927619047619 72.90947368421052 68.57020952380952 73.36404210526315 68.8502857142857 73.77701052631579 69.20304761904761 74.1248 69.5559619047619 74.47258947368421 69.97500952380952 74.74846315789473 70.43611428571428 74.93675789473683 70.89706666666666 75.12488421052632 71.39139047619047 75.22172631578947 71.8904380952381 75.22172631578947H81.28548571428571V64.8154947368421H73.97714285714285V69.41827368421053H76.6168380952381V70.61894736842105H72.7591619047619V58.21204210526316H86.76662857142857Z" class="hierarchical-1:primary "/><path d="M109.33379047619046 52.266778947368415C108.41645714285714 49.44555789473684 105.73348571428572 47.40277894736842 102.56609523809523 47.40277894736842 99.46712380952381 47.40277894736842 96.83093333333332 49.35848421052631 95.85980952380952 52.08623157894737L86.83276190476191 79.62256842105263V59.41052631578947H74.04327619047618V64.01330526315789H82.16411428571428V76.01987368421052H71.94879999999999C70.7279238095238 76.01987368421052 69.55702857142856 75.54172631578946 68.69363809523809 74.6906947368421 67.83024761904761 73.83966315789473 67.34521904761905 72.68530526315789 67.34521904761905 71.48176842105264V57.34534736842105C67.34521904761905 56.14164210526315 67.83024761904761 54.98728421052631 68.69363809523809 54.13608421052632 69.55687619047619 53.28505263157895 70.7279238095238 52.80673684210526 71.94879999999999 52.806568421052624H86.83276190476191V48.2037894736842H71.44457142857142C66.60220952380952 48.2037894736842 62.67550476190476 52.07410526315789 62.67550476190476 56.84884210526315V71.9776C62.67550476190476 76.75166315789474 66.60220952380952 80.62197894736842 71.44457142857142 80.62197894736842H91.60304761904762L100.7143619047619 52.82846315789474C100.58879999999999 52.53574736842105 100.53775238095238 52.217263157894735 100.56594285714284 51.90063157894736 100.59398095238093 51.583999999999996 100.70019047619049 51.278989473684206 100.87527619047619 51.01221052631578 101.05051428571429 50.74526315789473 101.28929523809525 50.52479999999999 101.57074285714285 50.37002105263158 101.85234285714284 50.21507368421052 102.16807619047617 50.13035789473684 102.4903619047619 50.12345263157894 102.81264761904761 50.116547368421045 103.13188571428572 50.18745263157894 103.4198857142857 50.3301052631579 103.7080380952381 50.47275789473684 103.95626666666666 50.68277894736842 104.14308571428572 50.941810526315784 104.32990476190476 51.200842105263156 104.4496761904762 51.50096842105263 104.49173333333333 51.81608421052631 104.53379047619048 52.1312 104.49691428571427 52.45170526315789 104.38430476190476 52.74947368421052L112.0559238095238 76.01987368421052H100.94140952380953V80.62197894736842H118.70369523809522L109.33379047619046 52.266778947368415Z" class="hierarchical-1:primary "/><path d="M104.34636190476189 70.6293894736842H100.99702857142857V75.23199999999999H110.99519999999998L103.67878095238093 53.07873684210526C103.5904 52.87410526315789 103.44304761904762 52.69962105263158 103.25485714285713 52.57701052631579 103.06666666666666 52.4544 102.84601904761904 52.38888421052631 102.62049523809523 52.38888421052631 102.39481904761905 52.38888421052631 102.17432380952381 52.4544 101.98613333333333 52.57701052631579 101.79794285714286 52.69962105263158 101.65043809523809 52.87410526315789 101.56220952380951 53.07873684210526L92.47009523809524 80.63528421052631H97.59619047619047L102.672 65.52656842105263 104.34636190476189 70.6293894736842ZM112.69424761904762 51.4426947368421H113.01424761904761V49.38846315789473H113.8151619047619V49.108715789473685H111.89333333333333V49.38846315789473H112.69424761904762V51.4426947368421ZM114.42361904761906 50.06433684210526C114.42361904761906 49.99562105263158 114.41767619047619 49.700378947368414 114.41767619047619 49.48581052631579H114.42361904761906L115.08982857142855 51.4426947368421H115.40647619047618L116.07283809523808 49.482442105263154H116.07984761904763C116.07984761904763 49.700378947368414 116.07283809523808 49.9962947368421 116.07283809523808 50.06433684210526V51.4426947368421H116.38339047619047V49.108715789473685H115.92761904761905L115.25607619047618 51.081599999999995H115.24906666666665L114.5728 49.108715789473685H114.11459047619046V51.4426947368421H114.42407619047619L114.42361904761906 50.06433684210526ZM23.913447619047616 59.434105263157896L19.49820952380952 59.426021052631576V58.22534736842105H34.21592380952381V53.62492631578947H20.10712380952381C17.19375238095238 53.62492631578947 14.831939047619045 55.953684210526305 14.831939047619045 58.82576842105262 14.831939047619045 61.69768421052632 17.19375238095238 64.02661052631578 20.10712380952381 64.02661052631578L23.913447619047616 64.05355789473683C27.262780952380954 64.05355789473683 29.977904761904757 66.78096842105263 29.977904761904757 70.08252631578947 29.977904761904757 73.38425263157895 27.262171428571424 76.06079999999999 23.913447619047616 76.01111578947368H9.34782476190476V80.63814736842104L23.913447619047616 80.63006315789472C29.879009523809522 80.63006315789472 34.71497142857143 75.9621052631579 34.71497142857143 70.08202105263157 34.71497142857143 64.20176842105262 29.879009523809522 59.434105263157896 23.913447619047616 59.434105263157896Z" class="hierarchical-1:primary "/><path d="M20.05455238095238 69.39637894736842H24.36860952380952V70.60564210526316H9.34607238095238V75.20791578947367L23.810438095238094 75.20488421052632C26.723961904761904 75.20488421052632 29.085714285714282 72.92698947368422 29.085714285714282 70.0544 29.085714285714282 67.18282105263158 26.723961904761904 64.80387368421052 23.810438095238094 64.80387368421052L20.055161904761903 64.77625263157894C16.705219047619046 64.77625263157894 13.990079999999999 62.099199999999996 13.990079999999999 58.79747368421052 13.990079999999999 55.49574736842105 16.705219047619046 52.818694736842104 20.055161904761903 52.818694736842104L34.214704761904756 52.79393684210526V48.14905263157895H20.05455238095238C14.088944761904761 48.14905263157895 9.252464761904761 52.91671578947368 9.252464761904761 58.79747368421052 9.252464761904761 64.67823157894738 14.089523809523808 69.4464 20.05455238095238 69.39637894736842Z" class="hierarchical-1:primary "/></g>
  <g id="Regular-M" transform="matrix(1,0,0,1,1385.845,1026.77)">

  <path d="M47.1527619047619 69.4464H57.70910476190476V64.8442947368421H42.48365714285714V71.50366315789474C42.48365714285714 72.49717894736843 42.883961904761904 73.45010526315788 43.596647619047616 74.15258947368422 44.309485714285714 74.85524210526316 45.27603809523809 75.24985263157895 46.28403809523809 75.24985263157895H60.55177142857142V70.64774736842105H47.1527619047619V69.4464Z" class="hierarchical-1:primary "/><path d="M36.988952380952384 56.851031578947364V71.97995789473684C36.988952380952384 76.75402105263157 40.91504761904762 80.62484210526316 45.75862857142857 80.62484210526316H60.53775238095238V76.02273684210526H46.26179047619048C45.04060952380952 76.02273684210526 43.8695619047619 75.5445894736842 43.00601904761904 74.6933894736842 42.14262857142857 73.84218947368421 41.6576 72.68783157894737 41.6576 71.48395789473685V57.34703157894736C41.6576 56.143326315789466 42.14262857142857 54.9888 43.00601904761904 54.13759999999999 43.8695619047619 53.28656842105263 45.04060952380952 52.808252631578945 46.26179047619048 52.808252631578945H60.537142857142854V48.20564210526315H45.75862857142857C40.91504761904762 48.20614736842105 36.988952380952384 52.076463157894736 36.988952380952384 56.851031578947364Z" class="hierarchical-1:primary "/><path d="M42.48304761904762 57.327494736842105V63.98736842105263H57.70849523809524V59.385094736842106H47.1527619047619V58.18442105263157H60.5511619047619V53.58164210526316H46.283428571428566C45.78438095238095 53.58147368421052 45.29005714285714 53.678315789473686 44.82895238095238 53.866442105263154 44.367847619047616 54.05473684210526 43.94895238095238 54.33061052631579 43.59603809523809 54.678399999999996 43.24312380952381 55.026189473684205 42.96304761904762 55.439326315789465 42.77211428571428 55.89372631578947 42.58118095238095 56.34829473684211 42.48289523809524 56.835536842105256 42.48304761904762 57.327494736842105ZM86.76662857142857 58.21204210526316V53.609431578947365H71.8904380952381C70.88243809523809 53.609431578947365 69.91573333333332 54.00404210526316 69.20304761904761 54.70669473684211 68.49036190476191 55.40917894736842 68.08990476190475 56.3621052631579 68.08990476190475 57.355621052631584V71.47587368421053C68.08990476190475 71.96783157894737 68.18834285714286 72.45507368421053 68.37927619047619 72.90947368421052 68.57020952380952 73.36404210526315 68.8502857142857 73.77701052631579 69.20304761904761 74.1248 69.5559619047619 74.47258947368421 69.97500952380952 74.74846315789473 70.43611428571428 74.93675789473683 70.89706666666666 75.12488421052632 71.39139047619047 75.22172631578947 71.8904380952381 75.22172631578947H81.28548571428571V64.8154947368421H73.97714285714285V69.41827368421053H76.6168380952381V70.61894736842105H72.7591619047619V58.21204210526316H86.76662857142857Z" class="hierarchical-1:primary "/><path d="M109.33379047619046 52.266778947368415C108.41645714285714 49.44555789473684 105.73348571428572 47.40277894736842 102.56609523809523 47.40277894736842 99.46712380952381 47.40277894736842 96.83093333333332 49.35848421052631 95.85980952380952 52.08623157894737L86.83276190476191 79.62256842105263V59.41052631578947H74.04327619047618V64.01330526315789H82.16411428571428V76.01987368421052H71.94879999999999C70.7279238095238 76.01987368421052 69.55702857142856 75.54172631578946 68.69363809523809 74.6906947368421 67.83024761904761 73.83966315789473 67.34521904761905 72.68530526315789 67.34521904761905 71.48176842105264V57.34534736842105C67.34521904761905 56.14164210526315 67.83024761904761 54.98728421052631 68.69363809523809 54.13608421052632 69.55687619047619 53.28505263157895 70.7279238095238 52.80673684210526 71.94879999999999 52.806568421052624H86.83276190476191V48.2037894736842H71.44457142857142C66.60220952380952 48.2037894736842 62.67550476190476 52.07410526315789 62.67550476190476 56.84884210526315V71.9776C62.67550476190476 76.75166315789474 66.60220952380952 80.62197894736842 71.44457142857142 80.62197894736842H91.60304761904762L100.7143619047619 52.82846315789474C100.58879999999999 52.53574736842105 100.53775238095238 52.217263157894735 100.56594285714284 51.90063157894736 100.59398095238093 51.583999999999996 100.70019047619049 51.278989473684206 100.87527619047619 51.01221052631578 101.05051428571429 50.74526315789473 101.28929523809525 50.52479999999999 101.57074285714285 50.37002105263158 101.85234285714284 50.21507368421052 102.16807619047617 50.13035789473684 102.4903619047619 50.12345263157894 102.81264761904761 50.116547368421045 103.13188571428572 50.18745263157894 103.4198857142857 50.3301052631579 103.7080380952381 50.47275789473684 103.95626666666666 50.68277894736842 104.14308571428572 50.941810526315784 104.32990476190476 51.200842105263156 104.4496761904762 51.50096842105263 104.49173333333333 51.81608421052631 104.53379047619048 52.1312 104.49691428571427 52.45170526315789 104.38430476190476 52.74947368421052L112.0559238095238 76.01987368421052H100.94140952380953V80.62197894736842H118.70369523809522L109.33379047619046 52.266778947368415Z" class="hierarchical-1:primary "/><path d="M104.34636190476189 70.6293894736842H100.99702857142857V75.23199999999999H110.99519999999998L103.67878095238093 53.07873684210526C103.5904 52.87410526315789 103.44304761904762 52.69962105263158 103.25485714285713 52.57701052631579 103.06666666666666 52.4544 102.84601904761904 52.38888421052631 102.62049523809523 52.38888421052631 102.39481904761905 52.38888421052631 102.17432380952381 52.4544 101.98613333333333 52.57701052631579 101.79794285714286 52.69962105263158 101.65043809523809 52.87410526315789 101.56220952380951 53.07873684210526L92.47009523809524 80.63528421052631H97.59619047619047L102.672 65.52656842105263 104.34636190476189 70.6293894736842ZM112.69424761904762 51.4426947368421H113.01424761904761V49.38846315789473H113.8151619047619V49.108715789473685H111.89333333333333V49.38846315789473H112.69424761904762V51.4426947368421ZM114.42361904761906 50.06433684210526C114.42361904761906 49.99562105263158 114.41767619047619 49.700378947368414 114.41767619047619 49.48581052631579H114.42361904761906L115.08982857142855 51.4426947368421H115.40647619047618L116.07283809523808 49.482442105263154H116.07984761904763C116.07984761904763 49.700378947368414 116.07283809523808 49.9962947368421 116.07283809523808 50.06433684210526V51.4426947368421H116.38339047619047V49.108715789473685H115.92761904761905L115.25607619047618 51.081599999999995H115.24906666666665L114.5728 49.108715789473685H114.11459047619046V51.4426947368421H114.42407619047619L114.42361904761906 50.06433684210526ZM23.913447619047616 59.434105263157896L19.49820952380952 59.426021052631576V58.22534736842105H34.21592380952381V53.62492631578947H20.10712380952381C17.19375238095238 53.62492631578947 14.831939047619045 55.953684210526305 14.831939047619045 58.82576842105262 14.831939047619045 61.69768421052632 17.19375238095238 64.02661052631578 20.10712380952381 64.02661052631578L23.913447619047616 64.05355789473683C27.262780952380954 64.05355789473683 29.977904761904757 66.78096842105263 29.977904761904757 70.08252631578947 29.977904761904757 73.38425263157895 27.262171428571424 76.06079999999999 23.913447619047616 76.01111578947368H9.34782476190476V80.63814736842104L23.913447619047616 80.63006315789472C29.879009523809522 80.63006315789472 34.71497142857143 75.9621052631579 34.71497142857143 70.08202105263157 34.71497142857143 64.20176842105262 29.879009523809522 59.434105263157896 23.913447619047616 59.434105263157896Z" class="hierarchical-1:primary "/><path d="M20.05455238095238 69.39637894736842H24.36860952380952V70.60564210526316H9.34607238095238V75.20791578947367L23.810438095238094 75.20488421052632C26.723961904761904 75.20488421052632 29.085714285714282 72.92698947368422 29.085714285714282 70.0544 29.085714285714282 67.18282105263158 26.723961904761904 64.80387368421052 23.810438095238094 64.80387368421052L20.055161904761903 64.77625263157894C16.705219047619046 64.77625263157894 13.990079999999999 62.099199999999996 13.990079999999999 58.79747368421052 13.990079999999999 55.49574736842105 16.705219047619046 52.818694736842104 20.055161904761903 52.818694736842104L34.214704761904756 52.79393684210526V48.14905263157895H20.05455238095238C14.088944761904761 48.14905263157895 9.252464761904761 52.91671578947368 9.252464761904761 58.79747368421052 9.252464761904761 64.67823157894738 14.089523809523808 69.4464 20.05455238095238 69.39637894736842Z" class="hierarchical-1:primary "/></g>
  <g id="Ultralight-M" transform="matrix(1,0,0,1,495.711,1026.77)">

  <path d="M47.1527619047619 69.4464H57.70910476190476V64.8442947368421H42.48365714285714V71.50366315789474C42.48365714285714 72.49717894736843 42.883961904761904 73.45010526315788 43.596647619047616 74.15258947368422 44.309485714285714 74.85524210526316 45.27603809523809 75.24985263157895 46.28403809523809 75.24985263157895H60.55177142857142V70.64774736842105H47.1527619047619V69.4464Z" class="hierarchical-1:primary "/><path d="M36.988952380952384 56.851031578947364V71.97995789473684C36.988952380952384 76.75402105263157 40.91504761904762 80.62484210526316 45.75862857142857 80.62484210526316H60.53775238095238V76.02273684210526H46.26179047619048C45.04060952380952 76.02273684210526 43.8695619047619 75.5445894736842 43.00601904761904 74.6933894736842 42.14262857142857 73.84218947368421 41.6576 72.68783157894737 41.6576 71.48395789473685V57.34703157894736C41.6576 56.143326315789466 42.14262857142857 54.9888 43.00601904761904 54.13759999999999 43.8695619047619 53.28656842105263 45.04060952380952 52.808252631578945 46.26179047619048 52.808252631578945H60.537142857142854V48.20564210526315H45.75862857142857C40.91504761904762 48.20614736842105 36.988952380952384 52.076463157894736 36.988952380952384 56.851031578947364Z" class="hierarchical-1:primary "/><path d="M42.48304761904762 57.327494736842105V63.98736842105263H57.70849523809524V59.385094736842106H47.1527619047619V58.18442105263157H60.5511619047619V53.58164210526316H46.283428571428566C45.78438095238095 53.58147368421052 45.29005714285714 53.678315789473686 44.82895238095238 53.866442105263154 44.367847619047616 54.05473684210526 43.94895238095238 54.33061052631579 43.59603809523809 54.678399999999996 43.24312380952381 55.026189473684205 42.96304761904762 55.439326315789465 42.77211428571428 55.89372631578947 42.58118095238095 56.34829473684211 42.48289523809524 56.835536842105256 42.48304761904762 57.327494736842105ZM86.76662857142857 58.21204210526316V53.609431578947365H71.8904380952381C70.88243809523809 53.609431578947365 69.91573333333332 54.00404210526316 69.20304761904761 54.70669473684211 68.49036190476191 55.40917894736842 68.08990476190475 56.3621052631579 68.08990476190475 57.355621052631584V71.47587368421053C68.08990476190475 71.96783157894737 68.18834285714286 72.45507368421053 68.37927619047619 72.90947368421052 68.57020952380952 73.36404210526315 68.8502857142857 73.77701052631579 69.20304761904761 74.1248 69.5559619047619 74.47258947368421 69.97500952380952 74.74846315789473 70.43611428571428 74.93675789473683 70.89706666666666 75.12488421052632 71.39139047619047 75.22172631578947 71.8904380952381 75.22172631578947H81.28548571428571V64.8154947368421H73.97714285714285V69.41827368421053H76.6168380952381V70.61894736842105H72.7591619047619V58.21204210526316H86.76662857142857Z" class="hierarchical-1:primary "/><path d="M109.33379047619046 52.266778947368415C108.41645714285714 49.44555789473684 105.73348571428572 47.40277894736842 102.56609523809523 47.40277894736842 99.46712380952381 47.40277894736842 96.83093333333332 49.35848421052631 95.85980952380952 52.08623157894737L86.83276190476191 79.62256842105263V59.41052631578947H74.04327619047618V64.01330526315789H82.16411428571428V76.01987368421052H71.94879999999999C70.7279238095238 76.01987368421052 69.55702857142856 75.54172631578946 68.69363809523809 74.6906947368421 67.83024761904761 73.83966315789473 67.34521904761905 72.68530526315789 67.34521904761905 71.48176842105264V57.34534736842105C67.34521904761905 56.14164210526315 67.83024761904761 54.98728421052631 68.69363809523809 54.13608421052632 69.55687619047619 53.28505263157895 70.7279238095238 52.80673684210526 71.94879999999999 52.806568421052624H86.83276190476191V48.2037894736842H71.44457142857142C66.60220952380952 48.2037894736842 62.67550476190476 52.07410526315789 62.67550476190476 56.84884210526315V71.9776C62.67550476190476 76.75166315789474 66.60220952380952 80.62197894736842 71.44457142857142 80.62197894736842H91.60304761904762L100.7143619047619 52.82846315789474C100.58879999999999 52.53574736842105 100.53775238095238 52.217263157894735 100.56594285714284 51.90063157894736 100.59398095238093 51.583999999999996 100.70019047619049 51.278989473684206 100.87527619047619 51.01221052631578 101.05051428571429 50.74526315789473 101.28929523809525 50.52479999999999 101.57074285714285 50.37002105263158 101.85234285714284 50.21507368421052 102.16807619047617 50.13035789473684 102.4903619047619 50.12345263157894 102.81264761904761 50.116547368421045 103.13188571428572 50.18745263157894 103.4198857142857 50.3301052631579 103.7080380952381 50.47275789473684 103.95626666666666 50.68277894736842 104.14308571428572 50.941810526315784 104.32990476190476 51.200842105263156 104.4496761904762 51.50096842105263 104.49173333333333 51.81608421052631 104.53379047619048 52.1312 104.49691428571427 52.45170526315789 104.38430476190476 52.74947368421052L112.0559238095238 76.01987368421052H100.94140952380953V80.62197894736842H118.70369523809522L109.33379047619046 52.266778947368415Z" class="hierarchical-1:primary "/><path d="M104.34636190476189 70.6293894736842H100.99702857142857V75.23199999999999H110.99519999999998L103.67878095238093 53.07873684210526C103.5904 52.87410526315789 103.44304761904762 52.69962105263158 103.25485714285713 52.57701052631579 103.06666666666666 52.4544 102.84601904761904 52.38888421052631 102.62049523809523 52.38888421052631 102.39481904761905 52.38888421052631 102.17432380952381 52.4544 101.98613333333333 52.57701052631579 101.79794285714286 52.69962105263158 101.65043809523809 52.87410526315789 101.56220952380951 53.07873684210526L92.47009523809524 80.63528421052631H97.59619047619047L102.672 65.52656842105263 104.34636190476189 70.6293894736842ZM112.69424761904762 51.4426947368421H113.01424761904761V49.38846315789473H113.8151619047619V49.108715789473685H111.89333333333333V49.38846315789473H112.69424761904762V51.4426947368421ZM114.42361904761906 50.06433684210526C114.42361904761906 49.99562105263158 114.41767619047619 49.700378947368414 114.41767619047619 49.48581052631579H114.42361904761906L115.08982857142855 51.4426947368421H115.40647619047618L116.07283809523808 49.482442105263154H116.07984761904763C116.07984761904763 49.700378947368414 116.07283809523808 49.9962947368421 116.07283809523808 50.06433684210526V51.4426947368421H116.38339047619047V49.108715789473685H115.92761904761905L115.25607619047618 51.081599999999995H115.24906666666665L114.5728 49.108715789473685H114.11459047619046V51.4426947368421H114.42407619047619L114.42361904761906 50.06433684210526ZM23.913447619047616 59.434105263157896L19.49820952380952 59.426021052631576V58.22534736842105H34.21592380952381V53.62492631578947H20.10712380952381C17.19375238095238 53.62492631578947 14.831939047619045 55.953684210526305 14.831939047619045 58.82576842105262 14.831939047619045 61.69768421052632 17.19375238095238 64.02661052631578 20.10712380952381 64.02661052631578L23.913447619047616 64.05355789473683C27.262780952380954 64.05355789473683 29.977904761904757 66.78096842105263 29.977904761904757 70.08252631578947 29.977904761904757 73.38425263157895 27.262171428571424 76.06079999999999 23.913447619047616 76.01111578947368H9.34782476190476V80.63814736842104L23.913447619047616 80.63006315789472C29.879009523809522 80.63006315789472 34.71497142857143 75.9621052631579 34.71497142857143 70.08202105263157 34.71497142857143 64.20176842105262 29.879009523809522 59.434105263157896 23.913447619047616 59.434105263157896Z" class="hierarchical-1:primary "/><path d="M20.05455238095238 69.39637894736842H24.36860952380952V70.60564210526316H9.34607238095238V75.20791578947367L23.810438095238094 75.20488421052632C26.723961904761904 75.20488421052632 29.085714285714282 72.92698947368422 29.085714285714282 70.0544 29.085714285714282 67.18282105263158 26.723961904761904 64.80387368421052 23.810438095238094 64.80387368421052L20.055161904761903 64.77625263157894C16.705219047619046 64.77625263157894 13.990079999999999 62.099199999999996 13.990079999999999 58.79747368421052 13.990079999999999 55.49574736842105 16.705219047619046 52.818694736842104 20.055161904761903 52.818694736842104L34.214704761904756 52.79393684210526V48.14905263157895H20.05455238095238C14.088944761904761 48.14905263157895 9.252464761904761 52.91671578947368 9.252464761904761 58.79747368421052 9.252464761904761 64.67823157894738 14.089523809523808 69.4464 20.05455238095238 69.39637894736842Z" class="hierarchical-1:primary "/></g>
  <g id="Black-S" transform="matrix(1,0,0,1,2885.3999999999996,612.7705000000001)">

  <path d="M35.36457142857142 52.0848H43.28182857142857V48.633221052631576H31.862742857142855V53.62774736842105C31.862742857142855 54.372884210526315 32.16297142857143 55.087578947368414 32.69748571428571 55.61444210526316 33.23211428571428 56.14143157894737 33.957028571428566 56.437389473684206 34.713028571428566 56.437389473684206H45.41382857142857V52.98581052631579H35.36457142857142V52.0848Z" class="hierarchical-1:primary "/><path d="M27.741714285714284 42.638273684210525V53.984968421052635C27.741714285714284 57.56551578947368 30.686285714285713 60.46863157894737 34.31897142857142 60.46863157894737H45.40331428571428V57.01705263157894H34.69634285714286C33.78045714285714 57.01705263157894 32.90217142857143 56.658442105263155 32.254514285714286 56.02004210526316 31.606971428571427 55.381642105263154 31.2432 54.515873684210526 31.2432 53.612968421052635V43.010273684210524C31.2432 42.1074947368421 31.606971428571427 41.2416 32.254514285714286 40.603199999999994 32.90217142857143 39.96492631578947 33.78045714285714 39.60618947368421 34.69634285714286 39.60618947368421H45.40285714285714V36.15423157894737H34.31897142857142C30.686285714285713 36.154610526315786 27.741714285714284 39.05734736842105 27.741714285714284 42.638273684210525Z" class="hierarchical-1:primary "/><path d="M31.86228571428571 42.995621052631584V47.990526315789474H43.281371428571425V44.538821052631576H35.36457142857142V43.63831578947368H45.41337142857142V40.186231578947364H34.71257142857143C34.33828571428571 40.18610526315789 33.96754285714285 40.258736842105264 33.62171428571428 40.399831578947364 33.275885714285714 40.54105263157894 32.96171428571429 40.74795789473684 32.69702857142857 41.008799999999994 32.43234285714286 41.26964210526315 32.22228571428571 41.5794947368421 32.07908571428571 41.9202947368421 31.93588571428571 42.261221052631576 31.86217142857143 42.62665263157894 31.86228571428571 42.995621052631584ZM65.07497142857143 43.65903157894737V40.20707368421053H53.91782857142857C53.161828571428565 40.20707368421053 52.43679999999999 40.503031578947365 51.90228571428571 41.03002105263158 51.36777142857143 41.55688421052631 51.067428571428565 42.271578947368425 51.067428571428565 43.016715789473686V53.60690526315789C51.067428571428565 53.97587368421052 51.14125714285714 54.34130526315789 51.284457142857136 54.682105263157894 51.42765714285714 55.02303157894736 51.63771428571428 55.332757894736844 51.90228571428571 55.5936 52.16697142857142 55.85444210526315 52.481257142857146 56.06134736842105 52.827085714285715 56.202568421052625 53.1728 56.34366315789474 53.54354285714285 56.416294736842104 53.91782857142857 56.416294736842104H60.96411428571429V48.61162105263158H55.48285714285714V52.06370526315789H57.46262857142857V52.96421052631579H54.56937142857142V43.65903157894737H65.07497142857143Z" class="hierarchical-1:primary "/><path d="M82.00034285714285 39.20008421052631C81.31234285714287 37.08416842105263 79.30011428571429 35.55208421052631 76.92457142857143 35.55208421052631 74.60034285714285 35.55208421052631 72.6232 37.018863157894735 71.89485714285713 39.064673684210526L65.12457142857143 59.71692631578947V44.5578947368421H55.53245714285714V48.00997894736842H61.623085714285715V57.01490526315789H53.9616C53.045942857142855 57.01490526315789 52.16777142857143 56.6562947368421 51.52022857142857 56.018021052631575 50.87268571428571 55.37974736842105 50.50891428571428 54.51397894736842 50.50891428571428 53.611326315789476V43.009010526315784C50.50891428571428 42.106231578947366 50.87268571428571 41.24046315789473 51.52022857142857 40.60206315789474 52.167657142857145 39.96378947368421 53.045942857142855 39.60505263157894 53.9616 39.60492631578947H65.12457142857143V36.152842105263154H53.58342857142857C49.951657142857144 36.152842105263154 47.00662857142857 39.05557894736842 47.00662857142857 42.636631578947366V53.9832C47.00662857142857 57.56374736842105 49.951657142857144 60.46648421052632 53.58342857142857 60.46648421052632H68.70228571428571L75.53577142857142 39.62134736842105C75.4416 39.40181052631579 75.40331428571429 39.16294736842105 75.42445714285714 38.92547368421052 75.44548571428571 38.687999999999995 75.52514285714285 38.45924210526316 75.65645714285714 38.25915789473684 75.78788571428572 38.05894736842105 75.96697142857143 37.8936 76.17805714285714 37.77751578947368 76.38925714285713 37.66130526315789 76.62605714285714 37.59776842105263 76.86777142857142 37.59258947368421 77.10948571428571 37.587410526315786 77.34891428571429 37.64058947368421 77.56491428571428 37.74757894736842 77.78102857142858 37.854568421052626 77.96719999999999 38.01208421052631 78.10731428571428 38.20635789473684 78.24742857142856 38.40063157894737 78.33725714285714 38.62572631578947 78.3688 38.86206315789473 78.40034285714286 39.0984 78.37268571428571 39.33877894736842 78.28822857142858 39.562105263157896L84.04194285714284 57.01490526315789H75.70605714285715V60.46648421052632H89.02777142857143L82.00034285714285 39.20008421052631Z" class="hierarchical-1:primary "/><path d="M78.25977142857143 52.97204210526316H75.74777142857143V56.42399999999999H83.2464L77.7590857142857 39.80905263157894C77.69279999999999 39.65557894736842 77.58228571428572 39.52471578947368 77.44114285714285 39.43275789473684 77.3 39.340799999999994 77.13451428571427 39.29166315789473 76.96537142857143 39.29166315789473 76.79611428571428 39.29166315789473 76.63074285714286 39.340799999999994 76.4896 39.43275789473684 76.34845714285714 39.52471578947368 76.23782857142857 39.65557894736842 76.17165714285714 39.80905263157894L69.35257142857142 60.476463157894734H73.19714285714285L77.004 49.14492631578947 78.25977142857143 52.97204210526316ZM84.52068571428572 38.582021052631575H84.76068571428571V37.04134736842105H85.36137142857142V36.831536842105265H83.92V37.04134736842105H84.52068571428572V38.582021052631575ZM85.81771428571429 37.54825263157895C85.81771428571429 37.49671578947368 85.81325714285714 37.275284210526316 85.81325714285714 37.11435789473684H85.81771428571429L86.31737142857142 38.582021052631575H86.55485714285714L87.05462857142857 37.11183157894737H87.05988571428571C87.05988571428571 37.275284210526316 87.05462857142857 37.49722105263158 87.05462857142857 37.54825263157895V38.582021052631575H87.28754285714285V36.831536842105265H86.94571428571429L86.44205714285714 38.3112H86.43679999999999L85.9296 36.831536842105265H85.58594285714285V38.582021052631575H85.81805714285714L85.81771428571429 37.54825263157895ZM17.935085714285712 44.57557894736842L14.623657142857143 44.56951578947368V43.66901052631579H25.661942857142854V40.2186947368421H15.080342857142856C12.895314285714285 40.2186947368421 11.123954285714284 41.96526315789473 11.123954285714284 44.119326315789465 11.123954285714284 46.27326315789474 12.895314285714285 48.01995789473684 15.080342857142856 48.01995789473684L17.935085714285712 48.04016842105263C20.447085714285716 48.04016842105263 22.48342857142857 50.08572631578947 22.48342857142857 52.5618947368421 22.48342857142857 55.038189473684206 20.44662857142857 57.04559999999999 17.935085714285712 57.00833684210526H7.010868571428571V60.47861052631579L17.935085714285712 60.47254736842105C22.409257142857143 60.47254736842105 26.03622857142857 56.971578947368414 26.03622857142857 52.561515789473674 26.03622857142857 48.15132631578947 22.409257142857143 44.57557894736842 17.935085714285712 44.57557894736842Z" class="hierarchical-1:primary "/><path d="M15.040914285714285 52.04728421052631H18.27645714285714V52.954231578947365H7.009554285714285V56.405936842105255L17.85782857142857 56.403663157894734C20.04297142857143 56.403663157894734 21.814285714285713 54.69524210526316 21.814285714285713 52.5408 21.814285714285713 50.38711578947368 20.04297142857143 48.60290526315789 17.85782857142857 48.60290526315789L15.041371428571427 48.58218947368421C12.528914285714285 48.58218947368421 10.49256 46.5744 10.49256 44.09810526315789 10.49256 41.62181052631579 12.528914285714285 39.61402105263158 15.041371428571427 39.61402105263158L25.661028571428567 39.595452631578944V36.11178947368421H15.040914285714285C10.56670857142857 36.11178947368421 6.939348571428571 39.68753684210526 6.939348571428571 44.09810526315789 6.939348571428571 48.50867368421053 10.567142857142857 52.0848 15.040914285714285 52.04728421052631Z" class="hierarchical-1:primary "/></g>
  <g id="Regular-S" transform="matrix(1,0,0,1,1401.845,612.7705000000001)">

  <path d="M35.36457142857142 52.0848H43.28182857142857V48.633221052631576H31.862742857142855V53.62774736842105C31.862742857142855 54.372884210526315 32.16297142857143 55.087578947368414 32.69748571428571 55.61444210526316 33.23211428571428 56.14143157894737 33.957028571428566 56.437389473684206 34.713028571428566 56.437389473684206H45.41382857142857V52.98581052631579H35.36457142857142V52.0848Z" class="hierarchical-1:primary "/><path d="M27.741714285714284 42.638273684210525V53.984968421052635C27.741714285714284 57.56551578947368 30.686285714285713 60.46863157894737 34.31897142857142 60.46863157894737H45.40331428571428V57.01705263157894H34.69634285714286C33.78045714285714 57.01705263157894 32.90217142857143 56.658442105263155 32.254514285714286 56.02004210526316 31.606971428571427 55.381642105263154 31.2432 54.515873684210526 31.2432 53.612968421052635V43.010273684210524C31.2432 42.1074947368421 31.606971428571427 41.2416 32.254514285714286 40.603199999999994 32.90217142857143 39.96492631578947 33.78045714285714 39.60618947368421 34.69634285714286 39.60618947368421H45.40285714285714V36.15423157894737H34.31897142857142C30.686285714285713 36.154610526315786 27.741714285714284 39.05734736842105 27.741714285714284 42.638273684210525Z" class="hierarchical-1:primary "/><path d="M31.86228571428571 42.995621052631584V47.990526315789474H43.281371428571425V44.538821052631576H35.36457142857142V43.63831578947368H45.41337142857142V40.186231578947364H34.71257142857143C34.33828571428571 40.18610526315789 33.96754285714285 40.258736842105264 33.62171428571428 40.399831578947364 33.275885714285714 40.54105263157894 32.96171428571429 40.74795789473684 32.69702857142857 41.008799999999994 32.43234285714286 41.26964210526315 32.22228571428571 41.5794947368421 32.07908571428571 41.9202947368421 31.93588571428571 42.261221052631576 31.86217142857143 42.62665263157894 31.86228571428571 42.995621052631584ZM65.07497142857143 43.65903157894737V40.20707368421053H53.91782857142857C53.161828571428565 40.20707368421053 52.43679999999999 40.503031578947365 51.90228571428571 41.03002105263158 51.36777142857143 41.55688421052631 51.067428571428565 42.271578947368425 51.067428571428565 43.016715789473686V53.60690526315789C51.067428571428565 53.97587368421052 51.14125714285714 54.34130526315789 51.284457142857136 54.682105263157894 51.42765714285714 55.02303157894736 51.63771428571428 55.332757894736844 51.90228571428571 55.5936 52.16697142857142 55.85444210526315 52.481257142857146 56.06134736842105 52.827085714285715 56.202568421052625 53.1728 56.34366315789474 53.54354285714285 56.416294736842104 53.91782857142857 56.416294736842104H60.96411428571429V48.61162105263158H55.48285714285714V52.06370526315789H57.46262857142857V52.96421052631579H54.56937142857142V43.65903157894737H65.07497142857143Z" class="hierarchical-1:primary "/><path d="M82.00034285714285 39.20008421052631C81.31234285714287 37.08416842105263 79.30011428571429 35.55208421052631 76.92457142857143 35.55208421052631 74.60034285714285 35.55208421052631 72.6232 37.018863157894735 71.89485714285713 39.064673684210526L65.12457142857143 59.71692631578947V44.5578947368421H55.53245714285714V48.00997894736842H61.623085714285715V57.01490526315789H53.9616C53.045942857142855 57.01490526315789 52.16777142857143 56.6562947368421 51.52022857142857 56.018021052631575 50.87268571428571 55.37974736842105 50.50891428571428 54.51397894736842 50.50891428571428 53.611326315789476V43.009010526315784C50.50891428571428 42.106231578947366 50.87268571428571 41.24046315789473 51.52022857142857 40.60206315789474 52.167657142857145 39.96378947368421 53.045942857142855 39.60505263157894 53.9616 39.60492631578947H65.12457142857143V36.152842105263154H53.58342857142857C49.951657142857144 36.152842105263154 47.00662857142857 39.05557894736842 47.00662857142857 42.636631578947366V53.9832C47.00662857142857 57.56374736842105 49.951657142857144 60.46648421052632 53.58342857142857 60.46648421052632H68.70228571428571L75.53577142857142 39.62134736842105C75.4416 39.40181052631579 75.40331428571429 39.16294736842105 75.42445714285714 38.92547368421052 75.44548571428571 38.687999999999995 75.52514285714285 38.45924210526316 75.65645714285714 38.25915789473684 75.78788571428572 38.05894736842105 75.96697142857143 37.8936 76.17805714285714 37.77751578947368 76.38925714285713 37.66130526315789 76.62605714285714 37.59776842105263 76.86777142857142 37.59258947368421 77.10948571428571 37.587410526315786 77.34891428571429 37.64058947368421 77.56491428571428 37.74757894736842 77.78102857142858 37.854568421052626 77.96719999999999 38.01208421052631 78.10731428571428 38.20635789473684 78.24742857142856 38.40063157894737 78.33725714285714 38.62572631578947 78.3688 38.86206315789473 78.40034285714286 39.0984 78.37268571428571 39.33877894736842 78.28822857142858 39.562105263157896L84.04194285714284 57.01490526315789H75.70605714285715V60.46648421052632H89.02777142857143L82.00034285714285 39.20008421052631Z" class="hierarchical-1:primary "/><path d="M78.25977142857143 52.97204210526316H75.74777142857143V56.42399999999999H83.2464L77.7590857142857 39.80905263157894C77.69279999999999 39.65557894736842 77.58228571428572 39.52471578947368 77.44114285714285 39.43275789473684 77.3 39.340799999999994 77.13451428571427 39.29166315789473 76.96537142857143 39.29166315789473 76.79611428571428 39.29166315789473 76.63074285714286 39.340799999999994 76.4896 39.43275789473684 76.34845714285714 39.52471578947368 76.23782857142857 39.65557894736842 76.17165714285714 39.80905263157894L69.35257142857142 60.476463157894734H73.19714285714285L77.004 49.14492631578947 78.25977142857143 52.97204210526316ZM84.52068571428572 38.582021052631575H84.76068571428571V37.04134736842105H85.36137142857142V36.831536842105265H83.92V37.04134736842105H84.52068571428572V38.582021052631575ZM85.81771428571429 37.54825263157895C85.81771428571429 37.49671578947368 85.81325714285714 37.275284210526316 85.81325714285714 37.11435789473684H85.81771428571429L86.31737142857142 38.582021052631575H86.55485714285714L87.05462857142857 37.11183157894737H87.05988571428571C87.05988571428571 37.275284210526316 87.05462857142857 37.49722105263158 87.05462857142857 37.54825263157895V38.582021052631575H87.28754285714285V36.831536842105265H86.94571428571429L86.44205714285714 38.3112H86.43679999999999L85.9296 36.831536842105265H85.58594285714285V38.582021052631575H85.81805714285714L85.81771428571429 37.54825263157895ZM17.935085714285712 44.57557894736842L14.623657142857143 44.56951578947368V43.66901052631579H25.661942857142854V40.2186947368421H15.080342857142856C12.895314285714285 40.2186947368421 11.123954285714284 41.96526315789473 11.123954285714284 44.119326315789465 11.123954285714284 46.27326315789474 12.895314285714285 48.01995789473684 15.080342857142856 48.01995789473684L17.935085714285712 48.04016842105263C20.447085714285716 48.04016842105263 22.48342857142857 50.08572631578947 22.48342857142857 52.5618947368421 22.48342857142857 55.038189473684206 20.44662857142857 57.04559999999999 17.935085714285712 57.00833684210526H7.010868571428571V60.47861052631579L17.935085714285712 60.47254736842105C22.409257142857143 60.47254736842105 26.03622857142857 56.971578947368414 26.03622857142857 52.561515789473674 26.03622857142857 48.15132631578947 22.409257142857143 44.57557894736842 17.935085714285712 44.57557894736842Z" class="hierarchical-1:primary "/><path d="M15.040914285714285 52.04728421052631H18.27645714285714V52.954231578947365H7.009554285714285V56.405936842105255L17.85782857142857 56.403663157894734C20.04297142857143 56.403663157894734 21.814285714285713 54.69524210526316 21.814285714285713 52.5408 21.814285714285713 50.38711578947368 20.04297142857143 48.60290526315789 17.85782857142857 48.60290526315789L15.041371428571427 48.58218947368421C12.528914285714285 48.58218947368421 10.49256 46.5744 10.49256 44.09810526315789 10.49256 41.62181052631579 12.528914285714285 39.61402105263158 15.041371428571427 39.61402105263158L25.661028571428567 39.595452631578944V36.11178947368421H15.040914285714285C10.56670857142857 36.11178947368421 6.939348571428571 39.68753684210526 6.939348571428571 44.09810526315789 6.939348571428571 48.50867368421053 10.567142857142857 52.0848 15.040914285714285 52.04728421052631Z" class="hierarchical-1:primary "/></g>
  <g id="Ultralight-S" transform="matrix(1,0,0,1,511.711,612.7705000000001)">

  <path d="M35.36457142857142 52.0848H43.28182857142857V48.633221052631576H31.862742857142855V53.62774736842105C31.862742857142855 54.372884210526315 32.16297142857143 55.087578947368414 32.69748571428571 55.61444210526316 33.23211428571428 56.14143157894737 33.957028571428566 56.437389473684206 34.713028571428566 56.437389473684206H45.41382857142857V52.98581052631579H35.36457142857142V52.0848Z" class="hierarchical-1:primary "/><path d="M27.741714285714284 42.638273684210525V53.984968421052635C27.741714285714284 57.56551578947368 30.686285714285713 60.46863157894737 34.31897142857142 60.46863157894737H45.40331428571428V57.01705263157894H34.69634285714286C33.78045714285714 57.01705263157894 32.90217142857143 56.658442105263155 32.254514285714286 56.02004210526316 31.606971428571427 55.381642105263154 31.2432 54.515873684210526 31.2432 53.612968421052635V43.010273684210524C31.2432 42.1074947368421 31.606971428571427 41.2416 32.254514285714286 40.603199999999994 32.90217142857143 39.96492631578947 33.78045714285714 39.60618947368421 34.69634285714286 39.60618947368421H45.40285714285714V36.15423157894737H34.31897142857142C30.686285714285713 36.154610526315786 27.741714285714284 39.05734736842105 27.741714285714284 42.638273684210525Z" class="hierarchical-1:primary "/><path d="M31.86228571428571 42.995621052631584V47.990526315789474H43.281371428571425V44.538821052631576H35.36457142857142V43.63831578947368H45.41337142857142V40.186231578947364H34.71257142857143C34.33828571428571 40.18610526315789 33.96754285714285 40.258736842105264 33.62171428571428 40.399831578947364 33.275885714285714 40.54105263157894 32.96171428571429 40.74795789473684 32.69702857142857 41.008799999999994 32.43234285714286 41.26964210526315 32.22228571428571 41.5794947368421 32.07908571428571 41.9202947368421 31.93588571428571 42.261221052631576 31.86217142857143 42.62665263157894 31.86228571428571 42.995621052631584ZM65.07497142857143 43.65903157894737V40.20707368421053H53.91782857142857C53.161828571428565 40.20707368421053 52.43679999999999 40.503031578947365 51.90228571428571 41.03002105263158 51.36777142857143 41.55688421052631 51.067428571428565 42.271578947368425 51.067428571428565 43.016715789473686V53.60690526315789C51.067428571428565 53.97587368421052 51.14125714285714 54.34130526315789 51.284457142857136 54.682105263157894 51.42765714285714 55.02303157894736 51.63771428571428 55.332757894736844 51.90228571428571 55.5936 52.16697142857142 55.85444210526315 52.481257142857146 56.06134736842105 52.827085714285715 56.202568421052625 53.1728 56.34366315789474 53.54354285714285 56.416294736842104 53.91782857142857 56.416294736842104H60.96411428571429V48.61162105263158H55.48285714285714V52.06370526315789H57.46262857142857V52.96421052631579H54.56937142857142V43.65903157894737H65.07497142857143Z" class="hierarchical-1:primary "/><path d="M82.00034285714285 39.20008421052631C81.31234285714287 37.08416842105263 79.30011428571429 35.55208421052631 76.92457142857143 35.55208421052631 74.60034285714285 35.55208421052631 72.6232 37.018863157894735 71.89485714285713 39.064673684210526L65.12457142857143 59.71692631578947V44.5578947368421H55.53245714285714V48.00997894736842H61.623085714285715V57.01490526315789H53.9616C53.045942857142855 57.01490526315789 52.16777142857143 56.6562947368421 51.52022857142857 56.018021052631575 50.87268571428571 55.37974736842105 50.50891428571428 54.51397894736842 50.50891428571428 53.611326315789476V43.009010526315784C50.50891428571428 42.106231578947366 50.87268571428571 41.24046315789473 51.52022857142857 40.60206315789474 52.167657142857145 39.96378947368421 53.045942857142855 39.60505263157894 53.9616 39.60492631578947H65.12457142857143V36.152842105263154H53.58342857142857C49.951657142857144 36.152842105263154 47.00662857142857 39.05557894736842 47.00662857142857 42.636631578947366V53.9832C47.00662857142857 57.56374736842105 49.951657142857144 60.46648421052632 53.58342857142857 60.46648421052632H68.70228571428571L75.53577142857142 39.62134736842105C75.4416 39.40181052631579 75.40331428571429 39.16294736842105 75.42445714285714 38.92547368421052 75.44548571428571 38.687999999999995 75.52514285714285 38.45924210526316 75.65645714285714 38.25915789473684 75.78788571428572 38.05894736842105 75.96697142857143 37.8936 76.17805714285714 37.77751578947368 76.38925714285713 37.66130526315789 76.62605714285714 37.59776842105263 76.86777142857142 37.59258947368421 77.10948571428571 37.587410526315786 77.34891428571429 37.64058947368421 77.56491428571428 37.74757894736842 77.78102857142858 37.854568421052626 77.96719999999999 38.01208421052631 78.10731428571428 38.20635789473684 78.24742857142856 38.40063157894737 78.33725714285714 38.62572631578947 78.3688 38.86206315789473 78.40034285714286 39.0984 78.37268571428571 39.33877894736842 78.28822857142858 39.562105263157896L84.04194285714284 57.01490526315789H75.70605714285715V60.46648421052632H89.02777142857143L82.00034285714285 39.20008421052631Z" class="hierarchical-1:primary "/><path d="M78.25977142857143 52.97204210526316H75.74777142857143V56.42399999999999H83.2464L77.7590857142857 39.80905263157894C77.69279999999999 39.65557894736842 77.58228571428572 39.52471578947368 77.44114285714285 39.43275789473684 77.3 39.340799999999994 77.13451428571427 39.29166315789473 76.96537142857143 39.29166315789473 76.79611428571428 39.29166315789473 76.63074285714286 39.340799999999994 76.4896 39.43275789473684 76.34845714285714 39.52471578947368 76.23782857142857 39.65557894736842 76.17165714285714 39.80905263157894L69.35257142857142 60.476463157894734H73.19714285714285L77.004 49.14492631578947 78.25977142857143 52.97204210526316ZM84.52068571428572 38.582021052631575H84.76068571428571V37.04134736842105H85.36137142857142V36.831536842105265H83.92V37.04134736842105H84.52068571428572V38.582021052631575ZM85.81771428571429 37.54825263157895C85.81771428571429 37.49671578947368 85.81325714285714 37.275284210526316 85.81325714285714 37.11435789473684H85.81771428571429L86.31737142857142 38.582021052631575H86.55485714285714L87.05462857142857 37.11183157894737H87.05988571428571C87.05988571428571 37.275284210526316 87.05462857142857 37.49722105263158 87.05462857142857 37.54825263157895V38.582021052631575H87.28754285714285V36.831536842105265H86.94571428571429L86.44205714285714 38.3112H86.43679999999999L85.9296 36.831536842105265H85.58594285714285V38.582021052631575H85.81805714285714L85.81771428571429 37.54825263157895ZM17.935085714285712 44.57557894736842L14.623657142857143 44.56951578947368V43.66901052631579H25.661942857142854V40.2186947368421H15.080342857142856C12.895314285714285 40.2186947368421 11.123954285714284 41.96526315789473 11.123954285714284 44.119326315789465 11.123954285714284 46.27326315789474 12.895314285714285 48.01995789473684 15.080342857142856 48.01995789473684L17.935085714285712 48.04016842105263C20.447085714285716 48.04016842105263 22.48342857142857 50.08572631578947 22.48342857142857 52.5618947368421 22.48342857142857 55.038189473684206 20.44662857142857 57.04559999999999 17.935085714285712 57.00833684210526H7.010868571428571V60.47861052631579L17.935085714285712 60.47254736842105C22.409257142857143 60.47254736842105 26.03622857142857 56.971578947368414 26.03622857142857 52.561515789473674 26.03622857142857 48.15132631578947 22.409257142857143 44.57557894736842 17.935085714285712 44.57557894736842Z" class="hierarchical-1:primary "/><path d="M15.040914285714285 52.04728421052631H18.27645714285714V52.954231578947365H7.009554285714285V56.405936842105255L17.85782857142857 56.403663157894734C20.04297142857143 56.403663157894734 21.814285714285713 54.69524210526316 21.814285714285713 52.5408 21.814285714285713 50.38711578947368 20.04297142857143 48.60290526315789 17.85782857142857 48.60290526315789L15.041371428571427 48.58218947368421C12.528914285714285 48.58218947368421 10.49256 46.5744 10.49256 44.09810526315789 10.49256 41.62181052631579 12.528914285714285 39.61402105263158 15.041371428571427 39.61402105263158L25.661028571428567 39.595452631578944V36.11178947368421H15.040914285714285C10.56670857142857 36.11178947368421 6.939348571428571 39.68753684210526 6.939348571428571 44.09810526315789 6.939348571428571 48.50867368421053 10.567142857142857 52.0848 15.040914285714285 52.04728421052631Z" class="hierarchical-1:primary "/></g>
 </g>
</svg>