<svg width="24" height="24" viewBox="0 0 24 24" fill="none" xmlns="http://www.w3.org/2000/svg">
<path d="M13.0607 2.25007C12.4749 1.66428 11.5251 1.66428 10.9393 2.25007L0.96967 12.2197C0.676777 12.5126 0.676777 12.9875 0.96967 13.2804C1.26256 13.5733 1.73744 13.5733 2.03033 13.2804L12 3.31073L21.9697 13.2804C22.2626 13.5733 22.7374 13.5733 23.0303 13.2804C23.3232 12.9875 23.3232 12.5126 23.0303 12.2197L19.5 8.68941V3.75007C19.5 3.33586 19.1642 3.00007 18.75 3.00007H17.25C16.8358 3.00007 16.5 3.33586 16.5 3.75007V5.68941L13.0607 2.25007Z" fill="black"/>
<path d="M12 4.93941L21 13.9394V20.2501C21 21.4927 19.9926 22.5001 18.75 22.5001H5.25C4.00736 22.5001 3 21.4927 3 20.2501V13.9394L12 4.93941Z" fill="black"/>
</svg>
