<svg xmlns="http://www.w3.org/2000/svg" xmlns:xlink="http://www.w3.org/1999/xlink" version="1.1" width="3300" height="2200">
 <!--glyph: "", point size: 100.0, font version: "17.1d1e1", template writer version: "65.1"-->
<style>

.hierarchical-1:primary {fill:#262626;}
.SFSymbolsPreview262626 {fill:#262626;}
</style>
 <g id="Notes">
  <rect height="2200" id="artboard" style="fill:white;opacity:1" width="3300" x="0" y="0"/>
  <line style="fill:none;stroke:black;opacity:1;stroke-width:0.5;" x1="263" x2="3036" y1="292" y2="292"/>
  <text style="stroke:none;fill:black;font-family:sans-serif;font-size:13;font-weight:bold;" transform="matrix(1 0 0 1 263 322)">Weight/Scale Variations</text>
  <text style="stroke:none;fill:black;font-family:sans-serif;font-size:13;text-anchor:middle;" transform="matrix(1 0 0 1 559.711 322)">Ultralight</text>
  <text style="stroke:none;fill:black;font-family:sans-serif;font-size:13;text-anchor:middle;" transform="matrix(1 0 0 1 856.422 322)">Thin</text>
  <text style="stroke:none;fill:black;font-family:sans-serif;font-size:13;text-anchor:middle;" transform="matrix(1 0 0 1 1153.13 322)">Light</text>
  <text style="stroke:none;fill:black;font-family:sans-serif;font-size:13;text-anchor:middle;" transform="matrix(1 0 0 1 1449.84 322)">Regular</text>
  <text style="stroke:none;fill:black;font-family:sans-serif;font-size:13;text-anchor:middle;" transform="matrix(1 0 0 1 1746.56 322)">Medium</text>
  <text style="stroke:none;fill:black;font-family:sans-serif;font-size:13;text-anchor:middle;" transform="matrix(1 0 0 1 2043.27 322)">Semibold</text>
  <text style="stroke:none;fill:black;font-family:sans-serif;font-size:13;text-anchor:middle;" transform="matrix(1 0 0 1 2339.98 322)">Bold</text>
  <text style="stroke:none;fill:black;font-family:sans-serif;font-size:13;text-anchor:middle;" transform="matrix(1 0 0 1 2636.69 322)">Heavy</text>
  <text style="stroke:none;fill:black;font-family:sans-serif;font-size:13;text-anchor:middle;" transform="matrix(1 0 0 1 2933.4 322)">Black</text>
  <line style="fill:none;stroke:black;opacity:1;stroke-width:0.5;" x1="263" x2="3036" y1="1903" y2="1903"/>
  <g transform="matrix(1 0 0 1 263 1933)">
   <path d="M9.24805 0.830078Q10.8691 0.830078 12.2949 0.214844Q13.7207-0.400391 14.8096-1.49414Q15.8984-2.58789 16.5186-4.01367Q17.1387-5.43945 17.1387-7.05078Q17.1387-8.66211 16.5186-10.0879Q15.8984-11.5137 14.8047-12.6074Q13.7109-13.7012 12.2852-14.3164Q10.8594-14.9316 9.23828-14.9316Q7.62695-14.9316 6.20117-14.3164Q4.77539-13.7012 3.69141-12.6074Q2.60742-11.5137 1.9873-10.0879Q1.36719-8.66211 1.36719-7.05078Q1.36719-5.43945 1.9873-4.01367Q2.60742-2.58789 3.69629-1.49414Q4.78516-0.400391 6.21094 0.214844Q7.63672 0.830078 9.24805 0.830078ZM9.24805-0.654297Q7.91992-0.654297 6.7627-1.14746Q5.60547-1.64062 4.73145-2.51953Q3.85742-3.39844 3.36426-4.56055Q2.87109-5.72266 2.87109-7.05078Q2.87109-8.37891 3.35938-9.54102Q3.84766-10.7031 4.72168-11.582Q5.5957-12.4609 6.75293-12.9541Q7.91016-13.4473 9.23828-13.4473Q10.5762-13.4473 11.7334-12.9541Q12.8906-12.4609 13.7695-11.582Q14.6484-10.7031 15.1465-9.54102Q15.6445-8.37891 15.6445-7.05078Q15.6445-5.72266 15.1514-4.56055Q14.6582-3.39844 13.7842-2.51953Q12.9102-1.64062 11.748-1.14746Q10.5859-0.654297 9.24805-0.654297ZM5.6543-7.05078Q5.6543-6.72852 5.85938-6.52832Q6.06445-6.32812 6.40625-6.32812L8.51562-6.32812L8.51562-4.20898Q8.51562-3.88672 8.71094-3.67676Q8.90625-3.4668 9.23828-3.4668Q9.56055-3.4668 9.77051-3.67676Q9.98047-3.88672 9.98047-4.20898L9.98047-6.32812L12.0898-6.32812Q12.4219-6.32812 12.627-6.52832Q12.832-6.72852 12.832-7.05078Q12.832-7.38281 12.627-7.58789Q12.4219-7.79297 12.0898-7.79297L9.98047-7.79297L9.98047-9.90234Q9.98047-10.2344 9.77051-10.4443Q9.56055-10.6543 9.23828-10.6543Q8.90625-10.6543 8.71094-10.4443Q8.51562-10.2344 8.51562-9.90234L8.51562-7.79297L6.40625-7.79297Q6.06445-7.79297 5.85938-7.58789Q5.6543-7.38281 5.6543-7.05078Z"/>
  </g>
  <g transform="matrix(1 0 0 1 281.867 1933)">
   <path d="M11.709 2.91016Q13.75 2.91016 15.5518 2.12891Q17.3535 1.34766 18.7305-0.0292969Q20.1074-1.40625 20.8887-3.20801Q21.6699-5.00977 21.6699-7.05078Q21.6699-9.0918 20.8887-10.8936Q20.1074-12.6953 18.7305-14.0723Q17.3535-15.4492 15.5469-16.2305Q13.7402-17.0117 11.6992-17.0117Q9.6582-17.0117 7.85645-16.2305Q6.05469-15.4492 4.68262-14.0723Q3.31055-12.6953 2.5293-10.8936Q1.74805-9.0918 1.74805-7.05078Q1.74805-5.00977 2.5293-3.20801Q3.31055-1.40625 4.6875-0.0292969Q6.06445 1.34766 7.86621 2.12891Q9.66797 2.91016 11.709 2.91016ZM11.709 1.25Q9.98047 1.25 8.47656 0.605469Q6.97266-0.0390625 5.83496-1.17676Q4.69727-2.31445 4.05762-3.81836Q3.41797-5.32227 3.41797-7.05078Q3.41797-8.7793 4.05762-10.2832Q4.69727-11.7871 5.83008-12.9297Q6.96289-14.0723 8.4668-14.7119Q9.9707-15.3516 11.6992-15.3516Q13.4277-15.3516 14.9316-14.7119Q16.4355-14.0723 17.5781-12.9297Q18.7207-11.7871 19.3652-10.2832Q20.0098-8.7793 20.0098-7.05078Q20.0098-5.32227 19.3701-3.81836Q18.7305-2.31445 17.5928-1.17676Q16.4551-0.0390625 14.9463 0.605469Q13.4375 1.25 11.709 1.25ZM7.17773-7.05078Q7.17773-6.69922 7.41211-6.47461Q7.64648-6.25 8.01758-6.25L10.8887-6.25L10.8887-3.36914Q10.8887-2.99805 11.1133-2.76855Q11.3379-2.53906 11.6895-2.53906Q12.0605-2.53906 12.29-2.76855Q12.5195-2.99805 12.5195-3.36914L12.5195-6.25L15.4004-6.25Q15.7715-6.25 16.001-6.47461Q16.2305-6.69922 16.2305-7.05078Q16.2305-7.42188 16.001-7.65137Q15.7715-7.88086 15.4004-7.88086L12.5195-7.88086L12.5195-10.752Q12.5195-11.1328 12.29-11.3623Q12.0605-11.5918 11.6895-11.5918Q11.3379-11.5918 11.1133-11.3574Q10.8887-11.123 10.8887-10.752L10.8887-7.88086L8.01758-7.88086Q7.63672-7.88086 7.40723-7.65137Q7.17773-7.42188 7.17773-7.05078Z"/>
  </g>
  <g transform="matrix(1 0 0 1 305.646 1933)">
   <path d="M14.9707 5.66406Q17.0605 5.66406 18.96 5.01465Q20.8594 4.36523 22.4512 3.19336Q24.043 2.02148 25.2197 0.429688Q26.3965-1.16211 27.0459-3.06641Q27.6953-4.9707 27.6953-7.05078Q27.6953-9.14062 27.0459-11.04Q26.3965-12.9395 25.2197-14.5312Q24.043-16.123 22.4512-17.2998Q20.8594-18.4766 18.9551-19.126Q17.0508-19.7754 14.9609-19.7754Q12.8711-19.7754 10.9717-19.126Q9.07227-18.4766 7.48535-17.2998Q5.89844-16.123 4.72168-14.5312Q3.54492-12.9395 2.90039-11.04Q2.25586-9.14062 2.25586-7.05078Q2.25586-4.9707 2.90527-3.06641Q3.55469-1.16211 4.72656 0.429688Q5.89844 2.02148 7.49023 3.19336Q9.08203 4.36523 10.9814 5.01465Q12.8809 5.66406 14.9707 5.66406ZM14.9707 3.84766Q13.1641 3.84766 11.5283 3.2959Q9.89258 2.74414 8.53516 1.74805Q7.17773 0.751953 6.17676-0.610352Q5.17578-1.97266 4.62891-3.6084Q4.08203-5.24414 4.08203-7.05078Q4.08203-8.86719 4.62891-10.5029Q5.17578-12.1387 6.17188-13.501Q7.16797-14.8633 8.52539-15.8594Q9.88281-16.8555 11.5186-17.4023Q13.1543-17.9492 14.9609-17.9492Q16.7773-17.9492 18.4131-17.4023Q20.0488-16.8555 21.4111-15.8594Q22.7734-14.8633 23.7695-13.501Q24.7656-12.1387 25.3174-10.5029Q25.8691-8.86719 25.8691-7.05078Q25.8789-5.24414 25.332-3.6084Q24.7852-1.97266 23.7842-0.610352Q22.7832 0.751953 21.4209 1.74805Q20.0586 2.74414 18.4229 3.2959Q16.7871 3.84766 14.9707 3.84766ZM9.19922-7.05078Q9.19922-6.66992 9.45801-6.4209Q9.7168-6.17188 10.1172-6.17188L14.0625-6.17188L14.0625-2.2168Q14.0625-1.81641 14.3115-1.55762Q14.5605-1.29883 14.9512-1.29883Q15.3516-1.29883 15.6104-1.55273Q15.8691-1.80664 15.8691-2.2168L15.8691-6.17188L19.8242-6.17188Q20.2246-6.17188 20.4785-6.4209Q20.7324-6.66992 20.7324-7.05078Q20.7324-7.46094 20.4785-7.71484Q20.2246-7.96875 19.8242-7.96875L15.8691-7.96875L15.8691-11.9141Q15.8691-12.3242 15.6104-12.583Q15.3516-12.8418 14.9512-12.8418Q14.5605-12.8418 14.3115-12.583Q14.0625-12.3242 14.0625-11.9141L14.0625-7.96875L10.1172-7.96875Q9.70703-7.96875 9.45312-7.71484Q9.19922-7.46094 9.19922-7.05078Z"/>
  </g>
  <text style="stroke:none;fill:black;font-family:sans-serif;font-size:13;font-weight:bold;" transform="matrix(1 0 0 1 263 1953)">Design Variations</text>
  <text style="stroke:none;fill:black;font-family:sans-serif;font-size:13;" transform="matrix(1 0 0 1 263 1971)">Symbols are supported in up to nine weights and three scales.</text>
  <text style="stroke:none;fill:black;font-family:sans-serif;font-size:13;" transform="matrix(1 0 0 1 263 1989)">For optimal layout with text and other symbols, vertically align</text>
  <text style="stroke:none;fill:black;font-family:sans-serif;font-size:13;" transform="matrix(1 0 0 1 263 2007)">symbols with the adjacent text.</text>
  <line style="fill:none;stroke:#00AEEF;stroke-width:0.5;opacity:1.0;" x1="776" x2="776" y1="1919" y2="1933"/>
  <g transform="matrix(1 0 0 1 776 1933)">
   <path d="M3.31055 0.15625Q3.70117 0.15625 3.91602-0.00976562Q4.13086-0.175781 4.26758-0.585938L5.52734-4.0332L11.2891-4.0332L12.5488-0.585938Q12.6855-0.175781 12.9004-0.00976562Q13.1152 0.15625 13.4961 0.15625Q13.8867 0.15625 14.1162-0.0585938Q14.3457-0.273438 14.3457-0.644531Q14.3457-0.869141 14.2383-1.17188L9.6582-13.3691Q9.48242-13.8184 9.17969-14.043Q8.87695-14.2676 8.4082-14.2676Q7.5-14.2676 7.17773-13.3789L2.59766-1.16211Q2.49023-0.859375 2.49023-0.634766Q2.49023-0.263672 2.70996-0.0537109Q2.92969 0.15625 3.31055 0.15625ZM6.00586-5.51758L8.37891-12.0898L8.42773-12.0898L10.8008-5.51758Z"/>
  </g>
  <line style="fill:none;stroke:#00AEEF;stroke-width:0.5;opacity:1.0;" x1="793.197" x2="793.197" y1="1919" y2="1933"/>
  <text style="stroke:none;fill:black;font-family:sans-serif;font-size:13;font-weight:bold;" transform="matrix(1 0 0 1 776 1953)">Margins</text>
  <text style="stroke:none;fill:black;font-family:sans-serif;font-size:13;" transform="matrix(1 0 0 1 776 1971)">Leading and trailing margins on the left and right side of each symbol</text>
  <text style="stroke:none;fill:black;font-family:sans-serif;font-size:13;" transform="matrix(1 0 0 1 776 1989)">can be adjusted by modifying the x-location of the margin guidelines.</text>
  <text style="stroke:none;fill:black;font-family:sans-serif;font-size:13;" transform="matrix(1 0 0 1 776 2007)">Modifications are automatically applied proportionally to all</text>
  <text style="stroke:none;fill:black;font-family:sans-serif;font-size:13;" transform="matrix(1 0 0 1 776 2025)">scales and weights.</text>
  <g transform="matrix(1 0 0 1 1289 1933)">
   <path d="M2.8418 1.86523L4.54102 3.57422Q5.18555 4.22852 5.90332 4.17969Q6.62109 4.13086 7.31445 3.35938L18.0078-8.42773L17.041-9.4043L6.42578 2.27539Q6.16211 2.57812 5.89355 2.61719Q5.625 2.65625 5.27344 2.30469L4.10156 1.14258Q3.75 0.791016 3.79395 0.522461Q3.83789 0.253906 4.14062-0.0195312L15.6152-10.8203L14.6387-11.7871L3.04688-0.898438Q2.30469-0.214844 2.25098 0.498047Q2.19727 1.21094 2.8418 1.86523ZM9.25781-16.3281Q8.94531-16.0254 8.90625-15.6348Q8.86719-15.2441 9.04297-14.9512Q9.21875-14.6777 9.55566-14.541Q9.89258-14.4043 10.3809-14.5215Q11.4746-14.7754 12.5977-14.7314Q13.7207-14.6875 14.7949-13.9844L14.209-12.5293Q13.9551-11.9043 14.0674-11.4404Q14.1797-10.9766 14.5801-10.5664L16.875-8.25195Q17.2363-7.88086 17.5781-7.82227Q17.9199-7.76367 18.3398-7.8418L19.4043-8.03711L20.0684-7.36328L20.0293-6.80664Q20-6.43555 20.1221-6.12305Q20.2441-5.81055 20.6055-5.44922L21.3672-4.70703Q21.7285-4.3457 22.1533-4.33105Q22.5781-4.31641 22.9297-4.66797L25.8398-7.58789Q26.1914-7.93945 26.1816-8.35449Q26.1719-8.76953 25.8105-9.13086L25.0391-9.89258Q24.6875-10.2539 24.3799-10.3857Q24.0723-10.5176 23.7109-10.4883L23.1348-10.4395L22.4902-11.0742L22.7344-12.1973Q22.832-12.6172 22.6953-12.9834Q22.5586-13.3496 22.1191-13.7891L19.9219-15.9766Q18.6719-17.2168 17.2607-17.8369Q15.8496-18.457 14.4189-18.4814Q12.9883-18.5059 11.665-17.959Q10.3418-17.4121 9.25781-16.3281ZM10.752-15.957Q11.6602-16.6211 12.7002-16.9043Q13.7402-17.1875 14.8047-17.085Q15.8691-16.9824 16.8701-16.5137Q17.8711-16.0449 18.7012-15.2051L21.1328-12.793Q21.3086-12.6172 21.3525-12.4512Q21.3965-12.2852 21.3379-12.0312L21.0156-10.5469L22.5195-9.0625L23.5059-9.12109Q23.6914-9.13086 23.7891-9.09668Q23.8867-9.0625 24.0332-8.91602L24.6094-8.33984L22.168-5.89844L21.5918-6.47461Q21.4453-6.62109 21.4062-6.71875Q21.3672-6.81641 21.377-7.01172L21.4453-7.98828L19.9512-9.47266L18.4277-9.21875Q18.1836-9.16992 18.042-9.2041Q17.9004-9.23828 17.7148-9.41406L15.7129-11.416Q15.5176-11.5918 15.4932-11.7529Q15.4688-11.9141 15.5859-12.1875L16.4648-14.2773Q15.293-15.3711 13.8281-15.791Q12.3633-16.2109 10.8398-15.7617Q10.7227-15.7324 10.6885-15.8057Q10.6543-15.8789 10.752-15.957Z"/>
  </g>
  <text style="stroke:none;fill:black;font-family:sans-serif;font-size:13;font-weight:bold;" transform="matrix(1 0 0 1 1289 1953)">Exporting</text>
  <text style="stroke:none;fill:black;font-family:sans-serif;font-size:13;" transform="matrix(1 0 0 1 1289 1971)">Symbols should be outlined when exporting to ensure the</text>
  <text style="stroke:none;fill:black;font-family:sans-serif;font-size:13;" transform="matrix(1 0 0 1 1289 1989)">design is preserved when submitting to Xcode.</text>
  <text id="template-version" style="stroke:none;fill:black;font-family:sans-serif;font-size:13;text-anchor:end;" transform="matrix(1 0 0 1 3036 1933)">Template v.3.0</text>
  <text style="stroke:none;fill:black;font-family:sans-serif;font-size:13;text-anchor:end;" transform="matrix(1 0 0 1 3036 1951)">Requires Xcode 13 or greater</text>
  <text id="descriptive-name" style="stroke:none;fill:black;font-family:sans-serif;font-size:13;text-anchor:end;" transform="matrix(1 0 0 1 3036 1969)">Symbol moniker: nintendo-switch</text>
  <text style="stroke:none;fill:black;font-family:sans-serif;font-size:13;text-anchor:end;" transform="matrix(1 0 0 1 3036 1987)">Typeset at 100 points</text>
  <text style="stroke:none;fill:black;font-family:sans-serif;font-size:13;" transform="matrix(1 0 0 1 263 726)">Small</text>
  <text style="stroke:none;fill:black;font-family:sans-serif;font-size:13;" transform="matrix(1 0 0 1 263 1156)">Medium</text>
  <text style="stroke:none;fill:black;font-family:sans-serif;font-size:13;" transform="matrix(1 0 0 1 263 1586)">Large</text>
 </g>
 <g id="Guides">
  <g id="H-reference" style="fill:#27AAE1;stroke:none;" transform="matrix(1 0 0 1 339 696)">
   <path d="M0.976562 0L3.66211 0L29.3457-67.1387L30.0293-67.1387L30.0293-70.459L28.125-70.459ZM11.6699-24.4629L46.9727-24.4629L46.2402-26.709L12.4512-26.709ZM55.127 0L57.7637 0L30.6152-70.459L29.4434-70.459L29.4434-67.1387Z"/>
  </g>
  <line id="Baseline-S" style="fill:none;stroke:#27AAE1;opacity:1;stroke-width:0.5;" x1="263" x2="3036" y1="696" y2="696"/>
  <line id="Capline-S" style="fill:none;stroke:#27AAE1;opacity:1;stroke-width:0.5;" x1="263" x2="3036" y1="625.541" y2="625.541"/>
  <g id="H-reference" style="fill:#27AAE1;stroke:none;" transform="matrix(1 0 0 1 339 1126)">
   <path d="M0.976562 0L3.66211 0L29.3457-67.1387L30.0293-67.1387L30.0293-70.459L28.125-70.459ZM11.6699-24.4629L46.9727-24.4629L46.2402-26.709L12.4512-26.709ZM55.127 0L57.7637 0L30.6152-70.459L29.4434-70.459L29.4434-67.1387Z"/>
  </g>
  <line id="Baseline-M" style="fill:none;stroke:#27AAE1;opacity:1;stroke-width:0.5;" x1="263" x2="3036" y1="1126" y2="1126"/>
  <line id="Capline-M" style="fill:none;stroke:#27AAE1;opacity:1;stroke-width:0.5;" x1="263" x2="3036" y1="1055.54" y2="1055.54"/>
  <g id="H-reference" style="fill:#27AAE1;stroke:none;" transform="matrix(1 0 0 1 339 1556)">
   <path d="M0.976562 0L3.66211 0L29.3457-67.1387L30.0293-67.1387L30.0293-70.459L28.125-70.459ZM11.6699-24.4629L46.9727-24.4629L46.2402-26.709L12.4512-26.709ZM55.127 0L57.7637 0L30.6152-70.459L29.4434-70.459L29.4434-67.1387Z"/>
  </g>
  <line id="Baseline-L" style="fill:none;stroke:#27AAE1;opacity:1;stroke-width:0.5;" x1="263" x2="3036" y1="1556" y2="1556"/>
  <line id="Capline-L" style="fill:none;stroke:#27AAE1;opacity:1;stroke-width:0.5;" x1="263" x2="3036" y1="1485.54" y2="1485.54"/>
  <line id="left-margin-Ultralight-S" style="fill:none;stroke:#00AEEF;stroke-width:0.5;opacity:1.0;" x1="515.351" x2="515.351" y1="600.784" y2="720.121"/>
  <line id="right-margin-Ultralight-S" style="fill:none;stroke:#00AEEF;stroke-width:0.5;opacity:1.0;" x1="604.071" x2="604.071" y1="600.784" y2="720.121"/>
  <line id="left-margin-Regular-S" style="fill:none;stroke:#00AEEF;stroke-width:0.5;opacity:1.0;" x1="1401.75" x2="1401.75" y1="600.784" y2="720.121"/>
  <line id="right-margin-Regular-S" style="fill:none;stroke:#00AEEF;stroke-width:0.5;opacity:1.0;" x1="1497.94" x2="1497.94" y1="600.784" y2="720.121"/>
  <line id="left-margin-Black-S" style="fill:none;stroke:#00AEEF;stroke-width:0.5;opacity:1.0;" x1="2883.2" x2="2883.2" y1="600.784" y2="720.121"/>
  <line id="right-margin-Black-S" style="fill:none;stroke:#00AEEF;stroke-width:0.5;opacity:1.0;" x1="2983.6" x2="2983.6" y1="600.784" y2="720.121"/>
 </g>
 <g id="Symbols">
  <g id="Black-L" transform="matrix(1,0,0,1,2853.3999999999996,1440.77)">

  <path d="M93.39933333333333 80.05333333333333C93.39933333333333 36.2492 93.49866666666668 0.33134600000000003 93.63133333333334 0.23194199999999998 93.73066666666666 0.099404 100.35733333333333 0 108.31000000000002 0 119.84066666666666 0 123.41933333333333 0.099404 125.73866666666667 0.4970186666666667 143.03466666666668 3.479126666666667 156.18933333333334 16.501 159.46933333333334 33.764133333333334 159.93333333333334 36.18293333333333 160 41.848933333333335 160 79.854 160 120.45533333333334 160.048 125.23133333333334 158.768 129.61933333333334 158.54666666666668 130.37733333333333 158.286 131.12400000000002 157.97866666666667 132.04133333333334 157.41533333333334 133.66466666666668 156.322 136.28266666666667 155.49333333333334 137.84 149.032 150 137.17000000000002 158.18466666666666 123.71733333333334 159.70866666666666 120.53666666666668 160.04000000000002 94.824 160.1726666666667 93.92933333333333 159.84133333333332 93.432 159.64266666666668 93.39933333333333 152.31933333333333 93.39933333333333 80.05333333333333ZM140.15200000000002 82.73733333333334C138.42933333333332 77.70066666666666 134.18800000000002 73.75733333333334 129.01866666666666 72.39933333333333 120.73533333333333 70.24533333333333 112.12000000000002 75.01666666666667 109.63533333333334 83.13466666666667 108.80666666666669 85.71933333333334 108.77333333333333 89.96066666666667 109.50266666666667 92.47866666666667 111.92133333333334 100.696 120.73533333333333 105.69933333333334 129.01866666666666 103.54533333333335 134.12133333333335 102.18733333333333 138.098 98.50933333333334 140.11866666666668 93.274 141.21266666666668 90.42399999999999 141.24533333333335 85.852 140.15200000000002 82.73733333333334Z" class="hierarchical-1:primary "/><path d="M37.10386666666667 33.16773333333333C35.016333333333336 33.565333333333335 31.835466666666665 35.1558 30.1456 36.64686666666667 26.666466666666665 39.66206666666667 24.943466666666666 43.93646666666667 25.208533333333335 48.97286666666667 25.341066666666666 51.59053333333333 25.506733333333337 52.28633333333334 26.567066666666665 54.407 28.1244 57.621 30.47693333333333 59.973600000000005 33.691 61.56406666666667 35.911 62.657466666666664 36.47426666666667 62.79 39.357 62.8894 41.974666666666664 62.988800000000005 42.9024 62.8894 44.65853333333334 62.293 51.848733333333335 59.8742 56.1894 52.882799999999996 54.9634 45.72573333333334 53.5386 37.21013333333334 45.45373333333333 31.511000000000003 37.10386666666667 33.16773333333333Z" class="hierarchical-1:primary "/><path d="M34.254133333333336 0.5301046666666667C18.316399999999998 3.37968 5.493306666666666 15.1756 1.4508866666666667 30.6826-0.007034733333333334 36.282333333333334-0.10643866666666667 39.56266666666667 0.0592344 83.00200000000001 0.158638 122.896 0.19177266666666667 123.824 0.8544666666666667 126.90533333333333 4.5324 143.506 16.328333333333337 155.33466666666666 33.0944 159.2446666666667 35.28126666666667 159.74200000000002 38.064600000000006 159.84133333333332 55.9904 159.94066666666666 74.546 160.07333333333332 76.46733333333334 160.04000000000002 76.96466666666667 159.54266666666666 77.46133333333333 159.046 77.49466666666667 152.65066666666667 77.49466666666667 80.15266666666668 77.49466666666667 26.4082 77.39533333333333 1.0933933333333332 77.16333333333334 0.6295080000000001 76.83200000000001 0.033086000000000004 76.26866666666668-0.00004862126666666667 56.851866666666666 0.03308593333333334 41.079800000000006 0.06622053333333335 36.34160000000001 0.16562400000000002 34.254133333333336 0.5301046666666667ZM64.24086666666666 147.184L50.75513333333333 147.01800000000003C38.32966666666667 146.88533333333336 37.004266666666666 146.81933333333333 34.519200000000005 146.19 23.849866666666667 143.43933333333334 15.930666666666669 135.222 13.710666666666667 124.52000000000001 12.981733333333334 121.17333333333333 12.981733333333334 38.73426666666666 13.677533333333333 35.45393333333333 15.6656 26.14313333333333 22.12686666666667 18.422800000000002 30.84126666666667 14.943666666666669 35.215 13.187533333333333 37.2362 12.988733333333334 51.4178 12.9556L64.24086666666666 12.922466666666667V147.184Z" class="hierarchical-1:primary "/></g>
  <g id="Regular-L" transform="matrix(1,0,0,1,1369.845,1440.77)">

  <path d="M93.39933333333333 80.05333333333333C93.39933333333333 36.2492 93.49866666666668 0.33134600000000003 93.63133333333334 0.23194199999999998 93.73066666666666 0.099404 100.35733333333333 0 108.31000000000002 0 119.84066666666666 0 123.41933333333333 0.099404 125.73866666666667 0.4970186666666667 143.03466666666668 3.479126666666667 156.18933333333334 16.501 159.46933333333334 33.764133333333334 159.93333333333334 36.18293333333333 160 41.848933333333335 160 79.854 160 120.45533333333334 160.048 125.23133333333334 158.768 129.61933333333334 158.54666666666668 130.37733333333333 158.286 131.12400000000002 157.97866666666667 132.04133333333334 157.41533333333334 133.66466666666668 156.322 136.28266666666667 155.49333333333334 137.84 149.032 150 137.17000000000002 158.18466666666666 123.71733333333334 159.70866666666666 120.53666666666668 160.04000000000002 94.824 160.1726666666667 93.92933333333333 159.84133333333332 93.432 159.64266666666668 93.39933333333333 152.31933333333333 93.39933333333333 80.05333333333333ZM140.15200000000002 82.73733333333334C138.42933333333332 77.70066666666666 134.18800000000002 73.75733333333334 129.01866666666666 72.39933333333333 120.73533333333333 70.24533333333333 112.12000000000002 75.01666666666667 109.63533333333334 83.13466666666667 108.80666666666669 85.71933333333334 108.77333333333333 89.96066666666667 109.50266666666667 92.47866666666667 111.92133333333334 100.696 120.73533333333333 105.69933333333334 129.01866666666666 103.54533333333335 134.12133333333335 102.18733333333333 138.098 98.50933333333334 140.11866666666668 93.274 141.21266666666668 90.42399999999999 141.24533333333335 85.852 140.15200000000002 82.73733333333334Z" class="hierarchical-1:primary "/><path d="M37.10386666666667 33.16773333333333C35.016333333333336 33.565333333333335 31.835466666666665 35.1558 30.1456 36.64686666666667 26.666466666666665 39.66206666666667 24.943466666666666 43.93646666666667 25.208533333333335 48.97286666666667 25.341066666666666 51.59053333333333 25.506733333333337 52.28633333333334 26.567066666666665 54.407 28.1244 57.621 30.47693333333333 59.973600000000005 33.691 61.56406666666667 35.911 62.657466666666664 36.47426666666667 62.79 39.357 62.8894 41.974666666666664 62.988800000000005 42.9024 62.8894 44.65853333333334 62.293 51.848733333333335 59.8742 56.1894 52.882799999999996 54.9634 45.72573333333334 53.5386 37.21013333333334 45.45373333333333 31.511000000000003 37.10386666666667 33.16773333333333Z" class="hierarchical-1:primary "/><path d="M34.254133333333336 0.5301046666666667C18.316399999999998 3.37968 5.493306666666666 15.1756 1.4508866666666667 30.6826-0.007034733333333334 36.282333333333334-0.10643866666666667 39.56266666666667 0.0592344 83.00200000000001 0.158638 122.896 0.19177266666666667 123.824 0.8544666666666667 126.90533333333333 4.5324 143.506 16.328333333333337 155.33466666666666 33.0944 159.2446666666667 35.28126666666667 159.74200000000002 38.064600000000006 159.84133333333332 55.9904 159.94066666666666 74.546 160.07333333333332 76.46733333333334 160.04000000000002 76.96466666666667 159.54266666666666 77.46133333333333 159.046 77.49466666666667 152.65066666666667 77.49466666666667 80.15266666666668 77.49466666666667 26.4082 77.39533333333333 1.0933933333333332 77.16333333333334 0.6295080000000001 76.83200000000001 0.033086000000000004 76.26866666666668-0.00004862126666666667 56.851866666666666 0.03308593333333334 41.079800000000006 0.06622053333333335 36.34160000000001 0.16562400000000002 34.254133333333336 0.5301046666666667ZM64.24086666666666 147.184L50.75513333333333 147.01800000000003C38.32966666666667 146.88533333333336 37.004266666666666 146.81933333333333 34.519200000000005 146.19 23.849866666666667 143.43933333333334 15.930666666666669 135.222 13.710666666666667 124.52000000000001 12.981733333333334 121.17333333333333 12.981733333333334 38.73426666666666 13.677533333333333 35.45393333333333 15.6656 26.14313333333333 22.12686666666667 18.422800000000002 30.84126666666667 14.943666666666669 35.215 13.187533333333333 37.2362 12.988733333333334 51.4178 12.9556L64.24086666666666 12.922466666666667V147.184Z" class="hierarchical-1:primary "/></g>
  <g id="Ultralight-L" transform="matrix(1,0,0,1,479.711,1440.77)">

  <path d="M93.39933333333333 80.05333333333333C93.39933333333333 36.2492 93.49866666666668 0.33134600000000003 93.63133333333334 0.23194199999999998 93.73066666666666 0.099404 100.35733333333333 0 108.31000000000002 0 119.84066666666666 0 123.41933333333333 0.099404 125.73866666666667 0.4970186666666667 143.03466666666668 3.479126666666667 156.18933333333334 16.501 159.46933333333334 33.764133333333334 159.93333333333334 36.18293333333333 160 41.848933333333335 160 79.854 160 120.45533333333334 160.048 125.23133333333334 158.768 129.61933333333334 158.54666666666668 130.37733333333333 158.286 131.12400000000002 157.97866666666667 132.04133333333334 157.41533333333334 133.66466666666668 156.322 136.28266666666667 155.49333333333334 137.84 149.032 150 137.17000000000002 158.18466666666666 123.71733333333334 159.70866666666666 120.53666666666668 160.04000000000002 94.824 160.1726666666667 93.92933333333333 159.84133333333332 93.432 159.64266666666668 93.39933333333333 152.31933333333333 93.39933333333333 80.05333333333333ZM140.15200000000002 82.73733333333334C138.42933333333332 77.70066666666666 134.18800000000002 73.75733333333334 129.01866666666666 72.39933333333333 120.73533333333333 70.24533333333333 112.12000000000002 75.01666666666667 109.63533333333334 83.13466666666667 108.80666666666669 85.71933333333334 108.77333333333333 89.96066666666667 109.50266666666667 92.47866666666667 111.92133333333334 100.696 120.73533333333333 105.69933333333334 129.01866666666666 103.54533333333335 134.12133333333335 102.18733333333333 138.098 98.50933333333334 140.11866666666668 93.274 141.21266666666668 90.42399999999999 141.24533333333335 85.852 140.15200000000002 82.73733333333334Z" class="hierarchical-1:primary "/><path d="M37.10386666666667 33.16773333333333C35.016333333333336 33.565333333333335 31.835466666666665 35.1558 30.1456 36.64686666666667 26.666466666666665 39.66206666666667 24.943466666666666 43.93646666666667 25.208533333333335 48.97286666666667 25.341066666666666 51.59053333333333 25.506733333333337 52.28633333333334 26.567066666666665 54.407 28.1244 57.621 30.47693333333333 59.973600000000005 33.691 61.56406666666667 35.911 62.657466666666664 36.47426666666667 62.79 39.357 62.8894 41.974666666666664 62.988800000000005 42.9024 62.8894 44.65853333333334 62.293 51.848733333333335 59.8742 56.1894 52.882799999999996 54.9634 45.72573333333334 53.5386 37.21013333333334 45.45373333333333 31.511000000000003 37.10386666666667 33.16773333333333Z" class="hierarchical-1:primary "/><path d="M34.254133333333336 0.5301046666666667C18.316399999999998 3.37968 5.493306666666666 15.1756 1.4508866666666667 30.6826-0.007034733333333334 36.282333333333334-0.10643866666666667 39.56266666666667 0.0592344 83.00200000000001 0.158638 122.896 0.19177266666666667 123.824 0.8544666666666667 126.90533333333333 4.5324 143.506 16.328333333333337 155.33466666666666 33.0944 159.2446666666667 35.28126666666667 159.74200000000002 38.064600000000006 159.84133333333332 55.9904 159.94066666666666 74.546 160.07333333333332 76.46733333333334 160.04000000000002 76.96466666666667 159.54266666666666 77.46133333333333 159.046 77.49466666666667 152.65066666666667 77.49466666666667 80.15266666666668 77.49466666666667 26.4082 77.39533333333333 1.0933933333333332 77.16333333333334 0.6295080000000001 76.83200000000001 0.033086000000000004 76.26866666666668-0.00004862126666666667 56.851866666666666 0.03308593333333334 41.079800000000006 0.06622053333333335 36.34160000000001 0.16562400000000002 34.254133333333336 0.5301046666666667ZM64.24086666666666 147.184L50.75513333333333 147.01800000000003C38.32966666666667 146.88533333333336 37.004266666666666 146.81933333333333 34.519200000000005 146.19 23.849866666666667 143.43933333333334 15.930666666666669 135.222 13.710666666666667 124.52000000000001 12.981733333333334 121.17333333333333 12.981733333333334 38.73426666666666 13.677533333333333 35.45393333333333 15.6656 26.14313333333333 22.12686666666667 18.422800000000002 30.84126666666667 14.943666666666669 35.215 13.187533333333333 37.2362 12.988733333333334 51.4178 12.9556L64.24086666666666 12.922466666666667V147.184Z" class="hierarchical-1:primary "/></g>
  <g id="Black-M" transform="matrix(1,0,0,1,2869.3999999999996,1026.77)">

  <path d="M74.71946666666666 64.04266666666666C74.71946666666666 28.99936 74.79893333333334 0.2650768 74.90506666666667 0.18555359999999999 74.98453333333333 0.07952319999999999 80.28586666666666 0 86.648 0 95.87253333333332 0 98.73546666666665 0.07952319999999999 100.59093333333334 0.3976149333333333 114.42773333333334 2.783301333333333 124.95146666666666 13.200800000000001 127.57546666666667 27.011306666666663 127.94666666666666 28.946346666666663 128 33.479146666666665 128 63.883199999999995 128 96.36426666666667 128.0384 100.18506666666667 127.0144 103.69546666666668 126.83733333333333 104.30186666666665 126.62879999999998 104.89920000000001 126.38293333333333 105.63306666666666 125.93226666666666 106.93173333333334 125.0576 109.02613333333332 124.39466666666667 110.27199999999999 119.2256 120 109.736 126.54773333333333 98.97386666666667 127.76693333333333 96.42933333333333 128.03199999999998 75.85919999999999 128.13813333333331 75.14346666666665 127.87306666666666 74.7456 127.71413333333334 74.71946666666666 121.85546666666666 74.71946666666666 64.04266666666666ZM112.1216 66.18986666666666C110.74346666666665 62.160533333333326 107.3504 59.00586666666666 103.21493333333332 57.919466666666665 96.58826666666666 56.19626666666666 89.696 60.01333333333333 87.70826666666666 66.50773333333333 87.04533333333333 68.57546666666667 87.01866666666666 71.96853333333333 87.60213333333333 73.98293333333334 89.53706666666666 80.5568 96.58826666666666 84.55946666666667 103.21493333333332 82.83626666666666 107.29706666666667 81.74986666666666 110.4784 78.80746666666667 112.09493333333333 74.61919999999999 112.97013333333332 72.33919999999999 112.99626666666667 68.6816 112.1216 66.18986666666666Z" class="hierarchical-1:primary "/><path d="M29.683093333333332 26.534186666666663C28.013066666666663 26.852266666666665 25.468373333333332 28.12464 24.11648 29.31749333333333 21.33317333333333 31.72965333333333 19.954773333333332 35.14917333333333 20.166826666666665 39.17829333333333 20.27285333333333 41.27242666666666 20.405386666666665 41.82906666666666 21.253653333333332 43.5256 22.499519999999997 46.0968 24.381546666666665 47.978880000000004 26.9528 49.25125333333333 28.7288 50.12597333333333 29.179413333333333 50.232 31.485599999999998 50.31152 33.57973333333333 50.391040000000004 34.32192 50.31152 35.72682666666667 49.834399999999995 41.478986666666664 47.89936 44.951519999999995 42.306239999999995 43.97072 36.58058666666666 42.83087999999999 29.768106666666668 36.362986666666664 25.2088 29.683093333333332 26.534186666666663Z" class="hierarchical-1:primary "/><path d="M27.403306666666666 0.42408373333333327C14.653119999999998 2.7037439999999995 4.394645333333333 12.140479999999998 1.1607093333333331 24.546079999999996-0.005627786666666666 29.025866666666666-0.08515093333333332 31.650133333333333 0.047387519999999995 66.4016 0.12691039999999998 98.3168 0.15341813333333332 99.05919999999999 0.6835733333333334 101.52426666666665 3.62592 114.8048 13.062666666666667 124.26773333333333 26.475519999999996 127.39573333333334 28.22501333333333 127.7936 30.45168 127.87306666666666 44.79232 127.95253333333332 59.6368 128.05866666666665 61.17386666666667 128.03199999999998 61.571733333333334 127.63413333333332 61.96906666666666 127.23679999999999 61.995733333333334 122.12053333333333 61.995733333333334 64.12213333333332 61.995733333333334 21.126559999999998 61.91626666666666 0.8747146666666665 61.730666666666664 0.5036064 61.4656 0.0264688 61.01493333333333-0.00003889701333333333 45.48149333333333 0.026468746666666668 32.863839999999996 0.052976426666666666 29.07328 0.13249919999999998 27.403306666666666 0.42408373333333327ZM51.39269333333333 117.74719999999999L40.60410666666667 117.6144C30.663733333333333 117.50826666666667 29.60341333333333 117.45546666666667 27.61536 116.952 19.07989333333333 114.75146666666666 12.744533333333333 108.1776 10.968533333333333 99.616 10.385386666666665 96.93866666666665 10.385386666666665 30.98741333333333 10.942026666666665 28.363146666666665 12.53248 20.914506666666664 17.70149333333333 14.73824 24.673013333333333 11.954933333333333 28.172 10.550026666666666 29.788959999999996 10.390986666666667 41.13424 10.36448L51.39269333333333 10.337973333333332V117.74719999999999Z" class="hierarchical-1:primary "/></g>
  <g id="Regular-M" transform="matrix(1,0,0,1,1385.845,1026.77)">

  <path d="M74.71946666666666 64.04266666666666C74.71946666666666 28.99936 74.79893333333334 0.2650768 74.90506666666667 0.18555359999999999 74.98453333333333 0.07952319999999999 80.28586666666666 0 86.648 0 95.87253333333332 0 98.73546666666665 0.07952319999999999 100.59093333333334 0.3976149333333333 114.42773333333334 2.783301333333333 124.95146666666666 13.200800000000001 127.57546666666667 27.011306666666663 127.94666666666666 28.946346666666663 128 33.479146666666665 128 63.883199999999995 128 96.36426666666667 128.0384 100.18506666666667 127.0144 103.69546666666668 126.83733333333333 104.30186666666665 126.62879999999998 104.89920000000001 126.38293333333333 105.63306666666666 125.93226666666666 106.93173333333334 125.0576 109.02613333333332 124.39466666666667 110.27199999999999 119.2256 120 109.736 126.54773333333333 98.97386666666667 127.76693333333333 96.42933333333333 128.03199999999998 75.85919999999999 128.13813333333331 75.14346666666665 127.87306666666666 74.7456 127.71413333333334 74.71946666666666 121.85546666666666 74.71946666666666 64.04266666666666ZM112.1216 66.18986666666666C110.74346666666665 62.160533333333326 107.3504 59.00586666666666 103.21493333333332 57.919466666666665 96.58826666666666 56.19626666666666 89.696 60.01333333333333 87.70826666666666 66.50773333333333 87.04533333333333 68.57546666666667 87.01866666666666 71.96853333333333 87.60213333333333 73.98293333333334 89.53706666666666 80.5568 96.58826666666666 84.55946666666667 103.21493333333332 82.83626666666666 107.29706666666667 81.74986666666666 110.4784 78.80746666666667 112.09493333333333 74.61919999999999 112.97013333333332 72.33919999999999 112.99626666666667 68.6816 112.1216 66.18986666666666Z" class="hierarchical-1:primary "/><path d="M29.683093333333332 26.534186666666663C28.013066666666663 26.852266666666665 25.468373333333332 28.12464 24.11648 29.31749333333333 21.33317333333333 31.72965333333333 19.954773333333332 35.14917333333333 20.166826666666665 39.17829333333333 20.27285333333333 41.27242666666666 20.405386666666665 41.82906666666666 21.253653333333332 43.5256 22.499519999999997 46.0968 24.381546666666665 47.978880000000004 26.9528 49.25125333333333 28.7288 50.12597333333333 29.179413333333333 50.232 31.485599999999998 50.31152 33.57973333333333 50.391040000000004 34.32192 50.31152 35.72682666666667 49.834399999999995 41.478986666666664 47.89936 44.951519999999995 42.306239999999995 43.97072 36.58058666666666 42.83087999999999 29.768106666666668 36.362986666666664 25.2088 29.683093333333332 26.534186666666663Z" class="hierarchical-1:primary "/><path d="M27.403306666666666 0.42408373333333327C14.653119999999998 2.7037439999999995 4.394645333333333 12.140479999999998 1.1607093333333331 24.546079999999996-0.005627786666666666 29.025866666666666-0.08515093333333332 31.650133333333333 0.047387519999999995 66.4016 0.12691039999999998 98.3168 0.15341813333333332 99.05919999999999 0.6835733333333334 101.52426666666665 3.62592 114.8048 13.062666666666667 124.26773333333333 26.475519999999996 127.39573333333334 28.22501333333333 127.7936 30.45168 127.87306666666666 44.79232 127.95253333333332 59.6368 128.05866666666665 61.17386666666667 128.03199999999998 61.571733333333334 127.63413333333332 61.96906666666666 127.23679999999999 61.995733333333334 122.12053333333333 61.995733333333334 64.12213333333332 61.995733333333334 21.126559999999998 61.91626666666666 0.8747146666666665 61.730666666666664 0.5036064 61.4656 0.0264688 61.01493333333333-0.00003889701333333333 45.48149333333333 0.026468746666666668 32.863839999999996 0.052976426666666666 29.07328 0.13249919999999998 27.403306666666666 0.42408373333333327ZM51.39269333333333 117.74719999999999L40.60410666666667 117.6144C30.663733333333333 117.50826666666667 29.60341333333333 117.45546666666667 27.61536 116.952 19.07989333333333 114.75146666666666 12.744533333333333 108.1776 10.968533333333333 99.616 10.385386666666665 96.93866666666665 10.385386666666665 30.98741333333333 10.942026666666665 28.363146666666665 12.53248 20.914506666666664 17.70149333333333 14.73824 24.673013333333333 11.954933333333333 28.172 10.550026666666666 29.788959999999996 10.390986666666667 41.13424 10.36448L51.39269333333333 10.337973333333332V117.74719999999999Z" class="hierarchical-1:primary "/></g>
  <g id="Ultralight-M" transform="matrix(1,0,0,1,495.711,1026.77)">

  <path d="M74.71946666666666 64.04266666666666C74.71946666666666 28.99936 74.79893333333334 0.2650768 74.90506666666667 0.18555359999999999 74.98453333333333 0.07952319999999999 80.28586666666666 0 86.648 0 95.87253333333332 0 98.73546666666665 0.07952319999999999 100.59093333333334 0.3976149333333333 114.42773333333334 2.783301333333333 124.95146666666666 13.200800000000001 127.57546666666667 27.011306666666663 127.94666666666666 28.946346666666663 128 33.479146666666665 128 63.883199999999995 128 96.36426666666667 128.0384 100.18506666666667 127.0144 103.69546666666668 126.83733333333333 104.30186666666665 126.62879999999998 104.89920000000001 126.38293333333333 105.63306666666666 125.93226666666666 106.93173333333334 125.0576 109.02613333333332 124.39466666666667 110.27199999999999 119.2256 120 109.736 126.54773333333333 98.97386666666667 127.76693333333333 96.42933333333333 128.03199999999998 75.85919999999999 128.13813333333331 75.14346666666665 127.87306666666666 74.7456 127.71413333333334 74.71946666666666 121.85546666666666 74.71946666666666 64.04266666666666ZM112.1216 66.18986666666666C110.74346666666665 62.160533333333326 107.3504 59.00586666666666 103.21493333333332 57.919466666666665 96.58826666666666 56.19626666666666 89.696 60.01333333333333 87.70826666666666 66.50773333333333 87.04533333333333 68.57546666666667 87.01866666666666 71.96853333333333 87.60213333333333 73.98293333333334 89.53706666666666 80.5568 96.58826666666666 84.55946666666667 103.21493333333332 82.83626666666666 107.29706666666667 81.74986666666666 110.4784 78.80746666666667 112.09493333333333 74.61919999999999 112.97013333333332 72.33919999999999 112.99626666666667 68.6816 112.1216 66.18986666666666Z" class="hierarchical-1:primary "/><path d="M29.683093333333332 26.534186666666663C28.013066666666663 26.852266666666665 25.468373333333332 28.12464 24.11648 29.31749333333333 21.33317333333333 31.72965333333333 19.954773333333332 35.14917333333333 20.166826666666665 39.17829333333333 20.27285333333333 41.27242666666666 20.405386666666665 41.82906666666666 21.253653333333332 43.5256 22.499519999999997 46.0968 24.381546666666665 47.978880000000004 26.9528 49.25125333333333 28.7288 50.12597333333333 29.179413333333333 50.232 31.485599999999998 50.31152 33.57973333333333 50.391040000000004 34.32192 50.31152 35.72682666666667 49.834399999999995 41.478986666666664 47.89936 44.951519999999995 42.306239999999995 43.97072 36.58058666666666 42.83087999999999 29.768106666666668 36.362986666666664 25.2088 29.683093333333332 26.534186666666663Z" class="hierarchical-1:primary "/><path d="M27.403306666666666 0.42408373333333327C14.653119999999998 2.7037439999999995 4.394645333333333 12.140479999999998 1.1607093333333331 24.546079999999996-0.005627786666666666 29.025866666666666-0.08515093333333332 31.650133333333333 0.047387519999999995 66.4016 0.12691039999999998 98.3168 0.15341813333333332 99.05919999999999 0.6835733333333334 101.52426666666665 3.62592 114.8048 13.062666666666667 124.26773333333333 26.475519999999996 127.39573333333334 28.22501333333333 127.7936 30.45168 127.87306666666666 44.79232 127.95253333333332 59.6368 128.05866666666665 61.17386666666667 128.03199999999998 61.571733333333334 127.63413333333332 61.96906666666666 127.23679999999999 61.995733333333334 122.12053333333333 61.995733333333334 64.12213333333332 61.995733333333334 21.126559999999998 61.91626666666666 0.8747146666666665 61.730666666666664 0.5036064 61.4656 0.0264688 61.01493333333333-0.00003889701333333333 45.48149333333333 0.026468746666666668 32.863839999999996 0.052976426666666666 29.07328 0.13249919999999998 27.403306666666666 0.42408373333333327ZM51.39269333333333 117.74719999999999L40.60410666666667 117.6144C30.663733333333333 117.50826666666667 29.60341333333333 117.45546666666667 27.61536 116.952 19.07989333333333 114.75146666666666 12.744533333333333 108.1776 10.968533333333333 99.616 10.385386666666665 96.93866666666665 10.385386666666665 30.98741333333333 10.942026666666665 28.363146666666665 12.53248 20.914506666666664 17.70149333333333 14.73824 24.673013333333333 11.954933333333333 28.172 10.550026666666666 29.788959999999996 10.390986666666667 41.13424 10.36448L51.39269333333333 10.337973333333332V117.74719999999999Z" class="hierarchical-1:primary "/></g>
  <g id="Black-S" transform="matrix(1,0,0,1,2885.3999999999996,612.7705000000001)">

  <path d="M56.0396 48.032C56.0396 21.74952 56.0992 0.1988076 56.1788 0.1391652 56.2384 0.0596424 60.2144 0 64.986 0 71.9044 0 74.0516 0.0596424 75.4432 0.2982112 85.8208 2.087476 93.7136 9.9006 95.6816 20.25848 95.96 21.70976 96 25.10936 96 47.9124 96 72.2732 96.0288 75.1388 95.2608 77.7716 95.128 78.2264 94.9716 78.6744 94.7872 79.2248 94.4492 80.1988 93.7932 81.7696 93.296 82.704 89.4192 90 82.302 94.9108 74.2304 95.8252 72.322 96.024 56.8944 96.1036 56.3576 95.9048 56.0592 95.7856 56.0396 91.3916 56.0396 48.032ZM84.0912 49.6424C83.0576 46.6204 80.5128 44.2544 77.4112 43.4396 72.4412 42.1472 67.272 45.01 65.7812 49.8808 65.284 51.4316 65.264 53.9764 65.7016 55.4872 67.1528 60.4176 72.4412 63.4196 77.4112 62.1272 80.4728 61.3124 82.8588 59.1056 84.0712 55.9644 84.7276 54.2544 84.7472 51.5112 84.0912 49.6424Z" class="hierarchical-1:primary "/><path d="M22.26232 19.90064C21.0098 20.1392 19.10128 21.09348 18.08736 21.98812 15.99988 23.79724 14.96608 26.36188 15.12512 29.38372 15.20464 30.95432 15.30404 31.3718 15.94024 32.6442 16.87464 34.5726 18.28616 35.98416 20.2146 36.93844 21.5466 37.59448 21.88456 37.674 23.6142 37.73364 25.1848 37.79328 25.74144 37.73364 26.79512 37.3758 31.10924 35.92452 33.71364 31.72968 32.97804 27.43544 32.12316 22.32608 27.27224 18.9066 22.26232 19.90064Z" class="hierarchical-1:primary "/><path d="M20.55248 0.3180628C10.98984 2.027808 3.295984 9.10536 0.870532 18.40956-0.00422084 21.7694-0.0638632 23.7376 0.03554064 49.8012 0.0951828 73.7376 0.1150636 74.2944 0.51268 76.1432 2.71944 86.1036 9.797 93.2008 19.85664 95.5468 21.16876 95.8452 22.83876 95.9048 33.59424 95.9644 44.7276 96.044 45.8804 96.024 46.1788 95.7256 46.4768 95.4276 46.4968 91.5904 46.4968 48.0916 46.4968 15.84492 46.4372 0.656036 46.298 0.3777048 46.0992 0.0198516 45.7612-0.00002917276 34.11112 0.01985156 24.64788 0.03973232 21.80496 0.0993744 20.55248 0.3180628ZM38.54452 88.3104L30.45308 88.2108C22.9978 88.1312 22.20256 88.0916 20.71152 87.714 14.30992 86.0636 9.5584 81.1332 8.2264 74.712 7.78904 72.704 7.78904 23.24056 8.20652 21.27236 9.39936 15.68588 13.27612 11.05368 18.50476 8.9662 21.129 7.91252 22.34172 7.79324 30.85068 7.77336L38.54452 7.75348V88.3104Z" class="hierarchical-1:primary "/></g>
  <g id="Regular-S" transform="matrix(1,0,0,1,1401.845,612.7705000000001)">

  <path d="M56.0396 48.032C56.0396 21.74952 56.0992 0.1988076 56.1788 0.1391652 56.2384 0.0596424 60.2144 0 64.986 0 71.9044 0 74.0516 0.0596424 75.4432 0.2982112 85.8208 2.087476 93.7136 9.9006 95.6816 20.25848 95.96 21.70976 96 25.10936 96 47.9124 96 72.2732 96.0288 75.1388 95.2608 77.7716 95.128 78.2264 94.9716 78.6744 94.7872 79.2248 94.4492 80.1988 93.7932 81.7696 93.296 82.704 89.4192 90 82.302 94.9108 74.2304 95.8252 72.322 96.024 56.8944 96.1036 56.3576 95.9048 56.0592 95.7856 56.0396 91.3916 56.0396 48.032ZM84.0912 49.6424C83.0576 46.6204 80.5128 44.2544 77.4112 43.4396 72.4412 42.1472 67.272 45.01 65.7812 49.8808 65.284 51.4316 65.264 53.9764 65.7016 55.4872 67.1528 60.4176 72.4412 63.4196 77.4112 62.1272 80.4728 61.3124 82.8588 59.1056 84.0712 55.9644 84.7276 54.2544 84.7472 51.5112 84.0912 49.6424Z" class="hierarchical-1:primary "/><path d="M22.26232 19.90064C21.0098 20.1392 19.10128 21.09348 18.08736 21.98812 15.99988 23.79724 14.96608 26.36188 15.12512 29.38372 15.20464 30.95432 15.30404 31.3718 15.94024 32.6442 16.87464 34.5726 18.28616 35.98416 20.2146 36.93844 21.5466 37.59448 21.88456 37.674 23.6142 37.73364 25.1848 37.79328 25.74144 37.73364 26.79512 37.3758 31.10924 35.92452 33.71364 31.72968 32.97804 27.43544 32.12316 22.32608 27.27224 18.9066 22.26232 19.90064Z" class="hierarchical-1:primary "/><path d="M20.55248 0.3180628C10.98984 2.027808 3.295984 9.10536 0.870532 18.40956-0.00422084 21.7694-0.0638632 23.7376 0.03554064 49.8012 0.0951828 73.7376 0.1150636 74.2944 0.51268 76.1432 2.71944 86.1036 9.797 93.2008 19.85664 95.5468 21.16876 95.8452 22.83876 95.9048 33.59424 95.9644 44.7276 96.044 45.8804 96.024 46.1788 95.7256 46.4768 95.4276 46.4968 91.5904 46.4968 48.0916 46.4968 15.84492 46.4372 0.656036 46.298 0.3777048 46.0992 0.0198516 45.7612-0.00002917276 34.11112 0.01985156 24.64788 0.03973232 21.80496 0.0993744 20.55248 0.3180628ZM38.54452 88.3104L30.45308 88.2108C22.9978 88.1312 22.20256 88.0916 20.71152 87.714 14.30992 86.0636 9.5584 81.1332 8.2264 74.712 7.78904 72.704 7.78904 23.24056 8.20652 21.27236 9.39936 15.68588 13.27612 11.05368 18.50476 8.9662 21.129 7.91252 22.34172 7.79324 30.85068 7.77336L38.54452 7.75348V88.3104Z" class="hierarchical-1:primary "/></g>
  <g id="Ultralight-S" transform="matrix(1,0,0,1,511.711,612.7705000000001)">

  <path d="M56.0396 48.032C56.0396 21.74952 56.0992 0.1988076 56.1788 0.1391652 56.2384 0.0596424 60.2144 0 64.986 0 71.9044 0 74.0516 0.0596424 75.4432 0.2982112 85.8208 2.087476 93.7136 9.9006 95.6816 20.25848 95.96 21.70976 96 25.10936 96 47.9124 96 72.2732 96.0288 75.1388 95.2608 77.7716 95.128 78.2264 94.9716 78.6744 94.7872 79.2248 94.4492 80.1988 93.7932 81.7696 93.296 82.704 89.4192 90 82.302 94.9108 74.2304 95.8252 72.322 96.024 56.8944 96.1036 56.3576 95.9048 56.0592 95.7856 56.0396 91.3916 56.0396 48.032ZM84.0912 49.6424C83.0576 46.6204 80.5128 44.2544 77.4112 43.4396 72.4412 42.1472 67.272 45.01 65.7812 49.8808 65.284 51.4316 65.264 53.9764 65.7016 55.4872 67.1528 60.4176 72.4412 63.4196 77.4112 62.1272 80.4728 61.3124 82.8588 59.1056 84.0712 55.9644 84.7276 54.2544 84.7472 51.5112 84.0912 49.6424Z" class="hierarchical-1:primary "/><path d="M22.26232 19.90064C21.0098 20.1392 19.10128 21.09348 18.08736 21.98812 15.99988 23.79724 14.96608 26.36188 15.12512 29.38372 15.20464 30.95432 15.30404 31.3718 15.94024 32.6442 16.87464 34.5726 18.28616 35.98416 20.2146 36.93844 21.5466 37.59448 21.88456 37.674 23.6142 37.73364 25.1848 37.79328 25.74144 37.73364 26.79512 37.3758 31.10924 35.92452 33.71364 31.72968 32.97804 27.43544 32.12316 22.32608 27.27224 18.9066 22.26232 19.90064Z" class="hierarchical-1:primary "/><path d="M20.55248 0.3180628C10.98984 2.027808 3.295984 9.10536 0.870532 18.40956-0.00422084 21.7694-0.0638632 23.7376 0.03554064 49.8012 0.0951828 73.7376 0.1150636 74.2944 0.51268 76.1432 2.71944 86.1036 9.797 93.2008 19.85664 95.5468 21.16876 95.8452 22.83876 95.9048 33.59424 95.9644 44.7276 96.044 45.8804 96.024 46.1788 95.7256 46.4768 95.4276 46.4968 91.5904 46.4968 48.0916 46.4968 15.84492 46.4372 0.656036 46.298 0.3777048 46.0992 0.0198516 45.7612-0.00002917276 34.11112 0.01985156 24.64788 0.03973232 21.80496 0.0993744 20.55248 0.3180628ZM38.54452 88.3104L30.45308 88.2108C22.9978 88.1312 22.20256 88.0916 20.71152 87.714 14.30992 86.0636 9.5584 81.1332 8.2264 74.712 7.78904 72.704 7.78904 23.24056 8.20652 21.27236 9.39936 15.68588 13.27612 11.05368 18.50476 8.9662 21.129 7.91252 22.34172 7.79324 30.85068 7.77336L38.54452 7.75348V88.3104Z" class="hierarchical-1:primary "/></g>
 </g>
</svg>