<svg width="24" height="24" viewBox="0 0 24 24" fill="none" xmlns="http://www.w3.org/2000/svg">
<g clip-path="url(#clip0_231_110)">
<path d="M12 24C18.6274 24 24 18.6274 24 12C24 5.37258 18.6274 0 12 0C5.37258 0 0 5.37258 0 12C0 18.6274 5.37258 24 12 24Z" fill="url(#paint0_linear_231_110)"/>
<g clip-path="url(#clip1_231_110)">
<path d="M14.963 13.0342C14.8808 13.0264 14.7985 13.0146 14.7202 13.0029C14.8025 13.0146 14.8847 13.0225 14.963 13.0342Z" fill="white"/>
<path d="M12.0297 11.3814C11.3913 10.1399 9.65236 7.8252 8.03485 6.6855C6.48783 5.58888 5.89644 5.78079 5.50871 5.95311C5.06223 6.15677 4.97998 6.84608 4.97998 7.24948C4.97998 7.65288 5.20322 10.5707 5.34813 11.0563C5.82594 12.6621 7.52962 13.2065 9.09622 13.0341C9.17455 13.0224 9.2568 13.0106 9.33904 13.0028C9.2568 13.0146 9.17847 13.0263 9.09622 13.0341C6.79724 13.3749 4.75674 14.213 7.43563 17.1935C10.3808 20.2444 11.4696 16.5394 12.0297 14.6634C12.5897 16.5394 13.236 20.1113 16.5728 17.1935C19.0794 14.6634 17.2621 13.3749 14.9631 13.0341C14.8809 13.0263 14.7986 13.0146 14.7203 13.0028C14.8026 13.0146 14.8848 13.0224 14.9631 13.0341C16.5297 13.2104 18.2334 12.666 18.7112 11.0563C18.8561 10.5707 19.0794 7.65679 19.0794 7.24948C19.0794 6.84216 18.9971 6.15677 18.5507 5.95311C18.1629 5.77687 17.5715 5.58888 16.0245 6.68158C14.407 7.82128 12.6681 10.1359 12.0297 11.3775V11.3814Z" fill="white"/>
</g>
</g>
<defs>
<linearGradient id="paint0_linear_231_110" x1="12" y1="0" x2="12" y2="24" gradientUnits="userSpaceOnUse">
<stop stop-color="#0088FE"/>
<stop offset="1" stop-color="#59B9FF"/>
</linearGradient>
<clipPath id="clip0_231_110">
<rect width="24" height="24" fill="white"/>
</clipPath>
<clipPath id="clip1_231_110">
<rect width="14.0994" height="12.5328" fill="white" transform="translate(4.97998 5.82001)"/>
</clipPath>
</defs>
</svg>
