<svg width="16" height="16" viewBox="0 0 16 16" fill="none" xmlns="http://www.w3.org/2000/svg">
<g clip-path="url(#clip0_231_110)">
<path d="M8 16C12.4183 16 16 12.4183 16 8C16 3.58172 12.4183 0 8 0C3.58172 0 0 3.58172 0 8C0 12.4183 3.58172 16 8 16Z" fill="url(#paint0_linear_231_110)"/>
<g clip-path="url(#clip1_231_110)">
<path d="M9.97536 8.6895C9.92053 8.68428 9.8657 8.67644 9.81348 8.66861C9.86831 8.67644 9.92314 8.68166 9.97536 8.6895Z" fill="white"/>
<path d="M8.01962 7.58748C7.59403 6.75979 6.43475 5.21669 5.3564 4.45689C4.32506 3.72581 3.9308 3.85375 3.67231 3.96863C3.37466 4.1044 3.31982 4.56394 3.31982 4.83287C3.31982 5.1018 3.46865 7.047 3.56526 7.37076C3.8838 8.44127 5.01959 8.8042 6.06399 8.68932C6.11621 8.68149 6.17104 8.67365 6.22587 8.66843C6.17104 8.67626 6.11882 8.6841 6.06399 8.68932C4.53133 8.91648 3.171 9.47523 4.95692 11.4622C6.92039 13.4962 7.64625 11.0262 8.01962 9.77549C8.393 11.0262 8.82381 13.4074 11.0484 11.4622C12.7194 9.77549 11.5079 8.91648 9.97526 8.68932C9.92043 8.6841 9.8656 8.67626 9.81338 8.66843C9.86821 8.67626 9.92304 8.68149 9.97526 8.68932C11.0197 8.80681 12.1554 8.44388 12.474 7.37076C12.5706 7.047 12.7194 5.10442 12.7194 4.83287C12.7194 4.56133 12.6646 4.1044 12.3669 3.96863C12.1085 3.85114 11.7142 3.72581 10.6828 4.45428C9.6045 5.21408 8.44522 6.75718 8.01962 7.58487V7.58748Z" fill="white"/>
</g>
</g>
<defs>
<linearGradient id="paint0_linear_231_110" x1="8" y1="0" x2="8" y2="16" gradientUnits="userSpaceOnUse">
<stop stop-color="#0088FE"/>
<stop offset="1" stop-color="#59B9FF"/>
</linearGradient>
<clipPath id="clip0_231_110">
<rect width="16" height="16" fill="white"/>
</clipPath>
<clipPath id="clip1_231_110">
<rect width="9.3996" height="8.3552" fill="white" transform="translate(3.31982 3.88)"/>
</clipPath>
</defs>
</svg>
