<svg width="24" height="24" viewBox="0 0 24 24" fill="none" xmlns="http://www.w3.org/2000/svg">
<path d="M7.47094 6C7.2431 6 7.02762 6.10357 6.88529 6.28148L2.31047 12H9C9.41422 12 9.75 12.3358 9.75 12.75C9.75 13.9926 10.7574 15 12 15C13.2426 15 14.25 13.9926 14.25 12.75C14.25 12.3358 14.5858 12 15 12H21.6895L17.1147 6.28148C16.9724 6.10357 16.7569 6 16.5291 6H7.47094ZM22.4004 13.5H15.675C15.3275 15.2117 13.8142 16.5 12 16.5C10.1858 16.5 8.67247 15.2117 8.32502 13.5H1.59959L2.07997 17.343C2.12688 17.7183 2.44593 18 2.82418 18H21.1758C21.5541 18 21.8731 17.7183 21.92 17.343L22.4004 13.5ZM5.71399 5.34444C6.14097 4.8107 6.78743 4.5 7.47094 4.5H16.5291C17.2126 4.5 17.859 4.8107 18.286 5.34444L23.8357 12.2815C23.9621 12.4396 24.0193 12.6421 23.9942 12.843L23.4085 17.5291C23.2677 18.655 22.3106 19.5 21.1758 19.5H2.82418C1.68945 19.5 0.732297 18.655 0.591551 17.5291L0.00579469 12.843C-0.0193192 12.6421 0.0378665 12.4396 0.164351 12.2815L5.71399 5.34444Z" fill="white"/>
</svg>
