<svg width="24" height="24" viewBox="0 0 24 24" fill="none" xmlns="http://www.w3.org/2000/svg">
<path d="M0 1.5C0 0.671573 0.671573 0 1.5 0H22.5C23.3284 0 24 0.671573 24 1.5V22.5C24 23.3284 23.3284 24 22.5 24H1.5C0.671573 24 0 23.3284 0 22.5V1.5ZM6 1.5V10.5H18V1.5H6ZM18 13.5H6V22.5H18V13.5ZM1.5 1.5V4.5H4.5V1.5H1.5ZM4.5 6H1.5V9H4.5V6ZM1.5 10.5V13.5H4.5V10.5H1.5ZM4.5 15H1.5V18H4.5V15ZM1.5 19.5V22.5H4.5V19.5H1.5ZM22.5 1.5H19.5V4.5H22.5V1.5ZM19.5 6V9H22.5V6H19.5ZM22.5 10.5H19.5V13.5H22.5V10.5ZM19.5 15V18H22.5V15H19.5ZM22.5 19.5H19.5V22.5H22.5V19.5Z" fill="white"/>
</svg>
