<svg width="24" height="24" viewBox="0 0 24 24" fill="none" xmlns="http://www.w3.org/2000/svg">
<path d="M9.48208 9.02342C9.07734 8.75475 7.7324 7.821 7.7324 7.821C8.86648 6.19879 10.3625 5.56726 12.4304 5.56726C13.8928 5.56726 15.1345 6.05921 16.0211 6.99025C16.908 7.92162 17.4139 9.25347 17.529 10.9566C18.0207 11.1623 18.4747 11.4045 18.8869 11.6817C20.5493 12.7998 21.4647 14.4714 21.4647 16.388C21.4647 20.4615 18.1256 24 12.0813 24C6.89168 24 1.5 20.9809 1.5 11.991C1.5 3.0523 6.72258 0 12.0667 0C14.5346 0 20.3232 0.364555 22.5 7.55334L20.4586 8.08289C18.7755 2.96116 15.2466 2.146 12.011 2.146C6.66248 2.146 3.63711 5.40294 3.63711 12.3322C3.63711 18.5452 7.01867 21.8459 12.082 21.8459C16.2476 21.8459 19.3534 19.6809 19.3534 16.5117C19.3534 14.3549 17.5412 13.3222 17.4485 13.3222C17.0947 15.1727 16.146 18.2857 11.9815 18.2857C9.55509 18.2857 7.46313 16.6096 7.46313 14.4135C7.46313 11.2775 10.4379 10.1425 12.7872 10.1425C13.667 10.1425 14.7288 10.2018 15.2816 10.3143C15.2816 9.3585 14.4731 7.72274 12.4307 7.72274C10.5581 7.7224 10.0831 8.32989 9.48208 9.02342ZM13.0745 12.2844C10.0142 12.2844 9.61824 13.5892 9.61824 14.4087C9.61824 15.7253 11.1825 16.1617 12.0171 16.1617C13.5471 16.1617 15.1189 15.7375 15.3661 12.526C14.5902 12.3519 14.012 12.2844 13.0745 12.2844Z" fill="white"/>
</svg>
