<svg width="24" height="24" viewBox="0 0 24 24" fill="none" xmlns="http://www.w3.org/2000/svg">
<path d="M10.2137 13.8066C10.2137 13.1919 10.5106 12.2133 12.8059 12.2133C13.509 12.2133 13.9427 12.2639 14.5246 12.3945C14.3392 14.8032 13.1604 15.1213 12.0129 15.1213C11.3869 15.1213 10.2137 14.794 10.2137 13.8066Z" fill="black"/>
<path d="M3.885 24H20.115C22.2605 24 24 22.2605 24 20.115V3.885C24 1.7395 22.2605 0 20.115 0H3.885C1.7395 0 0 1.7395 0 3.885V20.115C0 22.2605 1.7395 24 3.885 24ZM8.7993 8.86575C9.64986 7.6491 10.7719 7.17544 12.3228 7.17544C13.4196 7.17544 14.3509 7.5444 15.0158 8.24268C15.681 8.94122 16.0604 9.9401 16.1468 11.2175C16.5155 11.3717 16.856 11.5534 17.1652 11.7613C18.412 12.5998 19.0985 13.8536 19.0985 15.291C19.0985 18.3461 16.5942 21 12.061 21C8.16876 21 4.125 18.7357 4.125 11.9933C4.125 5.28923 8.04194 3 12.05 3C13.9009 3 18.2424 3.27342 19.875 8.665L18.344 9.06217C17.0816 5.22087 14.4349 4.6095 12.0083 4.6095C7.99686 4.6095 5.72783 7.0522 5.72783 12.2491C5.72783 16.9089 8.264 19.3844 12.0615 19.3844C15.1857 19.3844 17.5151 17.7607 17.5151 15.3838C17.5151 13.7662 16.1559 12.9916 16.0864 12.9916C15.8211 14.3796 15.1095 16.7143 11.9861 16.7143C10.1663 16.7143 8.59735 15.4572 8.59735 13.8101C8.59735 11.4581 10.8284 10.6069 12.5904 10.6069C13.2503 10.6069 14.0466 10.6513 14.4612 10.7357C14.4612 10.0189 13.8548 8.79206 12.323 8.79206C10.9553 8.79181 10.5816 9.22393 10.1467 9.72695C10.135 9.74044 10.1233 9.75398 10.1116 9.76757C9.80801 9.56606 8.7993 8.86575 8.7993 8.86575Z" fill="black"/>
</svg>
