<svg xmlns="http://www.w3.org/2000/svg" xmlns:xlink="http://www.w3.org/1999/xlink" version="1.1" width="3300" height="2200">
 <!--glyph: "", point size: 100.0, font version: "17.1d1e1", template writer version: "65.1"-->
<style>

.hierarchical-1:primary {fill:#262626;}
.SFSymbolsPreview262626 {fill:#262626;}
</style>
 <g id="Notes">
  <rect height="2200" id="artboard" style="fill:white;opacity:1" width="3300" x="0" y="0"/>
  <line style="fill:none;stroke:black;opacity:1;stroke-width:0.5;" x1="263" x2="3036" y1="292" y2="292"/>
  <text style="stroke:none;fill:black;font-family:sans-serif;font-size:13;font-weight:bold;" transform="matrix(1 0 0 1 263 322)">Weight/Scale Variations</text>
  <text style="stroke:none;fill:black;font-family:sans-serif;font-size:13;text-anchor:middle;" transform="matrix(1 0 0 1 559.711 322)">Ultralight</text>
  <text style="stroke:none;fill:black;font-family:sans-serif;font-size:13;text-anchor:middle;" transform="matrix(1 0 0 1 856.422 322)">Thin</text>
  <text style="stroke:none;fill:black;font-family:sans-serif;font-size:13;text-anchor:middle;" transform="matrix(1 0 0 1 1153.13 322)">Light</text>
  <text style="stroke:none;fill:black;font-family:sans-serif;font-size:13;text-anchor:middle;" transform="matrix(1 0 0 1 1449.84 322)">Regular</text>
  <text style="stroke:none;fill:black;font-family:sans-serif;font-size:13;text-anchor:middle;" transform="matrix(1 0 0 1 1746.56 322)">Medium</text>
  <text style="stroke:none;fill:black;font-family:sans-serif;font-size:13;text-anchor:middle;" transform="matrix(1 0 0 1 2043.27 322)">Semibold</text>
  <text style="stroke:none;fill:black;font-family:sans-serif;font-size:13;text-anchor:middle;" transform="matrix(1 0 0 1 2339.98 322)">Bold</text>
  <text style="stroke:none;fill:black;font-family:sans-serif;font-size:13;text-anchor:middle;" transform="matrix(1 0 0 1 2636.69 322)">Heavy</text>
  <text style="stroke:none;fill:black;font-family:sans-serif;font-size:13;text-anchor:middle;" transform="matrix(1 0 0 1 2933.4 322)">Black</text>
  <line style="fill:none;stroke:black;opacity:1;stroke-width:0.5;" x1="263" x2="3036" y1="1903" y2="1903"/>
  <g transform="matrix(1 0 0 1 263 1933)">
   <path d="M9.24805 0.830078Q10.8691 0.830078 12.2949 0.214844Q13.7207-0.400391 14.8096-1.49414Q15.8984-2.58789 16.5186-4.01367Q17.1387-5.43945 17.1387-7.05078Q17.1387-8.66211 16.5186-10.0879Q15.8984-11.5137 14.8047-12.6074Q13.7109-13.7012 12.2852-14.3164Q10.8594-14.9316 9.23828-14.9316Q7.62695-14.9316 6.20117-14.3164Q4.77539-13.7012 3.69141-12.6074Q2.60742-11.5137 1.9873-10.0879Q1.36719-8.66211 1.36719-7.05078Q1.36719-5.43945 1.9873-4.01367Q2.60742-2.58789 3.69629-1.49414Q4.78516-0.400391 6.21094 0.214844Q7.63672 0.830078 9.24805 0.830078ZM9.24805-0.654297Q7.91992-0.654297 6.7627-1.14746Q5.60547-1.64062 4.73145-2.51953Q3.85742-3.39844 3.36426-4.56055Q2.87109-5.72266 2.87109-7.05078Q2.87109-8.37891 3.35938-9.54102Q3.84766-10.7031 4.72168-11.582Q5.5957-12.4609 6.75293-12.9541Q7.91016-13.4473 9.23828-13.4473Q10.5762-13.4473 11.7334-12.9541Q12.8906-12.4609 13.7695-11.582Q14.6484-10.7031 15.1465-9.54102Q15.6445-8.37891 15.6445-7.05078Q15.6445-5.72266 15.1514-4.56055Q14.6582-3.39844 13.7842-2.51953Q12.9102-1.64062 11.748-1.14746Q10.5859-0.654297 9.24805-0.654297ZM5.6543-7.05078Q5.6543-6.72852 5.85938-6.52832Q6.06445-6.32812 6.40625-6.32812L8.51562-6.32812L8.51562-4.20898Q8.51562-3.88672 8.71094-3.67676Q8.90625-3.4668 9.23828-3.4668Q9.56055-3.4668 9.77051-3.67676Q9.98047-3.88672 9.98047-4.20898L9.98047-6.32812L12.0898-6.32812Q12.4219-6.32812 12.627-6.52832Q12.832-6.72852 12.832-7.05078Q12.832-7.38281 12.627-7.58789Q12.4219-7.79297 12.0898-7.79297L9.98047-7.79297L9.98047-9.90234Q9.98047-10.2344 9.77051-10.4443Q9.56055-10.6543 9.23828-10.6543Q8.90625-10.6543 8.71094-10.4443Q8.51562-10.2344 8.51562-9.90234L8.51562-7.79297L6.40625-7.79297Q6.06445-7.79297 5.85938-7.58789Q5.6543-7.38281 5.6543-7.05078Z"/>
  </g>
  <g transform="matrix(1 0 0 1 281.867 1933)">
   <path d="M11.709 2.91016Q13.75 2.91016 15.5518 2.12891Q17.3535 1.34766 18.7305-0.0292969Q20.1074-1.40625 20.8887-3.20801Q21.6699-5.00977 21.6699-7.05078Q21.6699-9.0918 20.8887-10.8936Q20.1074-12.6953 18.7305-14.0723Q17.3535-15.4492 15.5469-16.2305Q13.7402-17.0117 11.6992-17.0117Q9.6582-17.0117 7.85645-16.2305Q6.05469-15.4492 4.68262-14.0723Q3.31055-12.6953 2.5293-10.8936Q1.74805-9.0918 1.74805-7.05078Q1.74805-5.00977 2.5293-3.20801Q3.31055-1.40625 4.6875-0.0292969Q6.06445 1.34766 7.86621 2.12891Q9.66797 2.91016 11.709 2.91016ZM11.709 1.25Q9.98047 1.25 8.47656 0.605469Q6.97266-0.0390625 5.83496-1.17676Q4.69727-2.31445 4.05762-3.81836Q3.41797-5.32227 3.41797-7.05078Q3.41797-8.7793 4.05762-10.2832Q4.69727-11.7871 5.83008-12.9297Q6.96289-14.0723 8.4668-14.7119Q9.9707-15.3516 11.6992-15.3516Q13.4277-15.3516 14.9316-14.7119Q16.4355-14.0723 17.5781-12.9297Q18.7207-11.7871 19.3652-10.2832Q20.0098-8.7793 20.0098-7.05078Q20.0098-5.32227 19.3701-3.81836Q18.7305-2.31445 17.5928-1.17676Q16.4551-0.0390625 14.9463 0.605469Q13.4375 1.25 11.709 1.25ZM7.17773-7.05078Q7.17773-6.69922 7.41211-6.47461Q7.64648-6.25 8.01758-6.25L10.8887-6.25L10.8887-3.36914Q10.8887-2.99805 11.1133-2.76855Q11.3379-2.53906 11.6895-2.53906Q12.0605-2.53906 12.29-2.76855Q12.5195-2.99805 12.5195-3.36914L12.5195-6.25L15.4004-6.25Q15.7715-6.25 16.001-6.47461Q16.2305-6.69922 16.2305-7.05078Q16.2305-7.42188 16.001-7.65137Q15.7715-7.88086 15.4004-7.88086L12.5195-7.88086L12.5195-10.752Q12.5195-11.1328 12.29-11.3623Q12.0605-11.5918 11.6895-11.5918Q11.3379-11.5918 11.1133-11.3574Q10.8887-11.123 10.8887-10.752L10.8887-7.88086L8.01758-7.88086Q7.63672-7.88086 7.40723-7.65137Q7.17773-7.42188 7.17773-7.05078Z"/>
  </g>
  <g transform="matrix(1 0 0 1 305.646 1933)">
   <path d="M14.9707 5.66406Q17.0605 5.66406 18.96 5.01465Q20.8594 4.36523 22.4512 3.19336Q24.043 2.02148 25.2197 0.429688Q26.3965-1.16211 27.0459-3.06641Q27.6953-4.9707 27.6953-7.05078Q27.6953-9.14062 27.0459-11.04Q26.3965-12.9395 25.2197-14.5312Q24.043-16.123 22.4512-17.2998Q20.8594-18.4766 18.9551-19.126Q17.0508-19.7754 14.9609-19.7754Q12.8711-19.7754 10.9717-19.126Q9.07227-18.4766 7.48535-17.2998Q5.89844-16.123 4.72168-14.5312Q3.54492-12.9395 2.90039-11.04Q2.25586-9.14062 2.25586-7.05078Q2.25586-4.9707 2.90527-3.06641Q3.55469-1.16211 4.72656 0.429688Q5.89844 2.02148 7.49023 3.19336Q9.08203 4.36523 10.9814 5.01465Q12.8809 5.66406 14.9707 5.66406ZM14.9707 3.84766Q13.1641 3.84766 11.5283 3.2959Q9.89258 2.74414 8.53516 1.74805Q7.17773 0.751953 6.17676-0.610352Q5.17578-1.97266 4.62891-3.6084Q4.08203-5.24414 4.08203-7.05078Q4.08203-8.86719 4.62891-10.5029Q5.17578-12.1387 6.17188-13.501Q7.16797-14.8633 8.52539-15.8594Q9.88281-16.8555 11.5186-17.4023Q13.1543-17.9492 14.9609-17.9492Q16.7773-17.9492 18.4131-17.4023Q20.0488-16.8555 21.4111-15.8594Q22.7734-14.8633 23.7695-13.501Q24.7656-12.1387 25.3174-10.5029Q25.8691-8.86719 25.8691-7.05078Q25.8789-5.24414 25.332-3.6084Q24.7852-1.97266 23.7842-0.610352Q22.7832 0.751953 21.4209 1.74805Q20.0586 2.74414 18.4229 3.2959Q16.7871 3.84766 14.9707 3.84766ZM9.19922-7.05078Q9.19922-6.66992 9.45801-6.4209Q9.7168-6.17188 10.1172-6.17188L14.0625-6.17188L14.0625-2.2168Q14.0625-1.81641 14.3115-1.55762Q14.5605-1.29883 14.9512-1.29883Q15.3516-1.29883 15.6104-1.55273Q15.8691-1.80664 15.8691-2.2168L15.8691-6.17188L19.8242-6.17188Q20.2246-6.17188 20.4785-6.4209Q20.7324-6.66992 20.7324-7.05078Q20.7324-7.46094 20.4785-7.71484Q20.2246-7.96875 19.8242-7.96875L15.8691-7.96875L15.8691-11.9141Q15.8691-12.3242 15.6104-12.583Q15.3516-12.8418 14.9512-12.8418Q14.5605-12.8418 14.3115-12.583Q14.0625-12.3242 14.0625-11.9141L14.0625-7.96875L10.1172-7.96875Q9.70703-7.96875 9.45312-7.71484Q9.19922-7.46094 9.19922-7.05078Z"/>
  </g>
  <text style="stroke:none;fill:black;font-family:sans-serif;font-size:13;font-weight:bold;" transform="matrix(1 0 0 1 263 1953)">Design Variations</text>
  <text style="stroke:none;fill:black;font-family:sans-serif;font-size:13;" transform="matrix(1 0 0 1 263 1971)">Symbols are supported in up to nine weights and three scales.</text>
  <text style="stroke:none;fill:black;font-family:sans-serif;font-size:13;" transform="matrix(1 0 0 1 263 1989)">For optimal layout with text and other symbols, vertically align</text>
  <text style="stroke:none;fill:black;font-family:sans-serif;font-size:13;" transform="matrix(1 0 0 1 263 2007)">symbols with the adjacent text.</text>
  <line style="fill:none;stroke:#00AEEF;stroke-width:0.5;opacity:1.0;" x1="776" x2="776" y1="1919" y2="1933"/>
  <g transform="matrix(1 0 0 1 776 1933)">
   <path d="M3.31055 0.15625Q3.70117 0.15625 3.91602-0.00976562Q4.13086-0.175781 4.26758-0.585938L5.52734-4.0332L11.2891-4.0332L12.5488-0.585938Q12.6855-0.175781 12.9004-0.00976562Q13.1152 0.15625 13.4961 0.15625Q13.8867 0.15625 14.1162-0.0585938Q14.3457-0.273438 14.3457-0.644531Q14.3457-0.869141 14.2383-1.17188L9.6582-13.3691Q9.48242-13.8184 9.17969-14.043Q8.87695-14.2676 8.4082-14.2676Q7.5-14.2676 7.17773-13.3789L2.59766-1.16211Q2.49023-0.859375 2.49023-0.634766Q2.49023-0.263672 2.70996-0.0537109Q2.92969 0.15625 3.31055 0.15625ZM6.00586-5.51758L8.37891-12.0898L8.42773-12.0898L10.8008-5.51758Z"/>
  </g>
  <line style="fill:none;stroke:#00AEEF;stroke-width:0.5;opacity:1.0;" x1="793.197" x2="793.197" y1="1919" y2="1933"/>
  <text style="stroke:none;fill:black;font-family:sans-serif;font-size:13;font-weight:bold;" transform="matrix(1 0 0 1 776 1953)">Margins</text>
  <text style="stroke:none;fill:black;font-family:sans-serif;font-size:13;" transform="matrix(1 0 0 1 776 1971)">Leading and trailing margins on the left and right side of each symbol</text>
  <text style="stroke:none;fill:black;font-family:sans-serif;font-size:13;" transform="matrix(1 0 0 1 776 1989)">can be adjusted by modifying the x-location of the margin guidelines.</text>
  <text style="stroke:none;fill:black;font-family:sans-serif;font-size:13;" transform="matrix(1 0 0 1 776 2007)">Modifications are automatically applied proportionally to all</text>
  <text style="stroke:none;fill:black;font-family:sans-serif;font-size:13;" transform="matrix(1 0 0 1 776 2025)">scales and weights.</text>
  <g transform="matrix(1 0 0 1 1289 1933)">
   <path d="M2.8418 1.86523L4.54102 3.57422Q5.18555 4.22852 5.90332 4.17969Q6.62109 4.13086 7.31445 3.35938L18.0078-8.42773L17.041-9.4043L6.42578 2.27539Q6.16211 2.57812 5.89355 2.61719Q5.625 2.65625 5.27344 2.30469L4.10156 1.14258Q3.75 0.791016 3.79395 0.522461Q3.83789 0.253906 4.14062-0.0195312L15.6152-10.8203L14.6387-11.7871L3.04688-0.898438Q2.30469-0.214844 2.25098 0.498047Q2.19727 1.21094 2.8418 1.86523ZM9.25781-16.3281Q8.94531-16.0254 8.90625-15.6348Q8.86719-15.2441 9.04297-14.9512Q9.21875-14.6777 9.55566-14.541Q9.89258-14.4043 10.3809-14.5215Q11.4746-14.7754 12.5977-14.7314Q13.7207-14.6875 14.7949-13.9844L14.209-12.5293Q13.9551-11.9043 14.0674-11.4404Q14.1797-10.9766 14.5801-10.5664L16.875-8.25195Q17.2363-7.88086 17.5781-7.82227Q17.9199-7.76367 18.3398-7.8418L19.4043-8.03711L20.0684-7.36328L20.0293-6.80664Q20-6.43555 20.1221-6.12305Q20.2441-5.81055 20.6055-5.44922L21.3672-4.70703Q21.7285-4.3457 22.1533-4.33105Q22.5781-4.31641 22.9297-4.66797L25.8398-7.58789Q26.1914-7.93945 26.1816-8.35449Q26.1719-8.76953 25.8105-9.13086L25.0391-9.89258Q24.6875-10.2539 24.3799-10.3857Q24.0723-10.5176 23.7109-10.4883L23.1348-10.4395L22.4902-11.0742L22.7344-12.1973Q22.832-12.6172 22.6953-12.9834Q22.5586-13.3496 22.1191-13.7891L19.9219-15.9766Q18.6719-17.2168 17.2607-17.8369Q15.8496-18.457 14.4189-18.4814Q12.9883-18.5059 11.665-17.959Q10.3418-17.4121 9.25781-16.3281ZM10.752-15.957Q11.6602-16.6211 12.7002-16.9043Q13.7402-17.1875 14.8047-17.085Q15.8691-16.9824 16.8701-16.5137Q17.8711-16.0449 18.7012-15.2051L21.1328-12.793Q21.3086-12.6172 21.3525-12.4512Q21.3965-12.2852 21.3379-12.0312L21.0156-10.5469L22.5195-9.0625L23.5059-9.12109Q23.6914-9.13086 23.7891-9.09668Q23.8867-9.0625 24.0332-8.91602L24.6094-8.33984L22.168-5.89844L21.5918-6.47461Q21.4453-6.62109 21.4062-6.71875Q21.3672-6.81641 21.377-7.01172L21.4453-7.98828L19.9512-9.47266L18.4277-9.21875Q18.1836-9.16992 18.042-9.2041Q17.9004-9.23828 17.7148-9.41406L15.7129-11.416Q15.5176-11.5918 15.4932-11.7529Q15.4688-11.9141 15.5859-12.1875L16.4648-14.2773Q15.293-15.3711 13.8281-15.791Q12.3633-16.2109 10.8398-15.7617Q10.7227-15.7324 10.6885-15.8057Q10.6543-15.8789 10.752-15.957Z"/>
  </g>
  <text style="stroke:none;fill:black;font-family:sans-serif;font-size:13;font-weight:bold;" transform="matrix(1 0 0 1 1289 1953)">Exporting</text>
  <text style="stroke:none;fill:black;font-family:sans-serif;font-size:13;" transform="matrix(1 0 0 1 1289 1971)">Symbols should be outlined when exporting to ensure the</text>
  <text style="stroke:none;fill:black;font-family:sans-serif;font-size:13;" transform="matrix(1 0 0 1 1289 1989)">design is preserved when submitting to Xcode.</text>
  <text id="template-version" style="stroke:none;fill:black;font-family:sans-serif;font-size:13;text-anchor:end;" transform="matrix(1 0 0 1 3036 1933)">Template v.3.0</text>
  <text style="stroke:none;fill:black;font-family:sans-serif;font-size:13;text-anchor:end;" transform="matrix(1 0 0 1 3036 1951)">Requires Xcode 13 or greater</text>
  <text id="descriptive-name" style="stroke:none;fill:black;font-family:sans-serif;font-size:13;text-anchor:end;" transform="matrix(1 0 0 1 3036 1969)">Symbol moniker: android</text>
  <text style="stroke:none;fill:black;font-family:sans-serif;font-size:13;text-anchor:end;" transform="matrix(1 0 0 1 3036 1987)">Typeset at 100 points</text>
  <text style="stroke:none;fill:black;font-family:sans-serif;font-size:13;" transform="matrix(1 0 0 1 263 726)">Small</text>
  <text style="stroke:none;fill:black;font-family:sans-serif;font-size:13;" transform="matrix(1 0 0 1 263 1156)">Medium</text>
  <text style="stroke:none;fill:black;font-family:sans-serif;font-size:13;" transform="matrix(1 0 0 1 263 1586)">Large</text>
 </g>
 <g id="Guides">
  <g id="H-reference" style="fill:#27AAE1;stroke:none;" transform="matrix(1 0 0 1 339 696)">
   <path d="M0.976562 0L3.66211 0L29.3457-67.1387L30.0293-67.1387L30.0293-70.459L28.125-70.459ZM11.6699-24.4629L46.9727-24.4629L46.2402-26.709L12.4512-26.709ZM55.127 0L57.7637 0L30.6152-70.459L29.4434-70.459L29.4434-67.1387Z"/>
  </g>
  <line id="Baseline-S" style="fill:none;stroke:#27AAE1;opacity:1;stroke-width:0.5;" x1="263" x2="3036" y1="696" y2="696"/>
  <line id="Capline-S" style="fill:none;stroke:#27AAE1;opacity:1;stroke-width:0.5;" x1="263" x2="3036" y1="625.541" y2="625.541"/>
  <g id="H-reference" style="fill:#27AAE1;stroke:none;" transform="matrix(1 0 0 1 339 1126)">
   <path d="M0.976562 0L3.66211 0L29.3457-67.1387L30.0293-67.1387L30.0293-70.459L28.125-70.459ZM11.6699-24.4629L46.9727-24.4629L46.2402-26.709L12.4512-26.709ZM55.127 0L57.7637 0L30.6152-70.459L29.4434-70.459L29.4434-67.1387Z"/>
  </g>
  <line id="Baseline-M" style="fill:none;stroke:#27AAE1;opacity:1;stroke-width:0.5;" x1="263" x2="3036" y1="1126" y2="1126"/>
  <line id="Capline-M" style="fill:none;stroke:#27AAE1;opacity:1;stroke-width:0.5;" x1="263" x2="3036" y1="1055.54" y2="1055.54"/>
  <g id="H-reference" style="fill:#27AAE1;stroke:none;" transform="matrix(1 0 0 1 339 1556)">
   <path d="M0.976562 0L3.66211 0L29.3457-67.1387L30.0293-67.1387L30.0293-70.459L28.125-70.459ZM11.6699-24.4629L46.9727-24.4629L46.2402-26.709L12.4512-26.709ZM55.127 0L57.7637 0L30.6152-70.459L29.4434-70.459L29.4434-67.1387Z"/>
  </g>
  <line id="Baseline-L" style="fill:none;stroke:#27AAE1;opacity:1;stroke-width:0.5;" x1="263" x2="3036" y1="1556" y2="1556"/>
  <line id="Capline-L" style="fill:none;stroke:#27AAE1;opacity:1;stroke-width:0.5;" x1="263" x2="3036" y1="1485.54" y2="1485.54"/>
  <line id="left-margin-Ultralight-S" style="fill:none;stroke:#00AEEF;stroke-width:0.5;opacity:1.0;" x1="515.351" x2="515.351" y1="600.784" y2="720.121"/>
  <line id="right-margin-Ultralight-S" style="fill:none;stroke:#00AEEF;stroke-width:0.5;opacity:1.0;" x1="604.071" x2="604.071" y1="600.784" y2="720.121"/>
  <line id="left-margin-Regular-S" style="fill:none;stroke:#00AEEF;stroke-width:0.5;opacity:1.0;" x1="1401.75" x2="1401.75" y1="600.784" y2="720.121"/>
  <line id="right-margin-Regular-S" style="fill:none;stroke:#00AEEF;stroke-width:0.5;opacity:1.0;" x1="1497.94" x2="1497.94" y1="600.784" y2="720.121"/>
  <line id="left-margin-Black-S" style="fill:none;stroke:#00AEEF;stroke-width:0.5;opacity:1.0;" x1="2883.2" x2="2883.2" y1="600.784" y2="720.121"/>
  <line id="right-margin-Black-S" style="fill:none;stroke:#00AEEF;stroke-width:0.5;opacity:1.0;" x1="2983.6" x2="2983.6" y1="600.784" y2="720.121"/>
 </g>
 <g id="Symbols">
  <g id="Black-L" transform="matrix(1,0,0,1,2853.3999999999996,1440.77)">

  <path d="M105.2975238095238 14.710252631578948L113.1927619047619 2.1162105263157898C113.71104761904762 1.2824273684210525 113.52666666666666 0.6430610526315789 112.63809523809523 0.19348105263157894 111.6735238095238-0.19418821052631577 110.93238095238094 0.0022501052631578944 110.41447619047618 0.7689094736842105L102.4087619047619 13.463621052631579C95.36438095238094 10.770484210526316 87.91371428571428 9.421452631578946 80.0567619047619 9.421452631578946 72.1982857142857 9.421452631578946 64.7470476190476 10.77077894736842 57.70514285714285 13.463621052631579L49.69904761904761 0.7689094736842105C49.17885714285714 0.0022501052631578944 48.437714285714286-0.19245221052631578 47.47561904761905 0.19348105263157894 46.58495238095238 0.6450863157894737 46.400571428571425 1.2824273684210525 46.9207619047619 2.1162105263157898L54.81638095238095 14.710252631578948C46.810476190476194 18.240652631578946 40.43409523809524 23.157473684210526 35.68971428571429 29.471157894736837 30.94552380952381 35.78842105263158 28.572380952380954 42.69178947368421 28.572380952380954 50.193473684210524H131.4295238095238C131.4295238095238 42.693684210526314 129.056 35.7898947368421 124.312 29.471157894736837 119.56742857142856 23.157473684210526 113.228 18.240652631578946 105.2975238095238 14.710252631578948ZM59.65047619047619 33.02842105263158C58.796571428571426 33.768631578947364 57.7767619047619 34.136842105263156 56.591428571428565 34.136842105263156 55.403619047619046 34.136842105263156 54.40457142857142 33.768631578947364 53.589523809523804 33.02842105263158 52.77447619047619 32.291999999999994 52.36704761904762 31.413684210526313 52.36704761904762 30.385052631578947 52.36704761904762 29.36 52.77447619047619 28.48 53.589523809523804 27.741684210526316 54.40457142857142 27.00505263157895 55.40590476190476 26.636842105263156 56.591428571428565 26.636842105263156 57.7767619047619 26.636842105263156 58.796571428571426 27.00505263157895 59.65047619047619 27.741684210526316 60.50228571428571 28.481684210526314 60.930095238095234 29.36 60.930095238095234 30.385052631578947 60.92780952380952 31.41178947368421 60.50019047619047 32.291999999999994 59.65047619047619 33.02842105263158ZM106.51961904761905 33.02842105263158C105.70304761904762 33.768631578947364 104.70171428571429 34.136842105263156 103.51828571428571 34.136842105263156 102.33009523809524 34.136842105263156 101.31066666666666 33.768631578947364 100.45847619047618 33.02842105263158 99.60495238095237 32.291999999999994 99.17904761904762 31.413684210526313 99.17904761904762 30.385052631578947 99.17904761904762 29.36 99.60495238095237 28.48 100.45847619047618 27.741684210526316 101.31066666666666 27.00505263157895 102.33009523809524 26.636842105263156 103.51828571428571 26.636842105263156 104.70361904761904 26.636842105263156 105.70266666666666 27.00505263157895 106.51961904761905 27.741684210526316 107.33542857142857 28.481684210526314 107.74228571428571 29.36 107.74228571428571 30.385052631578947 107.74228571428571 31.41178947368421 107.33504761904761 32.291999999999994 106.51961904761905 33.02842105263158Z" class="hierarchical-1:primary "/><path d="M28.572380952380954 117.69052631578947C28.572380952380954 120.64210526315789 29.757714285714282 123.14042105263158 32.12895238095238 125.19073684210527 34.50209523809524 127.24105263157895 37.39142857142857 128.2661052631579 40.802476190476185 128.2661052631579H49.473333333333336L49.58609523809523 150.09536842105263C49.58609523809523 152.85178947368422 50.69790476190476 155.19263157894736 52.92133333333333 157.11557894736842 55.144952380952375 159.03873684210527 57.815238095238094 160 60.927428571428564 160 64.11371428571428 160 66.82038095238094 159.03873684210527 69.04419047619047 157.11557894736842 71.26819047619047 155.19263157894736 72.38 152.8522105263158 72.38 150.09536842105263V128.26821052631578H87.72495238095237V150.09536842105263C87.72495238095237 152.85178947368422 88.83638095238095 155.19263157894736 91.06038095238095 157.11557894736842 93.28419047619047 159.03873684210527 95.98857142857142 160 99.17714285714285 160 102.36323809523809 160 105.06990476190477 159.03873684210527 107.29390476190476 157.11557894736842 109.51790476190475 155.19263157894736 110.62933333333332 152.8522105263158 110.62933333333332 150.09536842105263V128.26821052631578H119.30952380952381C122.64495238095236 128.26821052631578 125.49714285714285 127.24273684210526 127.87257142857142 125.19242105263157 130.24342857142855 123.14210526315789 131.4295238095238 120.6437894736842 131.4295238095238 117.69263157894737V53.65157894736842H28.572380952380954V117.69052631578947Z" class="hierarchical-1:primary "/><path d="M148.51695238095238 51.82610526315789C145.39371428571428 51.82610526315789 142.71847619047617 52.757052631578944 140.48838095238094 54.613473684210526 138.25866666666667 56.473263157894735 137.14380952380952 58.757894736842104 137.14380952380952 61.46315789473684V102.09305263157894C137.14380952380952 104.80547368421053 138.2582857142857 107.1021052631579 140.48838095238094 108.9917894736842 142.71847619047617 110.88147368421052 145.39580952380953 111.8261052631579 148.51695238095238 111.8261052631579 151.712 111.8261052631579 154.4262857142857 110.88147368421052 156.65638095238094 108.9917894736842 158.8864761904762 107.1021052631579 160.00095238095238 104.80547368421053 160.00095238095238 102.09305263157894V61.46315789473684C160.00095238095238 58.757473684210524 158.8864761904762 56.473263157894735 156.65638095238094 54.613473684210526 154.4262857142857 52.757052631578944 151.712 51.82610526315789 148.51695238095238 51.82610526315789Z" class="hierarchical-1:primary "/><path d="M3.345542857142857 54.66021052631579C5.575066666666666 52.77094736842105 8.287333333333333 51.82610526315789 11.484019047619046 51.82610526315789 14.606552380952381 51.82610526315789 17.2836 52.77094736842105 19.513523809523807 54.66021052631579 21.743238095238095 56.549684210526316 22.85809523809524 58.816631578947366 22.85809523809524 61.46315789473684V102.09305263157894C22.85809523809524 104.80547368421053 21.759809523809523 107.10231578947368 19.569142857142854 108.9917894736842 17.374171428571426 110.88147368421052 14.678342857142857 111.8261052631579 11.484019047619046 111.8261052631579 8.287333333333333 111.8261052631579 5.575066666666666 110.88126315789472 3.345542857142857 108.9917894736842 1.1156914285714286 107.1021052631579 0.0009300590476190476 104.80547368421053 0.0009300590476190476 102.09305263157894V61.46315789473684C0.0009300590476190476 58.81705263157894 1.1160266666666667 56.549684210526316 3.345542857142857 54.66021052631579Z" class="hierarchical-1:primary "/></g>
  <g id="Regular-L" transform="matrix(1,0,0,1,1369.845,1440.77)">

  <path d="M105.2975238095238 14.710252631578948L113.1927619047619 2.1162105263157898C113.71104761904762 1.2824273684210525 113.52666666666666 0.6430610526315789 112.63809523809523 0.19348105263157894 111.6735238095238-0.19418821052631577 110.93238095238094 0.0022501052631578944 110.41447619047618 0.7689094736842105L102.4087619047619 13.463621052631579C95.36438095238094 10.770484210526316 87.91371428571428 9.421452631578946 80.0567619047619 9.421452631578946 72.1982857142857 9.421452631578946 64.7470476190476 10.77077894736842 57.70514285714285 13.463621052631579L49.69904761904761 0.7689094736842105C49.17885714285714 0.0022501052631578944 48.437714285714286-0.19245221052631578 47.47561904761905 0.19348105263157894 46.58495238095238 0.6450863157894737 46.400571428571425 1.2824273684210525 46.9207619047619 2.1162105263157898L54.81638095238095 14.710252631578948C46.810476190476194 18.240652631578946 40.43409523809524 23.157473684210526 35.68971428571429 29.471157894736837 30.94552380952381 35.78842105263158 28.572380952380954 42.69178947368421 28.572380952380954 50.193473684210524H131.4295238095238C131.4295238095238 42.693684210526314 129.056 35.7898947368421 124.312 29.471157894736837 119.56742857142856 23.157473684210526 113.228 18.240652631578946 105.2975238095238 14.710252631578948ZM59.65047619047619 33.02842105263158C58.796571428571426 33.768631578947364 57.7767619047619 34.136842105263156 56.591428571428565 34.136842105263156 55.403619047619046 34.136842105263156 54.40457142857142 33.768631578947364 53.589523809523804 33.02842105263158 52.77447619047619 32.291999999999994 52.36704761904762 31.413684210526313 52.36704761904762 30.385052631578947 52.36704761904762 29.36 52.77447619047619 28.48 53.589523809523804 27.741684210526316 54.40457142857142 27.00505263157895 55.40590476190476 26.636842105263156 56.591428571428565 26.636842105263156 57.7767619047619 26.636842105263156 58.796571428571426 27.00505263157895 59.65047619047619 27.741684210526316 60.50228571428571 28.481684210526314 60.930095238095234 29.36 60.930095238095234 30.385052631578947 60.92780952380952 31.41178947368421 60.50019047619047 32.291999999999994 59.65047619047619 33.02842105263158ZM106.51961904761905 33.02842105263158C105.70304761904762 33.768631578947364 104.70171428571429 34.136842105263156 103.51828571428571 34.136842105263156 102.33009523809524 34.136842105263156 101.31066666666666 33.768631578947364 100.45847619047618 33.02842105263158 99.60495238095237 32.291999999999994 99.17904761904762 31.413684210526313 99.17904761904762 30.385052631578947 99.17904761904762 29.36 99.60495238095237 28.48 100.45847619047618 27.741684210526316 101.31066666666666 27.00505263157895 102.33009523809524 26.636842105263156 103.51828571428571 26.636842105263156 104.70361904761904 26.636842105263156 105.70266666666666 27.00505263157895 106.51961904761905 27.741684210526316 107.33542857142857 28.481684210526314 107.74228571428571 29.36 107.74228571428571 30.385052631578947 107.74228571428571 31.41178947368421 107.33504761904761 32.291999999999994 106.51961904761905 33.02842105263158Z" class="hierarchical-1:primary "/><path d="M28.572380952380954 117.69052631578947C28.572380952380954 120.64210526315789 29.757714285714282 123.14042105263158 32.12895238095238 125.19073684210527 34.50209523809524 127.24105263157895 37.39142857142857 128.2661052631579 40.802476190476185 128.2661052631579H49.473333333333336L49.58609523809523 150.09536842105263C49.58609523809523 152.85178947368422 50.69790476190476 155.19263157894736 52.92133333333333 157.11557894736842 55.144952380952375 159.03873684210527 57.815238095238094 160 60.927428571428564 160 64.11371428571428 160 66.82038095238094 159.03873684210527 69.04419047619047 157.11557894736842 71.26819047619047 155.19263157894736 72.38 152.8522105263158 72.38 150.09536842105263V128.26821052631578H87.72495238095237V150.09536842105263C87.72495238095237 152.85178947368422 88.83638095238095 155.19263157894736 91.06038095238095 157.11557894736842 93.28419047619047 159.03873684210527 95.98857142857142 160 99.17714285714285 160 102.36323809523809 160 105.06990476190477 159.03873684210527 107.29390476190476 157.11557894736842 109.51790476190475 155.19263157894736 110.62933333333332 152.8522105263158 110.62933333333332 150.09536842105263V128.26821052631578H119.30952380952381C122.64495238095236 128.26821052631578 125.49714285714285 127.24273684210526 127.87257142857142 125.19242105263157 130.24342857142855 123.14210526315789 131.4295238095238 120.6437894736842 131.4295238095238 117.69263157894737V53.65157894736842H28.572380952380954V117.69052631578947Z" class="hierarchical-1:primary "/><path d="M148.51695238095238 51.82610526315789C145.39371428571428 51.82610526315789 142.71847619047617 52.757052631578944 140.48838095238094 54.613473684210526 138.25866666666667 56.473263157894735 137.14380952380952 58.757894736842104 137.14380952380952 61.46315789473684V102.09305263157894C137.14380952380952 104.80547368421053 138.2582857142857 107.1021052631579 140.48838095238094 108.9917894736842 142.71847619047617 110.88147368421052 145.39580952380953 111.8261052631579 148.51695238095238 111.8261052631579 151.712 111.8261052631579 154.4262857142857 110.88147368421052 156.65638095238094 108.9917894736842 158.8864761904762 107.1021052631579 160.00095238095238 104.80547368421053 160.00095238095238 102.09305263157894V61.46315789473684C160.00095238095238 58.757473684210524 158.8864761904762 56.473263157894735 156.65638095238094 54.613473684210526 154.4262857142857 52.757052631578944 151.712 51.82610526315789 148.51695238095238 51.82610526315789Z" class="hierarchical-1:primary "/><path d="M3.345542857142857 54.66021052631579C5.575066666666666 52.77094736842105 8.287333333333333 51.82610526315789 11.484019047619046 51.82610526315789 14.606552380952381 51.82610526315789 17.2836 52.77094736842105 19.513523809523807 54.66021052631579 21.743238095238095 56.549684210526316 22.85809523809524 58.816631578947366 22.85809523809524 61.46315789473684V102.09305263157894C22.85809523809524 104.80547368421053 21.759809523809523 107.10231578947368 19.569142857142854 108.9917894736842 17.374171428571426 110.88147368421052 14.678342857142857 111.8261052631579 11.484019047619046 111.8261052631579 8.287333333333333 111.8261052631579 5.575066666666666 110.88126315789472 3.345542857142857 108.9917894736842 1.1156914285714286 107.1021052631579 0.0009300590476190476 104.80547368421053 0.0009300590476190476 102.09305263157894V61.46315789473684C0.0009300590476190476 58.81705263157894 1.1160266666666667 56.549684210526316 3.345542857142857 54.66021052631579Z" class="hierarchical-1:primary "/></g>
  <g id="Ultralight-L" transform="matrix(1,0,0,1,479.711,1440.77)">

  <path d="M105.2975238095238 14.710252631578948L113.1927619047619 2.1162105263157898C113.71104761904762 1.2824273684210525 113.52666666666666 0.6430610526315789 112.63809523809523 0.19348105263157894 111.6735238095238-0.19418821052631577 110.93238095238094 0.0022501052631578944 110.41447619047618 0.7689094736842105L102.4087619047619 13.463621052631579C95.36438095238094 10.770484210526316 87.91371428571428 9.421452631578946 80.0567619047619 9.421452631578946 72.1982857142857 9.421452631578946 64.7470476190476 10.77077894736842 57.70514285714285 13.463621052631579L49.69904761904761 0.7689094736842105C49.17885714285714 0.0022501052631578944 48.437714285714286-0.19245221052631578 47.47561904761905 0.19348105263157894 46.58495238095238 0.6450863157894737 46.400571428571425 1.2824273684210525 46.9207619047619 2.1162105263157898L54.81638095238095 14.710252631578948C46.810476190476194 18.240652631578946 40.43409523809524 23.157473684210526 35.68971428571429 29.471157894736837 30.94552380952381 35.78842105263158 28.572380952380954 42.69178947368421 28.572380952380954 50.193473684210524H131.4295238095238C131.4295238095238 42.693684210526314 129.056 35.7898947368421 124.312 29.471157894736837 119.56742857142856 23.157473684210526 113.228 18.240652631578946 105.2975238095238 14.710252631578948ZM59.65047619047619 33.02842105263158C58.796571428571426 33.768631578947364 57.7767619047619 34.136842105263156 56.591428571428565 34.136842105263156 55.403619047619046 34.136842105263156 54.40457142857142 33.768631578947364 53.589523809523804 33.02842105263158 52.77447619047619 32.291999999999994 52.36704761904762 31.413684210526313 52.36704761904762 30.385052631578947 52.36704761904762 29.36 52.77447619047619 28.48 53.589523809523804 27.741684210526316 54.40457142857142 27.00505263157895 55.40590476190476 26.636842105263156 56.591428571428565 26.636842105263156 57.7767619047619 26.636842105263156 58.796571428571426 27.00505263157895 59.65047619047619 27.741684210526316 60.50228571428571 28.481684210526314 60.930095238095234 29.36 60.930095238095234 30.385052631578947 60.92780952380952 31.41178947368421 60.50019047619047 32.291999999999994 59.65047619047619 33.02842105263158ZM106.51961904761905 33.02842105263158C105.70304761904762 33.768631578947364 104.70171428571429 34.136842105263156 103.51828571428571 34.136842105263156 102.33009523809524 34.136842105263156 101.31066666666666 33.768631578947364 100.45847619047618 33.02842105263158 99.60495238095237 32.291999999999994 99.17904761904762 31.413684210526313 99.17904761904762 30.385052631578947 99.17904761904762 29.36 99.60495238095237 28.48 100.45847619047618 27.741684210526316 101.31066666666666 27.00505263157895 102.33009523809524 26.636842105263156 103.51828571428571 26.636842105263156 104.70361904761904 26.636842105263156 105.70266666666666 27.00505263157895 106.51961904761905 27.741684210526316 107.33542857142857 28.481684210526314 107.74228571428571 29.36 107.74228571428571 30.385052631578947 107.74228571428571 31.41178947368421 107.33504761904761 32.291999999999994 106.51961904761905 33.02842105263158Z" class="hierarchical-1:primary "/><path d="M28.572380952380954 117.69052631578947C28.572380952380954 120.64210526315789 29.757714285714282 123.14042105263158 32.12895238095238 125.19073684210527 34.50209523809524 127.24105263157895 37.39142857142857 128.2661052631579 40.802476190476185 128.2661052631579H49.473333333333336L49.58609523809523 150.09536842105263C49.58609523809523 152.85178947368422 50.69790476190476 155.19263157894736 52.92133333333333 157.11557894736842 55.144952380952375 159.03873684210527 57.815238095238094 160 60.927428571428564 160 64.11371428571428 160 66.82038095238094 159.03873684210527 69.04419047619047 157.11557894736842 71.26819047619047 155.19263157894736 72.38 152.8522105263158 72.38 150.09536842105263V128.26821052631578H87.72495238095237V150.09536842105263C87.72495238095237 152.85178947368422 88.83638095238095 155.19263157894736 91.06038095238095 157.11557894736842 93.28419047619047 159.03873684210527 95.98857142857142 160 99.17714285714285 160 102.36323809523809 160 105.06990476190477 159.03873684210527 107.29390476190476 157.11557894736842 109.51790476190475 155.19263157894736 110.62933333333332 152.8522105263158 110.62933333333332 150.09536842105263V128.26821052631578H119.30952380952381C122.64495238095236 128.26821052631578 125.49714285714285 127.24273684210526 127.87257142857142 125.19242105263157 130.24342857142855 123.14210526315789 131.4295238095238 120.6437894736842 131.4295238095238 117.69263157894737V53.65157894736842H28.572380952380954V117.69052631578947Z" class="hierarchical-1:primary "/><path d="M148.51695238095238 51.82610526315789C145.39371428571428 51.82610526315789 142.71847619047617 52.757052631578944 140.48838095238094 54.613473684210526 138.25866666666667 56.473263157894735 137.14380952380952 58.757894736842104 137.14380952380952 61.46315789473684V102.09305263157894C137.14380952380952 104.80547368421053 138.2582857142857 107.1021052631579 140.48838095238094 108.9917894736842 142.71847619047617 110.88147368421052 145.39580952380953 111.8261052631579 148.51695238095238 111.8261052631579 151.712 111.8261052631579 154.4262857142857 110.88147368421052 156.65638095238094 108.9917894736842 158.8864761904762 107.1021052631579 160.00095238095238 104.80547368421053 160.00095238095238 102.09305263157894V61.46315789473684C160.00095238095238 58.757473684210524 158.8864761904762 56.473263157894735 156.65638095238094 54.613473684210526 154.4262857142857 52.757052631578944 151.712 51.82610526315789 148.51695238095238 51.82610526315789Z" class="hierarchical-1:primary "/><path d="M3.345542857142857 54.66021052631579C5.575066666666666 52.77094736842105 8.287333333333333 51.82610526315789 11.484019047619046 51.82610526315789 14.606552380952381 51.82610526315789 17.2836 52.77094736842105 19.513523809523807 54.66021052631579 21.743238095238095 56.549684210526316 22.85809523809524 58.816631578947366 22.85809523809524 61.46315789473684V102.09305263157894C22.85809523809524 104.80547368421053 21.759809523809523 107.10231578947368 19.569142857142854 108.9917894736842 17.374171428571426 110.88147368421052 14.678342857142857 111.8261052631579 11.484019047619046 111.8261052631579 8.287333333333333 111.8261052631579 5.575066666666666 110.88126315789472 3.345542857142857 108.9917894736842 1.1156914285714286 107.1021052631579 0.0009300590476190476 104.80547368421053 0.0009300590476190476 102.09305263157894V61.46315789473684C0.0009300590476190476 58.81705263157894 1.1160266666666667 56.549684210526316 3.345542857142857 54.66021052631579Z" class="hierarchical-1:primary "/></g>
  <g id="Black-M" transform="matrix(1,0,0,1,2869.3999999999996,1026.77)">

  <path d="M84.23801904761903 11.768202105263157L90.55420952380952 1.6929684210526317C90.9688380952381 1.025941894736842 90.82133333333333 0.5144488421052631 90.11047619047618 0.15478484210526314 89.33881904761904-0.15535056842105263 88.74590476190475 0.0018000842105263155 88.33158095238095 0.6151275789473684L81.92700952380952 10.770896842105262C76.29150476190476 8.616387368421053 70.33097142857142 7.537162105263157 64.04540952380952 7.537162105263157 57.75862857142857 7.537162105263157 51.797638095238085 8.616623157894736 46.164114285714284 10.770896842105262L39.75923809523809 0.6151275789473684C39.34308571428571 0.0018000842105263155 38.75017142857143-0.15396176842105264 37.98049523809524 0.15478484210526314 37.267961904761904 0.516069052631579 37.12045714285714 1.025941894736842 37.536609523809524 1.6929684210526317L43.85310476190476 11.768202105263157C37.44838095238095 14.592522105263157 32.347276190476194 18.525978947368422 28.55177142857143 23.57692631578947 24.756419047619048 28.630736842105264 22.857904761904763 34.15343157894737 22.857904761904763 40.15477894736842H105.14361904761904C105.14361904761904 34.15494736842105 103.2448 28.63191578947368 99.4496 23.57692631578947 95.65394285714285 18.525978947368422 90.58239999999999 14.592522105263157 84.23801904761903 11.768202105263157ZM47.72038095238095 26.422736842105262C47.03725714285714 27.014905263157893 46.22140952380952 27.309473684210523 45.27314285714285 27.309473684210523 44.322895238095235 27.309473684210523 43.52365714285714 27.014905263157893 42.87161904761904 26.422736842105262 42.21958095238095 25.833599999999997 41.89363809523809 25.13094736842105 41.89363809523809 24.308042105263155 41.89363809523809 23.488 42.21958095238095 22.784 42.87161904761904 22.19334736842105 43.52365714285714 21.604042105263158 44.32472380952381 21.309473684210523 45.27314285714285 21.309473684210523 46.22140952380952 21.309473684210523 47.03725714285714 21.604042105263158 47.72038095238095 22.19334736842105 48.40182857142857 22.785347368421053 48.744076190476186 23.488 48.744076190476186 24.308042105263155 48.74224761904762 25.12943157894737 48.40015238095238 25.833599999999997 47.72038095238095 26.422736842105262ZM85.21569523809524 26.422736842105262C84.5624380952381 27.014905263157893 83.76137142857142 27.309473684210523 82.81462857142856 27.309473684210523 81.86407619047618 27.309473684210523 81.04853333333332 27.014905263157893 80.36678095238095 26.422736842105262 79.6839619047619 25.833599999999997 79.34323809523809 25.13094736842105 79.34323809523809 24.308042105263155 79.34323809523809 23.488 79.6839619047619 22.784 80.36678095238095 22.19334736842105 81.04853333333332 21.604042105263158 81.86407619047618 21.309473684210523 82.81462857142856 21.309473684210523 83.76289523809524 21.309473684210523 84.56213333333332 21.604042105263158 85.21569523809524 22.19334736842105 85.86834285714285 22.785347368421053 86.19382857142857 23.488 86.19382857142857 24.308042105263155 86.19382857142857 25.12943157894737 85.86803809523809 25.833599999999997 85.21569523809524 26.422736842105262Z" class="hierarchical-1:primary "/><path d="M22.857904761904763 94.15242105263157C22.857904761904763 96.5136842105263 23.806171428571428 98.51233684210526 25.703161904761902 100.1525894736842 27.60167619047619 101.79284210526316 29.91314285714286 102.61288421052632 32.64198095238095 102.61288421052632H39.57866666666666L39.66887619047618 120.0762947368421C39.66887619047618 122.28143157894738 40.558323809523806 124.15410526315789 42.337066666666665 125.69246315789474 44.1159619047619 127.23098947368422 46.25219047619048 128 48.74194285714285 128 51.290971428571424 128 53.45630476190476 127.23098947368422 55.23535238095237 125.69246315789474 57.014552380952374 124.15410526315789 57.903999999999996 122.28176842105262 57.903999999999996 120.0762947368421V102.61456842105262H70.1799619047619V120.0762947368421C70.1799619047619 122.28143157894738 71.06910476190475 124.15410526315789 72.84830476190476 125.69246315789474 74.62735238095239 127.23098947368422 76.79085714285713 128 79.34171428571427 128 81.89059047619047 128 84.0559238095238 127.23098947368422 85.83512380952381 125.69246315789474 87.6143238095238 124.15410526315789 88.50346666666665 122.28176842105262 88.50346666666665 120.0762947368421V102.61456842105262H95.44761904761904C98.11596190476189 102.61456842105262 100.39771428571427 101.7941894736842 102.29805714285713 100.15393684210525 104.19474285714284 98.5136842105263 105.14361904761904 96.51503157894736 105.14361904761904 94.1541052631579V42.921263157894735H22.857904761904763V94.15242105263157Z" class="hierarchical-1:primary "/><path d="M118.8135619047619 41.46088421052632C116.31497142857143 41.46088421052632 114.17478095238094 42.20564210526315 112.39070476190476 43.69077894736842 110.60693333333333 45.178610526315786 109.71504761904761 47.00631578947368 109.71504761904761 49.17052631578947V81.67444210526315C109.71504761904761 83.84437894736843 110.60662857142856 85.68168421052631 112.39070476190476 87.19343157894735 114.17478095238094 88.70517894736842 116.31664761904761 89.46088421052632 118.8135619047619 89.46088421052632 121.36959999999999 89.46088421052632 123.54102857142857 88.70517894736842 125.32510476190477 87.19343157894735 127.10918095238095 85.68168421052631 128.0007619047619 83.84437894736843 128.0007619047619 81.67444210526315V49.17052631578947C128.0007619047619 47.00597894736842 127.10918095238095 45.178610526315786 125.32510476190477 43.69077894736842 123.54102857142857 42.20564210526315 121.36959999999999 41.46088421052632 118.8135619047619 41.46088421052632Z" class="hierarchical-1:primary "/><path d="M2.6764342857142855 43.72816842105263C4.460053333333333 42.21675789473684 6.629866666666667 41.46088421052632 9.187215238095238 41.46088421052632 11.685241904761904 41.46088421052632 13.82688 42.21675789473684 15.610819047619048 43.72816842105263 17.394590476190476 45.23974736842105 18.28647619047619 47.05330526315789 18.28647619047619 49.17052631578947V81.67444210526315C18.28647619047619 83.84437894736843 17.40784761904762 85.68185263157895 15.655314285714285 87.19343157894735 13.899337142857142 88.70517894736842 11.742674285714285 89.46088421052632 9.187215238095238 89.46088421052632 6.629866666666667 89.46088421052632 4.460053333333333 88.70501052631577 2.6764342857142855 87.19343157894735 0.8925531428571428 85.68168421052631 0.000744047238095238 83.84437894736843 0.000744047238095238 81.67444210526315V49.17052631578947C0.000744047238095238 47.05364210526315 0.8928213333333334 45.23974736842105 2.6764342857142855 43.72816842105263Z" class="hierarchical-1:primary "/></g>
  <g id="Regular-M" transform="matrix(1,0,0,1,1385.845,1026.77)">

  <path d="M84.23801904761903 11.768202105263157L90.55420952380952 1.6929684210526317C90.9688380952381 1.025941894736842 90.82133333333333 0.5144488421052631 90.11047619047618 0.15478484210526314 89.33881904761904-0.15535056842105263 88.74590476190475 0.0018000842105263155 88.33158095238095 0.6151275789473684L81.92700952380952 10.770896842105262C76.29150476190476 8.616387368421053 70.33097142857142 7.537162105263157 64.04540952380952 7.537162105263157 57.75862857142857 7.537162105263157 51.797638095238085 8.616623157894736 46.164114285714284 10.770896842105262L39.75923809523809 0.6151275789473684C39.34308571428571 0.0018000842105263155 38.75017142857143-0.15396176842105264 37.98049523809524 0.15478484210526314 37.267961904761904 0.516069052631579 37.12045714285714 1.025941894736842 37.536609523809524 1.6929684210526317L43.85310476190476 11.768202105263157C37.44838095238095 14.592522105263157 32.347276190476194 18.525978947368422 28.55177142857143 23.57692631578947 24.756419047619048 28.630736842105264 22.857904761904763 34.15343157894737 22.857904761904763 40.15477894736842H105.14361904761904C105.14361904761904 34.15494736842105 103.2448 28.63191578947368 99.4496 23.57692631578947 95.65394285714285 18.525978947368422 90.58239999999999 14.592522105263157 84.23801904761903 11.768202105263157ZM47.72038095238095 26.422736842105262C47.03725714285714 27.014905263157893 46.22140952380952 27.309473684210523 45.27314285714285 27.309473684210523 44.322895238095235 27.309473684210523 43.52365714285714 27.014905263157893 42.87161904761904 26.422736842105262 42.21958095238095 25.833599999999997 41.89363809523809 25.13094736842105 41.89363809523809 24.308042105263155 41.89363809523809 23.488 42.21958095238095 22.784 42.87161904761904 22.19334736842105 43.52365714285714 21.604042105263158 44.32472380952381 21.309473684210523 45.27314285714285 21.309473684210523 46.22140952380952 21.309473684210523 47.03725714285714 21.604042105263158 47.72038095238095 22.19334736842105 48.40182857142857 22.785347368421053 48.744076190476186 23.488 48.744076190476186 24.308042105263155 48.74224761904762 25.12943157894737 48.40015238095238 25.833599999999997 47.72038095238095 26.422736842105262ZM85.21569523809524 26.422736842105262C84.5624380952381 27.014905263157893 83.76137142857142 27.309473684210523 82.81462857142856 27.309473684210523 81.86407619047618 27.309473684210523 81.04853333333332 27.014905263157893 80.36678095238095 26.422736842105262 79.6839619047619 25.833599999999997 79.34323809523809 25.13094736842105 79.34323809523809 24.308042105263155 79.34323809523809 23.488 79.6839619047619 22.784 80.36678095238095 22.19334736842105 81.04853333333332 21.604042105263158 81.86407619047618 21.309473684210523 82.81462857142856 21.309473684210523 83.76289523809524 21.309473684210523 84.56213333333332 21.604042105263158 85.21569523809524 22.19334736842105 85.86834285714285 22.785347368421053 86.19382857142857 23.488 86.19382857142857 24.308042105263155 86.19382857142857 25.12943157894737 85.86803809523809 25.833599999999997 85.21569523809524 26.422736842105262Z" class="hierarchical-1:primary "/><path d="M22.857904761904763 94.15242105263157C22.857904761904763 96.5136842105263 23.806171428571428 98.51233684210526 25.703161904761902 100.1525894736842 27.60167619047619 101.79284210526316 29.91314285714286 102.61288421052632 32.64198095238095 102.61288421052632H39.57866666666666L39.66887619047618 120.0762947368421C39.66887619047618 122.28143157894738 40.558323809523806 124.15410526315789 42.337066666666665 125.69246315789474 44.1159619047619 127.23098947368422 46.25219047619048 128 48.74194285714285 128 51.290971428571424 128 53.45630476190476 127.23098947368422 55.23535238095237 125.69246315789474 57.014552380952374 124.15410526315789 57.903999999999996 122.28176842105262 57.903999999999996 120.0762947368421V102.61456842105262H70.1799619047619V120.0762947368421C70.1799619047619 122.28143157894738 71.06910476190475 124.15410526315789 72.84830476190476 125.69246315789474 74.62735238095239 127.23098947368422 76.79085714285713 128 79.34171428571427 128 81.89059047619047 128 84.0559238095238 127.23098947368422 85.83512380952381 125.69246315789474 87.6143238095238 124.15410526315789 88.50346666666665 122.28176842105262 88.50346666666665 120.0762947368421V102.61456842105262H95.44761904761904C98.11596190476189 102.61456842105262 100.39771428571427 101.7941894736842 102.29805714285713 100.15393684210525 104.19474285714284 98.5136842105263 105.14361904761904 96.51503157894736 105.14361904761904 94.1541052631579V42.921263157894735H22.857904761904763V94.15242105263157Z" class="hierarchical-1:primary "/><path d="M118.8135619047619 41.46088421052632C116.31497142857143 41.46088421052632 114.17478095238094 42.20564210526315 112.39070476190476 43.69077894736842 110.60693333333333 45.178610526315786 109.71504761904761 47.00631578947368 109.71504761904761 49.17052631578947V81.67444210526315C109.71504761904761 83.84437894736843 110.60662857142856 85.68168421052631 112.39070476190476 87.19343157894735 114.17478095238094 88.70517894736842 116.31664761904761 89.46088421052632 118.8135619047619 89.46088421052632 121.36959999999999 89.46088421052632 123.54102857142857 88.70517894736842 125.32510476190477 87.19343157894735 127.10918095238095 85.68168421052631 128.0007619047619 83.84437894736843 128.0007619047619 81.67444210526315V49.17052631578947C128.0007619047619 47.00597894736842 127.10918095238095 45.178610526315786 125.32510476190477 43.69077894736842 123.54102857142857 42.20564210526315 121.36959999999999 41.46088421052632 118.8135619047619 41.46088421052632Z" class="hierarchical-1:primary "/><path d="M2.6764342857142855 43.72816842105263C4.460053333333333 42.21675789473684 6.629866666666667 41.46088421052632 9.187215238095238 41.46088421052632 11.685241904761904 41.46088421052632 13.82688 42.21675789473684 15.610819047619048 43.72816842105263 17.394590476190476 45.23974736842105 18.28647619047619 47.05330526315789 18.28647619047619 49.17052631578947V81.67444210526315C18.28647619047619 83.84437894736843 17.40784761904762 85.68185263157895 15.655314285714285 87.19343157894735 13.899337142857142 88.70517894736842 11.742674285714285 89.46088421052632 9.187215238095238 89.46088421052632 6.629866666666667 89.46088421052632 4.460053333333333 88.70501052631577 2.6764342857142855 87.19343157894735 0.8925531428571428 85.68168421052631 0.000744047238095238 83.84437894736843 0.000744047238095238 81.67444210526315V49.17052631578947C0.000744047238095238 47.05364210526315 0.8928213333333334 45.23974736842105 2.6764342857142855 43.72816842105263Z" class="hierarchical-1:primary "/></g>
  <g id="Ultralight-M" transform="matrix(1,0,0,1,495.711,1026.77)">

  <path d="M84.23801904761903 11.768202105263157L90.55420952380952 1.6929684210526317C90.9688380952381 1.025941894736842 90.82133333333333 0.5144488421052631 90.11047619047618 0.15478484210526314 89.33881904761904-0.15535056842105263 88.74590476190475 0.0018000842105263155 88.33158095238095 0.6151275789473684L81.92700952380952 10.770896842105262C76.29150476190476 8.616387368421053 70.33097142857142 7.537162105263157 64.04540952380952 7.537162105263157 57.75862857142857 7.537162105263157 51.797638095238085 8.616623157894736 46.164114285714284 10.770896842105262L39.75923809523809 0.6151275789473684C39.34308571428571 0.0018000842105263155 38.75017142857143-0.15396176842105264 37.98049523809524 0.15478484210526314 37.267961904761904 0.516069052631579 37.12045714285714 1.025941894736842 37.536609523809524 1.6929684210526317L43.85310476190476 11.768202105263157C37.44838095238095 14.592522105263157 32.347276190476194 18.525978947368422 28.55177142857143 23.57692631578947 24.756419047619048 28.630736842105264 22.857904761904763 34.15343157894737 22.857904761904763 40.15477894736842H105.14361904761904C105.14361904761904 34.15494736842105 103.2448 28.63191578947368 99.4496 23.57692631578947 95.65394285714285 18.525978947368422 90.58239999999999 14.592522105263157 84.23801904761903 11.768202105263157ZM47.72038095238095 26.422736842105262C47.03725714285714 27.014905263157893 46.22140952380952 27.309473684210523 45.27314285714285 27.309473684210523 44.322895238095235 27.309473684210523 43.52365714285714 27.014905263157893 42.87161904761904 26.422736842105262 42.21958095238095 25.833599999999997 41.89363809523809 25.13094736842105 41.89363809523809 24.308042105263155 41.89363809523809 23.488 42.21958095238095 22.784 42.87161904761904 22.19334736842105 43.52365714285714 21.604042105263158 44.32472380952381 21.309473684210523 45.27314285714285 21.309473684210523 46.22140952380952 21.309473684210523 47.03725714285714 21.604042105263158 47.72038095238095 22.19334736842105 48.40182857142857 22.785347368421053 48.744076190476186 23.488 48.744076190476186 24.308042105263155 48.74224761904762 25.12943157894737 48.40015238095238 25.833599999999997 47.72038095238095 26.422736842105262ZM85.21569523809524 26.422736842105262C84.5624380952381 27.014905263157893 83.76137142857142 27.309473684210523 82.81462857142856 27.309473684210523 81.86407619047618 27.309473684210523 81.04853333333332 27.014905263157893 80.36678095238095 26.422736842105262 79.6839619047619 25.833599999999997 79.34323809523809 25.13094736842105 79.34323809523809 24.308042105263155 79.34323809523809 23.488 79.6839619047619 22.784 80.36678095238095 22.19334736842105 81.04853333333332 21.604042105263158 81.86407619047618 21.309473684210523 82.81462857142856 21.309473684210523 83.76289523809524 21.309473684210523 84.56213333333332 21.604042105263158 85.21569523809524 22.19334736842105 85.86834285714285 22.785347368421053 86.19382857142857 23.488 86.19382857142857 24.308042105263155 86.19382857142857 25.12943157894737 85.86803809523809 25.833599999999997 85.21569523809524 26.422736842105262Z" class="hierarchical-1:primary "/><path d="M22.857904761904763 94.15242105263157C22.857904761904763 96.5136842105263 23.806171428571428 98.51233684210526 25.703161904761902 100.1525894736842 27.60167619047619 101.79284210526316 29.91314285714286 102.61288421052632 32.64198095238095 102.61288421052632H39.57866666666666L39.66887619047618 120.0762947368421C39.66887619047618 122.28143157894738 40.558323809523806 124.15410526315789 42.337066666666665 125.69246315789474 44.1159619047619 127.23098947368422 46.25219047619048 128 48.74194285714285 128 51.290971428571424 128 53.45630476190476 127.23098947368422 55.23535238095237 125.69246315789474 57.014552380952374 124.15410526315789 57.903999999999996 122.28176842105262 57.903999999999996 120.0762947368421V102.61456842105262H70.1799619047619V120.0762947368421C70.1799619047619 122.28143157894738 71.06910476190475 124.15410526315789 72.84830476190476 125.69246315789474 74.62735238095239 127.23098947368422 76.79085714285713 128 79.34171428571427 128 81.89059047619047 128 84.0559238095238 127.23098947368422 85.83512380952381 125.69246315789474 87.6143238095238 124.15410526315789 88.50346666666665 122.28176842105262 88.50346666666665 120.0762947368421V102.61456842105262H95.44761904761904C98.11596190476189 102.61456842105262 100.39771428571427 101.7941894736842 102.29805714285713 100.15393684210525 104.19474285714284 98.5136842105263 105.14361904761904 96.51503157894736 105.14361904761904 94.1541052631579V42.921263157894735H22.857904761904763V94.15242105263157Z" class="hierarchical-1:primary "/><path d="M118.8135619047619 41.46088421052632C116.31497142857143 41.46088421052632 114.17478095238094 42.20564210526315 112.39070476190476 43.69077894736842 110.60693333333333 45.178610526315786 109.71504761904761 47.00631578947368 109.71504761904761 49.17052631578947V81.67444210526315C109.71504761904761 83.84437894736843 110.60662857142856 85.68168421052631 112.39070476190476 87.19343157894735 114.17478095238094 88.70517894736842 116.31664761904761 89.46088421052632 118.8135619047619 89.46088421052632 121.36959999999999 89.46088421052632 123.54102857142857 88.70517894736842 125.32510476190477 87.19343157894735 127.10918095238095 85.68168421052631 128.0007619047619 83.84437894736843 128.0007619047619 81.67444210526315V49.17052631578947C128.0007619047619 47.00597894736842 127.10918095238095 45.178610526315786 125.32510476190477 43.69077894736842 123.54102857142857 42.20564210526315 121.36959999999999 41.46088421052632 118.8135619047619 41.46088421052632Z" class="hierarchical-1:primary "/><path d="M2.6764342857142855 43.72816842105263C4.460053333333333 42.21675789473684 6.629866666666667 41.46088421052632 9.187215238095238 41.46088421052632 11.685241904761904 41.46088421052632 13.82688 42.21675789473684 15.610819047619048 43.72816842105263 17.394590476190476 45.23974736842105 18.28647619047619 47.05330526315789 18.28647619047619 49.17052631578947V81.67444210526315C18.28647619047619 83.84437894736843 17.40784761904762 85.68185263157895 15.655314285714285 87.19343157894735 13.899337142857142 88.70517894736842 11.742674285714285 89.46088421052632 9.187215238095238 89.46088421052632 6.629866666666667 89.46088421052632 4.460053333333333 88.70501052631577 2.6764342857142855 87.19343157894735 0.8925531428571428 85.68168421052631 0.000744047238095238 83.84437894736843 0.000744047238095238 81.67444210526315V49.17052631578947C0.000744047238095238 47.05364210526315 0.8928213333333334 45.23974736842105 2.6764342857142855 43.72816842105263Z" class="hierarchical-1:primary "/></g>
  <g id="Black-S" transform="matrix(1,0,0,1,2885.3999999999996,612.7705000000001)">

  <path d="M63.17851428571428 8.826151578947368L67.91565714285714 1.2697263157894738C68.22662857142858 0.7694564210526315 68.116 0.3858366315789474 67.58285714285714 0.11608863157894736 67.00411428571428-0.11651292631578947 66.55942857142857 0.0013500631578947367 66.24868571428571 0.4613456842105263L61.445257142857145 8.078172631578948C57.21862857142857 6.4622905263157895 52.74822857142857 5.652871578947368 48.034057142857144 5.652871578947368 43.31897142857142 5.652871578947368 38.848228571428564 6.462467368421052 34.623085714285715 8.078172631578948L29.819428571428567 0.4613456842105263C29.507314285714283 0.0013500631578947367 29.06262857142857-0.11547132631578948 28.48537142857143 0.11608863157894736 27.950971428571428 0.38705178947368424 27.840342857142854 0.7694564210526315 28.152457142857145 1.2697263157894738L32.88982857142857 8.826151578947368C28.086285714285715 10.944391578947368 24.260457142857142 13.894484210526315 21.41382857142857 17.6826947368421 18.567314285714286 21.47305263157895 17.143428571428572 25.615073684210525 17.143428571428572 30.116084210526314H78.85771428571428C78.85771428571428 25.616210526315786 77.4336 21.47393684210526 74.5872 17.6826947368421 71.74045714285714 13.894484210526315 67.93679999999999 10.944391578947368 63.17851428571428 8.826151578947368ZM35.790285714285716 19.817052631578946C35.277942857142854 20.261178947368418 34.66605714285714 20.482105263157894 33.95485714285714 20.482105263157894 33.242171428571424 20.482105263157894 32.642742857142856 20.261178947368418 32.15371428571428 19.817052631578946 31.664685714285714 19.3752 31.42022857142857 18.84821052631579 31.42022857142857 18.231031578947366 31.42022857142857 17.616 31.664685714285714 17.088 32.15371428571428 16.64501052631579 32.642742857142856 16.203031578947368 33.243542857142856 15.982105263157894 33.95485714285714 15.982105263157894 34.66605714285714 15.982105263157894 35.277942857142854 16.203031578947368 35.790285714285716 16.64501052631579 36.30137142857143 17.08901052631579 36.55805714285714 17.616 36.55805714285714 18.231031578947366 36.55668571428571 18.847073684210525 36.30011428571428 19.3752 35.790285714285716 19.817052631578946ZM63.91177142857143 19.817052631578946C63.42182857142857 20.261178947368418 62.82102857142857 20.482105263157894 62.110971428571425 20.482105263157894 61.39805714285714 20.482105263157894 60.78639999999999 20.261178947368418 60.27508571428571 19.817052631578946 59.762971428571426 19.3752 59.50742857142857 18.84821052631579 59.50742857142857 18.231031578947366 59.50742857142857 17.616 59.762971428571426 17.088 60.27508571428571 16.64501052631579 60.78639999999999 16.203031578947368 61.39805714285714 15.982105263157894 62.110971428571425 15.982105263157894 62.82217142857142 15.982105263157894 63.42159999999999 16.203031578947368 63.91177142857143 16.64501052631579 64.40125714285715 17.08901052631579 64.64537142857142 17.616 64.64537142857142 18.231031578947366 64.64537142857142 18.847073684210525 64.40102857142857 19.3752 63.91177142857143 19.817052631578946Z" class="hierarchical-1:primary "/><path d="M17.143428571428572 70.61431578947368C17.143428571428572 72.38526315789473 17.85462857142857 73.88425263157895 19.277371428571428 75.11444210526315 20.701257142857145 76.34463157894737 22.434857142857144 76.95966315789474 24.48148571428571 76.95966315789474H29.684L29.75165714285714 90.05722105263158C29.75165714285714 91.71107368421053 30.418742857142853 93.1155789473684 31.752799999999997 94.26934736842105 33.086971428571424 95.42324210526316 34.689142857142855 96 36.55645714285714 96 38.46822857142857 96 40.09222857142857 95.42324210526316 41.42651428571428 94.26934736842105 42.76091428571428 93.1155789473684 43.428 91.71132631578946 43.428 90.05722105263158V76.96092631578946H52.634971428571426V90.05722105263158C52.634971428571426 91.71107368421053 53.301828571428565 93.1155789473684 54.63622857142857 94.26934736842105 55.97051428571429 95.42324210526316 57.59314285714285 96 59.50628571428571 96 61.41794285714285 96 63.04194285714286 95.42324210526316 64.37634285714286 94.26934736842105 65.71074285714285 93.1155789473684 66.37759999999999 91.71132631578946 66.37759999999999 90.05722105263158V76.96092631578946H71.58571428571429C73.58697142857142 76.96092631578946 75.29828571428571 76.34564210526315 76.72354285714285 75.11545263157895 78.14605714285713 73.88526315789473 78.85771428571428 72.38627368421052 78.85771428571428 70.61557894736842V32.19094736842105H17.143428571428572V70.61431578947368Z" class="hierarchical-1:primary "/><path d="M89.11017142857143 31.095663157894734C87.23622857142857 31.095663157894734 85.6310857142857 31.654231578947368 84.29302857142856 32.76808421052632 82.9552 33.88395789473684 82.28628571428571 35.25473684210526 82.28628571428571 36.8778947368421V61.255831578947365C82.28628571428571 62.88328421052631 82.95497142857143 64.26126315789473 84.29302857142856 65.39507368421052 85.6310857142857 66.52888421052631 87.23748571428571 67.09566315789473 89.11017142857143 67.09566315789473 91.0272 67.09566315789473 92.65577142857143 66.52888421052631 93.99382857142857 65.39507368421052 95.33188571428572 64.26126315789473 96.00057142857142 62.88328421052631 96.00057142857142 61.255831578947365V36.8778947368421C96.00057142857142 35.254484210526314 95.33188571428572 33.88395789473684 93.99382857142857 32.76808421052632 92.65577142857143 31.654231578947368 91.0272 31.095663157894734 89.11017142857143 31.095663157894734Z" class="hierarchical-1:primary "/><path d="M2.0073257142857144 32.79612631578947C3.3450399999999996 31.66256842105263 4.9724 31.095663157894734 6.890411428571428 31.095663157894734 8.763931428571428 31.095663157894734 10.37016 31.66256842105263 11.708114285714284 32.79612631578947 13.045942857142856 33.92981052631579 13.714857142857143 35.28997894736842 13.714857142857143 36.8778947368421V61.255831578947365C13.714857142857143 62.88328421052631 13.055885714285713 64.2613894736842 11.741485714285712 65.39507368421052 10.424502857142857 66.52888421052631 8.807005714285713 67.09566315789473 6.890411428571428 67.09566315789473 4.9724 67.09566315789473 3.3450399999999996 66.52875789473684 2.0073257142857144 65.39507368421052 0.6694148571428571 64.26126315789473 0.0005580354285714286 62.88328421052631 0.0005580354285714286 61.255831578947365V36.8778947368421C0.0005580354285714286 35.29023157894736 0.669616 33.92981052631579 2.0073257142857144 32.79612631578947Z" class="hierarchical-1:primary "/></g>
  <g id="Regular-S" transform="matrix(1,0,0,1,1401.845,612.7705000000001)">

  <path d="M63.17851428571428 8.826151578947368L67.91565714285714 1.2697263157894738C68.22662857142858 0.7694564210526315 68.116 0.3858366315789474 67.58285714285714 0.11608863157894736 67.00411428571428-0.11651292631578947 66.55942857142857 0.0013500631578947367 66.24868571428571 0.4613456842105263L61.445257142857145 8.078172631578948C57.21862857142857 6.4622905263157895 52.74822857142857 5.652871578947368 48.034057142857144 5.652871578947368 43.31897142857142 5.652871578947368 38.848228571428564 6.462467368421052 34.623085714285715 8.078172631578948L29.819428571428567 0.4613456842105263C29.507314285714283 0.0013500631578947367 29.06262857142857-0.11547132631578948 28.48537142857143 0.11608863157894736 27.950971428571428 0.38705178947368424 27.840342857142854 0.7694564210526315 28.152457142857145 1.2697263157894738L32.88982857142857 8.826151578947368C28.086285714285715 10.944391578947368 24.260457142857142 13.894484210526315 21.41382857142857 17.6826947368421 18.567314285714286 21.47305263157895 17.143428571428572 25.615073684210525 17.143428571428572 30.116084210526314H78.85771428571428C78.85771428571428 25.616210526315786 77.4336 21.47393684210526 74.5872 17.6826947368421 71.74045714285714 13.894484210526315 67.93679999999999 10.944391578947368 63.17851428571428 8.826151578947368ZM35.790285714285716 19.817052631578946C35.277942857142854 20.261178947368418 34.66605714285714 20.482105263157894 33.95485714285714 20.482105263157894 33.242171428571424 20.482105263157894 32.642742857142856 20.261178947368418 32.15371428571428 19.817052631578946 31.664685714285714 19.3752 31.42022857142857 18.84821052631579 31.42022857142857 18.231031578947366 31.42022857142857 17.616 31.664685714285714 17.088 32.15371428571428 16.64501052631579 32.642742857142856 16.203031578947368 33.243542857142856 15.982105263157894 33.95485714285714 15.982105263157894 34.66605714285714 15.982105263157894 35.277942857142854 16.203031578947368 35.790285714285716 16.64501052631579 36.30137142857143 17.08901052631579 36.55805714285714 17.616 36.55805714285714 18.231031578947366 36.55668571428571 18.847073684210525 36.30011428571428 19.3752 35.790285714285716 19.817052631578946ZM63.91177142857143 19.817052631578946C63.42182857142857 20.261178947368418 62.82102857142857 20.482105263157894 62.110971428571425 20.482105263157894 61.39805714285714 20.482105263157894 60.78639999999999 20.261178947368418 60.27508571428571 19.817052631578946 59.762971428571426 19.3752 59.50742857142857 18.84821052631579 59.50742857142857 18.231031578947366 59.50742857142857 17.616 59.762971428571426 17.088 60.27508571428571 16.64501052631579 60.78639999999999 16.203031578947368 61.39805714285714 15.982105263157894 62.110971428571425 15.982105263157894 62.82217142857142 15.982105263157894 63.42159999999999 16.203031578947368 63.91177142857143 16.64501052631579 64.40125714285715 17.08901052631579 64.64537142857142 17.616 64.64537142857142 18.231031578947366 64.64537142857142 18.847073684210525 64.40102857142857 19.3752 63.91177142857143 19.817052631578946Z" class="hierarchical-1:primary "/><path d="M17.143428571428572 70.61431578947368C17.143428571428572 72.38526315789473 17.85462857142857 73.88425263157895 19.277371428571428 75.11444210526315 20.701257142857145 76.34463157894737 22.434857142857144 76.95966315789474 24.48148571428571 76.95966315789474H29.684L29.75165714285714 90.05722105263158C29.75165714285714 91.71107368421053 30.418742857142853 93.1155789473684 31.752799999999997 94.26934736842105 33.086971428571424 95.42324210526316 34.689142857142855 96 36.55645714285714 96 38.46822857142857 96 40.09222857142857 95.42324210526316 41.42651428571428 94.26934736842105 42.76091428571428 93.1155789473684 43.428 91.71132631578946 43.428 90.05722105263158V76.96092631578946H52.634971428571426V90.05722105263158C52.634971428571426 91.71107368421053 53.301828571428565 93.1155789473684 54.63622857142857 94.26934736842105 55.97051428571429 95.42324210526316 57.59314285714285 96 59.50628571428571 96 61.41794285714285 96 63.04194285714286 95.42324210526316 64.37634285714286 94.26934736842105 65.71074285714285 93.1155789473684 66.37759999999999 91.71132631578946 66.37759999999999 90.05722105263158V76.96092631578946H71.58571428571429C73.58697142857142 76.96092631578946 75.29828571428571 76.34564210526315 76.72354285714285 75.11545263157895 78.14605714285713 73.88526315789473 78.85771428571428 72.38627368421052 78.85771428571428 70.61557894736842V32.19094736842105H17.143428571428572V70.61431578947368Z" class="hierarchical-1:primary "/><path d="M89.11017142857143 31.095663157894734C87.23622857142857 31.095663157894734 85.6310857142857 31.654231578947368 84.29302857142856 32.76808421052632 82.9552 33.88395789473684 82.28628571428571 35.25473684210526 82.28628571428571 36.8778947368421V61.255831578947365C82.28628571428571 62.88328421052631 82.95497142857143 64.26126315789473 84.29302857142856 65.39507368421052 85.6310857142857 66.52888421052631 87.23748571428571 67.09566315789473 89.11017142857143 67.09566315789473 91.0272 67.09566315789473 92.65577142857143 66.52888421052631 93.99382857142857 65.39507368421052 95.33188571428572 64.26126315789473 96.00057142857142 62.88328421052631 96.00057142857142 61.255831578947365V36.8778947368421C96.00057142857142 35.254484210526314 95.33188571428572 33.88395789473684 93.99382857142857 32.76808421052632 92.65577142857143 31.654231578947368 91.0272 31.095663157894734 89.11017142857143 31.095663157894734Z" class="hierarchical-1:primary "/><path d="M2.0073257142857144 32.79612631578947C3.3450399999999996 31.66256842105263 4.9724 31.095663157894734 6.890411428571428 31.095663157894734 8.763931428571428 31.095663157894734 10.37016 31.66256842105263 11.708114285714284 32.79612631578947 13.045942857142856 33.92981052631579 13.714857142857143 35.28997894736842 13.714857142857143 36.8778947368421V61.255831578947365C13.714857142857143 62.88328421052631 13.055885714285713 64.2613894736842 11.741485714285712 65.39507368421052 10.424502857142857 66.52888421052631 8.807005714285713 67.09566315789473 6.890411428571428 67.09566315789473 4.9724 67.09566315789473 3.3450399999999996 66.52875789473684 2.0073257142857144 65.39507368421052 0.6694148571428571 64.26126315789473 0.0005580354285714286 62.88328421052631 0.0005580354285714286 61.255831578947365V36.8778947368421C0.0005580354285714286 35.29023157894736 0.669616 33.92981052631579 2.0073257142857144 32.79612631578947Z" class="hierarchical-1:primary "/></g>
  <g id="Ultralight-S" transform="matrix(1,0,0,1,511.711,612.7705000000001)">

  <path d="M63.17851428571428 8.826151578947368L67.91565714285714 1.2697263157894738C68.22662857142858 0.7694564210526315 68.116 0.3858366315789474 67.58285714285714 0.11608863157894736 67.00411428571428-0.11651292631578947 66.55942857142857 0.0013500631578947367 66.24868571428571 0.4613456842105263L61.445257142857145 8.078172631578948C57.21862857142857 6.4622905263157895 52.74822857142857 5.652871578947368 48.034057142857144 5.652871578947368 43.31897142857142 5.652871578947368 38.848228571428564 6.462467368421052 34.623085714285715 8.078172631578948L29.819428571428567 0.4613456842105263C29.507314285714283 0.0013500631578947367 29.06262857142857-0.11547132631578948 28.48537142857143 0.11608863157894736 27.950971428571428 0.38705178947368424 27.840342857142854 0.7694564210526315 28.152457142857145 1.2697263157894738L32.88982857142857 8.826151578947368C28.086285714285715 10.944391578947368 24.260457142857142 13.894484210526315 21.41382857142857 17.6826947368421 18.567314285714286 21.47305263157895 17.143428571428572 25.615073684210525 17.143428571428572 30.116084210526314H78.85771428571428C78.85771428571428 25.616210526315786 77.4336 21.47393684210526 74.5872 17.6826947368421 71.74045714285714 13.894484210526315 67.93679999999999 10.944391578947368 63.17851428571428 8.826151578947368ZM35.790285714285716 19.817052631578946C35.277942857142854 20.261178947368418 34.66605714285714 20.482105263157894 33.95485714285714 20.482105263157894 33.242171428571424 20.482105263157894 32.642742857142856 20.261178947368418 32.15371428571428 19.817052631578946 31.664685714285714 19.3752 31.42022857142857 18.84821052631579 31.42022857142857 18.231031578947366 31.42022857142857 17.616 31.664685714285714 17.088 32.15371428571428 16.64501052631579 32.642742857142856 16.203031578947368 33.243542857142856 15.982105263157894 33.95485714285714 15.982105263157894 34.66605714285714 15.982105263157894 35.277942857142854 16.203031578947368 35.790285714285716 16.64501052631579 36.30137142857143 17.08901052631579 36.55805714285714 17.616 36.55805714285714 18.231031578947366 36.55668571428571 18.847073684210525 36.30011428571428 19.3752 35.790285714285716 19.817052631578946ZM63.91177142857143 19.817052631578946C63.42182857142857 20.261178947368418 62.82102857142857 20.482105263157894 62.110971428571425 20.482105263157894 61.39805714285714 20.482105263157894 60.78639999999999 20.261178947368418 60.27508571428571 19.817052631578946 59.762971428571426 19.3752 59.50742857142857 18.84821052631579 59.50742857142857 18.231031578947366 59.50742857142857 17.616 59.762971428571426 17.088 60.27508571428571 16.64501052631579 60.78639999999999 16.203031578947368 61.39805714285714 15.982105263157894 62.110971428571425 15.982105263157894 62.82217142857142 15.982105263157894 63.42159999999999 16.203031578947368 63.91177142857143 16.64501052631579 64.40125714285715 17.08901052631579 64.64537142857142 17.616 64.64537142857142 18.231031578947366 64.64537142857142 18.847073684210525 64.40102857142857 19.3752 63.91177142857143 19.817052631578946Z" class="hierarchical-1:primary "/><path d="M17.143428571428572 70.61431578947368C17.143428571428572 72.38526315789473 17.85462857142857 73.88425263157895 19.277371428571428 75.11444210526315 20.701257142857145 76.34463157894737 22.434857142857144 76.95966315789474 24.48148571428571 76.95966315789474H29.684L29.75165714285714 90.05722105263158C29.75165714285714 91.71107368421053 30.418742857142853 93.1155789473684 31.752799999999997 94.26934736842105 33.086971428571424 95.42324210526316 34.689142857142855 96 36.55645714285714 96 38.46822857142857 96 40.09222857142857 95.42324210526316 41.42651428571428 94.26934736842105 42.76091428571428 93.1155789473684 43.428 91.71132631578946 43.428 90.05722105263158V76.96092631578946H52.634971428571426V90.05722105263158C52.634971428571426 91.71107368421053 53.301828571428565 93.1155789473684 54.63622857142857 94.26934736842105 55.97051428571429 95.42324210526316 57.59314285714285 96 59.50628571428571 96 61.41794285714285 96 63.04194285714286 95.42324210526316 64.37634285714286 94.26934736842105 65.71074285714285 93.1155789473684 66.37759999999999 91.71132631578946 66.37759999999999 90.05722105263158V76.96092631578946H71.58571428571429C73.58697142857142 76.96092631578946 75.29828571428571 76.34564210526315 76.72354285714285 75.11545263157895 78.14605714285713 73.88526315789473 78.85771428571428 72.38627368421052 78.85771428571428 70.61557894736842V32.19094736842105H17.143428571428572V70.61431578947368Z" class="hierarchical-1:primary "/><path d="M89.11017142857143 31.095663157894734C87.23622857142857 31.095663157894734 85.6310857142857 31.654231578947368 84.29302857142856 32.76808421052632 82.9552 33.88395789473684 82.28628571428571 35.25473684210526 82.28628571428571 36.8778947368421V61.255831578947365C82.28628571428571 62.88328421052631 82.95497142857143 64.26126315789473 84.29302857142856 65.39507368421052 85.6310857142857 66.52888421052631 87.23748571428571 67.09566315789473 89.11017142857143 67.09566315789473 91.0272 67.09566315789473 92.65577142857143 66.52888421052631 93.99382857142857 65.39507368421052 95.33188571428572 64.26126315789473 96.00057142857142 62.88328421052631 96.00057142857142 61.255831578947365V36.8778947368421C96.00057142857142 35.254484210526314 95.33188571428572 33.88395789473684 93.99382857142857 32.76808421052632 92.65577142857143 31.654231578947368 91.0272 31.095663157894734 89.11017142857143 31.095663157894734Z" class="hierarchical-1:primary "/><path d="M2.0073257142857144 32.79612631578947C3.3450399999999996 31.66256842105263 4.9724 31.095663157894734 6.890411428571428 31.095663157894734 8.763931428571428 31.095663157894734 10.37016 31.66256842105263 11.708114285714284 32.79612631578947 13.045942857142856 33.92981052631579 13.714857142857143 35.28997894736842 13.714857142857143 36.8778947368421V61.255831578947365C13.714857142857143 62.88328421052631 13.055885714285713 64.2613894736842 11.741485714285712 65.39507368421052 10.424502857142857 66.52888421052631 8.807005714285713 67.09566315789473 6.890411428571428 67.09566315789473 4.9724 67.09566315789473 3.3450399999999996 66.52875789473684 2.0073257142857144 65.39507368421052 0.6694148571428571 64.26126315789473 0.0005580354285714286 62.88328421052631 0.0005580354285714286 61.255831578947365V36.8778947368421C0.0005580354285714286 35.29023157894736 0.669616 33.92981052631579 2.0073257142857144 32.79612631578947Z" class="hierarchical-1:primary "/></g>
 </g>
</svg>