<svg width="24" height="24" viewBox="0 0 24 24" fill="none" xmlns="http://www.w3.org/2000/svg">
<path d="M17.0516 9.15183C17.0516 9.58583 16.7285 9.93766 16.33 9.93766C15.9314 9.93766 15.6083 9.58583 15.6083 9.15183C15.6083 8.71782 15.9314 8.36599 16.33 8.36599C16.7285 8.36599 17.0516 8.71782 17.0516 9.15183Z" fill="white"/>
<path d="M14.8867 11.5093C15.2852 11.5093 15.6083 11.1575 15.6083 10.7235C15.6083 10.2895 15.2852 9.93766 14.8867 9.93766C14.4881 9.93766 14.165 10.2895 14.165 10.7235C14.165 11.1575 14.4881 11.5093 14.8867 11.5093Z" fill="white"/>
<path d="M18.495 10.7235C18.495 11.1575 18.1719 11.5093 17.7733 11.5093C17.3747 11.5093 17.0516 11.1575 17.0516 10.7235C17.0516 10.2895 17.3747 9.93766 17.7733 9.93766C18.1719 9.93766 18.495 10.2895 18.495 10.7235Z" fill="white"/>
<path d="M16.33 13.081C16.7285 13.081 17.0516 12.7292 17.0516 12.2952C17.0516 11.8612 16.7285 11.5093 16.33 11.5093C15.9314 11.5093 15.6083 11.8612 15.6083 12.2952C15.6083 12.7292 15.9314 13.081 16.33 13.081Z" fill="white"/>
<path d="M6.9484 8.36599H8.39172V9.93766H9.83504V11.5093H8.39172V13.081H6.9484V11.5093H5.50508V9.93766H6.9484V8.36599Z" fill="white"/>
<path d="M4.85718 4.80297C4.75403 4.38376 4.98249 3.95285 5.36747 3.84053L8.15575 3.02697C8.54073 2.91464 8.93644 3.16342 9.0396 3.58264C9.04422 3.60141 9.04817 3.6202 9.05147 3.63899C9.99643 3.5154 11.001 3.45454 12 3.45454C13.0381 3.45454 14.0822 3.52025 15.0591 3.65378C15.0629 3.63007 15.0676 3.60633 15.0735 3.58264C15.1766 3.16342 15.5723 2.91464 15.9573 3.02697L18.7456 3.84053C19.1306 3.95285 19.359 4.38376 19.2559 4.80297C19.2398 4.86816 19.2167 4.92922 19.1877 4.98545C19.3899 5.12796 19.5713 5.28336 19.7269 5.45283C20.3152 6.09349 20.8516 7.10364 21.306 8.23806C21.7673 9.38997 22.1709 10.7386 22.468 12.1143C22.765 13.4891 22.9599 14.9112 22.9945 16.2095C23.0286 17.491 22.909 18.7278 22.5201 19.683C22.1594 20.5688 21.3064 21.0878 20.4351 20.9877C19.517 20.8824 18.8248 20.3681 18.2506 19.773C17.8975 19.4069 17.5346 18.9458 17.185 18.5018C17.003 18.2705 16.8244 18.0435 16.6528 17.8372C15.602 16.5737 14.349 15.4385 12 15.4385C9.65104 15.4385 8.39802 16.5737 7.3472 17.8372C7.17558 18.0436 6.99709 18.2704 6.81497 18.5017C6.46543 18.9458 6.10254 19.4069 5.74937 19.773C5.17525 20.3681 4.48304 20.8824 3.56492 20.9877C2.69363 21.0878 1.84055 20.5688 1.47988 19.6829C1.09099 18.7277 0.971418 17.491 1.00553 16.2095C1.04009 14.9112 1.23502 13.4891 1.53197 12.1143C1.82909 10.7386 2.23273 9.38997 2.69407 8.23805C3.14841 7.10363 3.68479 6.09349 4.27313 5.45283C4.45041 5.25979 4.66105 5.08499 4.89797 4.92672C4.8815 4.88741 4.86779 4.84609 4.85718 4.80297ZM7.79618 5.45138C6.53043 5.74155 5.67607 6.1478 5.29371 6.56416C4.89607 6.99717 4.44645 7.79418 4.01705 8.86633C3.59465 9.92099 3.2168 11.1784 2.93695 12.4741C2.65692 13.7706 2.47938 15.0853 2.44824 16.2551C2.41665 17.4417 2.53815 18.4044 2.79934 19.046C2.90062 19.2947 3.15139 19.4548 3.41362 19.4247C3.88635 19.3705 4.29491 19.1107 4.75422 18.6346C5.06074 18.3169 5.333 17.9696 5.6426 17.5746C5.83422 17.3302 6.04016 17.0675 6.27738 16.7822C7.46951 15.3488 9.08101 13.8668 12 13.8668C14.919 13.8668 16.5305 15.3488 17.7226 16.7822C17.9598 17.0675 18.1658 17.3302 18.3574 17.5746C18.667 17.9696 18.9393 18.3169 19.2458 18.6346C19.7051 19.1107 20.1137 19.3705 20.5864 19.4247C20.8486 19.4548 21.0994 19.2947 21.2006 19.046C21.4618 18.4044 21.5833 17.4417 21.5518 16.2551C21.5206 15.0853 21.3431 13.7706 21.0631 12.4741C20.7832 11.1784 20.4054 9.92099 19.983 8.86634C19.5536 7.79418 19.104 6.99717 18.7063 6.56416C18.3239 6.1478 17.4696 5.74155 16.2038 5.45138C14.978 5.17036 13.4959 5.02621 12 5.02621C10.5041 5.02621 9.022 5.17036 7.79618 5.45138Z" fill="white"/>
</svg>
