<svg width="24" height="24" viewBox="0 0 24 24" fill="none" xmlns="http://www.w3.org/2000/svg">
<path d="M16.322 9.46829C16.322 9.85407 16.0136 10.1668 15.6332 10.1668C15.2527 10.1668 14.9443 9.85407 14.9443 9.46829C14.9443 9.08251 15.2527 8.76977 15.6332 8.76977C16.0136 8.76977 16.322 9.08251 16.322 9.46829Z" fill="black"/>
<path d="M14.2554 11.5638C14.6359 11.5638 14.9443 11.2511 14.9443 10.8653C14.9443 10.4795 14.6359 10.1668 14.2554 10.1668C13.875 10.1668 13.5666 10.4795 13.5666 10.8653C13.5666 11.2511 13.875 11.5638 14.2554 11.5638Z" fill="black"/>
<path d="M17.6997 10.8653C17.6997 11.2511 17.3913 11.5638 17.0109 11.5638C16.6304 11.5638 16.322 11.2511 16.322 10.8653C16.322 10.4795 16.6304 10.1668 17.0109 10.1668C17.3913 10.1668 17.6997 10.4795 17.6997 10.8653Z" fill="black"/>
<path d="M15.6332 12.9609C16.0136 12.9609 16.322 12.6481 16.322 12.2624C16.322 11.8766 16.0136 11.5638 15.6332 11.5638C15.2527 11.5638 14.9443 11.8766 14.9443 12.2624C14.9443 12.6481 15.2527 12.9609 15.6332 12.9609Z" fill="black"/>
<path d="M6.67802 8.76977H8.05573V10.1668H9.43345V11.5638H8.05573V12.9609H6.67802V11.5638H5.30031V10.1668H6.67802V8.76977Z" fill="black"/>
<path d="M4.68185 5.60264C4.58339 5.23 4.80147 4.84698 5.16895 4.74713L7.83049 4.02397C8.19797 3.92413 8.57569 4.14527 8.67416 4.5179C8.67857 4.53459 8.68234 4.55129 8.6855 4.56799C9.5875 4.45813 10.5464 4.40404 11.5 4.40404C12.4909 4.40404 13.4875 4.46244 14.4201 4.58114C14.4236 4.56006 14.4282 4.53896 14.4338 4.5179C14.5322 4.14527 14.91 3.92413 15.2774 4.02397L17.939 4.74713C18.3065 4.84698 18.5245 5.23 18.4261 5.60264C18.4108 5.66059 18.3887 5.71486 18.361 5.76484C18.554 5.89152 18.7271 6.02966 18.8757 6.18029C19.4373 6.74977 19.9493 7.64768 20.383 8.65605C20.8233 9.67998 21.2086 10.8788 21.4922 12.1016C21.7757 13.3237 21.9617 14.5877 21.9947 15.7418C22.0273 16.8809 21.9131 17.9802 21.5419 18.8293C21.1976 19.6167 20.3833 20.078 19.5517 19.9891C18.6753 19.8954 18.0145 19.4383 17.4665 18.9093C17.1294 18.5839 16.783 18.1741 16.4494 17.7793C16.2756 17.5737 16.1051 17.372 15.9413 17.1886C14.9383 16.0655 13.7422 15.0564 11.5 15.0564C9.25781 15.0564 8.06175 16.0655 7.05869 17.1886C6.89488 17.3721 6.72449 17.5736 6.55065 17.7793C6.217 18.1741 5.8706 18.5839 5.53349 18.9093C4.98546 19.4383 4.32472 19.8954 3.44833 19.9891C2.61665 20.078 1.80235 19.6167 1.45807 18.8293C1.08685 17.9802 0.972717 16.8809 1.00528 15.7418C1.03827 14.5877 1.22434 13.3237 1.50779 12.1016C1.7914 10.8787 2.17669 9.67997 2.61707 8.65605C3.05075 7.64767 3.56275 6.74977 4.12436 6.18029C4.29358 6.0087 4.49464 5.85332 4.72079 5.71264C4.70507 5.6777 4.69198 5.64097 4.68185 5.60264ZM7.48726 6.179C6.27905 6.43693 5.46353 6.79805 5.09855 7.16815C4.71897 7.55304 4.28979 8.26149 3.87991 9.21452C3.47672 10.152 3.11604 11.2697 2.84891 12.4214C2.58161 13.5739 2.41214 14.7425 2.38241 15.7823C2.35226 16.8371 2.46823 17.6928 2.71755 18.2631C2.81423 18.4842 3.0536 18.6265 3.30391 18.5998C3.75515 18.5515 4.14514 18.3206 4.58358 17.8974C4.87616 17.615 5.13604 17.3063 5.43157 16.9552C5.61449 16.7379 5.81106 16.5044 6.0375 16.2509C7.17544 14.9767 8.71369 13.6594 11.5 13.6594C14.2863 13.6594 15.8246 14.9767 16.9625 16.2509C17.1889 16.5044 17.3855 16.7379 17.5684 16.9552C17.864 17.3063 18.1238 17.615 18.4164 17.8974C18.8549 18.3206 19.2449 18.5515 19.6961 18.5998C19.9464 18.6265 20.1858 18.4842 20.2824 18.2631C20.5318 17.6928 20.6477 16.8371 20.6176 15.7823C20.5879 14.7425 20.4184 13.5739 20.1511 12.4214C19.884 11.2697 19.5233 10.152 19.1201 9.21452C18.7102 8.26149 18.281 7.55304 17.9015 7.16815C17.5365 6.79805 16.721 6.43693 15.5128 6.179C14.3427 5.92921 12.9279 5.80107 11.5 5.80107C10.0721 5.80107 8.65736 5.92921 7.48726 6.179Z" fill="black"/>
</svg>
