<svg width="16" height="16" viewBox="0 0 16 16" fill="none" xmlns="http://www.w3.org/2000/svg">
<path d="M11.5002 6.02648C11.5002 6.30263 11.2764 6.52648 11.0002 6.52648C10.7241 6.52648 10.5002 6.30263 10.5002 6.02648C10.5002 5.75034 10.7241 5.52648 11.0002 5.52648C11.2764 5.52648 11.5002 5.75034 11.5002 6.02648Z" fill="white"/>
<path d="M10.0002 7.52648C10.2764 7.52648 10.5002 7.30263 10.5002 7.02648C10.5002 6.75034 10.2764 6.52648 10.0002 6.52648C9.7241 6.52648 9.50024 6.75034 9.50024 7.02648C9.50024 7.30263 9.7241 7.52648 10.0002 7.52648Z" fill="white"/>
<path d="M12.5002 7.02648C12.5002 7.30263 12.2764 7.52648 12.0002 7.52648C11.7241 7.52648 11.5002 7.30263 11.5002 7.02648C11.5002 6.75034 11.7241 6.52648 12.0002 6.52648C12.2764 6.52648 12.5002 6.75034 12.5002 7.02648Z" fill="white"/>
<path d="M11.0002 8.52648C11.2764 8.52648 11.5002 8.30263 11.5002 8.02648C11.5002 7.75034 11.2764 7.52648 11.0002 7.52648C10.7241 7.52648 10.5002 7.75034 10.5002 8.02648C10.5002 8.30263 10.7241 8.52648 11.0002 8.52648Z" fill="white"/>
<path d="M4.50024 5.52648H5.50024V6.52648H6.50024V7.52648H5.50024V8.52648H4.50024V7.52648H3.50024V6.52648H4.50024V5.52648Z" fill="white"/>
<path d="M3.05135 3.25945C2.97987 2.99271 3.13817 2.71854 3.4049 2.64707L5.33675 2.12944C5.60348 2.05796 5.87765 2.21626 5.94912 2.48299C5.95232 2.49493 5.95506 2.50689 5.95735 2.51884C6.61206 2.44021 7.30808 2.40148 8.00024 2.40148C8.71947 2.40148 9.44286 2.44329 10.1197 2.52825C10.1223 2.51317 10.1256 2.49807 10.1297 2.48299C10.2011 2.21626 10.4753 2.05796 10.742 2.12944L12.6739 2.64707C12.9406 2.71854 13.0989 2.99271 13.0275 3.25945C13.0163 3.30092 13.0003 3.33978 12.9802 3.37555C13.1203 3.46623 13.246 3.5651 13.3538 3.67293C13.7614 4.08056 14.1331 4.72328 14.4478 5.44508C14.7675 6.17801 15.0471 7.03609 15.253 7.91139C15.4587 8.78617 15.5938 9.69098 15.6177 10.5171C15.6414 11.3324 15.5585 12.1193 15.2891 12.7271C15.0392 13.2908 14.4481 13.6209 13.8445 13.5573C13.2083 13.4902 12.7287 13.163 12.331 12.7844C12.0863 12.5514 11.8349 12.2581 11.5927 11.9755C11.4665 11.8284 11.3428 11.684 11.2239 11.5527C10.4959 10.7488 9.6277 10.0265 8.00023 10.0265C6.37276 10.0265 5.50461 10.7488 4.77655 11.5527C4.65765 11.684 4.53398 11.8283 4.4078 11.9755C4.16562 12.2581 3.91419 12.5514 3.66949 12.7844C3.27172 13.163 2.79212 13.4902 2.156 13.5573C1.55234 13.6209 0.961282 13.2908 0.71139 12.7271C0.441947 12.1193 0.359103 11.3324 0.382738 10.5171C0.406684 9.69097 0.541738 8.78616 0.747478 7.91138C0.953339 7.03609 1.233 6.178 1.55264 5.44508C1.86743 4.72328 2.23906 4.08056 2.64669 3.67293C2.76952 3.5501 2.91545 3.43889 3.07961 3.33818C3.06819 3.31317 3.0587 3.28688 3.05135 3.25945ZM5.08762 3.67201C4.21065 3.85663 3.61871 4.11512 3.3538 4.38004C3.07829 4.65555 2.76677 5.16265 2.46926 5.84483C2.17661 6.51588 1.91481 7.31591 1.72092 8.14033C1.5269 8.96526 1.40389 9.80177 1.38232 10.546C1.36043 11.3011 1.44461 11.9136 1.62558 12.3218C1.69575 12.4801 1.86949 12.582 2.05118 12.5628C2.3787 12.5283 2.66178 12.363 2.98001 12.0601C3.19238 11.8579 3.38101 11.6369 3.59552 11.3856C3.72829 11.2301 3.87097 11.0629 4.03533 10.8815C4.86129 9.9694 5.97782 9.02648 8.00023 9.02648C10.0226 9.02648 11.1392 9.9694 11.9651 10.8815C12.1295 11.0629 12.2722 11.2301 12.405 11.3856C12.6195 11.6369 12.8081 11.8579 13.0205 12.0601C13.3387 12.363 13.6218 12.5283 13.9493 12.5628C14.131 12.582 14.3047 12.4801 14.3749 12.3218C14.5559 11.9136 14.64 11.3011 14.6181 10.5461C14.5966 9.80177 14.4736 8.96527 14.2796 8.14033C14.0857 7.31591 13.8239 6.51588 13.5312 5.84483C13.2337 5.16265 12.9222 4.65555 12.6467 4.38004C12.3818 4.11512 11.7898 3.85663 10.9129 3.67201C10.0636 3.49321 9.03667 3.40148 8.00024 3.40148C6.96381 3.40148 5.93693 3.49321 5.08762 3.67201Z" fill="white"/>
</svg>
