<svg xmlns="http://www.w3.org/2000/svg" xmlns:xlink="http://www.w3.org/1999/xlink" version="1.1" width="3300" height="2200">
 <!--glyph: "", point size: 100.0, font version: "17.1d1e1", template writer version: "65.1"-->
<style>

.hierarchical-1:primary {fill:#262626;}
.SFSymbolsPreview262626 {fill:#262626;}
</style>
 <g id="Notes">
  <rect height="2200" id="artboard" style="fill:white;opacity:1" width="3300" x="0" y="0"/>
  <line style="fill:none;stroke:black;opacity:1;stroke-width:0.5;" x1="263" x2="3036" y1="292" y2="292"/>
  <text style="stroke:none;fill:black;font-family:sans-serif;font-size:13;font-weight:bold;" transform="matrix(1 0 0 1 263 322)">Weight/Scale Variations</text>
  <text style="stroke:none;fill:black;font-family:sans-serif;font-size:13;text-anchor:middle;" transform="matrix(1 0 0 1 559.711 322)">Ultralight</text>
  <text style="stroke:none;fill:black;font-family:sans-serif;font-size:13;text-anchor:middle;" transform="matrix(1 0 0 1 856.422 322)">Thin</text>
  <text style="stroke:none;fill:black;font-family:sans-serif;font-size:13;text-anchor:middle;" transform="matrix(1 0 0 1 1153.13 322)">Light</text>
  <text style="stroke:none;fill:black;font-family:sans-serif;font-size:13;text-anchor:middle;" transform="matrix(1 0 0 1 1449.84 322)">Regular</text>
  <text style="stroke:none;fill:black;font-family:sans-serif;font-size:13;text-anchor:middle;" transform="matrix(1 0 0 1 1746.56 322)">Medium</text>
  <text style="stroke:none;fill:black;font-family:sans-serif;font-size:13;text-anchor:middle;" transform="matrix(1 0 0 1 2043.27 322)">Semibold</text>
  <text style="stroke:none;fill:black;font-family:sans-serif;font-size:13;text-anchor:middle;" transform="matrix(1 0 0 1 2339.98 322)">Bold</text>
  <text style="stroke:none;fill:black;font-family:sans-serif;font-size:13;text-anchor:middle;" transform="matrix(1 0 0 1 2636.69 322)">Heavy</text>
  <text style="stroke:none;fill:black;font-family:sans-serif;font-size:13;text-anchor:middle;" transform="matrix(1 0 0 1 2933.4 322)">Black</text>
  <line style="fill:none;stroke:black;opacity:1;stroke-width:0.5;" x1="263" x2="3036" y1="1903" y2="1903"/>
  <g transform="matrix(1 0 0 1 263 1933)">
   <path d="M9.24805 0.830078Q10.8691 0.830078 12.2949 0.214844Q13.7207-0.400391 14.8096-1.49414Q15.8984-2.58789 16.5186-4.01367Q17.1387-5.43945 17.1387-7.05078Q17.1387-8.66211 16.5186-10.0879Q15.8984-11.5137 14.8047-12.6074Q13.7109-13.7012 12.2852-14.3164Q10.8594-14.9316 9.23828-14.9316Q7.62695-14.9316 6.20117-14.3164Q4.77539-13.7012 3.69141-12.6074Q2.60742-11.5137 1.9873-10.0879Q1.36719-8.66211 1.36719-7.05078Q1.36719-5.43945 1.9873-4.01367Q2.60742-2.58789 3.69629-1.49414Q4.78516-0.400391 6.21094 0.214844Q7.63672 0.830078 9.24805 0.830078ZM9.24805-0.654297Q7.91992-0.654297 6.7627-1.14746Q5.60547-1.64062 4.73145-2.51953Q3.85742-3.39844 3.36426-4.56055Q2.87109-5.72266 2.87109-7.05078Q2.87109-8.37891 3.35938-9.54102Q3.84766-10.7031 4.72168-11.582Q5.5957-12.4609 6.75293-12.9541Q7.91016-13.4473 9.23828-13.4473Q10.5762-13.4473 11.7334-12.9541Q12.8906-12.4609 13.7695-11.582Q14.6484-10.7031 15.1465-9.54102Q15.6445-8.37891 15.6445-7.05078Q15.6445-5.72266 15.1514-4.56055Q14.6582-3.39844 13.7842-2.51953Q12.9102-1.64062 11.748-1.14746Q10.5859-0.654297 9.24805-0.654297ZM5.6543-7.05078Q5.6543-6.72852 5.85938-6.52832Q6.06445-6.32812 6.40625-6.32812L8.51562-6.32812L8.51562-4.20898Q8.51562-3.88672 8.71094-3.67676Q8.90625-3.4668 9.23828-3.4668Q9.56055-3.4668 9.77051-3.67676Q9.98047-3.88672 9.98047-4.20898L9.98047-6.32812L12.0898-6.32812Q12.4219-6.32812 12.627-6.52832Q12.832-6.72852 12.832-7.05078Q12.832-7.38281 12.627-7.58789Q12.4219-7.79297 12.0898-7.79297L9.98047-7.79297L9.98047-9.90234Q9.98047-10.2344 9.77051-10.4443Q9.56055-10.6543 9.23828-10.6543Q8.90625-10.6543 8.71094-10.4443Q8.51562-10.2344 8.51562-9.90234L8.51562-7.79297L6.40625-7.79297Q6.06445-7.79297 5.85938-7.58789Q5.6543-7.38281 5.6543-7.05078Z"/>
  </g>
  <g transform="matrix(1 0 0 1 281.867 1933)">
   <path d="M11.709 2.91016Q13.75 2.91016 15.5518 2.12891Q17.3535 1.34766 18.7305-0.0292969Q20.1074-1.40625 20.8887-3.20801Q21.6699-5.00977 21.6699-7.05078Q21.6699-9.0918 20.8887-10.8936Q20.1074-12.6953 18.7305-14.0723Q17.3535-15.4492 15.5469-16.2305Q13.7402-17.0117 11.6992-17.0117Q9.6582-17.0117 7.85645-16.2305Q6.05469-15.4492 4.68262-14.0723Q3.31055-12.6953 2.5293-10.8936Q1.74805-9.0918 1.74805-7.05078Q1.74805-5.00977 2.5293-3.20801Q3.31055-1.40625 4.6875-0.0292969Q6.06445 1.34766 7.86621 2.12891Q9.66797 2.91016 11.709 2.91016ZM11.709 1.25Q9.98047 1.25 8.47656 0.605469Q6.97266-0.0390625 5.83496-1.17676Q4.69727-2.31445 4.05762-3.81836Q3.41797-5.32227 3.41797-7.05078Q3.41797-8.7793 4.05762-10.2832Q4.69727-11.7871 5.83008-12.9297Q6.96289-14.0723 8.4668-14.7119Q9.9707-15.3516 11.6992-15.3516Q13.4277-15.3516 14.9316-14.7119Q16.4355-14.0723 17.5781-12.9297Q18.7207-11.7871 19.3652-10.2832Q20.0098-8.7793 20.0098-7.05078Q20.0098-5.32227 19.3701-3.81836Q18.7305-2.31445 17.5928-1.17676Q16.4551-0.0390625 14.9463 0.605469Q13.4375 1.25 11.709 1.25ZM7.17773-7.05078Q7.17773-6.69922 7.41211-6.47461Q7.64648-6.25 8.01758-6.25L10.8887-6.25L10.8887-3.36914Q10.8887-2.99805 11.1133-2.76855Q11.3379-2.53906 11.6895-2.53906Q12.0605-2.53906 12.29-2.76855Q12.5195-2.99805 12.5195-3.36914L12.5195-6.25L15.4004-6.25Q15.7715-6.25 16.001-6.47461Q16.2305-6.69922 16.2305-7.05078Q16.2305-7.42188 16.001-7.65137Q15.7715-7.88086 15.4004-7.88086L12.5195-7.88086L12.5195-10.752Q12.5195-11.1328 12.29-11.3623Q12.0605-11.5918 11.6895-11.5918Q11.3379-11.5918 11.1133-11.3574Q10.8887-11.123 10.8887-10.752L10.8887-7.88086L8.01758-7.88086Q7.63672-7.88086 7.40723-7.65137Q7.17773-7.42188 7.17773-7.05078Z"/>
  </g>
  <g transform="matrix(1 0 0 1 305.646 1933)">
   <path d="M14.9707 5.66406Q17.0605 5.66406 18.96 5.01465Q20.8594 4.36523 22.4512 3.19336Q24.043 2.02148 25.2197 0.429688Q26.3965-1.16211 27.0459-3.06641Q27.6953-4.9707 27.6953-7.05078Q27.6953-9.14062 27.0459-11.04Q26.3965-12.9395 25.2197-14.5312Q24.043-16.123 22.4512-17.2998Q20.8594-18.4766 18.9551-19.126Q17.0508-19.7754 14.9609-19.7754Q12.8711-19.7754 10.9717-19.126Q9.07227-18.4766 7.48535-17.2998Q5.89844-16.123 4.72168-14.5312Q3.54492-12.9395 2.90039-11.04Q2.25586-9.14062 2.25586-7.05078Q2.25586-4.9707 2.90527-3.06641Q3.55469-1.16211 4.72656 0.429688Q5.89844 2.02148 7.49023 3.19336Q9.08203 4.36523 10.9814 5.01465Q12.8809 5.66406 14.9707 5.66406ZM14.9707 3.84766Q13.1641 3.84766 11.5283 3.2959Q9.89258 2.74414 8.53516 1.74805Q7.17773 0.751953 6.17676-0.610352Q5.17578-1.97266 4.62891-3.6084Q4.08203-5.24414 4.08203-7.05078Q4.08203-8.86719 4.62891-10.5029Q5.17578-12.1387 6.17188-13.501Q7.16797-14.8633 8.52539-15.8594Q9.88281-16.8555 11.5186-17.4023Q13.1543-17.9492 14.9609-17.9492Q16.7773-17.9492 18.4131-17.4023Q20.0488-16.8555 21.4111-15.8594Q22.7734-14.8633 23.7695-13.501Q24.7656-12.1387 25.3174-10.5029Q25.8691-8.86719 25.8691-7.05078Q25.8789-5.24414 25.332-3.6084Q24.7852-1.97266 23.7842-0.610352Q22.7832 0.751953 21.4209 1.74805Q20.0586 2.74414 18.4229 3.2959Q16.7871 3.84766 14.9707 3.84766ZM9.19922-7.05078Q9.19922-6.66992 9.45801-6.4209Q9.7168-6.17188 10.1172-6.17188L14.0625-6.17188L14.0625-2.2168Q14.0625-1.81641 14.3115-1.55762Q14.5605-1.29883 14.9512-1.29883Q15.3516-1.29883 15.6104-1.55273Q15.8691-1.80664 15.8691-2.2168L15.8691-6.17188L19.8242-6.17188Q20.2246-6.17188 20.4785-6.4209Q20.7324-6.66992 20.7324-7.05078Q20.7324-7.46094 20.4785-7.71484Q20.2246-7.96875 19.8242-7.96875L15.8691-7.96875L15.8691-11.9141Q15.8691-12.3242 15.6104-12.583Q15.3516-12.8418 14.9512-12.8418Q14.5605-12.8418 14.3115-12.583Q14.0625-12.3242 14.0625-11.9141L14.0625-7.96875L10.1172-7.96875Q9.70703-7.96875 9.45312-7.71484Q9.19922-7.46094 9.19922-7.05078Z"/>
  </g>
  <text style="stroke:none;fill:black;font-family:sans-serif;font-size:13;font-weight:bold;" transform="matrix(1 0 0 1 263 1953)">Design Variations</text>
  <text style="stroke:none;fill:black;font-family:sans-serif;font-size:13;" transform="matrix(1 0 0 1 263 1971)">Symbols are supported in up to nine weights and three scales.</text>
  <text style="stroke:none;fill:black;font-family:sans-serif;font-size:13;" transform="matrix(1 0 0 1 263 1989)">For optimal layout with text and other symbols, vertically align</text>
  <text style="stroke:none;fill:black;font-family:sans-serif;font-size:13;" transform="matrix(1 0 0 1 263 2007)">symbols with the adjacent text.</text>
  <line style="fill:none;stroke:#00AEEF;stroke-width:0.5;opacity:1.0;" x1="776" x2="776" y1="1919" y2="1933"/>
  <g transform="matrix(1 0 0 1 776 1933)">
   <path d="M3.31055 0.15625Q3.70117 0.15625 3.91602-0.00976562Q4.13086-0.175781 4.26758-0.585938L5.52734-4.0332L11.2891-4.0332L12.5488-0.585938Q12.6855-0.175781 12.9004-0.00976562Q13.1152 0.15625 13.4961 0.15625Q13.8867 0.15625 14.1162-0.0585938Q14.3457-0.273438 14.3457-0.644531Q14.3457-0.869141 14.2383-1.17188L9.6582-13.3691Q9.48242-13.8184 9.17969-14.043Q8.87695-14.2676 8.4082-14.2676Q7.5-14.2676 7.17773-13.3789L2.59766-1.16211Q2.49023-0.859375 2.49023-0.634766Q2.49023-0.263672 2.70996-0.0537109Q2.92969 0.15625 3.31055 0.15625ZM6.00586-5.51758L8.37891-12.0898L8.42773-12.0898L10.8008-5.51758Z"/>
  </g>
  <line style="fill:none;stroke:#00AEEF;stroke-width:0.5;opacity:1.0;" x1="793.197" x2="793.197" y1="1919" y2="1933"/>
  <text style="stroke:none;fill:black;font-family:sans-serif;font-size:13;font-weight:bold;" transform="matrix(1 0 0 1 776 1953)">Margins</text>
  <text style="stroke:none;fill:black;font-family:sans-serif;font-size:13;" transform="matrix(1 0 0 1 776 1971)">Leading and trailing margins on the left and right side of each symbol</text>
  <text style="stroke:none;fill:black;font-family:sans-serif;font-size:13;" transform="matrix(1 0 0 1 776 1989)">can be adjusted by modifying the x-location of the margin guidelines.</text>
  <text style="stroke:none;fill:black;font-family:sans-serif;font-size:13;" transform="matrix(1 0 0 1 776 2007)">Modifications are automatically applied proportionally to all</text>
  <text style="stroke:none;fill:black;font-family:sans-serif;font-size:13;" transform="matrix(1 0 0 1 776 2025)">scales and weights.</text>
  <g transform="matrix(1 0 0 1 1289 1933)">
   <path d="M2.8418 1.86523L4.54102 3.57422Q5.18555 4.22852 5.90332 4.17969Q6.62109 4.13086 7.31445 3.35938L18.0078-8.42773L17.041-9.4043L6.42578 2.27539Q6.16211 2.57812 5.89355 2.61719Q5.625 2.65625 5.27344 2.30469L4.10156 1.14258Q3.75 0.791016 3.79395 0.522461Q3.83789 0.253906 4.14062-0.0195312L15.6152-10.8203L14.6387-11.7871L3.04688-0.898438Q2.30469-0.214844 2.25098 0.498047Q2.19727 1.21094 2.8418 1.86523ZM9.25781-16.3281Q8.94531-16.0254 8.90625-15.6348Q8.86719-15.2441 9.04297-14.9512Q9.21875-14.6777 9.55566-14.541Q9.89258-14.4043 10.3809-14.5215Q11.4746-14.7754 12.5977-14.7314Q13.7207-14.6875 14.7949-13.9844L14.209-12.5293Q13.9551-11.9043 14.0674-11.4404Q14.1797-10.9766 14.5801-10.5664L16.875-8.25195Q17.2363-7.88086 17.5781-7.82227Q17.9199-7.76367 18.3398-7.8418L19.4043-8.03711L20.0684-7.36328L20.0293-6.80664Q20-6.43555 20.1221-6.12305Q20.2441-5.81055 20.6055-5.44922L21.3672-4.70703Q21.7285-4.3457 22.1533-4.33105Q22.5781-4.31641 22.9297-4.66797L25.8398-7.58789Q26.1914-7.93945 26.1816-8.35449Q26.1719-8.76953 25.8105-9.13086L25.0391-9.89258Q24.6875-10.2539 24.3799-10.3857Q24.0723-10.5176 23.7109-10.4883L23.1348-10.4395L22.4902-11.0742L22.7344-12.1973Q22.832-12.6172 22.6953-12.9834Q22.5586-13.3496 22.1191-13.7891L19.9219-15.9766Q18.6719-17.2168 17.2607-17.8369Q15.8496-18.457 14.4189-18.4814Q12.9883-18.5059 11.665-17.959Q10.3418-17.4121 9.25781-16.3281ZM10.752-15.957Q11.6602-16.6211 12.7002-16.9043Q13.7402-17.1875 14.8047-17.085Q15.8691-16.9824 16.8701-16.5137Q17.8711-16.0449 18.7012-15.2051L21.1328-12.793Q21.3086-12.6172 21.3525-12.4512Q21.3965-12.2852 21.3379-12.0312L21.0156-10.5469L22.5195-9.0625L23.5059-9.12109Q23.6914-9.13086 23.7891-9.09668Q23.8867-9.0625 24.0332-8.91602L24.6094-8.33984L22.168-5.89844L21.5918-6.47461Q21.4453-6.62109 21.4062-6.71875Q21.3672-6.81641 21.377-7.01172L21.4453-7.98828L19.9512-9.47266L18.4277-9.21875Q18.1836-9.16992 18.042-9.2041Q17.9004-9.23828 17.7148-9.41406L15.7129-11.416Q15.5176-11.5918 15.4932-11.7529Q15.4688-11.9141 15.5859-12.1875L16.4648-14.2773Q15.293-15.3711 13.8281-15.791Q12.3633-16.2109 10.8398-15.7617Q10.7227-15.7324 10.6885-15.8057Q10.6543-15.8789 10.752-15.957Z"/>
  </g>
  <text style="stroke:none;fill:black;font-family:sans-serif;font-size:13;font-weight:bold;" transform="matrix(1 0 0 1 1289 1953)">Exporting</text>
  <text style="stroke:none;fill:black;font-family:sans-serif;font-size:13;" transform="matrix(1 0 0 1 1289 1971)">Symbols should be outlined when exporting to ensure the</text>
  <text style="stroke:none;fill:black;font-family:sans-serif;font-size:13;" transform="matrix(1 0 0 1 1289 1989)">design is preserved when submitting to Xcode.</text>
  <text id="template-version" style="stroke:none;fill:black;font-family:sans-serif;font-size:13;text-anchor:end;" transform="matrix(1 0 0 1 3036 1933)">Template v.3.0</text>
  <text style="stroke:none;fill:black;font-family:sans-serif;font-size:13;text-anchor:end;" transform="matrix(1 0 0 1 3036 1951)">Requires Xcode 13 or greater</text>
  <text id="descriptive-name" style="stroke:none;fill:black;font-family:sans-serif;font-size:13;text-anchor:end;" transform="matrix(1 0 0 1 3036 1969)">Symbol moniker: amazon</text>
  <text style="stroke:none;fill:black;font-family:sans-serif;font-size:13;text-anchor:end;" transform="matrix(1 0 0 1 3036 1987)">Typeset at 100 points</text>
  <text style="stroke:none;fill:black;font-family:sans-serif;font-size:13;" transform="matrix(1 0 0 1 263 726)">Small</text>
  <text style="stroke:none;fill:black;font-family:sans-serif;font-size:13;" transform="matrix(1 0 0 1 263 1156)">Medium</text>
  <text style="stroke:none;fill:black;font-family:sans-serif;font-size:13;" transform="matrix(1 0 0 1 263 1586)">Large</text>
 </g>
 <g id="Guides">
  <g id="H-reference" style="fill:#27AAE1;stroke:none;" transform="matrix(1 0 0 1 339 696)">
   <path d="M0.976562 0L3.66211 0L29.3457-67.1387L30.0293-67.1387L30.0293-70.459L28.125-70.459ZM11.6699-24.4629L46.9727-24.4629L46.2402-26.709L12.4512-26.709ZM55.127 0L57.7637 0L30.6152-70.459L29.4434-70.459L29.4434-67.1387Z"/>
  </g>
  <line id="Baseline-S" style="fill:none;stroke:#27AAE1;opacity:1;stroke-width:0.5;" x1="263" x2="3036" y1="696" y2="696"/>
  <line id="Capline-S" style="fill:none;stroke:#27AAE1;opacity:1;stroke-width:0.5;" x1="263" x2="3036" y1="625.541" y2="625.541"/>
  <g id="H-reference" style="fill:#27AAE1;stroke:none;" transform="matrix(1 0 0 1 339 1126)">
   <path d="M0.976562 0L3.66211 0L29.3457-67.1387L30.0293-67.1387L30.0293-70.459L28.125-70.459ZM11.6699-24.4629L46.9727-24.4629L46.2402-26.709L12.4512-26.709ZM55.127 0L57.7637 0L30.6152-70.459L29.4434-70.459L29.4434-67.1387Z"/>
  </g>
  <line id="Baseline-M" style="fill:none;stroke:#27AAE1;opacity:1;stroke-width:0.5;" x1="263" x2="3036" y1="1126" y2="1126"/>
  <line id="Capline-M" style="fill:none;stroke:#27AAE1;opacity:1;stroke-width:0.5;" x1="263" x2="3036" y1="1055.54" y2="1055.54"/>
  <g id="H-reference" style="fill:#27AAE1;stroke:none;" transform="matrix(1 0 0 1 339 1556)">
   <path d="M0.976562 0L3.66211 0L29.3457-67.1387L30.0293-67.1387L30.0293-70.459L28.125-70.459ZM11.6699-24.4629L46.9727-24.4629L46.2402-26.709L12.4512-26.709ZM55.127 0L57.7637 0L30.6152-70.459L29.4434-70.459L29.4434-67.1387Z"/>
  </g>
  <line id="Baseline-L" style="fill:none;stroke:#27AAE1;opacity:1;stroke-width:0.5;" x1="263" x2="3036" y1="1556" y2="1556"/>
  <line id="Capline-L" style="fill:none;stroke:#27AAE1;opacity:1;stroke-width:0.5;" x1="263" x2="3036" y1="1485.54" y2="1485.54"/>
  <line id="left-margin-Ultralight-S" style="fill:none;stroke:#00AEEF;stroke-width:0.5;opacity:1.0;" x1="515.351" x2="515.351" y1="600.784" y2="720.121"/>
  <line id="right-margin-Ultralight-S" style="fill:none;stroke:#00AEEF;stroke-width:0.5;opacity:1.0;" x1="604.071" x2="604.071" y1="600.784" y2="720.121"/>
  <line id="left-margin-Regular-S" style="fill:none;stroke:#00AEEF;stroke-width:0.5;opacity:1.0;" x1="1401.75" x2="1401.75" y1="600.784" y2="720.121"/>
  <line id="right-margin-Regular-S" style="fill:none;stroke:#00AEEF;stroke-width:0.5;opacity:1.0;" x1="1497.94" x2="1497.94" y1="600.784" y2="720.121"/>
  <line id="left-margin-Black-S" style="fill:none;stroke:#00AEEF;stroke-width:0.5;opacity:1.0;" x1="2883.2" x2="2883.2" y1="600.784" y2="720.121"/>
  <line id="right-margin-Black-S" style="fill:none;stroke:#00AEEF;stroke-width:0.5;opacity:1.0;" x1="2983.6" x2="2983.6" y1="600.784" y2="720.121"/>
 </g>
 <g id="Symbols">
  <g id="Black-L" transform="matrix(1,0,0,1,2853.3999999999996,1440.77)">

  <path d="M108.12466666666666 119.68000000000002C109.70266666666667 120.51400000000001 111.72666666666667 120.42466666666668 113.12600000000002 119.174L113.18533333333333 119.23400000000001C117.41199999999999 115.48266666666666 125.09333333333333 108.78333333333333 129.41 105.18133333333334 131.13733333333334 103.75333333333334 130.83933333333334 101.46 129.47 99.55533333333334 129.05466666666666 98.98 128.63666666666668 98.41733333333335 128.22133333333335 97.85733333333333 124.766 93.19933333333334 121.49133333333334 88.786 121.49133333333334 79.93599999999999V46.9492C121.49133333333334 45.82213333333333 121.49799999999999 44.7024 121.504 43.5912 121.57666666666667 30.935933333333335 121.64266666666668 19.379066666666667 112.17266666666667 10.539466666666668 104.04533333333333 2.7392000000000003 90.58866666666667 0 80.28800000000001 0 60.16266666666667 0 37.6862 7.502866666666667 32.952666666666666 32.39093333333334 32.4764 35.04106666666667 34.3816 36.439800000000005 36.107933333333335 36.827666666666666L56.650400000000005 39.03026666666667C58.555600000000005 38.9412 59.95433333333334 37.06546666666667 60.312066666666674 35.159666666666666 62.06853333333334 26.5856 69.27333333333334 22.4476 77.34066666666668 22.4476 81.688 22.4476 86.63000000000001 24.0554 89.22 27.95553333333333 91.86466666666666 31.8562 91.82466666666667 37.0518 91.78866666666667 41.7134 91.78466666666667 42.246 91.78066666666666 42.77160000000001 91.78066666666666 43.287533333333336V46.02673333333334C89.80000000000001 46.2526 87.72066666666666 46.465266666666665 85.578 46.68446666666667 74.45066666666668 47.8226 61.61213333333334 49.135866666666665 51.97586666666667 53.3802 38.72853333333334 59.0958 29.4096 70.796 29.4096 87.974 29.4096 109.97466666666668 43.2832 120.96 61.08646666666667 120.96 76.15066666666667 120.96 84.36733333333333 117.418 95.978 105.56866666666667 96.59 106.44933333333333 97.13666666666667 107.258 97.65133333333334 108.01933333333334 100.388 112.07133333333334 102.21000000000001 114.768 108.12466666666666 119.68000000000002ZM60.312066666666674 84.31200000000001C60.312066666666674 66.2704 76.47733333333333 62.99593333333333 91.78066666666666 62.99593333333333L91.78133333333334 68.70466666666667C91.79066666666667 76.458 91.798 83.03933333333333 87.82066666666667 90.028 84.45666666666666 95.98266666666666 79.12733333333334 99.644 73.17333333333335 99.644 65.04553333333334 99.644 60.312066666666674 93.45133333333334 60.312066666666674 84.31200000000001Z" class="hierarchical-1:primary "/><path d="M4.35036 121.74133333333333C30.63806666666667 137.76866666666666 71.32866666666666 162.57666666666668 136.1846666666667 131.71133333333333 138.97933333333336 130.54466666666667 140.93266666666668 132.49266666666668 138.16666666666669 136.024 135.3826666666667 139.58466666666666 113.124 160 75.71000000000001 160 38.321266666666666 160 9.677333333333333 134.456 0.937 123.85800000000002-1.4570533333333333 121.10866666666666 1.3022266666666669 119.86666666666667 2.925666666666667 120.87333333333333L4.35036 121.74133333333333Z" class="hierarchical-1:primary "/><path d="M138.27733333333333 119.42533333333333C143.948 118.72866666666667 152.958 119.15933333333334 154.73133333333334 121.46866666666668 156.07933333333332 123.22666666666669 154.686 131.13 152.40266666666668 136.79533333333336 150.10333333333332 142.43 146.67666666666668 146.412 144.78400000000002 147.94933333333333 142.86533333333335 149.48733333333334 141.45333333333335 148.892 142.47466666666668 146.58266666666668 143.532 144.27333333333334 149.322 129.954 147.02733333333333 126.94800000000001 144.902 124.17 135.26066666666668 125.17533333333333 130.78133333333335 125.64266666666667L129.87266666666667 125.73666666666666C128.92666666666668 125.82133333333334 128.164 125.90666666666667 127.54666666666668 125.97533333333334 125.61800000000001 126.19066666666667 125.10266666666666 126.248 124.81466666666668 125.65666666666668 124.07333333333334 123.57266666666668 132.598 120.102 138.27733333333333 119.42533333333333Z" class="hierarchical-1:primary "/></g>
  <g id="Regular-L" transform="matrix(1,0,0,1,1369.845,1440.77)">

  <path d="M108.12466666666666 119.68000000000002C109.70266666666667 120.51400000000001 111.72666666666667 120.42466666666668 113.12600000000002 119.174L113.18533333333333 119.23400000000001C117.41199999999999 115.48266666666666 125.09333333333333 108.78333333333333 129.41 105.18133333333334 131.13733333333334 103.75333333333334 130.83933333333334 101.46 129.47 99.55533333333334 129.05466666666666 98.98 128.63666666666668 98.41733333333335 128.22133333333335 97.85733333333333 124.766 93.19933333333334 121.49133333333334 88.786 121.49133333333334 79.93599999999999V46.9492C121.49133333333334 45.82213333333333 121.49799999999999 44.7024 121.504 43.5912 121.57666666666667 30.935933333333335 121.64266666666668 19.379066666666667 112.17266666666667 10.539466666666668 104.04533333333333 2.7392000000000003 90.58866666666667 0 80.28800000000001 0 60.16266666666667 0 37.6862 7.502866666666667 32.952666666666666 32.39093333333334 32.4764 35.04106666666667 34.3816 36.439800000000005 36.107933333333335 36.827666666666666L56.650400000000005 39.03026666666667C58.555600000000005 38.9412 59.95433333333334 37.06546666666667 60.312066666666674 35.159666666666666 62.06853333333334 26.5856 69.27333333333334 22.4476 77.34066666666668 22.4476 81.688 22.4476 86.63000000000001 24.0554 89.22 27.95553333333333 91.86466666666666 31.8562 91.82466666666667 37.0518 91.78866666666667 41.7134 91.78466666666667 42.246 91.78066666666666 42.77160000000001 91.78066666666666 43.287533333333336V46.02673333333334C89.80000000000001 46.2526 87.72066666666666 46.465266666666665 85.578 46.68446666666667 74.45066666666668 47.8226 61.61213333333334 49.135866666666665 51.97586666666667 53.3802 38.72853333333334 59.0958 29.4096 70.796 29.4096 87.974 29.4096 109.97466666666668 43.2832 120.96 61.08646666666667 120.96 76.15066666666667 120.96 84.36733333333333 117.418 95.978 105.56866666666667 96.59 106.44933333333333 97.13666666666667 107.258 97.65133333333334 108.01933333333334 100.388 112.07133333333334 102.21000000000001 114.768 108.12466666666666 119.68000000000002ZM60.312066666666674 84.31200000000001C60.312066666666674 66.2704 76.47733333333333 62.99593333333333 91.78066666666666 62.99593333333333L91.78133333333334 68.70466666666667C91.79066666666667 76.458 91.798 83.03933333333333 87.82066666666667 90.028 84.45666666666666 95.98266666666666 79.12733333333334 99.644 73.17333333333335 99.644 65.04553333333334 99.644 60.312066666666674 93.45133333333334 60.312066666666674 84.31200000000001Z" class="hierarchical-1:primary "/><path d="M4.35036 121.74133333333333C30.63806666666667 137.76866666666666 71.32866666666666 162.57666666666668 136.1846666666667 131.71133333333333 138.97933333333336 130.54466666666667 140.93266666666668 132.49266666666668 138.16666666666669 136.024 135.3826666666667 139.58466666666666 113.124 160 75.71000000000001 160 38.321266666666666 160 9.677333333333333 134.456 0.937 123.85800000000002-1.4570533333333333 121.10866666666666 1.3022266666666669 119.86666666666667 2.925666666666667 120.87333333333333L4.35036 121.74133333333333Z" class="hierarchical-1:primary "/><path d="M138.27733333333333 119.42533333333333C143.948 118.72866666666667 152.958 119.15933333333334 154.73133333333334 121.46866666666668 156.07933333333332 123.22666666666669 154.686 131.13 152.40266666666668 136.79533333333336 150.10333333333332 142.43 146.67666666666668 146.412 144.78400000000002 147.94933333333333 142.86533333333335 149.48733333333334 141.45333333333335 148.892 142.47466666666668 146.58266666666668 143.532 144.27333333333334 149.322 129.954 147.02733333333333 126.94800000000001 144.902 124.17 135.26066666666668 125.17533333333333 130.78133333333335 125.64266666666667L129.87266666666667 125.73666666666666C128.92666666666668 125.82133333333334 128.164 125.90666666666667 127.54666666666668 125.97533333333334 125.61800000000001 126.19066666666667 125.10266666666666 126.248 124.81466666666668 125.65666666666668 124.07333333333334 123.57266666666668 132.598 120.102 138.27733333333333 119.42533333333333Z" class="hierarchical-1:primary "/></g>
  <g id="Ultralight-L" transform="matrix(1,0,0,1,479.711,1440.77)">

  <path d="M108.12466666666666 119.68000000000002C109.70266666666667 120.51400000000001 111.72666666666667 120.42466666666668 113.12600000000002 119.174L113.18533333333333 119.23400000000001C117.41199999999999 115.48266666666666 125.09333333333333 108.78333333333333 129.41 105.18133333333334 131.13733333333334 103.75333333333334 130.83933333333334 101.46 129.47 99.55533333333334 129.05466666666666 98.98 128.63666666666668 98.41733333333335 128.22133333333335 97.85733333333333 124.766 93.19933333333334 121.49133333333334 88.786 121.49133333333334 79.93599999999999V46.9492C121.49133333333334 45.82213333333333 121.49799999999999 44.7024 121.504 43.5912 121.57666666666667 30.935933333333335 121.64266666666668 19.379066666666667 112.17266666666667 10.539466666666668 104.04533333333333 2.7392000000000003 90.58866666666667 0 80.28800000000001 0 60.16266666666667 0 37.6862 7.502866666666667 32.952666666666666 32.39093333333334 32.4764 35.04106666666667 34.3816 36.439800000000005 36.107933333333335 36.827666666666666L56.650400000000005 39.03026666666667C58.555600000000005 38.9412 59.95433333333334 37.06546666666667 60.312066666666674 35.159666666666666 62.06853333333334 26.5856 69.27333333333334 22.4476 77.34066666666668 22.4476 81.688 22.4476 86.63000000000001 24.0554 89.22 27.95553333333333 91.86466666666666 31.8562 91.82466666666667 37.0518 91.78866666666667 41.7134 91.78466666666667 42.246 91.78066666666666 42.77160000000001 91.78066666666666 43.287533333333336V46.02673333333334C89.80000000000001 46.2526 87.72066666666666 46.465266666666665 85.578 46.68446666666667 74.45066666666668 47.8226 61.61213333333334 49.135866666666665 51.97586666666667 53.3802 38.72853333333334 59.0958 29.4096 70.796 29.4096 87.974 29.4096 109.97466666666668 43.2832 120.96 61.08646666666667 120.96 76.15066666666667 120.96 84.36733333333333 117.418 95.978 105.56866666666667 96.59 106.44933333333333 97.13666666666667 107.258 97.65133333333334 108.01933333333334 100.388 112.07133333333334 102.21000000000001 114.768 108.12466666666666 119.68000000000002ZM60.312066666666674 84.31200000000001C60.312066666666674 66.2704 76.47733333333333 62.99593333333333 91.78066666666666 62.99593333333333L91.78133333333334 68.70466666666667C91.79066666666667 76.458 91.798 83.03933333333333 87.82066666666667 90.028 84.45666666666666 95.98266666666666 79.12733333333334 99.644 73.17333333333335 99.644 65.04553333333334 99.644 60.312066666666674 93.45133333333334 60.312066666666674 84.31200000000001Z" class="hierarchical-1:primary "/><path d="M4.35036 121.74133333333333C30.63806666666667 137.76866666666666 71.32866666666666 162.57666666666668 136.1846666666667 131.71133333333333 138.97933333333336 130.54466666666667 140.93266666666668 132.49266666666668 138.16666666666669 136.024 135.3826666666667 139.58466666666666 113.124 160 75.71000000000001 160 38.321266666666666 160 9.677333333333333 134.456 0.937 123.85800000000002-1.4570533333333333 121.10866666666666 1.3022266666666669 119.86666666666667 2.925666666666667 120.87333333333333L4.35036 121.74133333333333Z" class="hierarchical-1:primary "/><path d="M138.27733333333333 119.42533333333333C143.948 118.72866666666667 152.958 119.15933333333334 154.73133333333334 121.46866666666668 156.07933333333332 123.22666666666669 154.686 131.13 152.40266666666668 136.79533333333336 150.10333333333332 142.43 146.67666666666668 146.412 144.78400000000002 147.94933333333333 142.86533333333335 149.48733333333334 141.45333333333335 148.892 142.47466666666668 146.58266666666668 143.532 144.27333333333334 149.322 129.954 147.02733333333333 126.94800000000001 144.902 124.17 135.26066666666668 125.17533333333333 130.78133333333335 125.64266666666667L129.87266666666667 125.73666666666666C128.92666666666668 125.82133333333334 128.164 125.90666666666667 127.54666666666668 125.97533333333334 125.61800000000001 126.19066666666667 125.10266666666666 126.248 124.81466666666668 125.65666666666668 124.07333333333334 123.57266666666668 132.598 120.102 138.27733333333333 119.42533333333333Z" class="hierarchical-1:primary "/></g>
  <g id="Black-M" transform="matrix(1,0,0,1,2869.3999999999996,1026.77)">

  <path d="M86.49973333333332 95.744C87.76213333333334 96.41120000000001 89.38133333333333 96.33973333333333 90.5008 95.3392L90.54826666666665 95.3872C93.9296 92.38613333333332 100.07466666666666 87.02666666666666 103.52799999999999 84.14506666666666 104.90986666666666 83.00266666666667 104.67146666666667 81.16799999999999 103.576 79.64426666666665 103.24373333333332 79.184 102.90933333333334 78.73386666666667 102.57706666666667 78.28586666666666 99.8128 74.55946666666667 97.19306666666667 71.02879999999999 97.19306666666667 63.94879999999999V37.55936C97.19306666666667 36.65770666666666 97.19839999999999 35.761919999999996 97.2032 34.87296 97.26133333333333 24.748746666666666 97.31413333333333 15.503253333333333 89.73813333333334 8.431573333333333 83.23626666666667 2.19136 72.47093333333333 0 64.2304 0 48.13013333333333 0 30.148959999999995 6.002293333333332 26.362133333333333 25.912746666666667 25.981119999999997 28.032853333333335 27.50528 29.15184 28.886346666666668 29.46213333333333L45.320319999999995 31.22421333333333C46.844480000000004 31.152959999999997 47.96346666666666 29.652373333333333 48.249653333333335 28.12773333333333 49.654826666666665 21.268479999999997 55.41866666666667 17.95808 61.87253333333334 17.95808 65.3504 17.95808 69.304 19.24432 71.37599999999999 22.364426666666663 73.49173333333333 25.48496 73.45973333333333 29.641439999999996 73.43093333333333 33.37072 73.42773333333332 33.7968 73.42453333333333 34.21728 73.42453333333333 34.630026666666666V36.82138666666667C71.84 37.00208 70.17653333333332 37.17221333333333 68.4624 37.34757333333333 59.56053333333333 38.25808 49.28970666666667 39.30869333333333 41.58069333333333 42.70416 30.982826666666668 47.27663999999999 23.527679999999997 56.6368 23.527679999999997 70.3792 23.527679999999997 87.97973333333334 34.62656 96.76799999999999 48.86917333333333 96.76799999999999 60.920533333333324 96.76799999999999 67.49386666666666 93.9344 76.7824 84.45493333333333 77.27199999999999 85.15946666666666 77.70933333333332 85.8064 78.12106666666666 86.41546666666666 80.31039999999999 89.65706666666667 81.768 91.81439999999999 86.49973333333332 95.744ZM48.249653333333335 67.4496C48.249653333333335 53.01631999999999 61.181866666666664 50.39674666666666 73.42453333333333 50.39674666666666L73.42506666666667 54.96373333333333C73.43253333333332 61.166399999999996 73.4384 66.43146666666667 70.25653333333332 72.0224 67.56533333333333 76.78613333333332 63.30186666666666 79.7152 58.53866666666667 79.7152 52.03642666666667 79.7152 48.249653333333335 74.76106666666666 48.249653333333335 67.4496Z" class="hierarchical-1:primary "/><path d="M3.480288 97.39306666666666C24.510453333333334 110.21493333333332 57.062933333333326 130.06133333333332 108.94773333333333 105.36906666666665 111.18346666666667 104.43573333333333 112.74613333333333 105.99413333333332 110.53333333333333 108.8192 108.30613333333334 111.66773333333333 90.49919999999999 128 60.568 128 30.65701333333333 128 7.741866666666667 107.56479999999999 0.7496 99.0864-1.1656426666666666 96.88693333333333 1.0417813333333332 95.89333333333333 2.340533333333333 96.69866666666667L3.480288 97.39306666666666Z" class="hierarchical-1:primary "/><path d="M110.62186666666665 95.54026666666665C115.15839999999999 94.98293333333334 122.3664 95.32746666666665 123.78506666666667 97.17493333333334 124.86346666666665 98.58133333333333 123.74879999999999 104.904 121.92213333333332 109.43626666666667 120.08266666666665 113.94399999999999 117.34133333333332 117.1296 115.8272 118.35946666666666 114.29226666666666 119.58986666666667 113.16266666666667 119.11359999999999 113.97973333333334 117.26613333333333 114.82560000000001 115.41866666666665 119.45759999999999 103.96319999999999 117.62186666666665 101.5584 115.92159999999998 99.33599999999998 108.20853333333334 100.14026666666666 104.62506666666667 100.51413333333332L103.89813333333332 100.58933333333331C103.14133333333332 100.65706666666667 102.53119999999998 100.72533333333332 102.03733333333334 100.78026666666666 100.4944 100.95253333333332 100.08213333333333 100.9984 99.85173333333333 100.52533333333334 99.25866666666667 98.85813333333334 106.0784 96.0816 110.62186666666665 95.54026666666665Z" class="hierarchical-1:primary "/></g>
  <g id="Regular-M" transform="matrix(1,0,0,1,1385.845,1026.77)">

  <path d="M86.49973333333332 95.744C87.76213333333334 96.41120000000001 89.38133333333333 96.33973333333333 90.5008 95.3392L90.54826666666665 95.3872C93.9296 92.38613333333332 100.07466666666666 87.02666666666666 103.52799999999999 84.14506666666666 104.90986666666666 83.00266666666667 104.67146666666667 81.16799999999999 103.576 79.64426666666665 103.24373333333332 79.184 102.90933333333334 78.73386666666667 102.57706666666667 78.28586666666666 99.8128 74.55946666666667 97.19306666666667 71.02879999999999 97.19306666666667 63.94879999999999V37.55936C97.19306666666667 36.65770666666666 97.19839999999999 35.761919999999996 97.2032 34.87296 97.26133333333333 24.748746666666666 97.31413333333333 15.503253333333333 89.73813333333334 8.431573333333333 83.23626666666667 2.19136 72.47093333333333 0 64.2304 0 48.13013333333333 0 30.148959999999995 6.002293333333332 26.362133333333333 25.912746666666667 25.981119999999997 28.032853333333335 27.50528 29.15184 28.886346666666668 29.46213333333333L45.320319999999995 31.22421333333333C46.844480000000004 31.152959999999997 47.96346666666666 29.652373333333333 48.249653333333335 28.12773333333333 49.654826666666665 21.268479999999997 55.41866666666667 17.95808 61.87253333333334 17.95808 65.3504 17.95808 69.304 19.24432 71.37599999999999 22.364426666666663 73.49173333333333 25.48496 73.45973333333333 29.641439999999996 73.43093333333333 33.37072 73.42773333333332 33.7968 73.42453333333333 34.21728 73.42453333333333 34.630026666666666V36.82138666666667C71.84 37.00208 70.17653333333332 37.17221333333333 68.4624 37.34757333333333 59.56053333333333 38.25808 49.28970666666667 39.30869333333333 41.58069333333333 42.70416 30.982826666666668 47.27663999999999 23.527679999999997 56.6368 23.527679999999997 70.3792 23.527679999999997 87.97973333333334 34.62656 96.76799999999999 48.86917333333333 96.76799999999999 60.920533333333324 96.76799999999999 67.49386666666666 93.9344 76.7824 84.45493333333333 77.27199999999999 85.15946666666666 77.70933333333332 85.8064 78.12106666666666 86.41546666666666 80.31039999999999 89.65706666666667 81.768 91.81439999999999 86.49973333333332 95.744ZM48.249653333333335 67.4496C48.249653333333335 53.01631999999999 61.181866666666664 50.39674666666666 73.42453333333333 50.39674666666666L73.42506666666667 54.96373333333333C73.43253333333332 61.166399999999996 73.4384 66.43146666666667 70.25653333333332 72.0224 67.56533333333333 76.78613333333332 63.30186666666666 79.7152 58.53866666666667 79.7152 52.03642666666667 79.7152 48.249653333333335 74.76106666666666 48.249653333333335 67.4496Z" class="hierarchical-1:primary "/><path d="M3.480288 97.39306666666666C24.510453333333334 110.21493333333332 57.062933333333326 130.06133333333332 108.94773333333333 105.36906666666665 111.18346666666667 104.43573333333333 112.74613333333333 105.99413333333332 110.53333333333333 108.8192 108.30613333333334 111.66773333333333 90.49919999999999 128 60.568 128 30.65701333333333 128 7.741866666666667 107.56479999999999 0.7496 99.0864-1.1656426666666666 96.88693333333333 1.0417813333333332 95.89333333333333 2.340533333333333 96.69866666666667L3.480288 97.39306666666666Z" class="hierarchical-1:primary "/><path d="M110.62186666666665 95.54026666666665C115.15839999999999 94.98293333333334 122.3664 95.32746666666665 123.78506666666667 97.17493333333334 124.86346666666665 98.58133333333333 123.74879999999999 104.904 121.92213333333332 109.43626666666667 120.08266666666665 113.94399999999999 117.34133333333332 117.1296 115.8272 118.35946666666666 114.29226666666666 119.58986666666667 113.16266666666667 119.11359999999999 113.97973333333334 117.26613333333333 114.82560000000001 115.41866666666665 119.45759999999999 103.96319999999999 117.62186666666665 101.5584 115.92159999999998 99.33599999999998 108.20853333333334 100.14026666666666 104.62506666666667 100.51413333333332L103.89813333333332 100.58933333333331C103.14133333333332 100.65706666666667 102.53119999999998 100.72533333333332 102.03733333333334 100.78026666666666 100.4944 100.95253333333332 100.08213333333333 100.9984 99.85173333333333 100.52533333333334 99.25866666666667 98.85813333333334 106.0784 96.0816 110.62186666666665 95.54026666666665Z" class="hierarchical-1:primary "/></g>
  <g id="Ultralight-M" transform="matrix(1,0,0,1,495.711,1026.77)">

  <path d="M86.49973333333332 95.744C87.76213333333334 96.41120000000001 89.38133333333333 96.33973333333333 90.5008 95.3392L90.54826666666665 95.3872C93.9296 92.38613333333332 100.07466666666666 87.02666666666666 103.52799999999999 84.14506666666666 104.90986666666666 83.00266666666667 104.67146666666667 81.16799999999999 103.576 79.64426666666665 103.24373333333332 79.184 102.90933333333334 78.73386666666667 102.57706666666667 78.28586666666666 99.8128 74.55946666666667 97.19306666666667 71.02879999999999 97.19306666666667 63.94879999999999V37.55936C97.19306666666667 36.65770666666666 97.19839999999999 35.761919999999996 97.2032 34.87296 97.26133333333333 24.748746666666666 97.31413333333333 15.503253333333333 89.73813333333334 8.431573333333333 83.23626666666667 2.19136 72.47093333333333 0 64.2304 0 48.13013333333333 0 30.148959999999995 6.002293333333332 26.362133333333333 25.912746666666667 25.981119999999997 28.032853333333335 27.50528 29.15184 28.886346666666668 29.46213333333333L45.320319999999995 31.22421333333333C46.844480000000004 31.152959999999997 47.96346666666666 29.652373333333333 48.249653333333335 28.12773333333333 49.654826666666665 21.268479999999997 55.41866666666667 17.95808 61.87253333333334 17.95808 65.3504 17.95808 69.304 19.24432 71.37599999999999 22.364426666666663 73.49173333333333 25.48496 73.45973333333333 29.641439999999996 73.43093333333333 33.37072 73.42773333333332 33.7968 73.42453333333333 34.21728 73.42453333333333 34.630026666666666V36.82138666666667C71.84 37.00208 70.17653333333332 37.17221333333333 68.4624 37.34757333333333 59.56053333333333 38.25808 49.28970666666667 39.30869333333333 41.58069333333333 42.70416 30.982826666666668 47.27663999999999 23.527679999999997 56.6368 23.527679999999997 70.3792 23.527679999999997 87.97973333333334 34.62656 96.76799999999999 48.86917333333333 96.76799999999999 60.920533333333324 96.76799999999999 67.49386666666666 93.9344 76.7824 84.45493333333333 77.27199999999999 85.15946666666666 77.70933333333332 85.8064 78.12106666666666 86.41546666666666 80.31039999999999 89.65706666666667 81.768 91.81439999999999 86.49973333333332 95.744ZM48.249653333333335 67.4496C48.249653333333335 53.01631999999999 61.181866666666664 50.39674666666666 73.42453333333333 50.39674666666666L73.42506666666667 54.96373333333333C73.43253333333332 61.166399999999996 73.4384 66.43146666666667 70.25653333333332 72.0224 67.56533333333333 76.78613333333332 63.30186666666666 79.7152 58.53866666666667 79.7152 52.03642666666667 79.7152 48.249653333333335 74.76106666666666 48.249653333333335 67.4496Z" class="hierarchical-1:primary "/><path d="M3.480288 97.39306666666666C24.510453333333334 110.21493333333332 57.062933333333326 130.06133333333332 108.94773333333333 105.36906666666665 111.18346666666667 104.43573333333333 112.74613333333333 105.99413333333332 110.53333333333333 108.8192 108.30613333333334 111.66773333333333 90.49919999999999 128 60.568 128 30.65701333333333 128 7.741866666666667 107.56479999999999 0.7496 99.0864-1.1656426666666666 96.88693333333333 1.0417813333333332 95.89333333333333 2.340533333333333 96.69866666666667L3.480288 97.39306666666666Z" class="hierarchical-1:primary "/><path d="M110.62186666666665 95.54026666666665C115.15839999999999 94.98293333333334 122.3664 95.32746666666665 123.78506666666667 97.17493333333334 124.86346666666665 98.58133333333333 123.74879999999999 104.904 121.92213333333332 109.43626666666667 120.08266666666665 113.94399999999999 117.34133333333332 117.1296 115.8272 118.35946666666666 114.29226666666666 119.58986666666667 113.16266666666667 119.11359999999999 113.97973333333334 117.26613333333333 114.82560000000001 115.41866666666665 119.45759999999999 103.96319999999999 117.62186666666665 101.5584 115.92159999999998 99.33599999999998 108.20853333333334 100.14026666666666 104.62506666666667 100.51413333333332L103.89813333333332 100.58933333333331C103.14133333333332 100.65706666666667 102.53119999999998 100.72533333333332 102.03733333333334 100.78026666666666 100.4944 100.95253333333332 100.08213333333333 100.9984 99.85173333333333 100.52533333333334 99.25866666666667 98.85813333333334 106.0784 96.0816 110.62186666666665 95.54026666666665Z" class="hierarchical-1:primary "/></g>
  <g id="Black-S" transform="matrix(1,0,0,1,2885.3999999999996,612.7705000000001)">

  <path d="M64.8748 71.808C65.8216 72.3084 67.036 72.2548 67.8756 71.5044L67.9112 71.5404C70.4472 69.2896 75.056 65.27 77.646 63.1088 78.6824 62.252 78.5036 60.876 77.682 59.7332 77.4328 59.388 77.182 59.0504 76.9328 58.7144 74.8596 55.9196 72.8948 53.2716 72.8948 47.9616V28.16952C72.8948 27.49328 72.8988 26.82144 72.9024 26.15472 72.946 18.56156 72.9856 11.62744 67.3036 6.32368 62.4272 1.64352 54.3532 0 48.1728 0 36.0976 0 22.61172 4.50172 19.7716 19.43456 19.48584 21.02464 20.62896 21.86388 21.66476 22.0966L33.99024 23.41816C35.13336 23.36472 35.9726 22.23928 36.18724 21.0958 37.24112 15.95136 41.564 13.46856 46.4044 13.46856 49.0128 13.46856 51.978 14.43324 53.532 16.77332 55.1188 19.11372 55.0948 22.23108 55.0732 25.02804 55.0708 25.3476 55.0684 25.66296 55.0684 25.97252V27.61604C53.88 27.75156 52.6324 27.87916 51.3468 28.01068 44.6704 28.69356 36.96728 29.48152 31.18552 32.02812 23.23712 35.45748 17.64576 42.4776 17.64576 52.7844 17.64576 65.9848 25.96992 72.576 36.65188 72.576 45.6904 72.576 50.6204 70.4508 57.5868 63.3412 57.954 63.8696 58.282 64.3548 58.5908 64.8116 60.2328 67.2428 61.326 68.8608 64.8748 71.808ZM36.18724 50.5872C36.18724 39.76224 45.8864 37.79756 55.0684 37.79756L55.0688 41.2228C55.0744 45.8748 55.0788 49.8236 52.6924 54.0168 50.674 57.5896 47.4764 59.7864 43.904 59.7864 39.02732 59.7864 36.18724 56.0708 36.18724 50.5872Z" class="hierarchical-1:primary "/><path d="M2.610216 73.0448C18.38284 82.6612 42.7972 97.546 81.7108 79.0268 83.3876 78.3268 84.5596 79.4956 82.9 81.6144 81.2296 83.7508 67.8744 96 45.426 96 22.99276 96 5.8064 80.6736 0.5622 74.3148-0.874232 72.6652 0.781336 71.92 1.7554 72.524L2.610216 73.0448Z" class="hierarchical-1:primary "/><path d="M82.9664 71.6552C86.3688 71.2372 91.7748 71.4956 92.8388 72.8812 93.6476 73.936 92.8116 78.678 91.4416 82.0772 90.062 85.458 88.006 87.8472 86.8704 88.7696 85.7192 89.6924 84.872 89.3352 85.4848 87.9496 86.1192 86.564 89.5932 77.9724 88.2164 76.1688 86.9412 74.502 81.1564 75.1052 78.4688 75.3856L77.9236 75.442C77.356 75.4928 76.8984 75.544 76.528 75.5852 75.3708 75.7144 75.0616 75.7488 74.8888 75.394 74.444 74.1436 79.5588 72.0612 82.9664 71.6552Z" class="hierarchical-1:primary "/></g>
  <g id="Regular-S" transform="matrix(1,0,0,1,1401.845,612.7705000000001)">

  <path d="M64.8748 71.808C65.8216 72.3084 67.036 72.2548 67.8756 71.5044L67.9112 71.5404C70.4472 69.2896 75.056 65.27 77.646 63.1088 78.6824 62.252 78.5036 60.876 77.682 59.7332 77.4328 59.388 77.182 59.0504 76.9328 58.7144 74.8596 55.9196 72.8948 53.2716 72.8948 47.9616V28.16952C72.8948 27.49328 72.8988 26.82144 72.9024 26.15472 72.946 18.56156 72.9856 11.62744 67.3036 6.32368 62.4272 1.64352 54.3532 0 48.1728 0 36.0976 0 22.61172 4.50172 19.7716 19.43456 19.48584 21.02464 20.62896 21.86388 21.66476 22.0966L33.99024 23.41816C35.13336 23.36472 35.9726 22.23928 36.18724 21.0958 37.24112 15.95136 41.564 13.46856 46.4044 13.46856 49.0128 13.46856 51.978 14.43324 53.532 16.77332 55.1188 19.11372 55.0948 22.23108 55.0732 25.02804 55.0708 25.3476 55.0684 25.66296 55.0684 25.97252V27.61604C53.88 27.75156 52.6324 27.87916 51.3468 28.01068 44.6704 28.69356 36.96728 29.48152 31.18552 32.02812 23.23712 35.45748 17.64576 42.4776 17.64576 52.7844 17.64576 65.9848 25.96992 72.576 36.65188 72.576 45.6904 72.576 50.6204 70.4508 57.5868 63.3412 57.954 63.8696 58.282 64.3548 58.5908 64.8116 60.2328 67.2428 61.326 68.8608 64.8748 71.808ZM36.18724 50.5872C36.18724 39.76224 45.8864 37.79756 55.0684 37.79756L55.0688 41.2228C55.0744 45.8748 55.0788 49.8236 52.6924 54.0168 50.674 57.5896 47.4764 59.7864 43.904 59.7864 39.02732 59.7864 36.18724 56.0708 36.18724 50.5872Z" class="hierarchical-1:primary "/><path d="M2.610216 73.0448C18.38284 82.6612 42.7972 97.546 81.7108 79.0268 83.3876 78.3268 84.5596 79.4956 82.9 81.6144 81.2296 83.7508 67.8744 96 45.426 96 22.99276 96 5.8064 80.6736 0.5622 74.3148-0.874232 72.6652 0.781336 71.92 1.7554 72.524L2.610216 73.0448Z" class="hierarchical-1:primary "/><path d="M82.9664 71.6552C86.3688 71.2372 91.7748 71.4956 92.8388 72.8812 93.6476 73.936 92.8116 78.678 91.4416 82.0772 90.062 85.458 88.006 87.8472 86.8704 88.7696 85.7192 89.6924 84.872 89.3352 85.4848 87.9496 86.1192 86.564 89.5932 77.9724 88.2164 76.1688 86.9412 74.502 81.1564 75.1052 78.4688 75.3856L77.9236 75.442C77.356 75.4928 76.8984 75.544 76.528 75.5852 75.3708 75.7144 75.0616 75.7488 74.8888 75.394 74.444 74.1436 79.5588 72.0612 82.9664 71.6552Z" class="hierarchical-1:primary "/></g>
  <g id="Ultralight-S" transform="matrix(1,0,0,1,511.711,612.7705000000001)">

  <path d="M64.8748 71.808C65.8216 72.3084 67.036 72.2548 67.8756 71.5044L67.9112 71.5404C70.4472 69.2896 75.056 65.27 77.646 63.1088 78.6824 62.252 78.5036 60.876 77.682 59.7332 77.4328 59.388 77.182 59.0504 76.9328 58.7144 74.8596 55.9196 72.8948 53.2716 72.8948 47.9616V28.16952C72.8948 27.49328 72.8988 26.82144 72.9024 26.15472 72.946 18.56156 72.9856 11.62744 67.3036 6.32368 62.4272 1.64352 54.3532 0 48.1728 0 36.0976 0 22.61172 4.50172 19.7716 19.43456 19.48584 21.02464 20.62896 21.86388 21.66476 22.0966L33.99024 23.41816C35.13336 23.36472 35.9726 22.23928 36.18724 21.0958 37.24112 15.95136 41.564 13.46856 46.4044 13.46856 49.0128 13.46856 51.978 14.43324 53.532 16.77332 55.1188 19.11372 55.0948 22.23108 55.0732 25.02804 55.0708 25.3476 55.0684 25.66296 55.0684 25.97252V27.61604C53.88 27.75156 52.6324 27.87916 51.3468 28.01068 44.6704 28.69356 36.96728 29.48152 31.18552 32.02812 23.23712 35.45748 17.64576 42.4776 17.64576 52.7844 17.64576 65.9848 25.96992 72.576 36.65188 72.576 45.6904 72.576 50.6204 70.4508 57.5868 63.3412 57.954 63.8696 58.282 64.3548 58.5908 64.8116 60.2328 67.2428 61.326 68.8608 64.8748 71.808ZM36.18724 50.5872C36.18724 39.76224 45.8864 37.79756 55.0684 37.79756L55.0688 41.2228C55.0744 45.8748 55.0788 49.8236 52.6924 54.0168 50.674 57.5896 47.4764 59.7864 43.904 59.7864 39.02732 59.7864 36.18724 56.0708 36.18724 50.5872Z" class="hierarchical-1:primary "/><path d="M2.610216 73.0448C18.38284 82.6612 42.7972 97.546 81.7108 79.0268 83.3876 78.3268 84.5596 79.4956 82.9 81.6144 81.2296 83.7508 67.8744 96 45.426 96 22.99276 96 5.8064 80.6736 0.5622 74.3148-0.874232 72.6652 0.781336 71.92 1.7554 72.524L2.610216 73.0448Z" class="hierarchical-1:primary "/><path d="M82.9664 71.6552C86.3688 71.2372 91.7748 71.4956 92.8388 72.8812 93.6476 73.936 92.8116 78.678 91.4416 82.0772 90.062 85.458 88.006 87.8472 86.8704 88.7696 85.7192 89.6924 84.872 89.3352 85.4848 87.9496 86.1192 86.564 89.5932 77.9724 88.2164 76.1688 86.9412 74.502 81.1564 75.1052 78.4688 75.3856L77.9236 75.442C77.356 75.4928 76.8984 75.544 76.528 75.5852 75.3708 75.7144 75.0616 75.7488 74.8888 75.394 74.444 74.1436 79.5588 72.0612 82.9664 71.6552Z" class="hierarchical-1:primary "/></g>
 </g>
</svg>